<svg width="1846" height="1523" viewBox="0 0 1846 1523" fill="none" xmlns="http://www.w3.org/2000/svg">
<path d="M742.5 382.567V420.935C742.5 425.75 739.936 430.2 735.771 432.614L702.771 451.747C698.583 454.175 693.416 454.175 689.228 451.747L656.649 432.858L656.228 432.614C652.064 430.2 649.5 425.75 649.5 420.935V382.567C649.5 377.753 652.064 373.303 656.228 370.888L689.228 351.755C693.416 349.327 698.583 349.327 702.771 351.755L734.244 370.003L735.771 370.888C739.936 373.303 742.5 377.753 742.5 382.567Z" stroke="#6DD16B" stroke-linecap="round"/>
<path d="M1844.5 37.8916V78.6108C1844.5 83.4243 1841.94 87.8737 1837.77 90.2887L1802.77 110.589C1798.58 113.018 1793.42 113.018 1789.23 110.589L1754.62 90.5189L1754.23 90.2887C1750.06 87.8737 1747.5 83.4243 1747.5 78.6108V37.8916C1747.5 33.0781 1750.06 28.6287 1754.23 26.2137L1789.23 5.91372C1793.42 3.48428 1798.58 3.48428 1802.77 5.91372L1836.2 25.301L1837.77 26.2137C1841.94 28.6287 1844.5 33.0781 1844.5 37.8916Z" stroke="#F4F4F4" stroke-width="3" stroke-linecap="round"/>
<path d="M1734.5 1400.11V1424.89C1734.5 1426.48 1733.65 1427.96 1732.28 1428.77L1711.28 1441.08C1709.87 1441.91 1708.13 1441.91 1706.72 1441.08L1687.35 1429.72L1685.72 1428.77C1684.35 1427.96 1683.5 1426.48 1683.5 1424.89V1400.11C1683.5 1398.52 1684.35 1397.04 1685.72 1396.23L1706.72 1383.92C1708.13 1383.09 1709.87 1383.09 1711.28 1383.92L1730.04 1394.92L1732.28 1396.23C1733.65 1397.04 1734.5 1398.52 1734.5 1400.11Z" stroke="#6DD16B" stroke-linecap="round"/>
<path d="M189.5 1457.37V1489.63C189.5 1494.43 186.946 1498.88 182.794 1501.29L155.294 1517.31C151.095 1519.75 145.905 1519.75 141.706 1517.31L113.445 1500.85C109.764 1498.71 107.5 1494.77 107.5 1490.51V1457.37C107.5 1452.57 110.054 1448.12 114.206 1445.71L141.706 1429.69C145.905 1427.25 151.095 1427.25 155.294 1429.69L182.554 1445.57L182.794 1445.71C186.946 1448.12 189.5 1452.57 189.5 1457.37Z" stroke="#F4F4F4" stroke-width="3" stroke-linecap="round"/>
<path d="M913.5 1175.37V1200.14C913.5 1201.73 912.654 1203.21 911.277 1204.02L890.277 1216.34C888.871 1217.16 887.129 1217.16 885.723 1216.34L866.346 1204.97L864.723 1204.02C863.346 1203.21 862.5 1201.73 862.5 1200.14V1175.37C862.5 1173.77 863.346 1172.29 864.723 1171.48L885.723 1159.17C887.129 1158.34 888.871 1158.34 890.277 1159.17L909.042 1170.17L911.277 1171.48C912.654 1172.29 913.5 1173.77 913.5 1175.37Z" stroke="#6DD16B" stroke-linecap="round"/>
<path d="M51.5 656.366V681.138C51.5 682.734 50.6539 684.211 49.2767 685.019L28.2767 697.337C26.8709 698.161 25.1291 698.161 23.7233 697.337L4.34593 685.971L2.72331 685.019C1.34606 684.211 0.5 682.734 0.5 681.138V656.366C0.5 654.769 1.34606 653.292 2.7233 652.484L23.7233 640.167C25.1291 639.342 26.8709 639.342 28.2767 640.167L47.0421 651.173L49.2767 652.484C50.6539 653.292 51.5 654.769 51.5 656.366Z" stroke="#6DD16B" stroke-linecap="round"/>
<path d="M171.5 1024.89V1065.61C171.5 1070.42 168.937 1074.87 164.773 1077.29L129.773 1097.59C125.585 1100.02 120.415 1100.02 116.227 1097.59L81.6237 1077.52L81.2268 1077.29C77.063 1074.87 74.5 1070.42 74.5 1065.61V1024.89C74.5 1020.08 77.063 1015.63 81.2268 1013.21L116.227 992.914C120.415 990.485 125.585 990.485 129.773 992.914L163.2 1012.3L164.773 1013.21C168.937 1015.63 171.5 1020.08 171.5 1024.89Z" stroke="#F4F4F4" stroke-width="3" stroke-linecap="round"/>
</svg>
