<svg width="22" height="48" viewBox="0 0 22 48" fill="none" xmlns="http://www.w3.org/2000/svg">
<path d="M16.8764 0.000320103C17.1388 0.00237336 17.4029 0.0152069 17.5523 0.0375874C18.6644 0.204476 19.64 0.672843 20.4224 1.41551C21.2713 2.22129 21.7881 3.22954 21.9712 4.4372C22.0141 4.72053 22.0079 5.5219 21.9605 5.81863C21.8655 6.41258 21.6516 7.04874 21.393 7.50632C21.356 7.57161 16.9636 15.0774 21.3717 7.55617L11.6781 24.1169L21.4009 40.7259C21.3342 40.5884 17.5533 34.1516 21.4009 40.7259C22.0095 41.9808 22.0675 43.4769 21.555 44.7653C21.371 45.2279 21.0697 45.7394 20.7555 46.1224C20.5495 46.3736 20.1054 46.797 19.858 46.978C19.0934 47.5373 18.2108 47.885 17.3006 47.9852C17.0336 48.0146 16.2102 47.9975 15.9705 47.9575C14.4626 47.7061 13.2499 46.9386 12.4311 45.7178C12.132 45.2718 0.165598 24.8525 0.0997791 24.6747C-0.0606232 24.2415 -0.0264778 23.7612 0.193874 23.3527C0.363661 23.0379 12.425 2.43716 12.5311 2.28088C12.8365 1.83071 13.3261 1.31464 13.7219 1.02543C14.4789 0.472364 15.2531 0.161782 16.2108 0.0269038C16.3535 0.00688454 16.6141 -0.00183582 16.8764 0.000320103Z" fill="url(#paint0_linear)"/>
<defs>
<linearGradient id="paint0_linear" x1="0.471173" y1="24.4827" x2="63.4888" y2="24.4827" gradientUnits="userSpaceOnUse">
<stop stop-color="#6DD16B"/>
<stop offset="1" stop-color="#005322"/>
</linearGradient>
</defs>
</svg>
