<svg width="169" height="54" viewBox="0 0 169 54" fill="none" xmlns="http://www.w3.org/2000/svg">
<path d="M17.9234 53.719C17.6279 53.6565 17.3569 53.5589 17.321 53.5021C17.2259 53.3512 16.9324 53.216 16.547 53.1455C16.361 53.1115 16.1594 53.0234 16.099 52.9496C16.0387 52.8759 15.766 52.7497 15.4931 52.6693C15.2202 52.5888 14.9329 52.4581 14.8546 52.3788C14.7764 52.2995 14.4761 52.1522 14.1872 52.0514C13.8983 51.9506 13.6157 51.8294 13.5592 51.7821C13.5027 51.7347 13.2688 51.6222 13.0395 51.5321C12.8101 51.442 12.5599 51.3149 12.4834 51.2497C12.407 51.1845 12.1568 51.0596 11.9274 50.9721C11.2952 50.7307 10.1482 50.1649 9.8994 49.9717C9.77785 49.8773 9.60649 49.8 9.51861 49.8C9.43072 49.8 9.12438 49.6731 8.83784 49.5181C8.55131 49.3631 8.26322 49.2362 8.19763 49.2362C8.13205 49.2362 7.92812 49.1327 7.74446 49.0061C7.56079 48.8796 7.29048 48.7473 7.14377 48.7121C6.99705 48.677 6.73106 48.572 6.55268 48.4787C6.37429 48.3855 5.87388 48.1327 5.44066 47.9169C3.58475 46.9924 2.39441 46.0251 1.62963 44.82C0.908396 43.6835 0.714581 43.3409 0.714581 43.2024C0.714581 43.0639 0.564681 42.6543 0.292208 42.0481C0.0810918 41.5785 0.0411518 41.2618 0.0067719 39.7853C-0.029239 38.2385 0.0777187 37.3832 0.343278 37.0941C0.439514 36.9894 0.539401 36.696 0.571381 36.4242C0.602675 36.1582 0.651761 35.7386 0.68046 35.4918C0.70916 35.245 0.794099 34.9807 0.869226 34.9045C0.944352 34.8284 0.971568 34.7654 0.929701 34.7646C0.887834 34.7639 0.899686 34.7321 0.956037 34.6941C1.01239 34.6562 1.12519 34.2213 1.2067 33.7278C1.28822 33.2344 1.41819 32.7069 1.49551 32.5558C1.57285 32.4047 1.65958 32.0896 1.68826 31.8557C1.7859 31.0594 1.94439 30.3498 2.02459 30.3498C2.0686 30.3498 2.09787 30.3181 2.08964 30.2793C2.08139 30.2406 2.12311 30.0898 2.18231 29.9444C2.2415 29.7989 2.28994 29.5839 2.28994 29.4667C2.28994 29.1323 2.49372 28.1887 2.56593 28.1887C2.63107 28.1887 2.73693 27.7364 2.93981 26.5916C2.99932 26.2559 3.09636 25.9509 3.15548 25.9138C3.21459 25.8768 3.26619 25.8132 3.27014 25.7726C3.27409 25.7319 3.30631 25.5295 3.34173 25.3228C3.37715 25.1161 3.45358 24.6616 3.51158 24.3127C3.56957 23.9639 3.64536 23.6785 3.67999 23.6785C3.77745 23.6785 3.94299 23.0327 4.00154 22.4241C4.03063 22.1218 4.14366 21.6778 4.25272 21.4375C4.36179 21.1972 4.50826 20.643 4.57821 20.2059C4.64817 19.7688 4.76333 19.346 4.83412 19.2662C4.90492 19.1865 5.01017 18.7697 5.06801 18.3399C5.17812 17.5217 5.24083 17.2749 5.35946 17.1926C5.39869 17.1655 5.52349 16.6581 5.6368 16.0651C5.75011 15.4721 5.86876 14.9658 5.90046 14.94C6.00121 14.8579 6.17267 14.1606 6.23299 13.5878C6.26505 13.2833 6.37196 12.8773 6.47057 12.6854C6.56919 12.4936 6.70752 11.9756 6.77797 11.5342C6.84843 11.0929 6.97023 10.6321 7.04863 10.5103C7.12704 10.3885 7.23683 9.9149 7.29263 9.45782C7.35837 8.9193 7.45689 8.53895 7.57254 8.37726C7.68106 8.22552 7.78489 7.85157 7.8375 7.42302C7.92371 6.72076 7.98058 6.54344 8.31966 5.91962C8.41798 5.73874 8.49849 5.47447 8.49857 5.33236C8.49866 5.16175 8.54748 5.07396 8.64224 5.07396C8.72119 5.07396 8.85723 4.9154 8.94457 4.7216C9.0319 4.5278 9.21752 4.24679 9.35704 4.09713C9.49657 3.94746 9.61073 3.74557 9.61073 3.64848C9.61073 3.54781 9.70786 3.4345 9.83676 3.38481C9.96108 3.33689 10.1074 3.21322 10.1618 3.11001C10.2163 3.0068 10.359 2.86736 10.4788 2.80014C10.7328 2.65772 11.412 2.16185 11.7336 1.88409C11.8564 1.77807 12.0115 1.69132 12.0784 1.69132C12.1452 1.69132 12.4201 1.58987 12.6892 1.46588C13.2989 1.18496 13.7184 1.0746 14.6611 0.947061C15.7518 0.799517 21.2826 0.78138 24.5303 0.914699C26.2525 0.985393 30.781 1.03128 36.1216 1.03215C40.9422 1.0329 44.9176 1.06524 44.9558 1.10393C44.994 1.14262 45.2824 1.22366 45.5968 1.28403C46.6946 1.49484 47.1702 1.66935 48.1144 2.20781C48.4202 2.38222 48.8059 2.59162 48.9715 2.67315C49.1372 2.75468 49.2727 2.87938 49.2727 2.95026C49.2727 3.02114 49.382 3.15171 49.5155 3.24042C49.649 3.32912 49.8888 3.55309 50.0483 3.73812C50.2079 3.92316 50.4739 4.20855 50.6396 4.37233C50.8052 4.53611 50.9407 4.70199 50.9407 4.74096C50.9407 4.77992 51.0658 4.99975 51.2187 5.22948C51.3717 5.4592 51.4973 5.69789 51.4979 5.7599C51.4986 5.8219 51.6237 6.12183 51.776 6.4264C51.9284 6.73096 52.0935 7.21722 52.143 7.50696C52.1924 7.79671 52.2947 8.32975 52.3703 8.69151C52.5173 9.39494 52.6273 11.5519 52.5061 11.353C52.4662 11.2875 52.4129 11.2548 52.3878 11.2803C52.3626 11.3058 52.2531 11.8754 52.1445 12.5461C52.0209 13.3087 51.8957 13.8057 51.8103 13.8729C51.7351 13.932 51.6532 14.1434 51.6281 14.3427C51.4811 15.5136 51.3573 16.1256 51.2505 16.2085C51.1839 16.2602 51.0867 16.5984 51.0345 16.9602C50.9822 17.3219 50.9133 17.7976 50.8812 18.0173C50.8471 18.2505 50.7731 18.4166 50.7031 18.4166C50.626 18.4166 50.5624 18.6088 50.5244 18.9569C50.4259 19.8588 50.2796 20.5229 50.1457 20.6765C50.0758 20.7567 49.9762 21.1161 49.9245 21.4752C49.7487 22.6936 49.7139 22.8328 49.5849 22.8328C49.5151 22.8328 49.4553 22.9068 49.4519 22.9973C49.4486 23.0877 49.3921 23.5422 49.3263 24.0074C49.2606 24.4725 49.2289 24.9132 49.2559 24.9868C49.2899 25.0796 49.2591 25.1027 49.1553 25.0624C48.9689 24.9898 48.8715 25.2922 48.7179 26.4202C48.6481 26.9327 48.5603 27.2538 48.4815 27.2844C48.4126 27.3112 48.3357 27.4728 48.3106 27.6435C48.2855 27.8141 48.2217 28.2498 48.1689 28.6115C48.1161 28.9733 47.9884 29.4367 47.8851 29.6415C47.7819 29.8462 47.6974 30.1246 47.6974 30.26C47.6974 30.6924 47.4895 31.613 47.3564 31.7701C47.2857 31.8536 47.1637 32.3585 47.0854 32.8922C46.9974 33.4908 46.8912 33.9007 46.808 33.9624C46.7233 34.0252 46.6183 34.446 46.5252 35.0954C46.4357 35.7202 46.3283 36.1573 46.2533 36.2015C46.1852 36.2417 46.1093 36.4108 46.0847 36.5774C46.0601 36.7439 45.9913 37.2171 45.9319 37.6289C45.8701 38.0581 45.7674 38.4197 45.6914 38.476C45.6118 38.535 45.5036 38.9472 45.4204 39.5085C45.3443 40.0222 45.2212 40.5108 45.1468 40.5941C45.0724 40.6775 44.9484 41.1129 44.8712 41.5619C44.7794 42.0957 44.6692 42.4406 44.5527 42.5587C44.4548 42.658 44.3461 42.9326 44.3111 43.1689C44.2696 43.4499 44.2015 43.5985 44.1144 43.5985C44.0411 43.5985 43.9221 43.7419 43.8499 43.9171C43.7777 44.0923 43.6026 44.3654 43.4608 44.5238C43.319 44.6823 43.0606 44.9851 42.8866 45.1968C42.5694 45.5827 41.7023 46.2984 41.2911 46.5138C41.1703 46.577 40.9882 46.7009 40.8862 46.789C40.7843 46.8771 40.5213 47.0011 40.3018 47.0645C40.0822 47.1279 39.8216 47.262 39.7226 47.3624C39.6155 47.471 39.4159 47.5449 39.2299 47.5449C38.85 47.5449 38.1967 47.7686 38.003 47.9649C37.9251 48.044 37.7704 48.1091 37.6594 48.1097C37.3427 48.1113 36.5857 48.3685 36.4284 48.528C36.3501 48.6074 36.1712 48.6724 36.0311 48.6724C35.6691 48.6724 34.904 48.9527 34.8457 49.1066C34.8187 49.1779 34.6712 49.2362 34.5178 49.2362C34.1327 49.2362 33.3338 49.5364 33.3338 49.6811C33.3338 49.7565 33.2025 49.8 32.9748 49.8C32.5345 49.8 31.8353 50.0399 31.7324 50.2263C31.6907 50.3019 31.5409 50.3638 31.3997 50.3638C31.0587 50.3638 30.3152 50.6252 30.1775 50.7934C30.1171 50.8672 29.9343 50.9275 29.7712 50.9275C29.375 50.9275 28.6055 51.1998 28.5443 51.3617C28.5173 51.433 28.3914 51.4913 28.2645 51.4913C27.9125 51.4913 27.0619 51.7649 26.9361 51.9185C26.8746 51.9936 26.6869 52.0551 26.519 52.0551C26.165 52.0551 25.3643 52.3785 25.3643 52.5216C25.3643 52.5751 25.2366 52.6189 25.0806 52.6189C24.6898 52.6189 23.8761 52.8999 23.8174 53.0552C23.7904 53.1265 23.6358 53.1826 23.4664 53.1826C23.095 53.1826 22.4202 53.4159 22.1957 53.6219C22.0571 53.7491 21.7335 53.7792 20.245 53.8034C19.098 53.8221 18.2687 53.7919 17.9234 53.719V53.719ZM21.085 48.7862C21.2819 48.6821 21.7072 48.5283 22.0301 48.4444C22.353 48.3606 22.6679 48.2493 22.7299 48.1971C22.7919 48.1449 23.1493 48.0161 23.5243 47.9107C23.8992 47.8054 24.2687 47.6618 24.3453 47.5915C24.4219 47.5212 24.795 47.3921 25.1743 47.3047C25.5537 47.2172 25.9178 47.0911 25.9835 47.0245C26.0492 46.9578 26.3151 46.8572 26.5744 46.8008C26.8336 46.7444 27.2617 46.5973 27.5256 46.4739C27.7895 46.3505 28.2347 46.1963 28.515 46.1313C28.7954 46.0662 29.1122 45.9554 29.2191 45.8849C29.326 45.8145 29.6583 45.6921 29.9577 45.6131C30.2571 45.534 30.5658 45.4111 30.6437 45.3399C30.7216 45.2687 30.9105 45.1837 31.0634 45.1509C31.8052 44.9918 32.1876 44.8752 32.3144 44.7693C32.3909 44.7055 32.6737 44.6063 32.943 44.549C33.2123 44.4917 33.5876 44.365 33.777 44.2674C33.9665 44.1698 34.3925 44.0142 34.7238 43.9217C35.0551 43.8291 35.4096 43.7035 35.5115 43.6425C35.6134 43.5815 35.9887 43.4568 36.3455 43.3654C36.7023 43.2739 37.0379 43.1445 37.0914 43.0777C37.1449 43.011 37.3534 42.926 37.5548 42.889C37.9642 42.8137 38.4305 42.5991 38.4305 42.4859C38.4305 42.4451 38.5765 42.3412 38.7549 42.255C38.9333 42.1687 39.0792 42.0369 39.0792 41.962C39.0792 41.8871 39.1664 41.7978 39.273 41.7635C39.3796 41.7292 39.5261 41.5572 39.5986 41.3813C39.6711 41.2054 39.7704 41.0615 39.8194 41.0615C39.9363 41.0615 40.1912 40.5571 40.1912 40.3258C40.1912 40.2261 40.291 39.9175 40.4129 39.6399C40.5348 39.3624 40.6609 38.8513 40.6932 38.5042C40.727 38.1404 40.844 37.6827 40.9695 37.4236C41.0893 37.1764 41.2126 36.7109 41.2436 36.3891C41.2746 36.0674 41.4049 35.5421 41.5333 35.2219C41.6616 34.9017 41.7671 34.5095 41.7677 34.3505C41.769 34.0105 41.9705 33.2027 42.1289 32.9026C42.19 32.7868 42.3019 32.304 42.3776 31.8296C42.4533 31.3552 42.5657 30.9346 42.6274 30.8948C42.6891 30.855 42.7073 30.8218 42.6677 30.8211C42.6282 30.8203 42.6595 30.6949 42.7372 30.5424C42.815 30.3899 42.8786 30.1127 42.8786 29.9263C42.8786 29.5219 43.0584 28.7524 43.1528 28.7524C43.2196 28.7524 43.3245 28.3067 43.5285 27.1554C43.588 26.8197 43.6687 26.5237 43.7078 26.4977C43.782 26.4483 43.9067 25.9219 44.0821 24.9176C44.139 24.5914 44.2668 24.1779 44.3661 23.9986C44.4654 23.8194 44.5466 23.5627 44.5466 23.4281C44.5466 23.0546 44.7555 21.9872 44.8286 21.9872C44.914 21.9872 45.0784 21.316 45.1494 20.6779C45.1807 20.3971 45.2913 19.978 45.3952 19.7467C45.4991 19.5153 45.6227 19.0474 45.6698 18.7069C45.7719 17.9685 45.8085 17.8269 46.0239 17.336C46.1146 17.1293 46.2106 16.7064 46.2372 16.3963C46.2638 16.0862 46.3947 15.5695 46.5281 15.2481C46.6615 14.9267 46.7709 14.5251 46.7712 14.3556C46.7719 13.9906 46.9126 13.4184 47.1091 12.9822C47.1867 12.8099 47.2892 12.387 47.3368 12.0426C47.4417 11.2842 47.5049 11.0616 47.6403 10.9729C47.7063 10.9297 47.74 10.5634 47.7334 9.96115C47.7255 9.23175 47.6888 8.97865 47.5723 8.84812C47.4894 8.7552 47.3946 8.53396 47.3617 8.35647C47.3288 8.17899 47.1954 7.88578 47.0653 7.7049C46.7513 7.26823 45.8283 6.39262 45.6801 6.39084C45.6155 6.39011 45.3615 6.28284 45.1158 6.15256L44.669 5.91569L37.1234 5.85542C30.164 5.79984 29.5657 5.8073 29.4237 5.95135C29.3389 6.03726 29.2056 6.10754 29.1273 6.10754C28.9288 6.10754 28.8215 6.34907 28.6965 7.07737C28.6239 7.49991 28.5464 7.7049 28.4592 7.7049C28.388 7.7049 28.329 7.73661 28.328 7.77537C28.3271 7.81413 28.2662 8.24691 28.1926 8.7371C28.1009 9.3484 28.0096 9.6649 27.9019 9.74468C27.7252 9.87574 27.6021 10.496 27.5939 11.2972C27.5872 11.9492 27.4855 11.9111 29.3954 11.9733C30.1599 11.9982 31.0773 12.0625 31.4341 12.1163C31.7909 12.17 32.4372 12.2511 32.8704 12.2965C33.6603 12.3793 35.6573 12.9741 35.9285 13.2073C36.0049 13.2731 36.2551 13.4003 36.4845 13.49C36.7139 13.5797 36.9849 13.7264 37.0868 13.8159C37.1888 13.9055 37.366 14.0076 37.4807 14.0429C37.5954 14.0782 37.6892 14.1676 37.6892 14.2416C37.6892 14.3156 37.729 14.3762 37.7777 14.3762C37.898 14.3762 38.8939 15.3693 38.8939 15.4893C38.8939 15.542 38.9731 15.6106 39.07 15.6417C39.1669 15.6729 39.2701 15.7951 39.2993 15.9133C39.3286 16.0316 39.4536 16.2793 39.5771 16.4639C39.7007 16.6484 39.8725 17.047 39.9589 17.3496C40.0454 17.6522 40.1628 17.9573 40.2198 18.0276C40.3587 18.1987 40.4364 20.2025 40.3663 21.8051C40.3183 22.9035 40.2817 23.1349 40.1238 23.3384C40.0117 23.4829 39.9132 23.7992 39.8757 24.1352C39.8316 24.5306 39.7499 24.7619 39.5944 24.9321C39.4738 25.064 39.3471 25.3406 39.3127 25.5467C39.2723 25.7892 39.1739 25.9722 39.0338 26.0653C38.9147 26.1444 38.7895 26.3374 38.7556 26.4942C38.7216 26.651 38.6354 26.7792 38.5641 26.7792C38.4927 26.7792 38.3518 26.9432 38.251 27.1435C38.1502 27.3438 38.0008 27.5338 37.9189 27.5657C37.8371 27.5975 37.7879 27.6556 37.8097 27.6947C37.8315 27.7338 37.6626 27.9138 37.4344 28.0947C37.2062 28.2756 36.881 28.561 36.7119 28.729C36.5427 28.8969 36.3399 29.0343 36.2612 29.0343C36.1825 29.0343 36.0531 29.135 35.9736 29.258C35.8868 29.3923 35.6587 29.53 35.4027 29.6027C35.1505 29.6743 34.9596 29.7886 34.9353 29.8826C34.9084 29.9871 34.72 30.0809 34.3839 30.1572C34.1032 30.2209 33.8053 30.3537 33.722 30.4524C33.6382 30.5516 33.4517 30.6317 33.3043 30.6317C32.9557 30.6317 32.0685 30.8951 31.9207 31.0424C31.8038 31.1589 30.0241 31.3834 29.2178 31.3834C28.9786 31.3834 28.6079 31.4612 28.3941 31.5562C28.0432 31.7122 27.8214 31.7236 26.1133 31.6733C24.7253 31.6325 24.2109 31.5864 24.1827 31.5005C24.1557 31.4183 23.8904 31.3834 23.2935 31.3834C22.5003 31.3834 22.4367 31.3977 22.3514 31.5948C22.2949 31.7255 22.1626 31.8176 22.0051 31.836C21.6757 31.8744 21.6048 32.0232 21.4698 32.959C21.3917 33.5009 21.3198 33.7325 21.2299 33.7325C21.1593 33.7325 21.1014 33.7642 21.1012 33.8029C21.0989 34.2399 20.7889 35.6812 20.6792 35.765C20.5984 35.8268 20.4801 36.2204 20.3968 36.7046C20.3142 37.1845 20.1991 37.5689 20.1252 37.6109C20.0547 37.6511 19.976 37.8202 19.9503 37.9868C19.7375 39.3647 19.6711 39.6521 19.5651 39.6521C19.4407 39.6521 19.386 39.8589 19.2918 40.6857C19.2594 40.9699 19.1321 41.4025 19.0089 41.647C18.8857 41.8916 18.7849 42.2005 18.7849 42.3336C18.7849 42.7145 18.5871 43.4415 18.435 43.6199C18.3588 43.7092 18.2386 44.1532 18.1678 44.6065C18.0895 45.1074 17.9835 45.473 17.8976 45.5385C17.8161 45.6006 17.7162 45.919 17.6618 46.2902C17.6099 46.6444 17.4858 47.0501 17.3862 47.1918C17.1634 47.5087 17.1991 48.0813 17.4534 48.2712C17.7199 48.4702 18.7108 48.9396 18.9702 48.9897C19.5047 49.093 20.727 48.9754 21.085 48.7862V48.7862ZM10.6764 44.7918C10.6764 44.7298 10.7702 44.6655 10.8849 44.649C10.9996 44.6325 11.0935 44.6114 11.0935 44.602C11.0961 44.2636 11.4101 42.9592 11.5182 42.8381C11.6073 42.7383 11.6999 42.3894 11.7452 41.9829C11.8273 41.2456 11.9061 40.9573 12.0528 40.8578C12.1037 40.8233 12.1575 40.7176 12.1724 40.6229C12.3367 39.5743 12.4888 38.8606 12.5577 38.8151C12.6784 38.7353 12.829 38.1826 12.8885 37.6017C12.9166 37.3267 13.0425 36.8827 13.1682 36.6151C13.2939 36.3475 13.4246 35.8647 13.4587 35.5423C13.4964 35.1867 13.5906 34.8661 13.6985 34.727C13.8089 34.5847 13.909 34.236 13.9627 33.8067C14.0539 33.0772 14.1338 32.7806 14.2627 32.692C14.3388 32.6397 14.401 32.4338 14.4878 31.9472C14.672 30.915 14.7482 30.6204 14.8544 30.5311C14.9215 30.4746 15.0021 30.231 15.0335 29.9898C15.1392 29.1775 15.2761 28.5645 15.3519 28.5645C15.4464 28.5645 15.511 28.3333 15.6764 27.404C15.7487 26.9982 15.8695 26.5965 15.945 26.5113C16.0518 26.3908 16.2828 25.2299 16.2828 24.8136C16.2828 24.7736 16.3613 24.6491 16.4571 24.5371C16.5638 24.4123 16.6717 24.0584 16.7354 23.6243C16.7926 23.2343 16.9277 22.7187 17.0356 22.4786C17.1434 22.2385 17.268 21.7492 17.3123 21.3912C17.3566 21.0332 17.4347 20.6893 17.4857 20.6269C17.5368 20.5645 17.5511 20.4856 17.5176 20.4516C17.4841 20.4176 17.5004 20.3898 17.5539 20.3898C17.6075 20.3898 17.674 20.2947 17.7017 20.1784C17.7294 20.0621 17.8207 19.6921 17.9045 19.3562C18.086 18.6292 18.0919 18.3095 17.9302 17.9674L17.8098 17.7129L14.2533 17.7366L10.6968 17.7602L10.4983 17.9945C10.3892 18.1233 10.2505 18.2287 10.1902 18.2287C10.0212 18.2287 9.9206 18.4941 9.79836 19.2623C9.73668 19.6499 9.62561 20.0154 9.55154 20.0745C9.46854 20.1407 9.36078 20.5734 9.27073 21.202C9.18255 21.8176 9.07548 22.251 9.00072 22.2951C8.93258 22.3353 8.85682 22.5044 8.83236 22.671C8.61982 24.1181 8.54299 24.4897 8.43945 24.5711C8.37376 24.6228 8.25278 25.1302 8.17058 25.6987C8.07676 26.3476 7.97345 26.7594 7.89298 26.8053C7.82249 26.8455 7.74523 27.0146 7.72128 27.1811C7.54307 28.4208 7.43751 28.9038 7.32675 28.9862C7.21995 29.0656 6.92335 30.6017 6.92335 31.0754C6.92335 31.1475 6.88453 31.1822 6.83709 31.1525C6.70003 31.0666 6.65798 31.2048 6.50603 32.2405C6.41952 32.8302 6.31048 33.2557 6.23019 33.317C6.14898 33.379 6.03912 33.8169 5.94736 34.4445C5.86314 35.0206 5.73705 35.5385 5.65996 35.6251C5.58442 35.71 5.46123 36.1962 5.38621 36.7057C5.27765 37.4429 5.20922 37.6633 5.05092 37.7857C4.86666 37.9282 4.84911 38.043 4.81238 39.3454C4.77831 40.5538 4.79557 40.7961 4.93533 41.0708C5.2444 41.6783 6.01274 42.6342 6.44408 42.9479C6.96601 43.3274 8.07683 43.921 8.42921 44.0085C8.56937 44.0434 8.68405 44.1069 8.68405 44.1498C8.68405 44.1926 8.86128 44.3013 9.07789 44.3913C9.2945 44.4813 9.70108 44.6758 9.9814 44.8235C10.4785 45.0854 10.6764 45.0764 10.6764 44.7918L10.6764 44.7918ZM28.7869 25.8486C29.2901 25.7882 29.7246 25.6853 29.8108 25.6062C29.8932 25.5306 30.1364 25.4058 30.3513 25.3289C31.3515 24.9711 32.8665 23.3228 32.8727 22.5857C32.8739 22.4374 32.9186 22.1258 32.9719 21.8932C33.0428 21.5836 33.037 21.2709 32.9502 20.7255C32.8534 20.1172 32.769 19.8959 32.4897 19.519C32.1209 19.0214 31.5335 18.5602 31.3861 18.6525C31.336 18.6839 31.2951 18.6448 31.2951 18.5657C31.2951 18.3799 30.4631 18.1327 29.9199 18.1572C29.6237 18.1705 29.4944 18.1329 29.429 18.0143C29.3503 17.8718 29.1591 17.8538 27.7692 17.8578C26.546 17.8614 26.1983 17.8894 26.1983 17.9843C26.1983 18.0514 26.037 18.1705 25.8397 18.249C25.4966 18.3857 25.4766 18.4174 25.3786 18.9816C25.3223 19.3059 25.207 19.6488 25.1224 19.7435C25.0345 19.8421 24.9132 20.2671 24.8391 20.7361C24.7678 21.1872 24.6456 21.6281 24.5673 21.7157C24.4891 21.8033 24.3831 22.1857 24.3317 22.5653C24.2319 23.302 24.0911 23.7724 23.9704 23.7724C23.7874 23.7724 23.5697 25.7426 23.7343 25.9094C23.9245 26.1024 26.9798 26.0656 28.7869 25.8486H28.7869ZM19.7861 11.6054C20.0157 11.4095 20.3243 10.6094 20.247 10.4104C20.2328 10.3738 20.2951 10.2892 20.3853 10.2223C20.5011 10.1364 20.5732 9.89324 20.6303 9.39606C20.7163 8.64688 20.8577 8.17471 20.9959 8.17471C21.0423 8.17471 21.1101 7.93159 21.1465 7.63443C21.183 7.33727 21.2714 6.9186 21.3431 6.70404C21.4908 6.26204 21.4372 6.01358 21.1943 6.01358C21.1032 6.01358 21.0047 5.95016 20.9754 5.87264C20.9423 5.78526 20.9759 5.73169 21.0636 5.73169C21.1415 5.73169 21.1812 5.69229 21.1518 5.64413C21.1209 5.59346 20.9917 5.61411 20.8452 5.69316C20.6369 5.8055 20.2382 5.82039 18.5995 5.77703C17.5037 5.74804 16.4722 5.70302 16.3071 5.67698C15.7952 5.59622 14.6661 5.88762 14.1824 6.22535C13.6888 6.56999 13.1321 7.11183 13.1321 7.24764C13.1321 7.29735 13.0348 7.43114 12.916 7.54495C12.7756 7.67927 12.6616 7.94971 12.5909 8.31566C12.5311 8.62573 12.4172 8.92831 12.3379 8.98806C12.2024 9.0902 12.1268 9.43935 11.9341 10.8526C11.8683 11.3355 11.8814 11.4434 12.0258 11.6043C12.1884 11.7857 12.3229 11.7928 15.8617 11.8084L19.5292 11.8246L19.7861 11.6054ZM131.562 45.9087C131.078 45.8423 130.633 45.8058 130.574 45.8276C130.515 45.8494 130.44 45.7829 130.408 45.68C130.369 45.5533 130.179 45.439 129.821 45.3267C129.278 45.1562 128.908 44.9459 128.071 44.331C127.751 44.0959 127.576 44.0172 127.545 44.0941C127.52 44.1574 127.496 44.1104 127.492 43.9897C127.487 43.8367 127.402 43.7386 127.214 43.6664C127.019 43.592 126.927 43.4814 126.888 43.2752C126.859 43.1171 126.699 42.8149 126.534 42.6037C126.2 42.177 125.801 41.3316 125.629 40.6857C125.567 40.4531 125.46 40.1062 125.391 39.9148C125.202 39.3917 125.202 37.1694 125.39 36.7229C125.47 36.533 125.596 36.0256 125.67 35.5954C125.826 34.6891 125.887 34.5016 126.107 34.2619C126.195 34.1655 126.294 33.927 126.327 33.7319C126.359 33.5367 126.487 33.2805 126.611 33.1625C126.735 33.0445 126.836 32.9052 126.836 32.853C126.836 32.8007 127.003 32.5574 127.207 32.3122C127.411 32.0671 127.577 31.8379 127.577 31.8029C127.577 31.7679 127.682 31.6562 127.809 31.5545C127.937 31.4529 128.041 31.3072 128.041 31.2307C128.041 31.1543 128.164 31.0481 128.315 30.9948C128.466 30.9415 128.614 30.819 128.644 30.7226C128.674 30.6262 128.77 30.5235 128.856 30.4943C128.943 30.4652 129.18 30.2939 129.383 30.1137C129.587 29.9335 129.804 29.786 129.866 29.786C129.929 29.786 130.054 29.7084 130.145 29.6135C130.237 29.5186 130.499 29.3675 130.728 29.2778C130.958 29.1881 131.229 29.0612 131.331 28.9958C131.432 28.9304 131.808 28.8017 132.165 28.7097C132.521 28.6177 132.945 28.484 133.105 28.4126C133.266 28.3411 133.547 28.2826 133.729 28.2826C133.911 28.2826 134.353 28.2319 134.709 28.1699C135.424 28.0455 136.712 28.1584 137.678 28.4301C137.959 28.509 138.416 28.6368 138.695 28.7142C138.974 28.7915 139.266 28.9094 139.344 28.9761C139.422 29.0428 139.626 29.1541 139.799 29.2234C139.971 29.2927 140.221 29.4418 140.355 29.5548C140.488 29.6679 140.691 29.7901 140.806 29.8265C140.921 29.8629 141.014 29.9235 141.014 29.9612C141.014 29.9989 141.306 30.334 141.663 30.7059C142.02 31.0779 142.312 31.4438 142.312 31.5191C142.312 31.5943 142.37 31.6898 142.442 31.7311C142.514 31.7724 142.66 32.0571 142.766 32.3638C142.872 32.6705 143.003 32.9497 143.058 32.9842C143.114 33.0187 143.247 33.643 143.354 34.3714C143.462 35.0999 143.584 35.6745 143.626 35.6483C143.667 35.6221 143.702 35.7747 143.702 35.9875C143.702 36.2004 143.665 36.3512 143.619 36.3227C143.529 36.2665 143.47 36.5665 143.341 37.7258C143.217 38.8397 143.137 39.1917 142.995 39.2468C142.925 39.274 142.868 39.3711 142.868 39.4624C142.868 39.7215 142.603 40.4196 142.46 40.5348C142.39 40.5919 142.283 40.7969 142.222 40.9903C142.162 41.1837 142.061 41.374 141.999 41.4131C141.936 41.4523 141.784 41.6323 141.661 41.8132C141.538 41.9941 141.342 42.2473 141.225 42.376C141.109 42.5047 141.014 42.6584 141.014 42.7176C141.014 42.7768 140.917 42.8901 140.797 42.9695C140.678 43.0488 140.453 43.2334 140.298 43.3796C140.142 43.5258 139.842 43.7723 139.63 43.9274C139.417 44.0824 139.105 44.3255 138.935 44.4676C138.766 44.6098 138.566 44.726 138.491 44.726C138.416 44.726 138.182 44.8529 137.971 45.0079C137.76 45.163 137.481 45.2898 137.352 45.2898C137.065 45.2898 136.46 45.5366 136.365 45.692C136.224 45.9235 132.798 46.078 131.562 45.9087H131.562ZM134.892 42.1732C135.87 41.8486 136.584 41.3866 137.315 40.6044C137.718 40.172 138.049 39.7435 138.049 39.6521C138.049 39.5606 138.15 39.4183 138.275 39.3358C138.437 39.2281 138.518 39.0641 138.564 38.7537C138.599 38.5161 138.682 38.3008 138.747 38.2754C139.006 38.1748 139.1 37.652 139.107 36.2815C139.115 34.7477 139.069 34.5578 138.496 33.7628C137.988 33.0575 137.207 32.4469 136.581 32.2649C136.293 32.181 136.015 32.0792 135.964 32.0386C135.639 31.7801 134.353 31.8761 134.11 32.1769C134.059 32.2402 133.809 32.3204 133.554 32.355C133.3 32.3897 132.987 32.5028 132.859 32.6063C132.732 32.7098 132.526 32.8386 132.401 32.8925C131.879 33.1173 130.747 34.3793 130.476 35.0369C130.4 35.2202 130.278 35.4153 130.203 35.4703C130.129 35.5253 129.998 35.9389 129.912 36.3894C129.815 36.8968 129.711 37.2085 129.639 37.2087C129.411 37.2093 129.5 38.3787 129.795 39.2728C130.066 40.091 130.66 41.0612 130.89 41.0614C130.954 41.0615 131.006 41.1019 131.006 41.1512C131.006 41.3102 131.472 41.7192 131.653 41.7192C131.75 41.7192 131.856 41.7641 131.89 41.819C132.108 42.1775 134.152 42.4187 134.892 42.1732V42.1732ZM54.2462 45.8702C54.0204 45.8258 54.0406 45.1927 54.2776 44.8873C54.38 44.7553 54.4825 44.5276 54.5053 44.3813C54.6731 43.3066 54.7708 42.8468 54.8313 42.8468C54.9184 42.8468 55.0828 42.2006 55.1521 41.5859C55.1808 41.3317 55.3026 40.9059 55.4228 40.6397C55.543 40.3735 55.671 39.905 55.7073 39.5985C55.7437 39.2921 55.8745 38.8142 55.9981 38.5367C56.1217 38.2591 56.2228 37.9123 56.2228 37.7661C56.2228 37.3841 56.4104 36.5513 56.4965 36.5513C56.5796 36.5513 56.7424 35.9486 56.8224 35.3445C56.8521 35.12 56.9741 34.6972 57.0934 34.4049C57.2127 34.1126 57.3376 33.6255 57.3709 33.3226C57.4043 33.0197 57.5349 32.5427 57.6612 32.2627C57.7875 31.9828 57.8909 31.6513 57.8909 31.5262C57.8909 31.1416 58.0789 30.3842 58.2675 30.009C58.3662 29.8128 58.4469 29.5002 58.4469 29.3143C58.4469 28.8823 58.6064 28.676 58.9565 28.6551C59.1094 28.646 62.1025 28.6431 65.6078 28.6485L71.981 28.6585L72.0646 28.8813C72.1643 29.1473 72.0124 29.8776 71.8254 30.0313C71.7555 30.0887 71.6984 30.1821 71.6984 30.2388C71.6984 30.7045 70.7277 31.6886 70.1008 31.8585C69.8837 31.9173 69.6273 32.0504 69.531 32.1543C69.3605 32.3382 69.2643 32.3423 65.8873 32.3096C62.7487 32.2792 62.4105 32.2907 62.3336 32.43C62.2869 32.5146 62.1543 32.6082 62.0389 32.6379C61.7429 32.7141 61.6101 32.9795 61.5103 33.6944C61.4626 34.0362 61.3584 34.3887 61.2789 34.4778C61.072 34.7096 61.1001 35.0009 61.3564 35.2812L61.5785 35.5242L65.3816 35.5046C68.1494 35.4902 69.2198 35.5145 69.3138 35.5935C69.4157 35.6793 69.4246 35.8068 69.3562 36.1972C69.3086 36.4695 69.232 36.7557 69.1862 36.8332C69.1405 36.9107 68.9918 37.1644 68.8559 37.397C68.7199 37.6295 68.4023 37.9747 68.1501 38.1641C67.4837 38.6643 66.7983 38.741 63.5936 38.674C60.9562 38.6189 60.5328 38.6447 60.6128 38.8562C60.6636 38.9904 60.3645 39.3101 60.2739 39.2183C60.0991 39.041 59.7518 40.0198 59.7449 40.7091C59.7445 40.7479 59.6917 40.7796 59.6275 40.7796C59.4465 40.7796 59.2727 41.1321 59.3257 41.3915C59.352 41.5201 59.3939 41.7256 59.4187 41.8483C59.5079 42.289 59.7043 42.3061 64.2591 42.2698C66.5924 42.2512 68.5572 42.2726 68.6255 42.3173C68.7711 42.4125 68.6949 42.9971 68.5076 43.2226C68.4432 43.3002 68.3366 43.5661 68.2707 43.8137C68.2048 44.0612 68.0316 44.4159 67.8859 44.6018C67.7402 44.7877 67.621 44.9695 67.621 45.0059C67.621 45.0423 67.4021 45.1906 67.1345 45.3355C66.8669 45.4805 66.5844 45.6543 66.5066 45.7218C66.3942 45.8194 65.1408 45.8502 60.383 45.8725C57.0928 45.8879 54.3312 45.8869 54.2461 45.8702L54.2462 45.8702ZM104.46 45.866C103.884 45.813 103.799 45.7793 103.674 45.5531C103.545 45.3184 103.549 45.2789 103.736 45.0226C103.849 44.8677 103.986 44.4663 104.047 44.1116C104.107 43.7629 104.252 43.3342 104.369 43.159C104.486 42.9839 104.609 42.7151 104.643 42.5618C104.702 42.2889 104.899 42.1904 105.013 42.377C105.1 42.5204 105.737 42.4892 106.381 42.3102C106.861 42.1765 107.049 42.0587 107.492 41.613C107.785 41.3179 108.024 40.996 108.024 40.8975C108.024 40.799 108.128 40.6197 108.255 40.4991C108.381 40.3785 108.511 40.128 108.544 39.9424C108.576 39.7569 108.704 39.4954 108.827 39.3614C108.95 39.2273 109.075 38.9525 109.104 38.7506C109.134 38.5488 109.253 38.2356 109.368 38.0547C109.484 37.8738 109.606 37.5389 109.639 37.3103C109.672 37.0817 109.798 36.7012 109.919 36.4646C110.04 36.2281 110.183 35.7837 110.238 35.4772C110.293 35.1706 110.375 34.8958 110.419 34.8664C110.53 34.7929 110.684 34.2475 110.75 33.6945C110.78 33.441 110.905 33.0182 111.028 32.7548C111.151 32.4915 111.279 32.0012 111.312 31.6653C111.35 31.2796 111.456 30.9099 111.598 30.662C111.722 30.446 111.824 30.2065 111.824 30.1296C111.824 29.9681 112.362 29.3627 112.863 28.9606C113.165 28.7179 113.334 28.6692 114.253 28.5595C115.694 28.3875 124.704 28.37 124.905 28.5388C125.045 28.656 125.043 28.7048 124.838 29.9505C124.8 30.1856 124.722 30.3498 124.65 30.3498C124.583 30.3498 124.507 30.4872 124.481 30.6552C124.275 32.0006 124.215 32.276 124.108 32.3639C124.015 32.4405 123.685 34.0407 123.685 34.4178C123.685 34.4543 123.626 34.4842 123.554 34.4842C123.474 34.4842 123.404 34.6199 123.373 34.8365C123.17 36.2563 123.104 36.5513 122.99 36.5513C122.917 36.5513 122.845 36.7111 122.811 36.9507C122.631 38.2242 122.526 38.7125 122.429 38.7125C122.365 38.7125 122.258 39.1155 122.162 39.7226C122.06 40.3672 121.95 40.7738 121.858 40.8463C121.779 40.9088 121.702 41.113 121.687 41.3C121.635 41.9672 121.424 42.9893 121.32 43.0817C121.261 43.1334 121.143 43.5985 121.056 44.1153C120.97 44.6321 120.848 45.0972 120.786 45.1489C120.723 45.2006 120.623 45.3531 120.565 45.4879C120.493 45.6517 120.359 45.7529 120.16 45.7933C119.782 45.8699 116.707 45.8727 116.511 45.7966C116.299 45.7141 116.321 45.0538 116.549 44.6807C116.652 44.5114 116.777 44.0515 116.833 43.636C116.889 43.2278 116.986 42.8092 117.05 42.7059C117.191 42.4772 117.355 41.8357 117.433 41.2025C117.465 40.9441 117.57 40.5938 117.668 40.4241C117.765 40.2544 117.887 39.8444 117.94 39.5131C118.051 38.807 118.094 38.656 118.384 37.9608C118.437 37.8316 118.506 37.4785 118.537 37.1762C118.567 36.8739 118.678 36.4365 118.782 36.2043C118.886 35.972 119.008 35.5542 119.053 35.2757C119.098 34.9972 119.193 34.6312 119.264 34.4623C119.653 33.5424 119.781 32.6995 119.564 32.4794C119.47 32.3842 119.432 32.2516 119.468 32.1385C119.513 31.9948 119.473 31.9399 119.289 31.8931C119.159 31.86 118.937 31.8626 118.797 31.8989C118.657 31.9352 117.927 31.96 117.175 31.954C116.3 31.947 115.808 31.9776 115.808 32.0391C115.808 32.0919 115.861 32.1366 115.924 32.1384C116.151 32.145 115.572 32.4104 115.324 32.4137C115.124 32.4163 115.059 32.4719 115.014 32.6754C114.982 32.8175 114.919 33.0818 114.873 33.2626C114.828 33.4435 114.79 33.7091 114.79 33.8529C114.79 33.9966 114.729 34.1378 114.655 34.1666C114.577 34.1968 114.496 34.4041 114.463 34.6569C114.355 35.4852 114.196 36.1287 114.077 36.2225C114.012 36.2741 113.892 36.6735 113.81 37.1099C113.729 37.5464 113.607 37.948 113.539 38.0026C113.471 38.0571 113.349 38.3689 113.268 38.6954C113.188 39.0219 113.064 39.348 112.992 39.4201C112.921 39.4921 112.812 39.7747 112.75 40.0479C112.688 40.3212 112.541 40.6927 112.424 40.8736C112.306 41.0545 112.169 41.3583 112.119 41.5488C112.068 41.7394 111.938 41.9922 111.829 42.1107C111.72 42.2293 111.605 42.4328 111.574 42.563C111.543 42.6933 111.398 42.9469 111.253 43.1266C111.108 43.3063 110.99 43.4861 110.99 43.5261C110.99 43.5661 110.617 43.9717 110.162 44.4274C109.567 45.0232 109.229 45.2882 108.958 45.3706C108.75 45.4336 108.508 45.5638 108.418 45.66C108.276 45.8132 108.061 45.8404 106.681 45.8801C105.814 45.905 104.815 45.8986 104.46 45.866L104.46 45.866ZM75.3356 45.7923C75.1445 45.7125 75.2045 45.1483 75.4504 44.7122C75.5772 44.4872 75.6814 44.1634 75.682 43.9925C75.6831 43.6355 75.8674 42.8226 75.9628 42.7528C76.0669 42.6766 76.2202 42.0874 76.2833 41.5202C76.3156 41.2299 76.426 40.8335 76.5286 40.6394C76.6312 40.4454 76.7706 39.9392 76.8384 39.5145C76.9062 39.0899 77.0493 38.5682 77.1564 38.3553C77.2635 38.1424 77.3512 37.8251 77.3512 37.6502C77.3512 37.4753 77.4298 37.1037 77.526 36.8243C77.6221 36.545 77.7446 36.1896 77.7982 36.0345C77.8518 35.8795 77.946 35.4592 78.0076 35.1004C78.0693 34.7417 78.1936 34.3189 78.2839 34.1608C78.3742 34.0027 78.4767 33.5923 78.5118 33.2487C78.5714 32.6639 78.5627 32.6198 78.3764 32.5598C78.2281 32.5121 78.1926 32.4475 78.2368 32.3062C78.2888 32.14 78.2692 32.1264 78.0785 32.1963C77.9588 32.2402 76.9017 32.2761 75.7295 32.2761H73.5981L73.5688 31.9145C73.5507 31.6916 73.5918 31.4934 73.676 31.3977C73.8411 31.21 73.9777 30.6855 74.0591 29.927C74.1048 29.5002 74.1993 29.2439 74.4478 28.8721L74.776 28.381L81.9514 28.4023C88.2105 28.4209 89.1387 28.4416 89.2201 28.5645C89.3425 28.7495 89.2483 29.4965 89.0786 29.6866C89.0053 29.7687 88.9047 30.0195 88.8549 30.2441C88.7167 30.8678 88.074 31.5148 87.0978 32.0128C86.4912 32.3222 86.486 32.323 85.1128 32.323C83.6126 32.323 83.3931 32.3791 82.9892 32.8659C82.8221 33.0672 82.7359 33.3465 82.6415 33.9926C82.5724 34.4651 82.4746 34.843 82.424 34.8324C82.3054 34.8074 82.2196 35.1059 82.0791 36.032C82.0117 36.4765 81.8941 36.8733 81.7897 37.0078C81.693 37.1324 81.6139 37.3689 81.6139 37.5333C81.6139 38.0383 81.4198 38.9389 81.2758 39.102C81.2007 39.1871 81.0995 39.5417 81.0508 39.8901C80.9301 40.7544 80.8632 40.9984 80.7169 41.1085C80.6197 41.1817 80.3165 42.7227 80.3165 43.144C80.3165 43.1873 80.254 43.2227 80.1775 43.2227C80.1011 43.2227 80.0377 43.2755 80.0367 43.3401C80.0339 43.5035 79.8637 44.7187 79.8001 45.0272C79.7712 45.1669 79.6772 45.304 79.5911 45.3317C79.505 45.3594 79.3932 45.4776 79.3427 45.5943C79.252 45.804 79.2271 45.8068 77.3512 45.8237C76.3063 45.833 75.3993 45.8189 75.3356 45.7923H75.3356ZM83.5558 45.7925C83.3334 45.7315 83.4386 45.1384 83.7102 44.9218C83.8324 44.8243 83.9912 44.6021 84.0629 44.428C84.1346 44.2539 84.2802 44.0318 84.3863 43.9344C84.4925 43.837 84.5793 43.7069 84.5793 43.6453C84.5793 43.5837 84.7253 43.381 84.9036 43.1947C85.082 43.0085 85.228 42.7903 85.228 42.7099C85.228 42.6295 85.3322 42.4718 85.4596 42.3594C85.5871 42.2471 85.6913 42.0792 85.6913 41.9864C85.6913 41.8935 85.7958 41.7481 85.9235 41.6633C86.0512 41.5784 86.2328 41.3343 86.3271 41.1208C86.4213 40.9073 86.5879 40.6521 86.6972 40.5536C86.8065 40.4552 86.896 40.3015 86.896 40.2121C86.896 40.1227 87.0003 39.9803 87.1277 39.8956C87.2551 39.811 87.3593 39.6833 87.3593 39.6118C87.3593 39.5404 87.5053 39.3048 87.6837 39.0883C87.8621 38.8718 88.008 38.6516 88.008 38.599C88.008 38.5464 88.1144 38.3707 88.2445 38.2086C88.9583 37.3188 89.12 37.081 89.12 36.9216C89.12 36.8249 89.2035 36.7006 89.3055 36.6452C89.4076 36.5899 89.5514 36.3981 89.6251 36.2191C89.6989 36.0401 89.8022 35.8936 89.8548 35.8936C89.9073 35.8936 90.0405 35.7139 90.1508 35.4943C90.2612 35.2746 90.4288 35.0397 90.5234 34.9721C90.618 34.9046 90.6954 34.7737 90.6954 34.6812C90.6954 34.5887 90.8309 34.3667 90.9966 34.1878C91.2774 33.8845 91.434 33.6514 91.8235 32.9564C91.9089 32.8041 92.0652 32.6181 92.171 32.543C92.2769 32.4678 92.3634 32.3493 92.3634 32.2796C92.3634 32.2099 92.5094 31.9758 92.6878 31.7593C92.8661 31.5428 93.0121 31.2919 93.0121 31.2017C93.0121 31.1115 93.1163 30.9896 93.2438 30.9307C93.3712 30.8718 93.4754 30.7619 93.4754 30.6864C93.4754 30.5705 93.8326 30.079 94.3344 29.5042C94.6584 29.1331 95.2074 28.7434 95.5067 28.6721C95.6892 28.6286 96.047 28.5368 96.3018 28.468C96.943 28.2949 97.6363 28.2518 98.5447 28.3286C99.2732 28.3901 99.3254 28.4092 99.4545 28.6624C99.5299 28.8102 99.5915 29.0628 99.5915 29.2238C99.5915 29.3848 99.6334 29.5958 99.6845 29.6927C99.7357 29.7896 99.8214 30.3048 99.8749 30.8376C100.023 32.307 100.131 33.0058 100.22 33.0667C100.318 33.1332 100.518 34.7403 100.518 35.4607C100.518 36.0473 100.682 36.9272 100.792 36.9272C100.856 36.9272 100.957 37.7181 101.125 39.5541C101.155 39.8878 101.238 40.3015 101.309 40.4735C101.38 40.6454 101.504 41.5129 101.583 42.4012C101.678 43.457 101.777 44.0905 101.867 44.2306C102.016 44.4609 102.092 45.6044 101.967 45.7315C101.926 45.7728 100.983 45.8201 99.8716 45.8366C97.9137 45.8656 97.8442 45.8603 97.6675 45.6679C97.4622 45.4445 97.3695 44.8601 97.3683 43.7805C97.3672 43.1107 97.3512 43.054 97.0835 42.7939L96.7994 42.5179H93.6779C91.9611 42.5179 90.4402 42.5508 90.2983 42.591C90.1491 42.6333 90.0034 42.7622 89.9531 42.8964C89.9052 43.0242 89.8051 43.1287 89.7306 43.1287C89.6561 43.1287 89.5015 43.2978 89.3869 43.5045C89.2723 43.7113 89.1489 43.8804 89.1127 43.8804C89.0764 43.8804 88.9693 44.039 88.8747 44.2329C88.6905 44.6105 88.5541 44.7862 87.9399 45.4375L87.5475 45.8536L85.6232 45.8427C84.5649 45.8367 83.6345 45.8141 83.5558 45.7925V45.7925ZM96.3086 39.2983C96.3632 39.2603 96.4349 39.1553 96.4678 39.0648C96.5008 38.9744 96.5886 38.9004 96.6631 38.9004C96.9196 38.9004 96.9094 38.7001 96.5407 36.5043C96.4366 35.8842 96.3376 35.1134 96.3208 34.7915C96.304 34.4696 96.2603 34.1758 96.2237 34.1387C96.118 34.0315 95.5568 34.0773 95.2726 34.2162C95.0828 34.3089 94.9866 34.4501 94.9159 34.7392C94.8627 34.957 94.7517 35.1896 94.6693 35.256C94.5869 35.3224 94.4409 35.5235 94.345 35.7029C94.249 35.8822 94.0975 36.1121 94.0083 36.2139C93.9191 36.3156 93.8461 36.4483 93.8461 36.5088C93.8461 36.5693 93.7006 36.8045 93.5227 37.0314C93.3448 37.2583 93.1988 37.4905 93.1983 37.5475C93.1972 37.6044 93.0704 37.7858 92.915 37.9506C92.6661 38.2148 92.635 38.3083 92.6527 38.7398C92.6638 39.009 92.7179 39.2603 92.773 39.2983C92.828 39.3363 93.6237 39.3673 94.5411 39.3673C95.4585 39.3673 96.2539 39.3363 96.3086 39.2983V39.2983ZM144.171 45.7657C144.099 45.7189 144.027 45.6033 144.013 45.5087C143.961 45.1584 144.195 44.0169 144.358 43.8334C144.465 43.712 144.558 43.3754 144.618 42.8828C144.671 42.4544 144.792 41.9808 144.895 41.8022C144.999 41.62 145.114 41.1631 145.165 40.7316C145.213 40.3176 145.347 39.7679 145.464 39.5101C145.58 39.2523 145.729 38.7305 145.794 38.3505C145.86 37.9706 145.983 37.5104 146.069 37.3279C146.154 37.1453 146.26 36.7054 146.304 36.3503C146.348 35.9952 146.483 35.4829 146.605 35.2118C146.726 34.9408 146.878 34.3702 146.943 33.9439C147.007 33.5175 147.091 33.1687 147.13 33.1687C147.214 33.1687 147.378 32.5366 147.459 31.9002C147.492 31.6418 147.615 31.219 147.733 30.9606C147.851 30.7022 147.975 30.3551 148.009 30.1892C148.047 30.0016 148.279 29.6682 148.622 29.307C149.229 28.6681 149.301 28.6399 150.762 28.4719C151.492 28.3879 152.433 28.4604 152.583 28.6122C152.608 28.6376 152.632 28.8693 152.636 29.127C152.642 29.4792 152.612 29.5901 152.515 29.5734C152.421 29.5572 152.332 29.8161 152.19 30.5178C152.083 31.0495 151.949 31.5146 151.893 31.5514C151.837 31.5882 151.722 32.0348 151.638 32.5438C151.539 33.138 151.419 33.5546 151.3 33.7075C151.071 34.0025 151.03 34.954 151.246 34.954C151.319 34.954 151.399 34.9011 151.424 34.8365C151.452 34.7663 151.474 34.7853 151.478 34.8835C151.482 34.9739 151.559 35.0495 151.648 35.0514C151.737 35.0533 153.082 35.062 154.636 35.0708C157.234 35.0854 157.464 35.0738 157.492 34.9264C157.509 34.8382 157.601 34.766 157.696 34.766C157.92 34.766 157.957 34.6962 158.076 34.0452C158.13 33.7461 158.236 33.3815 158.311 33.2351C158.386 33.0887 158.505 32.6043 158.576 32.1588C158.655 31.6629 158.757 31.3192 158.839 31.2726C158.921 31.2261 158.998 30.968 159.037 30.6087C159.142 29.6425 159.261 29.2226 159.547 28.8002L159.819 28.3994L161.467 28.4272C162.374 28.4426 163.246 28.4576 163.405 28.4607C163.626 28.4649 163.708 28.5169 163.75 28.6798C163.824 28.964 163.716 29.6213 163.577 29.7391C163.515 29.7907 163.387 30.2669 163.291 30.7972C163.174 31.4413 163.08 31.7474 163.007 31.7191C162.939 31.6927 162.877 31.8249 162.841 32.0704C162.658 33.3251 162.558 33.7896 162.453 33.8734C162.349 33.9569 162.256 34.3717 162.079 35.5412C162.049 35.735 161.973 35.8936 161.909 35.8936C161.841 35.8936 161.769 36.0762 161.734 36.3399C161.609 37.2919 161.45 38.0117 161.346 38.1017C161.286 38.1534 161.169 38.6185 161.086 39.1353C160.997 39.6842 160.879 40.1169 160.802 40.1759C160.723 40.236 160.607 40.6736 160.516 41.2564C160.428 41.8183 160.311 42.266 160.242 42.3064C160.175 42.3451 160.07 42.6834 160.009 43.0581C159.826 44.1794 159.118 45.1288 158.256 45.4112C157.993 45.4973 157.714 45.6321 157.637 45.7107C157.527 45.8217 157.265 45.8533 156.46 45.8521C155.89 45.8514 155.376 45.8196 155.318 45.7817C155.259 45.7437 155.199 45.6069 155.185 45.4777C155.142 45.101 155.292 44.128 155.416 43.9743C155.56 43.7969 155.708 43.268 155.852 42.4254C155.913 42.0644 156.04 41.6416 156.133 41.4858C156.227 41.3299 156.305 41.0545 156.307 40.8736C156.309 40.6927 156.391 40.3122 156.49 40.0279C156.706 39.4039 156.709 39.3702 156.549 39.3702C156.479 39.3702 156.313 39.283 156.179 39.1765C155.943 38.9879 155.863 38.9841 153.153 39.0334C151.55 39.0625 150.295 39.1244 150.194 39.1794C150.097 39.2319 149.966 39.4337 149.903 39.6279C149.84 39.8221 149.734 40.0232 149.668 40.0749C149.601 40.1266 149.474 40.6023 149.385 41.132C149.277 41.7707 149.182 42.0951 149.103 42.0951C149.037 42.0951 148.983 42.1268 148.983 42.1656C148.98 42.6082 148.673 44.1374 148.563 44.2608C148.484 44.3488 148.397 44.5846 148.37 44.7849C148.292 45.3518 148.157 45.6321 147.907 45.7474C147.629 45.8759 144.368 45.8918 144.171 45.7657V45.7657ZM96.8618 42.9473C96.8325 42.8992 96.8465 42.836 96.8929 42.8069C96.9394 42.7777 97.0013 42.8171 97.0305 42.8943C97.0881 43.0466 96.9489 43.0902 96.8618 42.9473V42.9473ZM59.6516 42.0011C59.6516 41.9494 59.6932 41.9072 59.7442 41.9072C59.7952 41.9072 59.8369 41.9494 59.8369 42.0011C59.8369 42.0528 59.7952 42.0951 59.7442 42.0951C59.6932 42.0951 59.6516 42.0528 59.6516 42.0011ZM83.4759 23.9839C79.6467 23.9658 78.1202 23.9287 78.0281 23.8512C77.8619 23.7113 77.9543 23.0205 78.2071 22.5119C78.3077 22.3095 78.4306 21.8467 78.4802 21.4835C78.5299 21.1202 78.655 20.6551 78.7582 20.4499C78.8615 20.2447 78.9869 19.7775 79.0369 19.4118C79.0869 19.046 79.2284 18.531 79.3515 18.2672C79.4745 18.0035 79.5755 17.6438 79.5757 17.4679C79.5763 17.0687 79.7209 16.512 79.953 16.0144C80.051 15.8043 80.1315 15.5083 80.1317 15.3567C80.1323 15.0089 80.2816 14.439 80.4992 13.9534C80.5918 13.7467 80.6938 13.3297 80.7258 13.0267C80.7578 12.7238 80.8811 12.2587 80.9998 11.9932C81.1186 11.7276 81.2394 11.2704 81.2684 10.9771C81.2974 10.6839 81.4117 10.2399 81.5224 9.99054C81.6331 9.74119 81.7605 9.25153 81.8053 8.90241C81.8502 8.5533 81.9923 8.04182 82.1211 7.7658C82.2499 7.48978 82.3553 7.18134 82.3553 7.08038C82.3553 6.97943 82.4053 6.84609 82.4665 6.78407C82.5984 6.6503 95.6624 6.62055 95.8693 6.75355C96.0201 6.85048 95.9255 7.66947 95.7512 7.77679C95.6895 7.81477 95.5853 8.04422 95.5197 8.28668C95.3766 8.81557 94.4998 9.82009 94.0944 9.91955C93.9507 9.95482 93.7843 10.0629 93.7246 10.1598C93.6216 10.327 93.4344 10.3358 89.9857 10.3358C87.9889 10.3358 86.2892 10.3615 86.2086 10.3929C86.1279 10.4243 86.062 10.5062 86.062 10.575C86.062 10.6529 85.9666 10.6934 85.8091 10.6824C85.5638 10.6652 85.5531 10.6853 85.4538 11.3448C85.3913 11.7598 85.2833 12.1012 85.1765 12.2208C85.006 12.4119 84.8994 13.0695 84.9969 13.3297C85.0353 13.4322 85.0724 13.4346 85.1827 13.3417C85.3087 13.2357 85.3602 13.2766 85.3316 13.4601C85.3256 13.4988 85.3311 13.54 85.3438 13.5515C85.3566 13.563 87.1184 13.5947 89.259 13.6219L93.1511 13.6715L93.1752 14.0474C93.1885 14.2541 93.1403 14.5289 93.0681 14.6581C92.9959 14.7873 92.844 15.0763 92.7307 15.3004C92.3341 16.0842 91.2829 16.8192 90.5584 16.8192C90.4359 16.8192 90.3143 16.8544 90.2881 16.8973C90.2429 16.9715 85.2707 16.9499 85.1476 16.875C85.1154 16.8554 84.829 16.9273 84.5113 17.0348C83.8844 17.247 83.8225 17.3352 83.6898 18.2052C83.6564 18.4248 83.5993 18.6045 83.563 18.6045C83.4199 18.6045 83.282 19.111 83.282 19.6362C83.282 20.09 83.3124 20.199 83.4519 20.2439C83.5454 20.274 85.5366 20.2901 87.8768 20.2796C90.217 20.2692 92.2256 20.2926 92.3403 20.3316C92.594 20.4178 92.5997 20.5281 92.375 21.0064C92.2794 21.2099 92.1724 21.6172 92.1373 21.9114C92.0928 22.2838 92.038 22.4326 91.9569 22.4011C91.8914 22.3756 91.7624 22.5036 91.6618 22.6941C91.5632 22.8808 91.265 23.1795 90.9966 23.3605C90.729 23.5409 90.5101 23.7234 90.5101 23.766C90.5101 23.849 89.2184 24.0695 88.9541 24.0316C88.867 24.0191 86.4018 23.9976 83.4759 23.9839L83.4759 23.9839ZM112.472 23.9859C111.796 23.895 111.802 23.901 111.872 23.3792C111.908 23.1155 112.032 22.705 112.148 22.4669C112.264 22.2289 112.388 21.7805 112.423 21.4704C112.459 21.1603 112.585 20.6741 112.704 20.3898C112.823 20.1056 112.947 19.6197 112.978 19.3101C113.01 19.0005 113.138 18.5197 113.264 18.2417C113.389 17.9636 113.492 17.6332 113.492 17.5073C113.492 17.2232 113.685 16.4131 113.768 16.3495C113.852 16.2855 114.026 15.5596 114.096 14.987C114.127 14.7286 114.248 14.3269 114.365 14.0944C114.481 13.8618 114.605 13.4201 114.639 13.1129C114.674 12.8056 114.802 12.3193 114.924 12.0323C115.046 11.7452 115.166 11.2704 115.191 10.9772C115.217 10.6839 115.328 10.2399 115.439 9.99056C115.55 9.74121 115.677 9.25155 115.722 8.90243C115.767 8.55332 115.909 8.04185 116.038 7.76582C116.166 7.4898 116.272 7.18136 116.272 7.0804C116.272 6.97945 116.322 6.84611 116.383 6.78409C116.533 6.63165 129.442 6.62032 129.722 6.77239C129.881 6.85857 129.899 6.93114 129.845 7.26569C129.81 7.48143 129.729 7.72137 129.664 7.79889C129.6 7.87641 129.478 8.15444 129.394 8.41673C129.213 8.9808 128.458 9.82017 128.049 9.9112C127.902 9.94391 127.709 10.0528 127.619 10.1533C127.463 10.3283 127.302 10.3359 123.768 10.3359C120.699 10.3359 120.068 10.358 120.006 10.4678C119.966 10.5403 119.828 10.6143 119.701 10.6322C119.488 10.6621 119.459 10.7261 119.348 11.4098C119.273 11.8719 119.17 12.1969 119.078 12.2656C118.849 12.4349 118.844 13.2255 119.069 13.4542C119.239 13.6263 119.416 13.6335 123.097 13.6187C126.241 13.6061 126.97 13.6268 127.071 13.7314C127.166 13.8297 127.174 13.9685 127.106 14.3293C127.058 14.5877 126.976 14.8135 126.925 14.8312C126.873 14.8488 126.772 15.0078 126.699 15.1845C126.626 15.3612 126.356 15.7311 126.1 16.0065C125.71 16.4237 125.536 16.5347 125.053 16.6721C124.734 16.7627 124.398 16.8768 124.306 16.9256C124.122 17.0238 121.661 17.0143 119.932 16.9087C118.944 16.8483 118.782 16.8605 118.476 17.0179C118.287 17.1154 118.072 17.1951 117.997 17.1951C117.857 17.1951 117.717 17.5449 117.61 18.1582C117.576 18.352 117.522 18.5106 117.489 18.5106C117.254 18.5106 117.033 20.0236 117.242 20.1993C117.323 20.2673 118.732 20.2965 121.636 20.2903C124.996 20.2831 125.971 20.3077 126.188 20.4054C126.435 20.5159 126.578 20.7657 126.395 20.7657C126.298 20.7657 126.095 21.4568 126.095 21.7889C126.095 21.965 125.978 22.2045 125.77 22.457C125.592 22.6735 125.446 22.8817 125.446 22.9198C125.446 22.9578 125.248 23.1294 125.006 23.301C124.764 23.4726 124.512 23.6807 124.446 23.7632C124.338 23.8977 123.728 23.9142 118.601 23.9211C115.452 23.9254 112.837 23.9487 112.79 23.9729C112.743 23.9972 112.6 24.003 112.472 23.9859V23.9859ZM59.8137 23.8665C59.5949 23.727 59.6059 23.2588 59.8369 22.8799C59.9388 22.7126 60.0851 22.2003 60.162 21.7412C60.2388 21.2822 60.3797 20.7586 60.475 20.5778C60.5703 20.3969 60.6762 19.9853 60.7103 19.6632C60.7445 19.341 60.8706 18.8548 60.9905 18.5826C61.1105 18.3104 61.2379 17.8345 61.2736 17.525C61.3092 17.2154 61.4227 16.7948 61.5256 16.5902C61.6286 16.3856 61.7512 15.9045 61.7981 15.5211C61.8472 15.1199 61.9801 14.6306 62.1112 14.3683C62.2364 14.1177 62.3389 13.782 62.3389 13.6223C62.3389 13.3041 62.5219 12.4779 62.6089 12.403C62.7543 12.2781 62.8853 11.83 62.9329 11.2954C62.9618 10.9705 63.0855 10.4842 63.2078 10.2149C63.3301 9.9455 63.4566 9.47725 63.4889 9.17431C63.5212 8.87137 63.651 8.39443 63.7773 8.11445C63.9036 7.83447 64.007 7.50369 64.007 7.37939C64.007 7.25509 64.0476 7.04492 64.0973 6.91236L64.1877 6.67134H67.8908C71.2627 6.67134 71.6588 6.68784 72.3181 6.85575C73.5917 7.18014 74.3165 7.40356 74.3751 7.48989C74.4065 7.53609 74.5781 7.66515 74.7565 7.77668C74.9349 7.8882 75.202 8.08681 75.35 8.21804C75.4981 8.34926 75.6987 8.45662 75.7957 8.45662C75.8927 8.45662 75.9471 8.49766 75.9165 8.54782C75.8489 8.65875 76.0984 9.16996 76.271 9.27412C76.4213 9.36484 76.7025 10.1784 76.7025 10.5226C76.7025 10.6585 76.7637 10.8518 76.8386 10.9522C77.0388 11.2206 77.038 13.0444 76.8374 13.193C76.7517 13.2566 76.6582 13.5614 76.6037 13.9551C76.4948 14.7425 76.4393 14.94 76.327 14.94C76.2803 14.94 76.1405 15.1434 76.0163 15.3919C75.7538 15.9172 74.7464 17.0142 74.3326 17.2253C74.176 17.3053 73.9939 17.4366 73.928 17.5171C73.862 17.5977 73.6439 17.7084 73.4433 17.7632C73.2427 17.8179 72.9973 17.9451 72.8981 18.0457C72.7988 18.1464 72.6094 18.2287 72.4771 18.2287C72.133 18.2287 71.216 18.5082 71.0366 18.6677C70.9154 18.7756 70.3756 18.8124 68.3678 18.8499L65.851 18.8969L65.442 19.1892C65.0098 19.4981 64.958 19.6338 64.795 20.8831C64.763 21.1286 64.6994 21.3295 64.6538 21.3295C64.6081 21.3295 64.4857 21.6187 64.3819 21.9722C64.2781 22.3257 64.1106 22.6907 64.0097 22.7833C63.9088 22.8758 63.8028 23.0264 63.7742 23.1178C63.7456 23.2092 63.6226 23.3093 63.501 23.3403C63.3793 23.3712 63.1573 23.501 63.0077 23.6287C62.7528 23.8462 62.6482 23.8643 61.3557 23.9154C60.4233 23.9522 59.9232 23.9363 59.8136 23.8665H59.8137ZM69.6597 15.4133C69.94 15.3164 70.308 15.2085 70.4774 15.1735C70.6469 15.1386 70.9179 14.9943 71.0798 14.8529C71.2416 14.7115 71.448 14.5686 71.5383 14.5352C71.6287 14.5018 71.7286 14.3995 71.7604 14.3079C71.7923 14.2163 71.9107 14.0356 72.0237 13.9064C72.655 13.1848 72.5514 11.4401 71.8466 10.9244C71.6886 10.8088 71.3737 10.6233 71.1466 10.5122C70.341 10.1177 67.9461 10.1858 67.652 10.6115C67.5782 10.7183 67.4577 10.8057 67.3841 10.8057C67.3105 10.8057 67.2472 10.8374 67.2433 10.8761C67.2394 10.9149 67.2213 11.0312 67.2032 11.1345C67.185 11.2379 67.1206 11.6502 67.0599 12.0507C66.9868 12.5336 66.9086 12.7789 66.8277 12.7789C66.7524 12.7789 66.6825 12.9498 66.6452 13.2252C66.5523 13.9107 66.415 14.391 66.27 14.538C66.1152 14.695 66.1023 14.8124 66.231 14.893C66.282 14.925 66.3237 15.0479 66.3237 15.1661C66.3237 15.5004 66.6335 15.5805 67.9453 15.5851C68.8884 15.5885 69.2607 15.5511 69.6597 15.4133H69.6597ZM96.1789 23.8391C96.096 23.7378 96.0849 23.6363 96.144 23.5201C96.1916 23.4263 96.2597 23.1171 96.2952 22.8328C96.3307 22.5486 96.4582 22.0835 96.5785 21.7993C96.6988 21.515 96.8237 21.0536 96.8559 20.7738C96.8882 20.494 97.0109 20.0289 97.1287 19.7402C97.2466 19.4515 97.369 18.9782 97.4008 18.6884C97.4326 18.3986 97.5571 17.9335 97.6775 17.6548C97.7978 17.3761 97.924 16.902 97.9578 16.6012C97.9917 16.3004 98.1229 15.8049 98.2494 15.5C98.376 15.1951 98.4795 14.8182 98.4795 14.6623C98.4795 14.3264 98.6781 13.5306 98.7619 13.5306C98.8445 13.5306 99.0029 12.9405 99.1277 12.1682C99.1862 11.8065 99.2903 11.447 99.3592 11.3695C99.428 11.292 99.5324 10.872 99.591 10.4362C99.6497 10.0004 99.7831 9.47408 99.8875 9.26653C99.992 9.05897 100.116 8.57464 100.163 8.19024C100.251 7.47388 100.433 6.99418 100.695 6.79178C100.807 6.70482 102.167 6.67685 106.356 6.67536C109.389 6.6743 112.026 6.69961 112.218 6.73165C112.578 6.79212 112.66 6.94435 112.434 7.13484C112.361 7.1957 112.25 7.54003 112.187 7.90001C112.065 8.58974 111.966 8.75662 111.252 9.47682C110.329 10.4076 110.655 10.3359 107.352 10.3359C104.576 10.3359 104.431 10.3445 104.275 10.5201C104.184 10.6214 104.066 10.6954 104.013 10.6845C103.906 10.6629 103.687 11.2834 103.676 11.641C103.672 11.7645 103.609 11.9125 103.536 11.9698C103.458 12.0301 103.337 12.4709 103.248 13.0138C103.161 13.5389 103.04 13.9845 102.972 14.0239C102.906 14.0627 102.825 14.2741 102.793 14.4937C102.642 15.5404 102.507 16.1228 102.397 16.2085C102.331 16.2602 102.215 16.7205 102.139 17.2315C102.061 17.758 101.946 18.2058 101.873 18.2651C101.8 18.3247 101.683 18.784 101.601 19.3333C101.522 19.8633 101.398 20.3564 101.327 20.4289C101.255 20.5015 101.147 20.8697 101.085 21.2471C100.963 21.9993 100.592 22.6668 100.036 23.1382C99.1026 23.9285 99.2732 23.87 97.7189 23.9316C96.4937 23.9801 96.284 23.9675 96.1789 23.8391H96.1789ZM130.183 23.8804C130.074 23.8061 130.077 23.6613 130.199 22.9233C130.279 22.445 130.38 22.0282 130.424 21.997C130.533 21.92 130.707 21.2913 130.779 20.7187C130.812 20.4603 130.934 20.0163 131.05 19.7321C131.166 19.4479 131.291 18.9662 131.327 18.6618C131.364 18.3573 131.476 17.9472 131.577 17.7503C131.679 17.5534 131.803 17.084 131.855 16.7071C131.906 16.3302 132.049 15.8061 132.172 15.5424C132.295 15.2786 132.396 14.9401 132.397 14.79C132.398 14.4456 132.545 13.8749 132.76 13.3896C132.851 13.1829 132.952 12.749 132.984 12.4254C133.016 12.1017 133.129 11.665 133.234 11.4547C133.34 11.2445 133.482 10.7271 133.549 10.3049C133.617 9.88264 133.757 9.38919 133.861 9.20832C133.965 9.02744 134.079 8.67528 134.115 8.42575C134.165 8.07317 134.23 7.94916 134.402 7.86936C134.525 7.81288 134.649 7.66821 134.679 7.54787C134.711 7.41933 134.802 7.32907 134.901 7.32907C134.994 7.32907 135.187 7.22965 135.331 7.10813C135.475 6.98661 135.684 6.83861 135.796 6.77926C136.034 6.65222 138.492 6.63176 138.685 6.75522C138.84 6.85534 138.746 7.7354 138.562 7.88963C138.497 7.94474 138.369 8.40141 138.279 8.90445C138.189 9.40749 138.064 9.86164 138.002 9.91367C137.94 9.9657 137.823 10.4051 137.741 10.8902C137.635 11.5197 137.538 11.8231 137.403 11.9503C137.259 12.0869 137.215 12.2465 137.215 12.6349C137.215 13.4734 137.065 13.4368 140.488 13.4352C142.128 13.4344 143.523 13.3993 143.589 13.3572C143.654 13.3151 143.682 13.2134 143.651 13.1312C143.611 13.0248 143.657 12.9728 143.81 12.9508C143.99 12.925 144.049 12.825 144.163 12.3561C144.238 12.046 144.336 11.7664 144.379 11.7348C144.423 11.7032 144.451 11.6485 144.441 11.6133C144.432 11.5781 144.466 11.4348 144.518 11.2949C144.569 11.155 144.663 10.7129 144.726 10.3124C144.788 9.91186 144.868 9.58416 144.902 9.58416C144.975 9.58416 145.148 8.87721 145.231 8.24062C145.295 7.74596 145.657 6.8769 145.85 6.75277C145.992 6.66123 149.175 6.66385 149.586 6.75585C149.859 6.817 149.864 6.82807 149.845 7.36542C149.833 7.71161 149.777 7.95221 149.692 8.02023C149.566 8.12172 149.262 9.41455 149.262 9.85194C149.262 9.96306 149.204 10.054 149.133 10.054C149.05 10.054 148.983 10.2127 148.943 10.5003C148.817 11.4053 148.661 12.0767 148.556 12.1681C148.496 12.2198 148.377 12.7023 148.29 13.2402C148.204 13.7782 148.074 14.2781 148.002 14.351C147.931 14.4239 147.87 14.5335 147.868 14.5944C147.856 15.0267 147.582 16.1844 147.42 16.4914C147.311 16.696 147.223 16.9783 147.223 17.1186C147.223 17.535 147.026 18.3584 146.889 18.5168C146.819 18.5977 146.742 18.7879 146.718 18.9396C146.534 20.1088 146.437 20.5424 146.337 20.6439C146.273 20.7084 146.169 21.0688 146.106 21.4447C146.042 21.8206 145.919 22.2127 145.832 22.3161C145.745 22.4194 145.602 22.6328 145.513 22.7902C145.425 22.9476 145.2 23.1778 145.013 23.3018C144.827 23.4258 144.591 23.6014 144.488 23.6921C144.22 23.9294 141.49 24.0613 141.314 23.8455C141.167 23.6671 141.374 22.4709 141.644 21.9249C141.743 21.7266 141.853 21.2929 141.888 20.9612C141.924 20.6295 142.053 20.1592 142.174 19.9162C142.296 19.6731 142.405 19.2892 142.416 19.0629C142.428 18.8367 142.513 18.4683 142.606 18.2444C142.83 17.7055 142.825 17.477 142.59 17.477C142.488 17.477 142.404 17.4347 142.404 17.383C142.404 17.3314 142.448 17.2891 142.502 17.2891C142.556 17.2891 142.575 17.2468 142.543 17.1951C142.507 17.1356 141.399 17.1012 139.525 17.1012C136.679 17.1012 136.558 17.1084 136.406 17.2891C136.318 17.3924 136.196 17.477 136.134 17.477C136.072 17.477 135.994 17.6656 135.959 17.9013C135.924 18.1346 135.842 18.3566 135.777 18.3946C135.633 18.4784 135.344 19.9801 135.418 20.2634C135.459 20.4188 135.432 20.4624 135.302 20.4513C135.125 20.436 135.134 20.405 134.917 21.8223C134.863 22.1709 134.758 22.5187 134.683 22.5951C134.607 22.6715 134.518 22.938 134.484 23.1873C134.45 23.4366 134.387 23.6987 134.344 23.7698C134.282 23.8711 133.838 23.9065 132.288 23.9334C131.159 23.9531 130.256 23.9303 130.183 23.8804L130.183 23.8804ZM154.739 23.8825C154.554 23.7525 154.683 22.7319 154.954 22.1827C155.077 21.9345 155.194 21.4753 155.23 21.0981C155.27 20.6917 155.368 20.3224 155.49 20.1233C155.597 19.9469 155.738 19.4656 155.803 19.0537C155.868 18.6417 156.008 18.1189 156.113 17.8919C156.218 17.6648 156.304 17.3749 156.304 17.2477C156.304 16.911 156.494 16.0675 156.57 16.0675C156.646 16.0675 156.795 15.5169 156.951 14.662C157.011 14.3282 157.125 13.9294 157.204 13.7758C157.282 13.6222 157.379 13.2258 157.42 12.895C157.466 12.5159 157.607 12.0688 157.801 11.6858L158.108 11.078L157.924 10.7304L157.741 10.3828L155.378 10.3358L153.015 10.2889L153.022 9.66043C153.026 9.31479 153.079 8.97098 153.14 8.89641C153.273 8.73386 153.49 7.91983 153.576 7.25914C153.626 6.87996 153.68 6.77033 153.836 6.72765C154.11 6.6533 167.726 6.65706 168.43 6.73168L169 6.79205V7.15451C169 7.53271 168.884 7.6259 168.739 7.36388C168.632 7.16874 168.419 7.23691 168.391 7.47536C168.302 8.24214 168.212 8.61912 168.083 8.75107C168.001 8.83551 167.83 9.04055 167.703 9.20671C167.575 9.37288 167.242 9.68434 166.961 9.89885L166.452 10.2889L164.645 10.3358C163.121 10.3755 162.838 10.4049 162.837 10.5238C162.837 10.6018 162.754 10.6647 162.652 10.6647C162.328 10.6647 162.249 10.7931 162.13 11.5123C162.064 11.9112 161.968 12.2151 161.907 12.2151C161.843 12.2151 161.735 12.6351 161.635 13.2722C161.541 13.867 161.417 14.3601 161.351 14.3998C161.285 14.4386 161.206 14.65 161.174 14.8696C161.025 15.9026 160.889 16.4984 160.783 16.5843C160.72 16.636 160.598 17.1008 160.512 17.6171C160.423 18.1545 160.3 18.5974 160.225 18.6529C160.1 18.7459 159.888 19.8372 159.877 20.4459C159.874 20.6401 159.827 20.7339 159.737 20.7278C159.642 20.7213 159.56 20.9255 159.459 21.4264C159.376 21.8399 159.229 22.2466 159.106 22.4048C158.99 22.5536 158.872 22.7682 158.844 22.8816C158.816 22.9963 158.621 23.1831 158.406 23.3028C158.193 23.4211 157.934 23.5949 157.831 23.689C157.674 23.8322 157.416 23.8694 156.255 23.9166C155.42 23.9506 154.817 23.937 154.739 23.8825V23.8825Z" fill="white"/>
</svg>
