<svg width="50" height="58" viewBox="0 0 50 58" fill="none" xmlns="http://www.w3.org/2000/svg">
<path d="M48.5 19.7298V37.7397C48.5 40.7705 46.8863 43.5719 44.2646 45.0925L29.2646 53.7925C26.6273 55.3221 23.3727 55.3221 20.7354 53.7925L4.68812 44.4851C2.7147 43.3405 1.5 41.2317 1.5 38.9504V20.2603C1.5 17.2295 3.11372 14.4281 5.7354 12.9075L20.7354 4.20751C23.3727 2.67787 26.6273 2.67787 29.2646 4.20751L44.7235 13.1737C47.0611 14.5295 48.5 17.0274 48.5 19.7298Z" stroke="#F4F4F4" stroke-width="3" stroke-linecap="round"/>
<path d="M27.0879 41V30.0703H30.7752L31.3233 25.7909H27.0879V23.0652C27.0879 21.8303 27.432 20.9849 29.2043 20.9849H31.45V17.1696C30.3573 17.0525 29.259 16.9959 28.1601 17.0002C24.9009 17.0002 22.6632 18.9899 22.6632 22.6424V25.7829H19V30.0623H22.6712V41H27.0879Z" fill="white"/>
</svg>
