<svg width="50" height="58" viewBox="0 0 50 58" fill="none" xmlns="http://www.w3.org/2000/svg">
<g clip-path="url(#clip0)">
<path d="M37.6282 17.4614C37.5336 17.4614 37.43 17.4794 37.3308 17.5155L11.7396 27.2383C11.0188 27.5132 11.0368 28.5404 11.7667 28.7882L17.7004 30.7932L21.2778 37.9524C21.2778 37.9524 21.2778 37.9569 21.2823 37.9569L21.2913 37.9749H21.2958C21.3589 38.1056 21.494 38.1912 21.6382 38.1912C21.7238 38.1912 21.8094 38.1642 21.886 38.1011L25.2381 35.2581L21.494 32.4197L21.7869 36.1502L19.0971 30.5814L33.3976 21.994L21.494 32.4242L30.7573 39.4572C31.0682 39.6915 31.4241 39.7997 31.7711 39.7997C32.5055 39.7997 33.2128 39.3176 33.4111 38.5201L38.4257 18.4842C38.5609 17.9435 38.1373 17.4614 37.6282 17.4614Z" fill="white"/>
<path d="M48.5 18.7298V36.7397C48.5 39.7705 46.8863 42.5719 44.2646 44.0925L29.2646 52.7925C26.6273 54.3221 23.3727 54.3221 20.7354 52.7925L4.68812 43.4851C2.7147 42.3405 1.5 40.2317 1.5 37.9504V19.2603C1.5 16.2295 3.11372 13.4281 5.7354 11.9075L20.7354 3.20751C23.3727 1.67787 26.6273 1.67787 29.2646 3.20751L44.7235 12.1737C47.0611 13.5295 48.5 16.0274 48.5 18.7298Z" stroke="#F4F4F4" stroke-width="3" stroke-linecap="round"/>
</g>
<defs>
<clipPath id="clip0">
<rect width="50" height="58" fill="white"/>
</clipPath>
</defs>
</svg>
