<svg width="306" height="95" viewBox="0 0 306 95" fill="none" xmlns="http://www.w3.org/2000/svg">
<path d="M32.453 94.7126C31.918 94.6011 31.4272 94.4268 31.3623 94.3253C31.1901 94.0559 30.6586 93.8144 29.9608 93.6886C29.624 93.6279 29.259 93.4704 29.1498 93.3388C29.0405 93.2071 28.5467 92.9818 28.0526 92.8381C27.5584 92.6945 27.0382 92.4611 26.8966 92.3194C26.755 92.1778 26.2111 91.9147 25.6881 91.7348C25.165 91.5548 24.6533 91.3384 24.551 91.2538C24.4487 91.1693 24.0252 90.9684 23.6099 90.8074C23.1946 90.6465 22.7416 90.4196 22.6032 90.3032C22.4647 90.1868 22.0117 89.9637 21.5964 89.8074C20.4516 89.3765 18.3748 88.3661 17.9244 88.021C17.7043 87.8524 17.394 87.7144 17.2349 87.7144C17.0757 87.7144 16.5211 87.4879 16.0022 87.211C15.4834 86.9342 14.9618 86.7077 14.8431 86.7077C14.7243 86.7077 14.3551 86.5228 14.0225 86.2968C13.69 86.0708 13.2005 85.8346 12.9349 85.7718C12.6692 85.7091 12.1876 85.5215 11.8646 85.355C11.5416 85.1886 10.6356 84.7371 9.85113 84.3517C6.49074 82.7008 4.33543 80.9735 2.9507 78.8216C1.64479 76.7921 1.29386 76.1803 1.29386 75.933C1.29386 75.6857 1.02244 74.9542 0.529088 73.8718C0.146829 73.0331 0.0745115 72.4676 0.0122615 69.831C-0.0529416 67.0689 0.140721 65.5415 0.621556 65.0254C0.795806 64.8383 0.976667 64.3145 1.03457 63.829C1.09123 63.3541 1.18011 62.6048 1.23208 62.1641C1.28404 61.7233 1.43784 61.2514 1.57386 61.1154C1.70989 60.9794 1.75917 60.8669 1.68336 60.8655C1.60756 60.8642 1.62902 60.8074 1.73105 60.7396C1.83308 60.6718 2.03733 59.8954 2.18492 59.0142C2.33253 58.1329 2.56785 57.1911 2.70785 56.9212C2.84788 56.6514 3.00493 56.0888 3.05686 55.671C3.23364 54.2491 3.52061 52.9819 3.66583 52.9819C3.74552 52.9819 3.7985 52.9253 3.7836 52.8561C3.76867 52.7869 3.84421 52.5177 3.95139 52.2579C4.05858 51.9981 4.14628 51.6143 4.14628 51.405C4.14628 50.8078 4.51525 49.1228 4.64601 49.1228C4.76395 49.1228 4.95563 48.3152 5.32298 46.2709C5.43071 45.6714 5.60642 45.1267 5.71347 45.0605C5.8205 44.9944 5.91393 44.8809 5.92108 44.8083C5.92823 44.7357 5.98657 44.3743 6.0507 44.0052C6.11484 43.6361 6.25323 42.8244 6.35824 42.2014C6.46325 41.5785 6.60048 41.0689 6.66319 41.0689C6.83964 41.0689 7.13937 39.9157 7.2454 38.8289C7.29806 38.2891 7.50273 37.4963 7.7002 37.0671C7.89768 36.638 8.16288 35.6483 8.28954 34.8678C8.41621 34.0873 8.62472 33.3322 8.75291 33.1899C8.8811 33.0475 9.07167 32.3032 9.17639 31.5357C9.37577 30.0747 9.48932 29.6338 9.70411 29.487C9.77514 29.4384 10.0011 28.5324 10.2063 27.4735C10.4114 26.4147 10.6263 25.5106 10.6837 25.4644C10.8661 25.3178 11.1766 24.0727 11.2858 23.0497C11.3438 22.5061 11.5374 21.781 11.7159 21.4384C11.8945 21.0959 12.145 20.1708 12.2725 19.3827C12.4001 18.5946 12.6207 17.7718 12.7626 17.5543C12.9046 17.3368 13.1034 16.491 13.2044 15.6748C13.3234 14.7132 13.5018 14.034 13.7112 13.7452C13.9077 13.4743 14.0957 12.8065 14.191 12.0412C14.3471 10.7872 14.45 10.4706 15.064 9.3566C15.242 9.03361 15.3878 8.5617 15.3879 8.30792C15.3881 8.00326 15.4765 7.84649 15.6481 7.84649C15.791 7.84649 16.0374 7.56335 16.1955 7.21728C16.3536 6.87122 16.6897 6.36941 16.9423 6.10215C17.195 5.83489 17.4017 5.47437 17.4017 5.30099C17.4017 5.12123 17.5776 4.91889 17.8109 4.83016C18.036 4.74458 18.3009 4.52376 18.3996 4.33945C18.4982 4.15514 18.7565 3.90614 18.9735 3.7861C19.4334 3.53179 20.6632 2.6463 21.2455 2.15031C21.4677 1.96097 21.7486 1.80606 21.8697 1.80606C21.9908 1.80606 22.4885 1.62491 22.9757 1.40351C24.0796 0.901853 24.8391 0.704779 26.5462 0.477034C28.5211 0.213562 38.5353 0.181175 44.4158 0.419244C47.534 0.545484 55.7337 0.627426 65.4035 0.628981C74.1321 0.630321 81.3302 0.688063 81.3993 0.757154C81.4683 0.826243 81.9906 0.970967 82.5598 1.07876C84.5477 1.45521 85.4088 1.76684 87.1183 2.72837C87.672 3.03982 88.3704 3.41375 88.6704 3.55934C88.9703 3.70493 89.2157 3.92761 89.2157 4.05418C89.2157 4.18075 89.4135 4.41391 89.6552 4.57231C89.897 4.73071 90.3311 5.13065 90.62 5.46107C90.9089 5.79149 91.3907 6.30113 91.6906 6.59359C91.9905 6.88605 92.2359 7.18227 92.2359 7.25185C92.2359 7.32143 92.4624 7.71399 92.7393 8.12421C93.0161 8.53442 93.2436 8.96065 93.2448 9.07138C93.246 9.18211 93.4725 9.71769 93.7483 10.2616C94.0241 10.8054 94.3231 11.6737 94.4127 12.1911C94.5023 12.7085 94.6875 13.6604 94.8243 14.3064C95.0904 15.5625 95.2897 19.4142 95.0702 19.0591C94.9979 18.9421 94.9015 18.8837 94.8559 18.9293C94.8104 18.9748 94.6122 19.992 94.4154 21.1896C94.1917 22.5514 93.965 23.4389 93.8103 23.5589C93.6742 23.6645 93.5258 24.042 93.4805 24.3979C93.2144 26.4887 92.9901 27.5816 92.7968 27.7296C92.6763 27.8219 92.5002 28.4259 92.4056 29.0719C92.311 29.7179 92.1861 30.5673 92.1281 30.9595C92.0664 31.3761 91.9323 31.6726 91.8057 31.6726C91.666 31.6726 91.5509 32.0158 91.482 32.6374C91.3037 34.2481 91.0389 35.4339 90.7963 35.7083C90.6698 35.8515 90.4895 36.4933 90.3958 37.1345C90.0776 39.3101 90.0146 39.5588 89.781 39.5588C89.6546 39.5588 89.5463 39.6909 89.5402 39.8524C89.5341 40.0139 89.4318 40.8256 89.3128 41.6561C89.1938 42.4867 89.1364 43.2737 89.1852 43.4051C89.2468 43.5709 89.1911 43.6122 89.0031 43.5401C88.6656 43.4105 88.4892 43.9505 88.2111 45.9648C88.0847 46.8799 87.9257 47.4533 87.7831 47.508C87.6584 47.5559 87.5191 47.8444 87.4736 48.1492C87.4281 48.4539 87.3127 49.2318 87.2171 49.8778C87.1215 50.5238 86.8903 51.3515 86.7033 51.717C86.5163 52.0826 86.3633 52.5797 86.3633 52.8216C86.3633 53.5936 85.9869 55.2376 85.746 55.5181C85.618 55.6672 85.3971 56.5689 85.2551 57.5218C85.0959 58.5909 84.9036 59.3229 84.753 59.433C84.5996 59.5452 84.4094 60.2966 84.2409 61.4562C84.0789 62.572 83.8843 63.3525 83.7486 63.4314C83.6253 63.5031 83.4879 63.8052 83.4433 64.1026C83.3987 64.4 83.2742 65.245 83.1667 65.9804C83.0547 66.7467 82.8688 67.3924 82.7312 67.493C82.587 67.5984 82.3911 68.3345 82.2405 69.3367C82.1027 70.2542 81.8798 71.1266 81.7451 71.2754C81.6105 71.4242 81.3859 72.2018 81.2461 73.0035C81.0799 73.9567 80.8803 74.5727 80.6695 74.7835C80.4921 74.9609 80.2952 75.4512 80.232 75.8731C80.1567 76.375 80.0335 76.6403 79.8757 76.6403C79.7431 76.6403 79.5276 76.8963 79.3968 77.2093C79.2661 77.5222 78.949 78.0097 78.6923 78.2927C78.4355 78.5756 77.9677 79.1164 77.6526 79.4944C77.0783 80.1835 75.5084 81.4615 74.7637 81.8462C74.5451 81.9591 74.2153 82.1802 74.0307 82.3376C73.8461 82.495 73.3699 82.7164 72.9724 82.8296C72.5749 82.9429 72.103 83.1822 71.9237 83.3615C71.7298 83.5555 71.3685 83.6875 71.0316 83.6875C70.3437 83.6875 69.1609 84.0869 68.8102 84.4375C68.6691 84.5787 68.3891 84.695 68.188 84.696C67.6146 84.6989 66.2439 85.1582 65.9592 85.4429C65.8173 85.5848 65.4935 85.7009 65.2397 85.7009C64.5843 85.7009 63.1989 86.2014 63.0934 86.4762C63.0446 86.6035 62.7774 86.7077 62.4997 86.7077C61.8023 86.7077 60.3558 87.2437 60.3558 87.5021C60.3558 87.6368 60.1182 87.7144 59.7058 87.7144C58.9086 87.7144 57.6426 88.1429 57.4563 88.4757C57.3808 88.6107 57.1096 88.7212 56.8538 88.7212C56.2365 88.7212 54.8903 89.1879 54.6408 89.4884C54.5315 89.6201 54.2005 89.7279 53.9053 89.7279C53.1878 89.7279 51.7946 90.2141 51.6837 90.5032C51.6349 90.6305 51.4069 90.7346 51.1772 90.7346C50.5397 90.7346 48.9996 91.2231 48.7719 91.4975C48.6605 91.6316 48.3207 91.7414 48.0167 91.7414C47.3756 91.7414 45.9259 92.319 45.9259 92.5744C45.9259 92.6699 45.6947 92.7481 45.4121 92.7481C44.7047 92.7481 43.2313 93.25 43.125 93.5272C43.0761 93.6546 42.7962 93.7548 42.4894 93.7548C41.817 93.7548 40.5951 94.1714 40.1886 94.5393C39.9377 94.7664 39.3518 94.8201 36.6567 94.8634C34.5797 94.8967 33.0782 94.8429 32.453 94.7126ZM38.1776 85.904C38.5342 85.7181 39.3042 85.4436 39.8888 85.2938C40.4734 85.144 41.0436 84.9453 41.1558 84.8521C41.2681 84.7589 41.9154 84.5288 42.5943 84.3408C43.2731 84.1527 43.9421 83.8961 44.0808 83.7706C44.2196 83.6452 44.8951 83.4147 45.5819 83.2585C46.2688 83.1022 46.9281 82.8771 47.047 82.7581C47.166 82.6391 47.6475 82.4594 48.1169 82.3587C48.5864 82.2581 49.3614 81.9954 49.8392 81.775C50.317 81.5546 51.1232 81.2792 51.6308 81.1631C52.1383 81.047 52.712 80.849 52.9055 80.7232C53.0991 80.5974 53.7009 80.3789 54.2429 80.2377C54.785 80.0966 55.3439 79.8771 55.485 79.75C55.6262 79.6229 55.9681 79.471 56.245 79.4124C57.5882 79.1284 58.2805 78.9202 58.5102 78.7311C58.6486 78.6171 59.1607 78.44 59.6483 78.3377C60.1358 78.2353 60.8154 78.009 61.1584 77.8347C61.5014 77.6605 62.2728 77.3827 62.8727 77.2174C63.4725 77.0521 64.1143 76.8278 64.2989 76.7189C64.4835 76.61 65.163 76.3873 65.809 76.224C66.455 76.0608 67.0628 75.8296 67.1597 75.7104C67.2565 75.5911 67.6341 75.4395 67.9986 75.3734C68.74 75.2389 69.5843 74.8556 69.5843 74.6536C69.5843 74.5808 69.8485 74.3951 70.1715 74.2411C70.4945 74.0871 70.7588 73.8517 70.7588 73.718C70.7588 73.5843 70.9167 73.4248 71.1097 73.3635C71.3027 73.3023 71.568 72.9952 71.6992 72.6811C71.8305 72.367 72.0104 72.11 72.0991 72.11C72.3107 72.11 72.7723 71.2093 72.7723 70.7963C72.7723 70.6183 72.9529 70.0671 73.1737 69.5714C73.3944 69.0758 73.6228 68.1631 73.6811 67.5433C73.7423 66.8936 73.9542 66.0765 74.1815 65.6137C74.3983 65.1723 74.6216 64.341 74.6778 63.7665C74.7339 63.1919 74.9699 62.2539 75.2022 61.6821C75.4346 61.1103 75.6256 60.41 75.6267 60.126C75.629 59.5188 75.9939 58.0764 76.2808 57.5405C76.3914 57.3338 76.594 56.4716 76.731 55.6245C76.868 54.7774 77.0716 54.0262 77.1833 53.9552C77.2951 53.8841 77.3279 53.8249 77.2564 53.8235C77.1848 53.8222 77.2414 53.5981 77.3822 53.3259C77.523 53.0536 77.6382 52.5585 77.6382 52.2256C77.6382 51.5035 77.9636 50.1295 78.1347 50.1295C78.2556 50.1295 78.4455 49.3335 78.8149 47.2776C78.9226 46.6781 79.0687 46.1496 79.1395 46.1031C79.274 46.0149 79.4997 45.075 79.8172 43.2816C79.9203 42.6991 80.1518 41.9606 80.3316 41.6406C80.5113 41.3205 80.6584 40.862 80.6584 40.6217C80.6584 39.9548 81.0366 38.0487 81.169 38.0487C81.3235 38.0487 81.6213 36.8501 81.7498 35.7107C81.8064 35.2092 82.0067 34.4609 82.1949 34.0478C82.3831 33.6346 82.6068 32.7991 82.692 32.191C82.8769 30.8725 82.9431 30.6196 83.3332 29.7431C83.4975 29.3739 83.6713 28.6188 83.7194 28.065C83.7676 27.5111 84.0046 26.5885 84.2462 26.0146C84.4877 25.4407 84.6858 24.7235 84.6863 24.4208C84.6875 23.7691 84.9423 22.7472 85.298 21.9684C85.4387 21.6606 85.6242 20.9055 85.7105 20.2905C85.9004 18.9362 86.0147 18.5387 86.26 18.3803C86.3794 18.3032 86.4404 17.649 86.4285 16.5736C86.4142 15.2711 86.3478 14.8192 86.1369 14.5861C85.9867 14.4201 85.8151 14.0251 85.7555 13.7081C85.6959 13.3912 85.4544 12.8676 85.2189 12.5446C84.6503 11.7648 82.979 10.2012 82.7107 10.1981C82.5937 10.1968 82.1339 10.0052 81.689 9.77257L80.88 9.34959L67.2175 9.24197C54.6165 9.14272 53.5332 9.15603 53.276 9.41327C53.1226 9.56667 52.8811 9.69218 52.7393 9.69218C52.38 9.69218 52.1857 10.1235 51.9593 11.424C51.8279 12.1785 51.6875 12.5446 51.5297 12.5446C51.4007 12.5446 51.2938 12.6012 51.2922 12.6705C51.2905 12.7397 51.1802 13.5125 51.047 14.3878C50.8808 15.4794 50.7155 16.0446 50.5207 16.1871C50.2006 16.4211 49.9778 17.5288 49.9629 18.9594C49.9508 20.1238 49.7666 20.0556 53.2248 20.1667C54.6091 20.2112 56.2702 20.3261 56.9162 20.422C57.5621 20.5179 58.7325 20.6628 59.5169 20.7439C60.9471 20.8917 64.563 21.9538 65.054 22.3703C65.1924 22.4878 65.6454 22.7149 66.0607 22.8751C66.476 23.0353 66.9668 23.2973 67.1513 23.4572C67.3359 23.6171 67.6568 23.7995 67.8644 23.8624C68.0721 23.9254 68.242 24.0851 68.242 24.2173C68.242 24.3495 68.3141 24.4577 68.4023 24.4577C68.6201 24.4577 70.4232 26.2311 70.4232 26.4453C70.4232 26.5394 70.5667 26.6619 70.7421 26.7175C70.9175 26.7732 71.1044 26.9915 71.1574 27.2025C71.2103 27.4136 71.4367 27.856 71.6604 28.1856C71.884 28.5152 72.1951 29.227 72.3516 29.7673C72.5082 30.3077 72.7207 30.8525 72.8241 30.9781C73.0755 31.2836 73.2162 34.8618 73.0893 37.7236C73.0024 39.6849 72.9361 40.0982 72.6502 40.4616C72.4472 40.7197 72.2689 41.2845 72.201 41.8844C72.1211 42.5904 71.9733 43.0035 71.6916 43.3075C71.4733 43.543 71.2438 44.0369 71.1816 44.4049C71.1085 44.838 70.9302 45.1648 70.6766 45.331C70.461 45.4722 70.2343 45.8169 70.1728 46.0969C70.1113 46.3769 69.9553 46.6059 69.826 46.6059C69.6968 46.6059 69.4418 46.8986 69.2593 47.2564C69.0768 47.6141 68.8062 47.9534 68.658 48.0103C68.5097 48.0671 68.4208 48.1708 68.4602 48.2407C68.4997 48.3106 68.1939 48.632 67.7807 48.955C67.3674 49.278 66.7787 49.7876 66.4724 50.0876C66.1661 50.3875 65.7989 50.6329 65.6564 50.6329C65.5139 50.6329 65.2795 50.8126 65.1356 51.0323C64.9784 51.2721 64.5655 51.518 64.1019 51.6478C63.6453 51.7756 63.2996 51.9799 63.2557 52.1476C63.2069 52.3343 62.8659 52.5018 62.2573 52.638C61.7489 52.7518 61.2096 52.9889 61.0588 53.1651C60.9071 53.3423 60.5693 53.4853 60.3024 53.4853C59.6713 53.4853 58.0648 53.9556 57.7972 54.2187C57.5856 54.4267 54.3632 54.8276 52.9032 54.8276C52.4701 54.8276 51.799 54.9665 51.4118 55.1362C50.7764 55.4148 50.3748 55.4352 47.282 55.3454C44.7689 55.2724 43.8375 55.1902 43.7864 55.0368C43.7375 54.89 43.2571 54.8276 42.1765 54.8276C40.7401 54.8276 40.6251 54.8531 40.4706 55.2052C40.3682 55.4385 40.1287 55.603 39.8435 55.6358C39.2471 55.7044 39.1187 55.9701 38.8743 57.6413C38.7328 58.6089 38.6028 59.0224 38.44 59.0224C38.3122 59.0224 38.2073 59.079 38.2069 59.1482C38.2027 59.9286 37.6415 62.5022 37.4429 62.652C37.2965 62.7623 37.0823 63.4651 36.9314 64.3299C36.782 65.1868 36.5735 65.8732 36.4398 65.9483C36.3121 66.02 36.1695 66.322 36.123 66.6194C35.7378 69.0799 35.6174 69.5931 35.4255 69.5931C35.2003 69.5931 35.1013 69.9625 34.9307 71.4388C34.872 71.9464 34.6415 72.7189 34.4184 73.1556C34.1954 73.5922 34.0129 74.144 34.0129 74.3816C34.0129 75.0617 33.6547 76.36 33.3793 76.6785C33.2414 76.838 33.0237 77.6308 32.8955 78.4403C32.7538 79.3348 32.5619 79.9877 32.4063 80.1046C32.2588 80.2156 32.0779 80.7841 31.9793 81.447C31.8853 82.0794 31.6607 82.8039 31.4803 83.057C31.077 83.6228 31.1415 84.6453 31.602 84.9844C32.0846 85.3398 33.8788 86.178 34.3484 86.2675C35.3163 86.452 37.5293 86.2419 38.1776 85.904ZM19.3313 78.7712C19.3313 78.6605 19.5011 78.5457 19.7088 78.5163C19.9164 78.4868 20.0864 78.449 20.0865 78.4324C20.0911 77.828 20.6596 75.4988 20.8554 75.2825C21.0168 75.1042 21.1844 74.4812 21.2664 73.7554C21.4151 72.4386 21.5578 71.9238 21.8234 71.7462C21.9156 71.6846 22.013 71.4959 22.0399 71.3268C22.3374 69.4542 22.6129 68.1798 22.7377 68.0985C22.9561 67.9561 23.2289 66.9691 23.3365 65.9317C23.3874 65.4407 23.6154 64.6479 23.843 64.1699C24.0706 63.692 24.3073 62.83 24.3691 62.2543C24.4372 61.6192 24.6079 61.0467 24.8032 60.7984C25.0032 60.5442 25.1844 59.9215 25.2816 59.155C25.4468 57.8523 25.5913 57.3226 25.8248 57.1644C25.9625 57.0711 26.0751 56.7034 26.2324 55.8344C26.5658 53.9911 26.7039 53.4652 26.8961 53.3056C27.0176 53.2048 27.1635 52.7698 27.2204 52.339C27.4117 50.8885 27.6597 49.7939 27.797 49.7939C27.968 49.7939 28.0851 49.3811 28.3846 47.7215C28.5153 46.997 28.7342 46.2797 28.8709 46.1275C29.0643 45.9123 29.4825 43.8392 29.4825 43.0959C29.4825 43.0244 29.6245 42.8022 29.7981 42.6021C29.9913 42.3793 30.1867 41.7473 30.302 40.972C30.4056 40.2756 30.6501 39.355 30.8455 38.9263C31.0408 38.4975 31.2663 37.6236 31.3466 36.9844C31.4268 36.3451 31.5681 35.731 31.6606 35.6196C31.753 35.5082 31.779 35.3674 31.7183 35.3066C31.6576 35.2459 31.6872 35.1962 31.7841 35.1962C31.881 35.1962 32.0014 35.0263 32.0516 34.8187C32.1018 34.6111 32.2671 33.9504 32.4189 33.3505C32.7474 32.0523 32.758 31.4814 32.4652 30.8705L32.2474 30.416L25.8078 30.4583L19.3682 30.5006L19.0088 30.9188C18.8111 31.1489 18.5601 31.3371 18.4509 31.3371C18.1449 31.3371 17.9627 31.8111 17.7414 33.1828C17.6297 33.8749 17.4286 34.5276 17.2945 34.6331C17.1442 34.7514 16.9491 35.5241 16.7861 36.6466C16.6264 37.7459 16.4325 38.5198 16.2972 38.5985C16.1738 38.6703 16.0366 38.9723 15.9923 39.2697C15.6075 41.8538 15.4684 42.5174 15.2809 42.6629C15.162 42.7552 14.9429 43.6612 14.7941 44.6764C14.6242 45.8352 14.4371 46.5706 14.2914 46.6525C14.1638 46.7242 14.0239 47.0262 13.9805 47.3236C13.6579 49.5372 13.4667 50.3997 13.2662 50.5468C13.0728 50.6887 12.5358 53.4317 12.5358 54.2776C12.5358 54.4064 12.4655 54.4684 12.3796 54.4153C12.1314 54.262 12.0553 54.5087 11.7802 56.3582C11.6235 57.4112 11.4261 58.1711 11.2807 58.2805C11.1337 58.3911 10.9347 59.1733 10.7686 60.294C10.6161 61.3226 10.3878 62.2474 10.2482 62.4021C10.1114 62.5537 9.88839 63.422 9.75255 64.3317C9.55598 65.6481 9.43209 66.0417 9.14545 66.2603C8.81182 66.5148 8.78004 66.7197 8.71354 69.0455C8.65184 71.2033 8.68311 71.636 8.93616 72.1266C9.49578 73.2114 10.887 74.9184 11.668 75.4785C12.613 76.1563 14.6243 77.2161 15.2624 77.3725C15.5161 77.4347 15.7238 77.5482 15.7238 77.6248C15.7238 77.7013 16.0447 77.8953 16.4369 78.056C16.8291 78.2167 17.5653 78.564 18.0728 78.8278C18.9728 79.2955 19.3313 79.2794 19.3313 78.7712L19.3313 78.7712ZM52.1229 44.9441C53.0342 44.8361 53.8208 44.6525 53.977 44.5112C54.1261 44.3762 54.5665 44.1534 54.9556 44.0161C56.7666 43.3772 59.5098 40.4337 59.521 39.1175C59.5232 38.8526 59.604 38.2961 59.7005 37.8809C59.829 37.328 59.8185 36.7697 59.6613 35.7956C59.4861 34.7094 59.3332 34.3143 58.8275 33.6413C58.1597 32.7526 57.0962 31.929 56.8293 32.094C56.7386 32.15 56.6645 32.0802 56.6645 31.9389C56.6645 31.607 55.1581 31.1657 54.1746 31.2094C53.6381 31.2333 53.4041 31.1661 53.2856 30.9542C53.1432 30.6998 52.797 30.6676 50.2803 30.6748C48.0656 30.6812 47.436 30.7312 47.436 30.9007C47.436 31.0204 47.1438 31.2331 46.7867 31.3734C46.1655 31.6175 46.1293 31.6741 45.9519 32.6815C45.8499 33.2606 45.6411 33.8729 45.4879 34.0422C45.3287 34.2181 45.109 34.9771 44.9749 35.8146C44.8459 36.6202 44.6245 37.4074 44.4829 37.5639C44.3413 37.7204 44.1492 38.4031 44.0562 39.0811C43.8756 40.3966 43.6206 41.2367 43.4021 41.2367C43.0708 41.2367 42.6765 44.7548 42.9745 45.0527C43.319 45.3972 48.851 45.3315 52.1229 44.9441H52.1229ZM35.8257 19.5098C36.2414 19.1599 36.8002 17.7312 36.6603 17.3758C36.6346 17.3105 36.7473 17.1594 36.9107 17.0399C37.1204 16.8866 37.2509 16.4523 37.3543 15.5645C37.51 14.2267 37.7659 13.3836 38.0163 13.3836C38.1003 13.3836 38.2229 12.9494 38.289 12.4188C38.355 11.8881 38.5152 11.1405 38.6449 10.7573C38.9123 9.96808 38.8153 9.52439 38.3754 9.52439C38.2106 9.52439 38.0323 9.41113 37.9791 9.27271C37.9193 9.11668 37.98 9.02102 38.1389 9.02102C38.2799 9.02102 38.3517 8.95066 38.2986 8.86466C38.2426 8.77417 38.0087 8.81106 37.7433 8.95221C37.3662 9.15282 36.6443 9.17941 33.6773 9.10198C31.6932 9.05021 29.8253 8.96981 29.5265 8.92332C28.5996 8.7791 26.5551 9.29947 25.6793 9.90255C24.7856 10.518 23.7777 11.4855 23.7777 11.7281C23.7777 11.8168 23.6016 12.0558 23.3863 12.259C23.1322 12.4988 22.9257 12.9818 22.7978 13.6352C22.6894 14.1889 22.4832 14.7293 22.3397 14.836C22.0943 15.0184 21.9574 15.6418 21.6085 18.1656C21.4893 19.0279 21.5131 19.2204 21.7744 19.5079C22.0689 19.8317 22.3124 19.8445 28.7201 19.8723L35.3605 19.9012L35.8257 19.5098ZM238.213 80.7656C237.336 80.6471 236.531 80.582 236.424 80.6208C236.317 80.6597 236.182 80.5411 236.124 80.3572C236.052 80.131 235.708 79.927 235.06 79.7263C234.077 79.422 233.408 79.0463 231.892 77.9483C231.312 77.5286 230.996 77.3879 230.94 77.5252C230.894 77.6384 230.851 77.5545 230.843 77.3388C230.834 77.0657 230.681 76.8905 230.339 76.7615C229.988 76.6287 229.821 76.4311 229.751 76.063C229.697 75.7807 229.408 75.2411 229.109 74.8639C228.505 74.102 227.782 72.5922 227.471 71.4388C227.358 71.0235 227.164 70.4041 227.039 70.0623C226.698 69.1281 226.696 65.1598 227.037 64.3625C227.182 64.0234 227.41 63.1174 227.544 62.349C227.827 60.7306 227.938 60.3959 228.336 59.9679C228.495 59.7957 228.674 59.3698 228.733 59.0214C228.792 58.6729 229.024 58.2154 229.248 58.0047C229.472 57.794 229.656 57.5452 229.656 57.4519C229.656 57.3585 229.958 56.924 230.327 56.4862C230.696 56.0484 230.998 55.6392 230.998 55.5767C230.998 55.5143 231.187 55.3147 231.418 55.1332C231.648 54.9518 231.837 54.6916 231.837 54.555C231.837 54.4185 232.061 54.2289 232.334 54.1337C232.607 54.0385 232.875 53.8198 232.93 53.6477C232.984 53.4755 233.157 53.2921 233.314 53.24C233.471 53.188 233.9 52.8821 234.268 52.5603C234.636 52.2385 235.03 51.9752 235.143 51.9752C235.255 51.9752 235.483 51.8365 235.648 51.6671C235.813 51.4976 236.288 51.2278 236.703 51.0676C237.118 50.9074 237.609 50.6808 237.794 50.5641C237.978 50.4473 238.658 50.2174 239.304 50.0532C239.95 49.8889 240.716 49.6501 241.007 49.5226C241.298 49.395 241.806 49.2906 242.137 49.2906C242.467 49.2906 243.266 49.2 243.911 49.0892C245.206 48.8672 247.538 49.0688 249.287 49.5539C249.795 49.6947 250.623 49.923 251.128 50.0611C251.633 50.1993 252.161 50.4098 252.303 50.5289C252.444 50.648 252.815 50.8467 253.127 50.9704C253.439 51.0942 253.892 51.3605 254.134 51.5624C254.375 51.7642 254.743 51.9825 254.95 52.0474C255.158 52.1124 255.328 52.2207 255.328 52.288C255.328 52.3552 255.856 52.9537 256.502 53.6179C257.148 54.2821 257.677 54.9355 257.677 55.0699C257.677 55.2043 257.783 55.3747 257.913 55.4485C258.043 55.5223 258.307 56.0307 258.499 56.5784C258.691 57.126 258.929 57.6245 259.029 57.6862C259.129 57.7478 259.37 58.8626 259.564 60.1634C259.759 61.4643 259.98 62.4903 260.056 62.4435C260.132 62.3967 260.194 62.6693 260.194 63.0493C260.194 63.4294 260.126 63.6987 260.044 63.6478C259.882 63.5475 259.774 64.0832 259.54 66.1534C259.315 68.1425 259.17 68.771 258.914 68.8694C258.787 68.9181 258.684 69.0913 258.684 69.2544C258.684 69.717 258.203 70.9637 257.946 71.1694C257.818 71.2715 257.624 71.6375 257.515 71.9828C257.406 72.3282 257.224 72.668 257.11 72.7379C256.997 72.8078 256.722 73.1293 256.499 73.4523C256.275 73.7753 255.92 74.2275 255.71 74.4573C255.5 74.6871 255.328 74.9615 255.328 75.0672C255.328 75.1729 255.151 75.3753 254.934 75.5171C254.718 75.6588 254.311 75.9883 254.03 76.2495C253.749 76.5106 253.205 76.9507 252.82 77.2276C252.436 77.5044 251.871 77.9386 251.563 78.1923C251.256 78.4461 250.894 78.6538 250.758 78.6538C250.623 78.6538 250.199 78.8803 249.817 79.1571C249.435 79.434 248.931 79.6605 248.696 79.6605C248.177 79.6605 247.081 80.1013 246.909 80.3787C246.654 80.7921 240.451 81.0681 238.213 80.7656H238.213ZM244.241 74.0952C246.014 73.5155 247.305 72.6905 248.629 71.2936C249.36 70.5217 249.958 69.7564 249.958 69.5931C249.958 69.4298 250.142 69.1756 250.367 69.0283C250.661 68.836 250.808 68.5431 250.891 67.989C250.955 67.5646 251.104 67.1802 251.222 67.1348C251.691 66.9551 251.862 66.0216 251.875 63.5743C251.889 60.8353 251.806 60.4961 250.768 59.0766C249.848 57.8172 248.434 56.7267 247.301 56.4017C246.778 56.252 246.275 56.0701 246.183 55.9976C245.595 55.5361 243.266 55.7076 242.827 56.2447C242.735 56.3577 242.282 56.5008 241.82 56.5627C241.359 56.6246 240.793 56.8265 240.562 57.0113C240.331 57.1962 239.957 57.4262 239.731 57.5225C238.788 57.9239 236.736 60.1775 236.246 61.3517C236.109 61.6791 235.887 62.0274 235.753 62.1257C235.618 62.2239 235.381 62.9624 235.225 63.7669C235.049 64.673 234.861 65.2297 234.731 65.23C234.319 65.231 234.479 67.3192 235.014 68.9159C235.503 70.3769 236.579 72.1094 236.997 72.1098C237.112 72.1099 237.206 72.182 237.206 72.2701C237.206 72.5541 238.05 73.2845 238.378 73.2845C238.553 73.2845 238.746 73.3647 238.807 73.4626C239.202 74.1029 242.902 74.5335 244.241 74.0952ZM98.2208 80.6969C97.812 80.6177 97.8487 79.4872 98.2778 78.9417C98.4632 78.706 98.6487 78.2994 98.6901 78.0382C98.9939 76.1191 99.1708 75.298 99.2803 75.298C99.438 75.298 99.7357 74.144 99.8612 73.0464C99.9131 72.5925 100.134 71.8321 100.351 71.3568C100.569 70.8814 100.801 70.0447 100.867 69.4975C100.932 68.9502 101.169 68.097 101.393 67.6013C101.617 67.1057 101.8 66.4865 101.8 66.2253C101.8 65.5432 102.14 64.0561 102.295 64.0561C102.446 64.0561 102.741 62.9798 102.886 61.901C102.939 61.5001 103.16 60.7451 103.376 60.2231C103.592 59.7011 103.818 58.8314 103.879 58.2905C103.939 57.7495 104.176 56.8978 104.404 56.3979C104.633 55.8979 104.82 55.306 104.82 55.0826C104.82 54.3958 105.161 53.0433 105.502 52.3734C105.681 52.0231 105.827 51.4648 105.827 51.1328C105.827 50.3614 106.116 49.993 106.75 49.9557C107.027 49.9395 112.446 49.9342 118.793 49.944L130.332 49.9617L130.484 50.3596C130.664 50.8346 130.389 52.1387 130.051 52.4132C129.924 52.5156 129.821 52.6824 129.821 52.7838C129.821 53.6153 128.063 55.3726 126.928 55.676C126.535 55.781 126.071 56.0188 125.896 56.2043C125.588 56.5327 125.413 56.54 119.299 56.4816C113.616 56.4273 113.004 56.4478 112.864 56.6965C112.78 56.8477 112.54 57.0148 112.331 57.0678C111.795 57.2039 111.554 57.6778 111.374 58.9544C111.287 59.5647 111.099 60.1943 110.955 60.3534C110.58 60.7673 110.631 61.2874 111.095 61.7881L111.497 62.222L118.383 62.1869C123.395 62.1613 125.333 62.2045 125.503 62.3458C125.688 62.4988 125.704 62.7266 125.58 63.4238C125.494 63.91 125.355 64.421 125.272 64.5594C125.189 64.6979 124.92 65.1509 124.674 65.5662C124.428 65.9814 123.853 66.5978 123.396 66.936C122.189 67.8292 120.948 67.9662 115.146 67.8466C110.37 67.7481 109.604 67.7943 109.749 68.1718C109.841 68.4117 109.299 68.9824 109.135 68.8185C108.818 68.5019 108.19 70.2498 108.177 71.4808C108.176 71.55 108.081 71.6066 107.965 71.6066C107.637 71.6066 107.322 72.236 107.418 72.6993C107.466 72.9289 107.542 73.2959 107.587 73.5149C107.748 74.3019 108.104 74.3324 116.351 74.2677C120.576 74.2345 124.133 74.2726 124.257 74.3524C124.52 74.5225 124.383 75.5664 124.043 75.9691C123.927 76.1076 123.734 76.5825 123.614 77.0246C123.495 77.4666 123.182 78.0999 122.918 78.4319C122.654 78.7639 122.438 79.0886 122.438 79.1535C122.438 79.2185 122.042 79.4833 121.557 79.7422C121.073 80.001 120.561 80.3113 120.42 80.4319C120.217 80.6062 117.947 80.6613 109.333 80.7011C103.375 80.7286 98.3749 80.7267 98.2208 80.6969L98.2208 80.6969ZM189.14 80.6894C188.097 80.5948 187.944 80.5346 187.718 80.1306C187.483 79.7116 187.492 79.6411 187.83 79.1834C188.035 78.9068 188.283 78.19 188.393 77.5566C188.501 76.9338 188.764 76.1684 188.976 75.8556C189.188 75.5428 189.411 75.0629 189.471 74.7891C189.578 74.3018 189.935 74.1259 190.141 74.4591C190.299 74.7151 191.453 74.6595 192.619 74.3397C193.488 74.1011 193.828 73.8907 194.63 73.0947C195.16 72.5679 195.594 71.993 195.594 71.8171C195.594 71.6412 195.782 71.3211 196.011 71.1057C196.241 70.8903 196.476 70.4429 196.535 70.1116C196.594 69.7803 196.824 69.3134 197.047 69.074C197.27 68.8346 197.496 68.3439 197.55 67.9834C197.603 67.6229 197.818 67.0637 198.028 66.7407C198.237 66.4177 198.458 65.8195 198.518 65.4114C198.578 65.0032 198.806 64.3237 199.025 63.9013C199.243 63.4789 199.503 62.6854 199.603 62.1379C199.703 61.5905 199.85 61.0997 199.93 61.0473C200.131 60.9161 200.41 59.9422 200.529 58.9545C200.584 58.5019 200.811 57.7469 201.033 57.2766C201.255 56.8064 201.487 55.9309 201.547 55.331C201.617 54.6422 201.808 53.9821 202.065 53.5394C202.29 53.1538 202.474 52.726 202.474 52.5886C202.474 52.3004 203.448 51.2193 204.355 50.5013C204.903 50.0678 205.209 49.9809 206.872 49.785C209.482 49.4779 225.796 49.4466 226.16 49.748C226.413 49.9572 226.409 50.0444 226.039 52.2689C225.969 52.6887 225.829 52.982 225.698 52.982C225.576 52.982 225.438 53.2274 225.392 53.5273C225.019 55.9298 224.91 56.4216 224.716 56.5785C224.547 56.7154 223.951 59.5728 223.951 60.2462C223.951 60.3114 223.844 60.3647 223.714 60.3647C223.568 60.3647 223.442 60.607 223.386 60.9939C223.018 63.5293 222.898 64.0561 222.692 64.0561C222.559 64.0561 222.429 64.3414 222.368 64.7692C222.043 67.0433 221.851 67.9153 221.677 67.9153C221.56 67.9153 221.367 68.6349 221.193 69.719C221.008 70.8701 220.809 71.5962 220.642 71.7257C220.499 71.8374 220.36 72.2019 220.333 72.5359C220.239 73.7273 219.857 75.5525 219.667 75.7175C219.561 75.8098 219.347 76.6403 219.191 77.5632C219.035 78.486 218.814 79.3166 218.7 79.4089C218.587 79.5011 218.407 79.7735 218.3 80.0142C218.171 80.3067 217.929 80.4875 217.568 80.5595C216.884 80.6964 211.315 80.7014 210.961 80.5654C210.577 80.4181 210.618 79.239 211.029 78.5728C211.216 78.2704 211.443 77.4493 211.545 76.7073C211.645 75.9783 211.821 75.2309 211.937 75.0463C212.193 74.638 212.488 73.4924 212.63 72.3617C212.688 71.9002 212.879 71.2748 213.055 70.9717C213.231 70.6687 213.453 69.9366 213.547 69.3449C213.749 68.0841 213.827 67.8144 214.351 66.5729C214.449 66.3422 214.574 65.7118 214.629 65.1719C214.684 64.6321 214.884 63.8511 215.073 63.4364C215.262 63.0216 215.483 62.2755 215.563 61.7782C215.644 61.2809 215.816 60.6273 215.946 60.3257C216.65 58.6829 216.881 57.1778 216.488 56.7847C216.318 56.6147 216.25 56.378 216.314 56.1761C216.396 55.9195 216.324 55.8215 215.99 55.7379C215.754 55.6787 215.354 55.6833 215.1 55.7481C214.846 55.813 213.525 55.8573 212.164 55.8466C210.578 55.8341 209.689 55.8887 209.689 55.9985C209.689 56.0928 209.783 56.1726 209.898 56.1759C210.309 56.1876 209.261 56.6615 208.811 56.6674C208.45 56.6721 208.331 56.7714 208.249 57.1348C208.193 57.3885 208.078 57.8604 207.995 58.1834C207.913 58.5064 207.844 58.9807 207.844 59.2374C207.844 59.4941 207.733 59.7461 207.599 59.7976C207.459 59.8515 207.312 60.2218 207.252 60.6732C207.057 62.1522 206.77 63.3013 206.554 63.4688C206.435 63.5611 206.218 64.2742 206.071 65.0536C205.924 65.8329 205.703 66.5502 205.579 66.6476C205.456 66.7449 205.235 67.3017 205.089 67.8847C204.943 68.4678 204.719 69.0502 204.59 69.1789C204.461 69.3075 204.264 69.8121 204.152 70.3C204.039 70.7879 203.773 71.4514 203.56 71.7744C203.347 72.0974 203.098 72.64 203.008 72.9802C202.917 73.3204 202.681 73.7719 202.484 73.9836C202.287 74.1953 202.079 74.5587 202.022 74.7913C201.965 75.0238 201.703 75.4767 201.441 75.7976C201.178 76.1186 200.964 76.4396 200.964 76.511C200.964 76.5824 200.29 77.3067 199.466 78.1205C198.388 79.1845 197.776 79.6577 197.285 79.8048C196.909 79.9173 196.47 80.1498 196.308 80.3215C196.05 80.5951 195.662 80.6437 193.161 80.7145C191.593 80.759 189.783 80.7477 189.14 80.6894L189.14 80.6894ZM136.407 80.5579C136.061 80.4154 136.169 79.4078 136.614 78.629C136.844 78.2274 137.033 77.649 137.034 77.3438C137.036 76.7065 137.369 75.2548 137.542 75.1302C137.731 74.9941 138.008 73.942 138.122 72.9291C138.181 72.4106 138.381 71.7028 138.567 71.3563C138.752 71.0097 139.005 70.1058 139.128 69.3475C139.25 68.5892 139.509 67.6577 139.703 67.2775C139.897 66.8974 140.056 66.3307 140.056 66.0184C140.056 65.7061 140.198 65.0424 140.372 64.5436C140.547 64.0447 140.768 63.4101 140.865 63.1333C140.962 62.8564 141.133 62.1058 141.245 61.4652C141.356 60.8247 141.581 60.0696 141.745 59.7873C141.908 59.505 142.094 58.772 142.157 58.1584C142.265 57.1143 142.25 57.0355 141.912 56.9284C141.644 56.8432 141.579 56.7279 141.66 56.4755C141.754 56.1788 141.718 56.1545 141.373 56.2793C141.156 56.3576 139.242 56.4217 137.12 56.4217H133.26L133.207 55.776C133.175 55.3779 133.249 55.024 133.402 54.8531C133.7 54.518 133.948 53.5814 134.095 52.2269C134.178 51.4647 134.349 51.0071 134.799 50.3432L135.393 49.4662L148.385 49.5042C159.718 49.5374 161.399 49.5744 161.546 49.794C161.768 50.1243 161.597 51.4581 161.29 51.7977C161.158 51.9442 160.975 52.3922 160.885 52.7932C160.635 53.9069 159.471 55.0622 157.704 55.9515C156.605 56.5041 156.596 56.5056 154.11 56.5056C151.393 56.5056 150.996 56.6057 150.264 57.4749C149.962 57.8345 149.806 58.3332 149.635 59.487C149.51 60.3307 149.333 61.0055 149.241 60.9865C149.026 60.9419 148.871 61.4749 148.617 63.1287C148.495 63.9225 148.282 64.631 148.093 64.8711C147.918 65.0937 147.774 65.5161 147.774 65.8097C147.774 66.7115 147.423 68.3196 147.162 68.6109C147.026 68.7627 146.843 69.396 146.755 70.0181C146.536 71.5615 146.415 71.9974 146.15 72.1939C145.974 72.3245 145.425 75.0763 145.425 75.8287C145.425 75.9059 145.312 75.9692 145.174 75.9692C145.035 75.9692 144.92 76.0635 144.919 76.1789C144.914 76.4707 144.605 78.6407 144.49 79.1915C144.438 79.4411 144.268 79.6858 144.112 79.7353C143.956 79.7848 143.753 79.9958 143.662 80.2043C143.498 80.5786 143.453 80.5838 140.056 80.6138C138.164 80.6305 136.522 80.6054 136.407 80.5579H136.407ZM151.29 80.5582C150.888 80.4493 151.078 79.3902 151.57 79.0033C151.791 78.8292 152.079 78.4324 152.209 78.1215C152.338 77.8107 152.602 77.414 152.794 77.2401C152.986 77.0662 153.144 76.8339 153.144 76.7239C153.144 76.614 153.408 76.2519 153.731 75.9193C154.054 75.5867 154.318 75.1971 154.318 75.0535C154.318 74.9099 154.507 74.6283 154.738 74.4277C154.968 74.2271 155.157 73.9273 155.157 73.7615C155.157 73.5957 155.346 73.3361 155.577 73.1846C155.809 73.033 156.138 72.5971 156.308 72.2159C156.479 71.8346 156.78 71.3789 156.978 71.2031C157.176 71.0273 157.338 70.7528 157.338 70.5932C157.338 70.4335 157.527 70.1792 157.758 70.028C157.989 69.8769 158.177 69.6488 158.177 69.5212C158.177 69.3937 158.442 68.973 158.765 68.5864C159.088 68.1998 159.352 67.8066 159.352 67.7127C159.352 67.6187 159.544 67.3049 159.78 67.0154C161.072 65.4265 161.365 65.0019 161.365 64.7173C161.365 64.5447 161.516 64.3226 161.701 64.2237C161.886 64.1249 162.146 63.7824 162.28 63.4628C162.413 63.1431 162.601 62.8816 162.696 62.8816C162.791 62.8816 163.032 62.5607 163.232 62.1685C163.431 61.7763 163.735 61.3567 163.906 61.2361C164.078 61.1155 164.218 60.8817 164.218 60.7165C164.218 60.5513 164.463 60.1549 164.763 59.8355C165.272 59.294 165.555 58.8776 166.26 57.6365C166.415 57.3647 166.698 57.0325 166.89 56.8983C167.081 56.7641 167.238 56.5525 167.238 56.428C167.238 56.3036 167.502 55.8854 167.825 55.4988C168.148 55.1122 168.412 54.6642 168.412 54.5031C168.412 54.3421 168.601 54.1244 168.832 54.0192C169.063 53.9141 169.251 53.7178 169.251 53.583C169.251 53.376 169.898 52.4983 170.807 51.4719C171.393 50.8092 172.387 50.1133 172.929 49.986C173.26 49.9084 173.908 49.7443 174.369 49.6215C175.53 49.3125 176.785 49.2355 178.43 49.3726C179.749 49.4824 179.844 49.5167 180.077 49.9688C180.214 50.2326 180.326 50.6837 180.326 50.9712C180.326 51.2587 180.401 51.6355 180.494 51.8086C180.587 51.9816 180.742 52.9016 180.839 53.853C181.106 56.4769 181.302 57.7248 181.464 57.8335C181.641 57.9524 182.003 60.8221 182.003 62.1085C182.003 63.1561 182.3 64.7272 182.498 64.7272C182.616 64.7272 182.797 66.1396 183.102 69.4182C183.157 70.014 183.307 70.7528 183.436 71.0599C183.564 71.3669 183.787 72.9161 183.932 74.5023C184.104 76.3876 184.282 77.519 184.446 77.769C184.715 78.1803 184.853 80.2223 184.627 80.4492C184.553 80.523 182.846 80.6075 180.833 80.6369C177.288 80.6887 177.162 80.6792 176.842 80.3357C176.47 79.9367 176.302 78.8931 176.3 76.9653C176.298 75.7693 176.269 75.668 175.784 75.2036L175.27 74.7107H169.618C166.509 74.7107 163.756 74.7695 163.499 74.8413C163.229 74.9167 162.965 75.1469 162.874 75.3866C162.787 75.6147 162.606 75.8014 162.471 75.8014C162.336 75.8014 162.056 76.1034 161.848 76.4725C161.641 76.8417 161.418 77.1437 161.352 77.1437C161.286 77.1437 161.092 77.427 160.921 77.7732C160.587 78.4475 160.341 78.7613 159.228 79.9242L158.518 80.6673L155.034 80.6478C153.117 80.6371 151.433 80.5968 151.29 80.5582V80.5582ZM174.381 68.9614C174.48 68.8936 174.61 68.7059 174.67 68.5444C174.729 68.3829 174.888 68.2508 175.023 68.2508C175.488 68.2508 175.469 67.8932 174.801 63.9722C174.613 62.8648 174.434 61.4884 174.403 60.9136C174.373 60.3387 174.294 59.8142 174.228 59.7479C174.036 59.5565 173.02 59.6381 172.505 59.8862C172.162 60.0518 171.988 60.3039 171.86 60.8202C171.763 61.2091 171.562 61.6244 171.413 61.743C171.264 61.8617 171 62.2207 170.826 62.541C170.652 62.8612 170.378 63.2718 170.216 63.4535C170.055 63.6351 169.923 63.8722 169.923 63.9802C169.923 64.0882 169.659 64.5082 169.337 64.9134C169.015 65.3186 168.751 65.7333 168.75 65.8349C168.748 65.9366 168.518 66.2606 168.237 66.5549C167.786 67.0266 167.73 67.1935 167.762 67.964C167.782 68.4447 167.88 68.8936 167.979 68.9614C168.079 69.0292 169.52 69.0846 171.181 69.0846C172.842 69.0846 174.282 69.0292 174.381 68.9614ZM261.044 80.5103C260.912 80.4268 260.783 80.2203 260.758 80.0515C260.662 79.4258 261.087 77.3874 261.382 77.0598C261.576 76.843 261.743 76.2419 261.853 75.3622C261.949 74.5972 262.169 73.7515 262.354 73.4327C262.543 73.1073 262.751 72.2914 262.842 71.5208C262.93 70.7815 263.173 69.8 263.384 69.3396C263.595 68.8792 263.864 67.9474 263.983 67.269C264.101 66.5905 264.325 65.7687 264.48 65.4428C264.634 65.1168 264.826 64.3313 264.906 63.6971C264.985 63.0629 265.23 62.1481 265.45 61.6641C265.67 61.1802 265.945 60.1613 266.062 59.3999C266.179 58.6386 266.331 58.0156 266.4 58.0156C266.553 58.0156 266.851 56.887 266.997 55.7505C267.056 55.2891 267.279 54.534 267.492 54.0726C267.706 53.6112 267.931 52.9913 267.992 52.6951C268.061 52.3601 268.481 51.7649 269.102 51.1198C270.201 49.9789 270.332 49.9286 272.977 49.6286C274.3 49.4786 276.003 49.608 276.274 49.879C276.32 49.9245 276.363 50.3382 276.371 50.7984C276.382 51.4273 276.327 51.6253 276.151 51.5955C275.981 51.5666 275.82 52.0289 275.563 53.282C275.369 54.2314 275.127 55.0619 275.025 55.1276C274.923 55.1933 274.715 55.9908 274.563 56.8998C274.385 57.9609 274.166 58.7047 273.951 58.9778C273.537 59.5046 273.463 61.2037 273.854 61.2037C273.985 61.2037 274.13 61.1093 274.177 60.9939C274.227 60.8686 274.267 60.9024 274.275 61.0778C274.282 61.2393 274.42 61.3742 274.581 61.3776C274.743 61.381 277.178 61.3966 279.992 61.4122C284.695 61.4384 285.113 61.4176 285.164 61.1544C285.194 60.9969 285.36 60.8681 285.532 60.8681C285.939 60.8681 286.005 60.7434 286.22 59.5808C286.319 59.0467 286.511 58.3957 286.646 58.1342C286.781 57.8727 286.997 57.0079 287.126 56.2123C287.269 55.3268 287.454 54.713 287.603 54.6298C287.751 54.5468 287.891 54.0858 287.961 53.4443C288.151 51.7189 288.366 50.969 288.884 50.2149L289.377 49.4991L292.361 49.5488C294.003 49.5761 295.582 49.603 295.87 49.6085C296.27 49.6161 296.419 49.7089 296.495 49.9998C296.627 50.5073 296.432 51.681 296.18 51.8913C296.069 51.9836 295.837 52.8339 295.662 53.7809C295.451 54.9311 295.281 55.4776 295.149 55.4271C295.026 55.38 294.913 55.616 294.848 56.0544C294.517 58.295 294.336 59.1244 294.146 59.2741C293.957 59.4231 293.788 60.164 293.468 62.2523C293.415 62.5984 293.277 62.8815 293.161 62.8815C293.037 62.8815 292.907 63.2077 292.844 63.6785C292.617 65.3785 292.33 66.664 292.141 66.8246C292.032 66.9169 291.82 67.7474 291.67 68.6703C291.51 69.6504 291.296 70.4232 291.156 70.5285C291.013 70.6358 290.803 71.4172 290.638 72.4581C290.48 73.4615 290.268 74.2609 290.142 74.333C290.021 74.4022 289.832 75.0062 289.721 75.6753C289.389 77.6777 288.108 79.373 286.546 79.8773C286.07 80.0311 285.566 80.2718 285.425 80.4121C285.227 80.6104 284.752 80.6667 283.294 80.6647C282.263 80.6634 281.332 80.6066 281.226 80.5388C281.12 80.471 281.012 80.2268 280.986 79.9961C280.908 79.3233 281.179 77.5858 281.404 77.3115C281.664 76.9946 281.934 76.0501 282.193 74.5455C282.304 73.9009 282.533 73.1458 282.703 72.8676C282.873 72.5893 283.014 72.0974 283.018 71.7744C283.021 71.4514 283.17 70.7719 283.348 70.2643C283.74 69.1499 283.746 69.0898 283.455 69.0898C283.329 69.0898 283.028 68.9341 282.786 68.7438C282.358 68.407 282.213 68.4003 277.306 68.4883C274.404 68.5403 272.132 68.6509 271.948 68.749C271.773 68.8427 271.537 69.2031 271.422 69.5499C271.308 69.8967 271.116 70.2559 270.996 70.3482C270.875 70.4405 270.645 71.2899 270.484 72.2358C270.289 73.3765 270.117 73.9557 269.974 73.9557C269.855 73.9557 269.757 74.0123 269.756 74.0815C269.75 74.8719 269.195 77.6026 268.995 77.823C268.853 77.9802 268.696 78.4013 268.646 78.7588C268.505 79.7712 268.261 80.2717 267.809 80.4777C267.305 80.7071 261.4 80.7355 261.044 80.5103V80.5103ZM175.383 75.4774C175.33 75.3915 175.355 75.2787 175.439 75.2267C175.523 75.1747 175.636 75.245 175.688 75.3829C175.793 75.6547 175.541 75.7327 175.383 75.4774ZM108.008 73.7879C108.008 73.6956 108.084 73.6201 108.176 73.6201C108.268 73.6201 108.344 73.6956 108.344 73.7879C108.344 73.8801 108.268 73.9557 108.176 73.9557C108.084 73.9557 108.008 73.8801 108.008 73.7879ZM151.146 41.6142C144.212 41.582 141.448 41.5156 141.282 41.3772C140.981 41.1275 141.148 39.8939 141.606 38.9856C141.788 38.6242 142.01 37.7979 142.1 37.1492C142.19 36.5006 142.417 35.67 142.604 35.3035C142.791 34.937 143.018 34.1028 143.108 33.4497C143.199 32.7966 143.455 31.8769 143.678 31.4059C143.901 30.935 144.083 30.2926 144.084 29.9786C144.085 29.2656 144.347 28.2715 144.767 27.383C144.944 27.0078 145.09 26.4792 145.091 26.2084C145.092 25.5874 145.362 24.5699 145.756 23.7026C145.924 23.3335 146.108 22.5889 146.166 22.0479C146.224 21.5069 146.447 20.6764 146.662 20.2022C146.877 19.728 147.096 18.9116 147.149 18.3879C147.201 17.8642 147.408 17.0714 147.609 16.6261C147.809 16.1808 148.04 15.3064 148.121 14.683C148.202 14.0596 148.459 13.1463 148.693 12.6534C148.926 12.1605 149.117 11.6097 149.117 11.4294C149.117 11.2491 149.207 11.011 149.318 10.9003C149.557 10.6614 173.211 10.6083 173.586 10.8458C173.859 11.0188 173.688 12.4813 173.372 12.673C173.26 12.7408 173.072 13.1505 172.953 13.5835C172.694 14.528 171.106 16.3217 170.372 16.4993C170.112 16.5623 169.811 16.7554 169.703 16.9283C169.516 17.227 169.177 17.2427 162.933 17.2427C159.317 17.2427 156.24 17.2886 156.094 17.3446C155.948 17.4006 155.828 17.5469 155.828 17.6698C155.828 17.8089 155.656 17.8812 155.37 17.8616C154.926 17.8309 154.907 17.8667 154.727 19.0444C154.614 19.7855 154.418 20.3952 154.225 20.6087C153.916 20.95 153.723 22.1243 153.9 22.5889C153.969 22.7719 154.036 22.7761 154.236 22.6103C154.464 22.421 154.557 22.4941 154.506 22.8217C154.495 22.8909 154.505 22.9644 154.528 22.9849C154.551 23.0054 157.741 23.0621 161.617 23.1107L168.664 23.1993L168.708 23.8704C168.732 24.2396 168.645 24.7303 168.514 24.961C168.383 25.1918 168.108 25.7079 167.903 26.108C167.185 27.5077 165.281 28.8202 163.97 28.8202C163.748 28.8202 163.528 28.8829 163.48 28.9596C163.398 29.092 154.395 29.0535 154.173 28.9198C154.114 28.8847 153.596 29.0132 153.02 29.2052C151.885 29.5841 151.773 29.7416 151.533 31.2951C151.472 31.6873 151.369 32.0082 151.303 32.0082C151.044 32.0082 150.795 32.9127 150.795 33.8505C150.795 34.6608 150.85 34.8556 151.102 34.9357C151.271 34.9894 154.877 35.0181 159.114 34.9995C163.352 34.9808 166.988 35.0226 167.196 35.0922C167.655 35.2463 167.666 35.4432 167.259 36.2973C167.086 36.6607 166.892 37.3879 166.828 37.9134C166.748 38.5784 166.649 38.8441 166.502 38.7878C166.383 38.7422 166.15 38.9709 165.967 39.311C165.789 39.6444 165.249 40.1778 164.763 40.501C164.279 40.8232 163.882 41.1491 163.882 41.2252C163.882 41.3734 161.543 41.7671 161.065 41.6995C160.907 41.6772 156.443 41.6388 151.146 41.6142L151.146 41.6142ZM203.648 41.6178C202.423 41.4554 202.434 41.4663 202.562 40.5344C202.627 40.0635 202.851 39.3305 203.061 38.9054C203.271 38.4804 203.495 37.6796 203.559 37.1258C203.623 36.5721 203.852 35.7038 204.068 35.1963C204.284 34.6887 204.507 33.8211 204.564 33.2682C204.621 32.7153 204.853 31.8567 205.081 31.3603C205.308 30.8638 205.494 30.2736 205.494 30.0488C205.494 29.5416 205.845 28.0949 205.995 27.9813C206.146 27.8671 206.462 26.5709 206.588 25.5484C206.644 25.0869 206.863 24.3696 207.074 23.9543C207.286 23.5391 207.509 22.7504 207.572 22.2017C207.635 21.653 207.866 20.7847 208.087 20.2721C208.307 19.7595 208.525 18.9116 208.571 18.3879C208.617 17.8642 208.819 17.0714 209.02 16.6261C209.22 16.1809 209.451 15.3065 209.532 14.6831C209.613 14.0596 209.871 13.1463 210.104 12.6534C210.337 12.1605 210.528 11.6097 210.528 11.4294C210.528 11.2492 210.618 11.011 210.729 10.9003C211.001 10.6281 234.373 10.6078 234.881 10.8794C235.168 11.0333 235.201 11.1629 235.103 11.7603C235.04 12.1456 234.893 12.574 234.777 12.7124C234.66 12.8509 234.44 13.3473 234.288 13.8157C233.96 14.823 232.592 16.3219 231.852 16.4844C231.586 16.5428 231.236 16.7374 231.073 16.9167C230.79 17.2292 230.5 17.2428 224.101 17.2428C218.545 17.2428 217.401 17.2823 217.29 17.4783C217.216 17.6079 216.967 17.74 216.736 17.7719C216.351 17.8252 216.298 17.9396 216.098 19.1605C215.962 19.9856 215.776 20.5661 215.608 20.6887C215.195 20.9911 215.184 22.4029 215.593 22.8112C215.9 23.1186 216.22 23.1314 222.886 23.105C228.578 23.0824 229.898 23.1193 230.081 23.3061C230.253 23.4818 230.268 23.7296 230.145 24.3738C230.058 24.8353 229.91 25.2386 229.817 25.2701C229.724 25.3016 229.539 25.5856 229.408 25.9011C229.276 26.2166 228.787 26.8771 228.322 27.3689C227.618 28.1139 227.302 28.3122 226.427 28.5574C225.849 28.7193 225.241 28.923 225.076 29.0101C224.742 29.1854 220.285 29.1685 217.155 28.9799C215.366 28.8721 215.073 28.8938 214.519 29.175C214.177 29.349 213.786 29.4914 213.651 29.4914C213.398 29.4914 213.144 30.116 212.95 31.2113C212.889 31.5573 212.791 31.8405 212.731 31.8405C212.307 31.8405 211.906 34.5423 212.284 34.8559C212.43 34.9775 214.982 35.0296 220.241 35.0185C226.324 35.0056 228.089 35.0497 228.483 35.2241C228.929 35.4214 229.189 35.8674 228.858 35.8674C228.681 35.8674 228.313 37.1016 228.313 37.6946C228.313 38.009 228.103 38.4367 227.726 38.8876C227.403 39.2742 227.139 39.6461 227.139 39.714C227.139 39.7819 226.78 40.0883 226.342 40.3948C225.903 40.7013 225.447 41.0727 225.328 41.2202C225.133 41.4604 224.029 41.4898 214.745 41.5022C209.043 41.5098 204.309 41.5514 204.223 41.5947C204.138 41.638 203.879 41.6484 203.648 41.6178V41.6178ZM108.302 41.4046C107.906 41.1556 107.925 40.3194 108.344 39.6428C108.528 39.3442 108.793 38.4292 108.932 37.6095C109.071 36.7898 109.327 35.8548 109.499 35.5318C109.672 35.2089 109.863 34.4739 109.925 33.8987C109.987 33.3234 110.215 32.4551 110.433 31.9691C110.65 31.4831 110.88 30.6332 110.945 30.0804C111.01 29.5277 111.215 28.7765 111.401 28.4112C111.588 28.0459 111.81 27.1868 111.895 26.5021C111.984 25.7857 112.224 24.9119 112.462 24.4436C112.688 23.9961 112.874 23.3966 112.874 23.1114C112.874 22.5431 113.205 21.0678 113.363 20.9341C113.626 20.711 113.863 19.9108 113.95 18.9562C114.002 18.376 114.226 17.5077 114.447 17.0267C114.669 16.5457 114.898 15.7095 114.956 15.1686C115.015 14.6276 115.25 13.7759 115.478 13.2759C115.707 12.776 115.894 12.1853 115.894 11.9633C115.894 11.7414 115.968 11.3661 116.058 11.1294L116.222 10.699H122.927C129.032 10.699 129.749 10.7284 130.943 11.0283C133.249 11.6075 134.561 12.0065 134.667 12.1607C134.724 12.2432 135.035 12.4736 135.358 12.6728C135.681 12.8719 136.164 13.2266 136.433 13.4609C136.701 13.6952 137.064 13.887 137.24 13.887C137.415 13.887 137.514 13.9603 137.458 14.0498C137.336 14.2479 137.788 15.1608 138.1 15.3468C138.372 15.5088 138.881 16.9616 138.881 17.5762C138.881 17.8189 138.992 18.1641 139.128 18.3433C139.49 18.8226 139.489 22.0795 139.126 22.3448C138.971 22.4584 138.801 23.0027 138.703 23.7056C138.505 25.1118 138.405 25.4645 138.202 25.4645C138.117 25.4645 137.864 25.8276 137.639 26.2714C137.164 27.2095 135.34 29.1683 134.59 29.5454C134.307 29.6881 133.977 29.9226 133.858 30.0664C133.738 30.2103 133.343 30.408 132.98 30.5058C132.617 30.6036 132.173 30.8307 131.993 31.0104C131.813 31.1901 131.47 31.3371 131.231 31.3371C130.608 31.3371 128.947 31.8362 128.623 32.121C128.403 32.3136 127.426 32.3794 123.79 32.4464L119.233 32.5302L118.493 33.0523C117.71 33.6039 117.616 33.8463 117.321 36.0772C117.263 36.5155 117.148 36.8742 117.065 36.8742C116.983 36.8742 116.761 37.3906 116.573 38.0219C116.385 38.6531 116.082 39.3049 115.899 39.4702C115.716 39.6356 115.525 39.9044 115.473 40.0676C115.421 40.2308 115.198 40.4096 114.978 40.4649C114.758 40.5202 114.356 40.752 114.085 40.98C113.623 41.3683 113.434 41.4008 111.094 41.4919C109.406 41.5576 108.5 41.5293 108.302 41.4046H108.302ZM126.129 26.3095C126.637 26.1365 127.303 25.9439 127.61 25.8814C127.917 25.819 128.408 25.5613 128.701 25.3089C128.994 25.0565 129.367 24.8011 129.531 24.7415C129.695 24.6819 129.876 24.4993 129.933 24.3357C129.991 24.1721 130.205 23.8495 130.41 23.6188C131.553 22.3301 131.365 19.2147 130.089 18.2937C129.803 18.0873 129.233 17.7561 128.822 17.5576C127.363 16.8532 123.027 16.9747 122.494 17.7349C122.361 17.9256 122.142 18.0817 122.009 18.0817C121.876 18.0817 121.761 18.1383 121.754 18.2076C121.747 18.2768 121.714 18.4844 121.681 18.669C121.649 18.8535 121.532 19.5897 121.422 20.3049C121.29 21.1673 121.148 21.6053 121.002 21.6053C120.865 21.6053 120.739 21.9105 120.671 22.4023C120.503 23.6263 120.254 24.484 119.992 24.7466C119.712 25.0269 119.688 25.2366 119.921 25.3806C120.014 25.4376 120.089 25.657 120.089 25.8682C120.089 26.4651 120.65 26.6081 123.025 26.6164C124.733 26.6224 125.407 26.5557 126.129 26.3095H126.129ZM174.146 41.3557C173.996 41.1748 173.976 40.9935 174.083 40.786C174.169 40.6186 174.293 40.0664 174.357 39.5588C174.421 39.0512 174.652 38.2207 174.87 37.7131C175.088 37.2055 175.314 36.3815 175.372 35.8819C175.431 35.3824 175.653 34.5518 175.866 34.0363C176.08 33.5207 176.301 32.6755 176.359 32.158C176.416 31.6405 176.642 30.81 176.86 30.3123C177.078 29.8147 177.306 28.968 177.367 28.4309C177.429 27.8937 177.666 27.0088 177.895 26.4644C178.125 25.92 178.312 25.2469 178.312 24.9685C178.312 24.3687 178.672 22.9476 178.823 22.9476C178.973 22.9476 179.26 21.894 179.486 20.5147C179.592 19.8688 179.78 19.227 179.905 19.0885C180.029 18.9501 180.218 18.2001 180.325 17.4219C180.431 16.6438 180.672 15.7039 180.861 15.3332C181.051 14.9626 181.275 14.0977 181.36 13.4113C181.519 12.1321 181.849 11.2755 182.323 10.914C182.526 10.7587 184.989 10.7088 192.574 10.7061C198.065 10.7042 202.841 10.7495 203.187 10.8067C203.84 10.9146 203.988 11.1865 203.578 11.5266C203.447 11.6353 203.246 12.2502 203.131 12.893C202.911 14.1247 202.732 14.4227 201.439 15.7087C199.768 17.3709 200.358 17.2428 194.377 17.2428C189.351 17.2428 189.089 17.2583 188.805 17.5717C188.641 17.7526 188.428 17.8847 188.331 17.8653C188.137 17.8267 187.742 18.9347 187.721 19.5733C187.714 19.7939 187.6 20.0581 187.467 20.1606C187.327 20.2682 187.107 21.0554 186.946 22.0248C186.789 22.9624 186.569 23.7582 186.447 23.8286C186.326 23.8979 186.18 24.2754 186.123 24.6675C185.848 26.5366 185.605 27.5765 185.405 27.7296C185.285 27.8219 185.075 28.6439 184.938 29.5563C184.797 30.4965 184.589 31.2962 184.457 31.402C184.324 31.5085 184.112 32.3286 183.964 33.3096C183.82 34.2561 183.597 35.1365 183.468 35.2661C183.338 35.3956 183.141 36.0531 183.03 36.7272C182.808 38.0703 182.137 39.2624 181.13 40.1041C179.44 41.5152 179.749 41.4109 176.935 41.5208C174.716 41.6074 174.337 41.585 174.146 41.3557H174.146ZM235.716 41.4293C235.519 41.2968 235.523 41.0382 235.745 39.7203C235.889 38.8663 236.073 38.1219 236.152 38.0661C236.349 37.9288 236.666 36.806 236.796 35.7835C236.855 35.3221 237.075 34.5293 237.286 34.0217C237.496 33.5142 237.723 32.6541 237.788 32.1104C237.854 31.5668 238.057 30.8343 238.241 30.4828C238.424 30.1313 238.65 29.293 238.743 28.62C238.837 27.947 239.095 27.011 239.318 26.5401C239.541 26.0691 239.723 25.4645 239.724 25.1966C239.726 24.5815 239.993 23.5625 240.381 22.6959C240.546 22.3268 240.729 21.5519 240.787 20.974C240.845 20.3961 241.05 19.6161 241.241 19.2407C241.433 18.8654 241.689 17.9413 241.811 17.1874C241.934 16.4334 242.187 15.5523 242.375 15.2293C242.564 14.9063 242.77 14.2774 242.835 13.8318C242.927 13.2022 243.043 12.9808 243.356 12.8383C243.577 12.7374 243.802 12.4791 243.856 12.2642C243.914 12.0346 244.08 11.8735 244.259 11.8735C244.426 11.8735 244.777 11.6959 245.038 11.4789C245.298 11.2619 245.677 10.9977 245.878 10.8917C246.31 10.6648 250.761 10.6283 251.109 10.8487C251.392 11.0275 251.22 12.5991 250.888 12.8745C250.769 12.9729 250.539 13.7884 250.375 14.6867C250.211 15.5849 249.986 16.3959 249.874 16.4888C249.762 16.5817 249.549 17.3664 249.401 18.2326C249.208 19.3567 249.033 19.8985 248.79 20.1257C248.528 20.3696 248.448 20.6547 248.448 21.3482C248.448 22.8455 248.177 22.7802 254.375 22.7772C257.344 22.7759 259.871 22.7132 259.989 22.638C260.108 22.5628 260.159 22.3812 260.102 22.2344C260.029 22.0444 260.112 21.9516 260.39 21.9123C260.715 21.8663 260.822 21.6876 261.029 20.8502C261.165 20.2965 261.342 19.7973 261.421 19.7408C261.5 19.6844 261.55 19.5868 261.533 19.5239C261.515 19.4611 261.578 19.2052 261.671 18.9554C261.765 18.7056 261.934 17.916 262.048 17.2008C262.161 16.4856 262.305 15.9004 262.367 15.9004C262.5 15.9004 262.813 14.638 262.963 13.5013C263.079 12.6179 263.733 11.066 264.083 10.8444C264.341 10.6809 270.105 10.6856 270.848 10.8499C271.342 10.9591 271.351 10.9788 271.317 11.9384C271.296 12.5566 271.194 12.9862 271.04 13.1077C270.811 13.2889 270.261 15.5976 270.261 16.3786C270.261 16.577 270.156 16.7394 270.028 16.7394C269.878 16.7394 269.756 17.0228 269.683 17.5364C269.455 19.1525 269.173 20.3514 268.983 20.5147C268.875 20.6069 268.659 21.4685 268.502 22.4291C268.346 23.3898 268.111 24.2824 267.981 24.4126C267.851 24.5429 267.741 24.7385 267.738 24.8472C267.715 25.6192 267.219 27.6865 266.926 28.2348C266.73 28.6002 266.569 29.1042 266.569 29.3548C266.569 30.0984 266.214 31.5688 265.965 31.8515C265.838 31.996 265.699 32.3357 265.656 32.6065C265.322 34.6944 265.146 35.4687 264.965 35.65C264.85 35.7652 264.661 36.4087 264.546 37.0799C264.431 37.7512 264.208 38.4514 264.051 38.636C263.894 38.8205 263.634 39.2015 263.474 39.4826C263.313 39.7636 262.906 40.1748 262.569 40.3962C262.231 40.6176 261.803 40.9312 261.618 41.0931C261.132 41.5169 256.189 41.7524 255.869 41.367C255.605 41.0485 255.978 38.9125 256.468 37.9375C256.647 37.5834 256.845 36.809 256.91 36.2166C256.975 35.6242 257.208 34.7845 257.428 34.3505C257.648 33.9165 257.845 33.2308 257.866 32.8268C257.887 32.4227 258.042 31.765 258.21 31.3651C258.614 30.4029 258.605 29.9948 258.18 29.9948C257.995 29.9948 257.844 29.9193 257.844 29.827C257.844 29.7347 257.924 29.6592 258.022 29.6592C258.12 29.6592 258.153 29.5837 258.096 29.4914C258.03 29.3852 256.024 29.3236 252.631 29.3236C247.478 29.3236 247.259 29.3366 246.983 29.6592C246.825 29.8438 246.604 29.9948 246.492 29.9948C246.378 29.9948 246.237 30.3316 246.174 30.7524C246.111 31.1691 245.963 31.5655 245.845 31.6333C245.583 31.783 245.061 34.4645 245.195 34.9704C245.269 35.248 245.22 35.3259 244.986 35.306C244.664 35.2788 244.68 35.2234 244.287 37.7543C244.19 38.3768 243.999 38.9977 243.863 39.1342C243.727 39.2706 243.565 39.7465 243.504 40.1917C243.442 40.6368 243.328 41.1049 243.25 41.2319C243.138 41.4128 242.334 41.4759 239.527 41.5241C237.482 41.5592 235.848 41.5186 235.716 41.4294L235.716 41.4293ZM280.179 41.4331C279.844 41.2011 280.077 39.3785 280.568 38.3978C280.79 37.9546 281.001 37.1346 281.068 36.461C281.14 35.7354 281.318 35.0759 281.538 34.7203C281.732 34.4054 281.988 33.5459 282.106 32.8103C282.223 32.0746 282.476 31.141 282.666 30.7356C282.857 30.3301 283.013 29.8125 283.013 29.5853C283.013 28.984 283.356 27.4779 283.493 27.4779C283.631 27.4779 283.901 26.4945 284.183 24.9679C284.293 24.3719 284.499 23.6598 284.641 23.3855C284.783 23.1111 284.959 22.4034 285.032 21.8126C285.116 21.1357 285.371 20.3373 285.722 19.6533L286.278 18.568L285.946 17.9473L285.613 17.3266L281.335 17.2427L277.056 17.1588L277.069 16.0366C277.076 15.4194 277.172 14.8055 277.283 14.6723C277.524 14.382 277.917 12.9284 278.073 11.7486C278.163 11.0715 278.26 10.8757 278.544 10.7995C279.039 10.6667 303.694 10.6735 304.969 10.8067L306 10.9145V11.5618C306 12.2371 305.79 12.4035 305.528 11.9356C305.333 11.5872 304.947 11.7089 304.898 12.1347C304.737 13.504 304.572 14.1771 304.34 14.4128C304.192 14.5635 303.882 14.9297 303.651 15.2264C303.42 15.5231 302.816 16.0793 302.309 16.4624L301.386 17.1588L298.114 17.2427C295.355 17.3135 294.842 17.3661 294.841 17.5783C294.841 17.7176 294.691 17.83 294.506 17.83C293.92 17.83 293.777 18.0593 293.561 19.3436C293.442 20.0558 293.267 20.5985 293.157 20.5985C293.041 20.5985 292.845 21.3485 292.664 22.4861C292.495 23.5484 292.27 24.4288 292.15 24.4997C292.032 24.569 291.888 24.9465 291.83 25.3387C291.56 27.1834 291.314 28.2473 291.122 28.4007C291.007 28.493 290.786 29.3229 290.631 30.245C290.47 31.2046 290.248 31.9955 290.112 32.0946C289.885 32.2606 289.502 34.2094 289.482 35.2964C289.476 35.6432 289.391 35.8107 289.228 35.7998C289.055 35.7883 288.908 36.1528 288.725 37.0472C288.574 37.7856 288.308 38.5119 288.085 38.7943C287.875 39.0602 287.662 39.4434 287.611 39.6458C287.56 39.8507 287.208 40.1843 286.818 40.398C286.432 40.6092 285.964 40.9196 285.776 41.0877C285.492 41.3433 285.025 41.4098 282.924 41.4941C281.41 41.5548 280.319 41.5306 280.179 41.4332V41.4331Z" fill="#00A500"/>
</svg>
