<svg width="905" height="857" viewBox="0 0 905 857" fill="none" xmlns="http://www.w3.org/2000/svg">
<path d="M896.5 164.571V268.932C896.5 270.894 895.455 272.708 893.757 273.691L803.757 325.831C802.052 326.819 799.948 326.819 798.243 325.831L793.982 333.186L798.243 325.831L717.633 279.131L708.243 273.691C706.545 272.708 705.5 270.894 705.5 268.932V164.571C705.5 162.608 706.545 160.795 708.243 159.811L798.243 107.672C799.948 106.684 802.052 106.684 803.757 107.672L881.919 152.954L893.757 159.811C895.455 160.795 896.5 162.608 896.5 164.571Z" stroke="#F4F4F4" stroke-width="17" stroke-linecap="round"/>
<path d="M200 572.57V676.932C200 679.073 198.86 681.051 197.008 682.124L107.008 734.263C105.147 735.341 102.853 735.341 100.992 734.263L20.3821 687.564L10.9923 682.124C9.14024 681.051 8 679.073 8 676.932V572.57C8 570.43 9.14024 568.452 10.9923 567.379L100.992 515.239C102.853 514.161 105.147 514.161 107.008 515.239L185.17 560.521L197.008 567.379C198.86 568.452 200 570.43 200 572.57Z" stroke="#F8F8F8" stroke-width="16" stroke-linecap="round"/>
<path d="M680.91 137.642L474.983 18.838C456.118 7.9544 432.882 7.95442 414.017 18.838L104.517 197.396C85.6339 208.29 74 228.433 74 250.233V607.27C74 629.07 85.6339 649.213 104.517 660.107L132.325 676.15M747.955 176.322L784.483 197.396C803.366 208.29 815 228.433 815 250.233V607.27C815 629.07 803.366 649.213 784.483 660.107L474.983 838.665C456.118 849.549 432.882 849.549 414.017 838.665L209.229 720.518" stroke="url(#paint0_linear)" stroke-width="20" stroke-linecap="round"/>
<defs>
<linearGradient id="paint0_linear" x1="16.6833" y1="1.25165" x2="926.223" y2="61.3395" gradientUnits="userSpaceOnUse">
<stop stop-color="#6DD16B"/>
<stop offset="1" stop-color="#005322"/>
</linearGradient>
</defs>
</svg>
