<svg width="184" height="58" viewBox="0 0 184 58" fill="none" xmlns="http://www.w3.org/2000/svg">
<path d="M19.4718 57.6275C19.1508 57.5606 18.8563 57.456 18.8174 57.3951C18.7141 57.2335 18.3952 57.0886 17.9765 57.0131C17.7744 56.9767 17.5554 56.8822 17.4899 56.8032C17.4243 56.7242 17.128 56.589 16.8315 56.5028C16.535 56.4166 16.2229 56.2766 16.1379 56.1916C16.053 56.1067 15.7267 55.9488 15.4128 55.8408C15.099 55.7328 14.792 55.603 14.7306 55.5523C14.6692 55.5015 14.4151 55.381 14.1659 55.2844C13.9168 55.1878 13.6449 55.0517 13.5619 54.9819C13.4788 54.9121 13.207 54.7782 12.9578 54.6844C12.271 54.4258 11.0249 53.8196 10.7546 53.6126C10.6226 53.5114 10.4364 53.4286 10.3409 53.4286C10.2454 53.4286 9.91264 53.2927 9.60135 53.1266C9.29006 52.9605 8.97708 52.8246 8.90583 52.8246C8.83458 52.8246 8.61304 52.7136 8.4135 52.578C8.21397 52.4425 7.92031 52.3007 7.76092 52.263C7.60153 52.2254 7.31256 52.1129 7.11877 52.013C6.92497 51.9131 6.38133 51.6422 5.91068 51.411C3.89444 50.4204 2.60126 49.3841 1.77042 48.0929C0.986873 46.8752 0.776314 46.5081 0.776314 46.3597C0.776314 46.2114 0.613464 45.7725 0.317453 45.123C0.0880974 44.6198 0.0447069 44.2805 0.00735692 42.6985C-0.0317649 41.0413 0.0844328 40.1248 0.372934 39.8152C0.477484 39.703 0.586 39.3886 0.620743 39.0974C0.65474 38.8124 0.708067 38.3628 0.739246 38.0984C0.770424 37.8339 0.862702 37.5508 0.944318 37.4692C1.02593 37.3876 1.0555 37.3201 1.01002 37.3192C0.964534 37.3185 0.97741 37.2844 1.03863 37.2437C1.09985 37.2031 1.2224 36.7372 1.31095 36.2084C1.39952 35.6797 1.54071 35.1146 1.62471 34.9527C1.70873 34.7908 1.80296 34.4532 1.83411 34.2026C1.94018 33.3494 2.11237 32.5891 2.1995 32.5891C2.24731 32.5891 2.2791 32.5551 2.27016 32.5136C2.2612 32.4721 2.30653 32.3106 2.37084 32.1547C2.43515 31.9988 2.48777 31.7685 2.48777 31.643C2.48777 31.2846 2.70915 30.2736 2.78761 30.2736C2.85837 30.2736 2.97338 29.7891 3.19379 28.5625C3.25843 28.2028 3.36385 27.876 3.42808 27.8363C3.4923 27.7966 3.54836 27.7285 3.55265 27.6849C3.55694 27.6414 3.59194 27.4245 3.63042 27.2031C3.6689 26.9816 3.75194 26.4946 3.81494 26.1208C3.87795 25.7471 3.96029 25.4413 3.99791 25.4413C4.10379 25.4413 4.28362 24.7494 4.34724 24.0973C4.37884 23.7734 4.50164 23.2977 4.62012 23.0402C4.73861 22.7827 4.89773 22.1889 4.97373 21.7206C5.04972 21.2523 5.17483 20.7993 5.25175 20.7139C5.32866 20.6285 5.443 20.1818 5.50583 19.7214C5.62546 18.8447 5.69359 18.5802 5.82247 18.4921C5.86509 18.463 6.00067 17.9194 6.12377 17.2841C6.24686 16.6487 6.37576 16.1063 6.41021 16.0786C6.51965 15.9906 6.70594 15.2436 6.77146 14.6298C6.80629 14.3036 6.92244 13.8686 7.02957 13.663C7.1367 13.4575 7.28698 12.9024 7.36353 12.4296C7.44007 11.9567 7.57239 11.463 7.65757 11.3325C7.74275 11.202 7.86203 10.6946 7.92265 10.2048C7.99406 9.62786 8.1011 9.22034 8.22673 9.0471C8.34463 8.88452 8.45744 8.48386 8.51459 8.02469C8.60824 7.27228 8.67003 7.08229 9.0384 6.41391C9.14521 6.22012 9.23267 5.93697 9.23276 5.7847C9.23286 5.60191 9.2859 5.50785 9.38885 5.50785C9.47461 5.50785 9.62241 5.33796 9.71729 5.13032C9.81217 4.92268 10.0138 4.62159 10.1654 4.46124C10.317 4.30089 10.441 4.08457 10.441 3.98055C10.441 3.87269 10.5465 3.75129 10.6866 3.69805C10.8216 3.6467 10.9806 3.5142 11.0397 3.40362C11.0989 3.29304 11.2539 3.14363 11.3841 3.07161C11.66 2.91902 12.3979 2.38773 12.7473 2.09014C12.8806 1.97654 13.0492 1.88359 13.1218 1.88359C13.1945 1.88359 13.4931 1.7749 13.7854 1.64205C14.4478 1.34106 14.9035 1.22282 15.9277 1.08617C17.1126 0.928089 23.1212 0.908656 26.6495 1.0515C28.5204 1.12724 33.4402 1.17641 39.2421 1.17734C44.4793 1.17814 48.7981 1.21279 48.8396 1.25424C48.881 1.2957 49.1944 1.38253 49.5359 1.44721C50.7286 1.67308 51.2453 1.86005 52.271 2.43698C52.6032 2.62384 53.0223 2.8482 53.2022 2.93555C53.3822 3.02291 53.5294 3.15651 53.5294 3.23246C53.5294 3.3084 53.6481 3.4483 53.7931 3.54334C53.9382 3.63838 54.1987 3.87834 54.372 4.0766C54.5453 4.27485 54.8344 4.58063 55.0144 4.75611C55.1943 4.93158 55.3415 5.10931 55.3415 5.15106C55.3415 5.19281 55.4775 5.42834 55.6436 5.67447C55.8097 5.9206 55.9462 6.17634 55.9469 6.24278C55.9476 6.30922 56.0835 6.63057 56.249 6.95689C56.4145 7.28321 56.5939 7.8042 56.6476 8.11464C56.7014 8.42508 56.8125 8.9962 56.8946 9.38379C57.0543 10.1375 57.1738 12.4485 57.0421 12.2354C56.9988 12.1652 56.9409 12.1302 56.9136 12.1575C56.8862 12.1849 56.7673 12.7951 56.6492 13.5137C56.515 14.3308 56.379 14.8633 56.2862 14.9353C56.2045 14.9986 56.1155 15.2251 56.0883 15.4387C55.9286 16.6932 55.794 17.3489 55.6781 17.4377C55.6058 17.4931 55.5001 17.8555 55.4434 18.2431C55.3866 18.6307 55.3117 19.1403 55.2768 19.3757C55.2398 19.6256 55.1594 19.8035 55.0834 19.8035C54.9996 19.8035 54.9305 20.0094 54.8892 20.3824C54.7822 21.3488 54.6233 22.0603 54.4778 22.2249C54.4019 22.3108 54.2937 22.6959 54.2375 23.0806C54.0466 24.386 54.0087 24.5352 53.8686 24.5352C53.7928 24.5352 53.7278 24.6145 53.7241 24.7114C53.7205 24.8083 53.6591 25.2953 53.5877 25.7936C53.5163 26.292 53.4818 26.7642 53.5111 26.843C53.5481 26.9425 53.5147 26.9673 53.4019 26.924C53.1994 26.8463 53.0935 27.1702 52.9266 28.3788C52.8508 28.9279 52.7554 29.2719 52.6699 29.3047C52.595 29.3335 52.5115 29.5066 52.4842 29.6895C52.4569 29.8723 52.3876 30.3391 52.3302 30.7267C52.2729 31.1142 52.1342 31.6108 52.022 31.8302C51.9098 32.0495 51.818 32.3478 51.818 32.4929C51.818 32.9561 51.5922 33.9425 51.4476 34.1108C51.3708 34.2003 51.2382 34.7413 51.1531 35.3131C51.0576 35.9545 50.9422 36.3937 50.8518 36.4597C50.7598 36.5271 50.6456 36.9779 50.5446 37.6737C50.4473 38.3431 50.3306 38.8115 50.2492 38.8588C50.1752 38.9018 50.0927 39.083 50.066 39.2615C50.0392 39.4399 49.9645 39.947 49.9 40.3882C49.8328 40.848 49.7213 41.2354 49.6387 41.2957C49.5522 41.359 49.4347 41.8006 49.3443 42.402C49.2616 42.9524 49.1279 43.4759 49.0471 43.5652C48.9663 43.6544 48.8315 44.121 48.7477 44.6021C48.6479 45.174 48.5282 45.5436 48.4017 45.6701C48.2953 45.7765 48.1772 46.0707 48.1392 46.3238C48.094 46.625 48.0201 46.7841 47.9254 46.7841C47.8459 46.7841 47.7165 46.9377 47.6381 47.1255C47.5596 47.3133 47.3694 47.6058 47.2154 47.7756C47.0613 47.9453 46.7806 48.2698 46.5916 48.4966C46.247 48.91 45.305 49.6768 44.8582 49.9077C44.7271 49.9754 44.5292 50.1081 44.4184 50.2025C44.3077 50.2969 44.0219 50.4298 43.7834 50.4977C43.545 50.5657 43.2618 50.7093 43.1542 50.8169C43.0379 50.9332 42.8211 51.0124 42.619 51.0124C42.2062 51.0124 41.4965 51.2521 41.2861 51.4625C41.2014 51.5472 41.0335 51.617 40.9128 51.6176C40.5687 51.6193 39.7463 51.8949 39.5755 52.0657C39.4904 52.1509 39.2961 52.2205 39.1438 52.2205C38.7506 52.2205 37.9193 52.5208 37.856 52.6857C37.8267 52.7621 37.6664 52.8246 37.4998 52.8246C37.0814 52.8246 36.2135 53.1462 36.2135 53.3012C36.2135 53.382 36.0709 53.4286 35.8235 53.4286C35.3452 53.4286 34.5855 53.6857 34.4738 53.8854C34.4285 53.9664 34.2658 54.0326 34.1123 54.0326C33.7419 54.0326 32.9342 54.3127 32.7845 54.493C32.7189 54.572 32.5203 54.6367 32.3432 54.6367C31.9127 54.6367 31.0768 54.9284 31.0102 55.1018C30.9809 55.1782 30.8442 55.2407 30.7063 55.2407C30.3238 55.2407 29.3998 55.5338 29.2631 55.6985C29.1963 55.7789 28.9924 55.8448 28.81 55.8448C28.4254 55.8448 27.5556 56.1913 27.5556 56.3446C27.5556 56.4019 27.4168 56.4488 27.2473 56.4488C26.8228 56.4488 25.9388 56.7499 25.875 56.9163C25.8456 56.9927 25.6777 57.0529 25.4936 57.0529C25.0902 57.0529 24.357 57.3028 24.1132 57.5235C23.9626 57.6598 23.6111 57.692 21.994 57.718C20.7478 57.738 19.8469 57.7057 19.4718 57.6275ZM22.9066 52.3424C23.1205 52.2308 23.5825 52.0661 23.9333 51.9762C24.2841 51.8864 24.6262 51.7671 24.6935 51.7112C24.7609 51.6553 25.1492 51.5172 25.5566 51.4044C25.9639 51.2916 26.3653 51.1376 26.4485 51.0623C26.5318 50.987 26.9371 50.8488 27.3492 50.755C27.7613 50.6613 28.1568 50.5262 28.2282 50.4548C28.2996 50.3834 28.5885 50.2756 28.8701 50.2152C29.1518 50.1548 29.6168 49.9972 29.9035 49.8649C30.1902 49.7327 30.6739 49.5675 30.9785 49.4978C31.283 49.4281 31.6272 49.3093 31.7433 49.2339C31.8594 49.1584 32.2205 49.0273 32.5458 48.9426C32.871 48.8579 33.2063 48.7262 33.291 48.6499C33.3757 48.5737 33.5809 48.4825 33.747 48.4474C34.5529 48.277 34.9683 48.152 35.1061 48.0386C35.1892 47.9702 35.4964 47.864 35.789 47.8026C36.0815 47.7411 36.4892 47.6053 36.695 47.5008C36.9008 47.3962 37.3637 47.2296 37.7236 47.1304C38.0835 47.0312 38.4686 46.8967 38.5793 46.8313C38.6901 46.766 39.0978 46.6324 39.4854 46.5344C39.873 46.4364 40.2377 46.2977 40.2958 46.2262C40.3539 46.1546 40.5804 46.0636 40.7992 46.024C41.244 45.9433 41.7506 45.7133 41.7506 45.5921C41.7506 45.5484 41.9091 45.437 42.1029 45.3446C42.2967 45.2522 42.4553 45.111 42.4553 45.0308C42.4553 44.9505 42.55 44.8548 42.6658 44.8181C42.7816 44.7813 42.9408 44.597 43.0195 44.4086C43.0983 44.2201 43.2062 44.0659 43.2594 44.0659C43.3864 44.0659 43.6634 43.5255 43.6634 43.2777C43.6634 43.1709 43.7717 42.8402 43.9042 42.5428C44.0366 42.2454 44.1737 41.6978 44.2087 41.326C44.2454 40.9361 44.3725 40.4458 44.5089 40.1682C44.639 39.9033 44.773 39.4046 44.8067 39.0598C44.8403 38.7151 44.9819 38.1523 45.1213 37.8092C45.2608 37.4661 45.3754 37.046 45.376 36.8756C45.3774 36.5113 45.5964 35.6458 45.7685 35.3242C45.8349 35.2002 45.9564 34.6829 46.0386 34.1746C46.1208 33.6664 46.2429 33.2157 46.31 33.173C46.377 33.1304 46.3968 33.0949 46.3538 33.094C46.3109 33.0932 46.3448 32.9588 46.4293 32.7955C46.5138 32.6321 46.5829 32.335 46.5829 32.1353C46.5829 31.7021 46.7782 30.8777 46.8808 30.8777C46.9534 30.8777 47.0673 30.4 47.2889 29.1665C47.3536 28.8068 47.4412 28.4897 47.4837 28.4618C47.5644 28.4089 47.6998 27.8449 47.8903 26.7689C47.9522 26.4194 48.0911 25.9763 48.1989 25.7843C48.3068 25.5923 48.395 25.3172 48.395 25.173C48.395 24.7728 48.622 23.6291 48.7014 23.6291C48.7941 23.6291 48.9728 22.91 49.0499 22.2263C49.0838 21.9255 49.204 21.4765 49.3169 21.2286C49.4298 20.9807 49.5641 20.4794 49.6152 20.1146C49.7261 19.3234 49.7659 19.1717 49.9999 18.6458C50.0985 18.4243 50.2028 17.9712 50.2317 17.6389C50.2606 17.3066 50.4028 16.753 50.5477 16.4087C50.6926 16.0644 50.8115 15.634 50.8118 15.4524C50.8125 15.0614 50.9654 14.4483 51.1788 13.981C51.2632 13.7963 51.3745 13.3433 51.4263 12.9743C51.5402 12.1616 51.6088 11.9232 51.756 11.8281C51.8276 11.7819 51.8643 11.3894 51.8571 10.7441C51.8485 9.96263 51.8087 9.69145 51.6821 9.5516C51.592 9.45204 51.4891 9.21499 51.4533 9.02483C51.4175 8.83466 51.2726 8.52051 51.1313 8.32672C50.7902 7.85886 49.7874 6.9207 49.6264 6.91879C49.5562 6.91801 49.2803 6.80308 49.0134 6.66349L48.528 6.4097L40.3305 6.34513C32.7699 6.28558 32.1199 6.29357 31.9656 6.44791C31.8735 6.53995 31.7286 6.61526 31.6436 6.61526C31.428 6.61526 31.3114 6.87404 31.1756 7.65436C31.0967 8.10708 31.0125 8.32672 30.9178 8.32672C30.8404 8.32672 30.7763 8.36069 30.7753 8.40222C30.7743 8.44375 30.7081 8.90744 30.6282 9.43265C30.5285 10.0876 30.4293 10.4267 30.3124 10.5122C30.1204 10.6526 29.9867 11.3172 29.9777 12.1756C29.9705 12.8742 29.8599 12.8333 31.9349 12.9C32.7654 12.9267 33.7621 12.9956 34.1497 13.0532C34.5373 13.1107 35.2395 13.1976 35.7101 13.2463C36.5683 13.335 38.7378 13.9723 39.0324 14.2222C39.1154 14.2926 39.3873 14.4289 39.6364 14.525C39.8856 14.6212 40.1801 14.7783 40.2908 14.8743C40.4015 14.9702 40.5941 15.0796 40.7187 15.1174C40.8433 15.1552 40.9452 15.251 40.9452 15.3303C40.9452 15.4097 40.9885 15.4746 41.0414 15.4746C41.1721 15.4746 42.2539 16.5386 42.2539 16.6671C42.2539 16.7236 42.34 16.7971 42.4453 16.8305C42.5505 16.8639 42.6626 16.9948 42.6944 17.1215C42.7262 17.2481 42.862 17.5136 42.9962 17.7113C43.1304 17.9091 43.3171 18.3362 43.411 18.6604C43.5049 18.9846 43.6325 19.3115 43.6944 19.3868C43.8453 19.5701 43.9297 21.717 43.8536 23.4341C43.8014 24.6109 43.7617 24.8589 43.5901 25.0769C43.4683 25.2318 43.3613 25.5706 43.3206 25.9306C43.2727 26.3542 43.184 26.6021 43.0149 26.7844C42.884 26.9258 42.7463 27.2221 42.709 27.4429C42.6651 27.7027 42.5581 27.8988 42.406 27.9985C42.2766 28.0833 42.1406 28.2901 42.1037 28.4581C42.0668 28.6261 41.9732 28.7635 41.8956 28.7635C41.8181 28.7635 41.6651 28.9391 41.5556 29.1538C41.4461 29.3684 41.2837 29.572 41.1948 29.6061C41.1059 29.6402 41.0525 29.7024 41.0761 29.7444C41.0998 29.7863 40.9163 29.9791 40.6684 30.1729C40.4205 30.3667 40.0672 30.6725 39.8834 30.8525C39.6996 31.0324 39.4793 31.1797 39.3938 31.1797C39.3083 31.1797 39.1677 31.2875 39.0814 31.4193C38.9871 31.5632 38.7393 31.7107 38.4611 31.7886C38.1872 31.8653 37.9797 31.9879 37.9534 32.0885C37.9241 32.2005 37.7195 32.301 37.3544 32.3827C37.0494 32.451 36.7258 32.5933 36.6353 32.699C36.5443 32.8053 36.3416 32.8911 36.1815 32.8911C35.8028 32.8911 34.8389 33.1733 34.6783 33.3312C34.5514 33.456 32.6179 33.6965 31.7419 33.6965C31.4821 33.6965 31.0794 33.7799 30.8471 33.8817C30.4658 34.0488 30.2249 34.061 28.3692 34.0072C26.8613 33.9634 26.3025 33.9141 26.2718 33.822C26.2425 33.734 25.9543 33.6965 25.3059 33.6965C24.4441 33.6965 24.375 33.7118 24.2824 33.923C24.2209 34.0631 24.0772 34.1617 23.9061 34.1814C23.5482 34.2226 23.4712 34.382 23.3246 35.3847C23.2397 35.9653 23.1617 36.2134 23.064 36.2134C22.9873 36.2134 22.9244 36.2474 22.9242 36.2889C22.9216 36.7571 22.5849 38.3013 22.4657 38.3911C22.3779 38.4573 22.2494 38.879 22.1589 39.3979C22.0692 39.912 21.9441 40.3238 21.8639 40.3689C21.7873 40.4119 21.7017 40.5932 21.6738 40.7716C21.4427 42.2479 21.3705 42.5558 21.2553 42.5558C21.1202 42.5558 21.0608 42.7774 20.9584 43.6632C20.9232 43.9678 20.7849 44.4313 20.6511 44.6933C20.5172 44.9553 20.4077 45.2863 20.4077 45.4289C20.4077 45.837 20.1928 46.6159 20.0276 46.8071C19.9449 46.9027 19.8142 47.3784 19.7373 47.8641C19.6523 48.4008 19.5371 48.7926 19.4438 48.8627C19.3553 48.9293 19.2467 49.2704 19.1876 49.6681C19.1312 50.0476 18.9964 50.4823 18.8882 50.6341C18.6462 50.9736 18.6849 51.5871 18.9612 51.7906C19.2508 52.0038 20.3273 52.5068 20.6091 52.5605C21.1898 52.6712 22.5176 52.5451 22.9066 52.3424ZM11.5988 48.0627C11.5988 47.9962 11.7007 47.9274 11.8253 47.9097C11.9499 47.892 12.0518 47.8694 12.0519 47.8594C12.0547 47.4968 12.3958 46.0992 12.5132 45.9695C12.6101 45.8624 12.7107 45.4887 12.7598 45.0532C12.849 44.2631 12.9347 43.9542 13.0941 43.8477C13.1494 43.8107 13.2078 43.6975 13.2239 43.596C13.4025 42.4725 13.5677 41.7078 13.6426 41.659C13.7737 41.5736 13.9374 40.9814 14.0019 40.359C14.0325 40.0644 14.1692 39.5887 14.3058 39.3019C14.4424 39.0152 14.5844 38.498 14.6214 38.1525C14.6623 37.7715 14.7647 37.428 14.8819 37.279C15.0019 37.1265 15.1107 36.7529 15.169 36.293C15.2681 35.5113 15.3548 35.1935 15.4949 35.0986C15.5775 35.0426 15.6451 34.822 15.7394 34.3006C15.9395 33.1946 16.0223 32.8791 16.1377 32.7833C16.2106 32.7228 16.2981 32.4618 16.3322 32.2034C16.447 31.3331 16.5958 30.6763 16.6782 30.6763C16.7808 30.6763 16.851 30.4286 17.0307 29.4329C17.1092 28.9981 17.2405 28.5678 17.3225 28.4765C17.4386 28.3473 17.6895 27.1035 17.6895 26.6575C17.6895 26.6146 17.7747 26.4813 17.8789 26.3612C17.9948 26.2275 18.112 25.8483 18.1812 25.3832C18.2433 24.9653 18.3901 24.413 18.5073 24.1557C18.6245 23.8984 18.7598 23.3741 18.8079 22.9906C18.8561 22.607 18.9409 22.2385 18.9964 22.1717C19.0518 22.1049 19.0674 22.0204 19.031 21.9839C18.9945 21.9475 19.0123 21.9177 19.0704 21.9177C19.1286 21.9177 19.2008 21.8158 19.231 21.6912C19.2611 21.5666 19.3603 21.1702 19.4513 20.8103C19.6484 20.0313 19.6548 19.6888 19.4791 19.3223L19.3484 19.0495L15.4847 19.0749L11.6209 19.1003L11.4053 19.3512C11.2867 19.4893 11.1361 19.6022 11.0706 19.6022C10.887 19.6022 10.7776 19.8866 10.6448 20.7096C10.5778 21.1249 10.4572 21.5165 10.3767 21.5798C10.2865 21.6508 10.1695 22.1144 10.0716 22.7879C9.97583 23.4475 9.85952 23.9119 9.7783 23.9591C9.70428 24.0021 9.62197 24.1833 9.59539 24.3618C9.3645 25.9123 9.28102 26.3104 9.16854 26.3977C9.09718 26.4531 8.96574 26.9967 8.87644 27.6058C8.77451 28.3011 8.66228 28.7423 8.57486 28.7914C8.49828 28.8345 8.41434 29.0157 8.38833 29.1941C8.19472 30.5223 8.08004 31.0398 7.95972 31.1281C7.84368 31.2132 7.52146 32.859 7.52146 33.3665C7.52146 33.4438 7.47929 33.481 7.42775 33.4492C7.27884 33.3571 7.23317 33.5052 7.0681 34.6149C6.97411 35.2466 6.85564 35.7026 6.76842 35.7682C6.6802 35.8346 6.56085 36.3039 6.46115 36.9763C6.36966 37.5935 6.23268 38.1484 6.14893 38.2412C6.06686 38.3322 5.93303 38.8532 5.85153 39.399C5.73359 40.1888 5.65925 40.425 5.48727 40.5562C5.28709 40.7088 5.26803 40.8318 5.22813 42.2272C5.19111 43.522 5.20987 43.7816 5.3617 44.0759C5.69747 44.7268 6.53218 45.751 7.00079 46.0871C7.56781 46.4937 8.77459 47.1296 9.15741 47.2235C9.30968 47.2608 9.43427 47.3289 9.43427 47.3748C9.43427 47.4207 9.62681 47.5372 9.86213 47.6336C10.0975 47.73 10.5392 47.9384 10.8437 48.0966C11.3837 48.3772 11.5988 48.3676 11.5988 48.0627L11.5988 48.0627ZM31.2738 27.7664C31.8205 27.7016 32.2925 27.5914 32.3862 27.5067C32.4757 27.4257 32.7399 27.292 32.9734 27.2096C34.0599 26.8263 35.7059 25.0602 35.7126 24.2705C35.7139 24.1115 35.7624 23.7776 35.8203 23.5285C35.8974 23.1967 35.8911 22.8618 35.7968 22.2773C35.6917 21.6256 35.5999 21.3885 35.2965 20.9847C34.8958 20.4515 34.2577 19.9574 34.0976 20.0563C34.0432 20.0899 33.9987 20.0481 33.9987 19.9633C33.9987 19.7642 33.0949 19.4994 32.5048 19.5256C32.1829 19.5399 32.0425 19.4996 31.9713 19.3725C31.8859 19.2198 31.6782 19.2005 30.1682 19.2049C28.8394 19.2087 28.4616 19.2387 28.4616 19.3404C28.4616 19.4122 28.2863 19.5398 28.072 19.624C27.6993 19.7704 27.6776 19.8044 27.5711 20.4088C27.5099 20.7563 27.3847 21.1237 27.2928 21.2252C27.1972 21.3308 27.0654 21.7862 26.985 22.2887C26.9076 22.7721 26.7747 23.2444 26.6897 23.3383C26.6048 23.4322 26.4895 23.8418 26.4337 24.2486C26.3253 25.0379 26.1724 25.5419 26.0412 25.5419C25.8425 25.5419 25.6059 27.6528 25.7847 27.8316C25.9914 28.0383 29.3106 27.9989 31.2738 27.7664H31.2738ZM21.4954 12.5058C21.7449 12.2959 22.0801 11.4387 21.9962 11.2254C21.9808 11.1863 22.0484 11.0956 22.1464 11.0239C22.2722 10.9319 22.3506 10.6714 22.4126 10.1387C22.506 9.33598 22.6596 8.83009 22.8098 8.83009C22.8602 8.83009 22.9338 8.56959 22.9734 8.25121C23.013 7.93283 23.1091 7.48425 23.187 7.25436C23.3474 6.7808 23.2892 6.51459 23.0252 6.51459C22.9263 6.51459 22.8194 6.44663 22.7875 6.36358C22.7516 6.26996 22.788 6.21256 22.8833 6.21256C22.9679 6.21256 23.011 6.17035 22.9791 6.11875C22.9456 6.06445 22.8052 6.08659 22.646 6.17128C22.4197 6.29164 21.9866 6.3076 20.2064 6.26114C19.0159 6.23008 17.8952 6.18184 17.7159 6.15395C17.1597 6.06741 15.9331 6.37963 15.4076 6.74148C14.8714 7.11074 14.2666 7.69128 14.2666 7.8368C14.2666 7.89006 14.1609 8.0334 14.0318 8.15534C13.8793 8.29926 13.7554 8.58901 13.6787 8.9811C13.6136 9.31332 13.4899 9.63751 13.4038 9.70152C13.2566 9.81096 13.1744 10.185 12.9651 11.6993C12.8936 12.2167 12.9079 12.3322 13.0647 12.5047C13.2413 12.699 13.3874 12.7066 17.232 12.7233L21.2163 12.7407L21.4954 12.5058ZM142.928 49.2593C142.402 49.1882 141.919 49.1491 141.855 49.1725C141.79 49.1958 141.709 49.1246 141.674 49.0143C141.631 48.8785 141.425 48.7562 141.036 48.6357C140.446 48.4531 140.045 48.2278 139.135 47.569C138.787 47.3171 138.597 47.2327 138.564 47.3151C138.537 47.383 138.51 47.3326 138.506 47.2032C138.501 47.0394 138.409 46.9343 138.204 46.8569C137.993 46.7771 137.893 46.6586 137.85 46.4377C137.818 46.2683 137.645 45.9446 137.465 45.7183C137.103 45.2611 136.669 44.3553 136.482 43.6632C136.415 43.4141 136.299 43.0424 136.224 42.8373C136.019 42.2768 136.018 39.8958 136.222 39.4174C136.309 39.214 136.446 38.6704 136.527 38.2094C136.696 37.2383 136.763 37.0375 137.001 36.7807C137.097 36.6774 137.205 36.4218 137.24 36.2128C137.275 36.0037 137.414 35.7292 137.549 35.6028C137.683 35.4763 137.794 35.3271 137.794 35.2711C137.794 35.2151 137.975 34.9543 138.196 34.6917C138.418 34.429 138.599 34.1835 138.599 34.146C138.599 34.1085 138.712 33.9888 138.851 33.8799C138.989 33.771 139.102 33.6149 139.102 33.533C139.102 33.4511 139.236 33.3373 139.4 33.2802C139.564 33.2231 139.725 33.0918 139.758 32.9885C139.79 32.8853 139.894 32.7752 139.988 32.744C140.082 32.7127 140.34 32.5292 140.561 32.3361C140.782 32.143 141.018 31.9851 141.086 31.9851C141.153 31.9851 141.29 31.9019 141.389 31.8002C141.488 31.6985 141.773 31.5366 142.022 31.4405C142.271 31.3444 142.565 31.2084 142.676 31.1384C142.787 31.0683 143.195 30.9304 143.582 30.8319C143.97 30.7333 144.43 30.59 144.604 30.5135C144.779 30.4369 145.084 30.3743 145.282 30.3743C145.48 30.3743 145.959 30.3199 146.347 30.2535C147.124 30.1203 148.523 30.2412 149.572 30.5323C149.877 30.6168 150.374 30.7537 150.677 30.8366C150.98 30.9195 151.297 31.0458 151.382 31.1173C151.466 31.1887 151.689 31.308 151.876 31.3822C152.063 31.4565 152.335 31.6163 152.48 31.7374C152.625 31.8585 152.846 31.9894 152.97 32.0284C153.095 32.0674 153.197 32.1323 153.197 32.1727C153.197 32.2131 153.514 32.5722 153.901 32.9707C154.289 33.3692 154.606 33.7612 154.606 33.8419C154.606 33.9226 154.67 34.0248 154.748 34.0691C154.826 34.1133 154.984 34.4184 155.099 34.747C155.214 35.0756 155.358 35.3747 155.417 35.4116C155.477 35.4486 155.622 36.1175 155.739 36.898C155.855 37.6785 155.988 38.2941 156.034 38.2661C156.079 38.238 156.116 38.4015 156.116 38.6296C156.116 38.8576 156.076 39.0192 156.026 38.9887C155.929 38.9284 155.864 39.2499 155.724 40.492C155.589 41.6855 155.502 42.0626 155.348 42.1216C155.272 42.1508 155.21 42.2547 155.21 42.3526C155.21 42.6302 154.922 43.3782 154.768 43.5016C154.691 43.5628 154.575 43.7824 154.509 43.9897C154.443 44.1969 154.334 44.4007 154.266 44.4427C154.198 44.4846 154.033 44.6775 153.899 44.8713C153.765 45.0651 153.552 45.3365 153.426 45.4743C153.3 45.6122 153.197 45.7769 153.197 45.8403C153.197 45.9037 153.09 46.0252 152.961 46.1102C152.831 46.1952 152.587 46.393 152.418 46.5496C152.249 46.7063 151.923 46.9704 151.692 47.1365C151.462 47.3026 151.122 47.5631 150.938 47.7154C150.754 47.8676 150.536 47.9922 150.455 47.9922C150.374 47.9922 150.12 48.1281 149.89 48.2942C149.661 48.4603 149.358 48.5963 149.218 48.5963C148.906 48.5963 148.248 48.8607 148.146 49.0272C147.992 49.2752 144.27 49.4408 142.928 49.2593H142.928ZM146.545 45.2571C147.608 44.9092 148.383 44.4143 149.177 43.5761C149.616 43.1129 149.975 42.6538 149.975 42.5558C149.975 42.4578 150.085 42.3053 150.22 42.217C150.396 42.1016 150.485 41.9258 150.535 41.5933C150.573 41.3387 150.662 41.1081 150.733 41.0808C151.014 40.973 151.117 40.4129 151.125 38.9445C151.134 37.3012 151.084 37.0976 150.461 36.2459C149.909 35.4903 149.061 34.836 148.38 34.641C148.067 34.5511 147.765 34.442 147.71 34.3985C147.357 34.1216 145.959 34.2245 145.696 34.5467C145.641 34.6145 145.369 34.7004 145.092 34.7376C144.815 34.7747 144.476 34.8958 144.337 35.0068C144.199 35.1177 143.974 35.2557 143.839 35.3134C143.273 35.5543 142.042 36.9064 141.747 37.6109C141.665 37.8074 141.532 38.0164 141.452 38.0753C141.371 38.1343 141.229 38.5774 141.135 39.0601C141.029 39.6037 140.917 39.9378 140.839 39.938C140.591 39.9386 140.687 41.1915 141.008 42.1495C141.302 43.0261 141.947 44.0656 142.198 44.0658C142.267 44.0659 142.324 44.1092 142.324 44.162C142.324 44.3324 142.83 44.7706 143.027 44.7706C143.132 44.7706 143.248 44.8187 143.284 44.8775C143.521 45.2617 145.741 45.52 146.545 45.2571ZM58.9325 49.2181C58.6872 49.1706 58.7092 48.4923 58.9667 48.165C59.0779 48.0236 59.1892 47.7796 59.2141 47.6228C59.3964 46.4714 59.5025 45.9787 59.5682 45.9787C59.6628 45.9787 59.8414 45.2864 59.9167 44.6278C59.9479 44.3554 60.0802 43.8992 60.2108 43.614C60.3413 43.3288 60.4805 42.8268 60.5199 42.4984C60.5594 42.1701 60.7015 41.6581 60.8358 41.3607C60.9701 41.0634 61.08 40.6918 61.08 40.5351C61.08 40.1258 61.2837 39.2336 61.3772 39.2336C61.4675 39.2336 61.6444 38.5878 61.7313 37.9405C61.7636 37.7 61.8961 37.247 62.0257 36.9338C62.1553 36.6206 62.291 36.0988 62.3272 35.7742C62.3635 35.4497 62.5054 34.9387 62.6426 34.6387C62.7798 34.3387 62.8921 33.9836 62.8921 33.8495C62.8921 33.4374 63.0964 32.6259 63.3013 32.224C63.4085 32.0138 63.4961 31.6789 63.4961 31.4797C63.4961 31.0168 63.6694 30.7958 64.0498 30.7734C64.2159 30.7636 67.4676 30.7605 71.2757 30.7663L78.1995 30.777L78.2903 31.0157C78.3986 31.3007 78.2336 32.0832 78.0304 32.2479C77.9546 32.3093 77.8925 32.4094 77.8925 32.4702C77.8925 32.9692 76.8379 34.0235 76.1568 34.2055C75.921 34.2686 75.6424 34.4112 75.5378 34.5225C75.3526 34.7196 75.248 34.724 71.5793 34.6889C68.1696 34.6564 67.8022 34.6686 67.7187 34.8179C67.6679 34.9086 67.5238 35.0088 67.3985 35.0406C67.0769 35.1223 66.9327 35.4066 66.8242 36.1726C66.7723 36.5388 66.6592 36.9165 66.5728 37.012C66.3481 37.2603 66.3786 37.5724 66.657 37.8728L66.8983 38.1332L71.0299 38.1121C74.0369 38.0967 75.1998 38.1227 75.3019 38.2074C75.4125 38.2992 75.4223 38.4359 75.348 38.8542C75.2962 39.1459 75.213 39.4526 75.1633 39.5356C75.1135 39.6187 74.952 39.8905 74.8044 40.1396C74.6567 40.3888 74.3117 40.7587 74.0376 40.9615C73.3136 41.4975 72.5691 41.5797 69.0875 41.5079C66.2222 41.4488 65.7622 41.4765 65.8492 41.7031C65.9044 41.8469 65.5794 42.1894 65.481 42.091C65.2911 41.9011 64.9137 42.9499 64.9063 43.6884C64.9059 43.7299 64.8485 43.7639 64.7787 43.7639C64.5821 43.7639 64.3932 44.1416 64.4509 44.4195C64.4795 44.5573 64.5249 44.7775 64.5519 44.9089C64.6488 45.3811 64.8622 45.3994 69.8105 45.3605C72.3453 45.3406 74.4799 45.3635 74.5541 45.4114C74.7122 45.5134 74.6295 46.1398 74.426 46.3814C74.3561 46.4645 74.2402 46.7495 74.1686 47.0147C74.097 47.2799 73.9089 47.6599 73.7506 47.8591C73.5923 48.0583 73.4628 48.2531 73.4628 48.2921C73.4628 48.331 73.225 48.49 72.9343 48.6452C72.6436 48.8005 72.3366 48.9868 72.2522 49.0591C72.13 49.1637 70.7683 49.1967 65.5996 49.2206C62.0251 49.2371 59.0249 49.236 58.9325 49.2181L58.9325 49.2181ZM113.484 49.2136C112.858 49.1568 112.766 49.1207 112.631 48.8783C112.49 48.6269 112.495 48.5846 112.698 48.31C112.821 48.1441 112.97 47.7139 113.036 47.3339C113.101 46.9603 113.258 46.501 113.386 46.3133C113.513 46.1256 113.647 45.8377 113.683 45.6734C113.747 45.381 113.961 45.2755 114.085 45.4754C114.18 45.629 114.872 45.5957 115.571 45.4038C116.093 45.2606 116.297 45.1344 116.778 44.6568C117.096 44.3407 117.357 43.9957 117.357 43.8902C117.357 43.7847 117.469 43.5926 117.607 43.4634C117.744 43.3341 117.886 43.0657 117.921 42.8669C117.956 42.6681 118.095 42.388 118.228 42.2444C118.362 42.1007 118.498 41.8063 118.53 41.59C118.562 41.3737 118.691 41.0382 118.817 40.8444C118.942 40.6506 119.075 40.2917 119.111 40.0468C119.147 39.8019 119.284 39.3941 119.415 39.1407C119.546 38.8873 119.702 38.4112 119.762 38.0827C119.822 37.7543 119.91 37.4598 119.958 37.4283C120.079 37.3496 120.246 36.7653 120.318 36.1727C120.35 35.9011 120.486 35.4481 120.62 35.1659C120.753 34.8838 120.892 34.3585 120.928 33.9986C120.97 33.5853 121.085 33.1892 121.239 32.9236C121.374 32.6922 121.484 32.4355 121.484 32.3531C121.484 32.1802 122.069 31.5315 122.613 31.1007C122.942 30.8407 123.125 30.7885 124.123 30.671C125.689 30.4867 135.477 30.4679 135.696 30.6488C135.848 30.7743 135.845 30.8266 135.623 32.1613C135.581 32.4132 135.497 32.5891 135.419 32.5891C135.346 32.5891 135.263 32.7364 135.235 32.9163C135.011 34.3578 134.946 34.6529 134.83 34.747C134.728 34.8292 134.371 36.5436 134.371 36.9477C134.371 36.9868 134.307 37.0188 134.228 37.0188C134.141 37.0188 134.065 37.1642 134.031 37.3963C133.811 38.9175 133.739 39.2336 133.615 39.2336C133.535 39.2336 133.458 39.4048 133.421 39.6615C133.226 41.026 133.111 41.5491 133.006 41.5491C132.936 41.5491 132.82 41.9809 132.716 42.6313C132.605 43.322 132.485 43.7577 132.385 43.8354C132.299 43.9024 132.216 44.1211 132.2 44.3215C132.143 45.0363 131.914 46.1315 131.8 46.2304C131.737 46.2858 131.608 46.7841 131.515 47.3379C131.421 47.8916 131.289 48.3899 131.22 48.4453C131.152 48.5006 131.044 48.6641 130.98 48.8085C130.903 48.984 130.757 49.0924 130.541 49.1357C130.13 49.2178 126.789 49.2208 126.577 49.1392C126.346 49.0508 126.371 48.3433 126.618 47.9436C126.73 47.7622 126.866 47.2696 126.927 46.8243C126.987 46.3869 127.093 45.9385 127.162 45.8277C127.316 45.5828 127.493 44.8954 127.578 44.2169C127.613 43.9401 127.727 43.5648 127.833 43.383C127.939 43.2012 128.072 42.7619 128.128 42.4069C128.249 41.6504 128.296 41.4886 128.611 40.7437C128.669 40.6053 128.744 40.227 128.777 39.9031C128.81 39.5792 128.93 39.1106 129.044 38.8618C129.157 38.6129 129.29 38.1652 129.338 37.8669C129.387 37.5685 129.49 37.1763 129.567 36.9954C129.99 36.0097 130.128 35.1066 129.893 34.8708C129.791 34.7688 129.75 34.6268 129.789 34.5056C129.838 34.3516 129.794 34.2928 129.594 34.2427C129.453 34.2071 129.212 34.2099 129.06 34.2488C128.908 34.2878 128.115 34.3143 127.298 34.3079C126.347 34.3004 125.813 34.3332 125.813 34.3991C125.813 34.4556 125.87 34.5035 125.939 34.5055C126.186 34.5125 125.556 34.7969 125.287 34.8004C125.07 34.8032 124.998 34.8628 124.95 35.0808C124.916 35.2331 124.847 35.5162 124.797 35.71C124.748 35.9038 124.707 36.1884 124.706 36.3424C124.706 36.4964 124.64 36.6476 124.56 36.6785C124.475 36.7109 124.387 36.933 124.351 37.2039C124.234 38.0913 124.062 38.7807 123.932 38.8812C123.861 38.9366 123.731 39.3645 123.643 39.8321C123.555 40.2997 123.422 40.7301 123.348 40.7885C123.273 40.8469 123.141 41.181 123.053 41.5308C122.966 41.8806 122.831 42.23 122.754 42.3073C122.677 42.3845 122.558 42.6872 122.491 42.9799C122.424 43.2727 122.264 43.6708 122.136 43.8646C122.008 44.0584 121.859 44.384 121.805 44.5881C121.75 44.7922 121.609 45.0631 121.49 45.1901C121.372 45.3171 121.247 45.5352 121.213 45.6747C121.179 45.8142 121.022 46.086 120.864 46.2785C120.707 46.4711 120.578 46.6637 120.578 46.7066C120.578 46.7494 120.174 47.184 119.679 47.6723C119.033 48.3107 118.665 48.5946 118.371 48.6828C118.145 48.7503 117.882 48.8898 117.785 48.9929C117.63 49.157 117.397 49.1861 115.897 49.2287C114.956 49.2554 113.87 49.2486 113.484 49.2136L113.484 49.2136ZM81.8439 49.1347C81.6363 49.0492 81.7014 48.4447 81.9686 47.9773C82.1063 47.7364 82.2196 47.3894 82.2202 47.2063C82.2214 46.8238 82.4216 45.9528 82.5252 45.8781C82.6384 45.7964 82.8049 45.1651 82.8735 44.5574C82.9086 44.2463 83.0285 43.8217 83.14 43.6137C83.2514 43.4058 83.4029 42.8634 83.4765 42.4084C83.5502 41.9535 83.7056 41.3946 83.822 41.1665C83.9384 40.9384 84.0336 40.5984 84.0336 40.411C84.0336 40.2236 84.119 39.8254 84.2235 39.5261C84.3279 39.2268 84.461 38.846 84.5192 38.6799C84.5774 38.5138 84.6798 38.0634 84.7468 37.6791C84.8137 37.2947 84.9488 36.8417 85.0469 36.6723C85.145 36.503 85.2564 36.0632 85.2944 35.695C85.3592 35.0685 85.3498 35.0212 85.1474 34.957C84.9863 34.9059 84.9477 34.8367 84.9957 34.6852C85.0523 34.5072 85.031 34.4926 84.8238 34.5675C84.6937 34.6145 83.5453 34.653 82.2718 34.653H79.9563L79.9244 34.2655C79.9048 34.0267 79.9495 33.8144 80.0409 33.7118C80.2202 33.5108 80.3686 32.9488 80.4571 32.1361C80.5068 31.6788 80.6094 31.4042 80.8794 31.0059L81.236 30.4797L89.0312 30.5025C95.831 30.5224 96.8394 30.5446 96.9278 30.6763C97.0608 30.8745 96.9585 31.6748 96.7741 31.8785C96.6946 31.9665 96.5852 32.2353 96.5312 32.4759C96.381 33.1441 95.6827 33.8373 94.6222 34.3708C93.9632 34.7024 93.9576 34.7033 92.4658 34.7033C90.8359 34.7033 90.5975 34.7634 90.1587 35.2849C89.9771 35.5006 89.8835 35.7999 89.7809 36.4921C89.7059 36.9984 89.5996 37.4032 89.5447 37.3919C89.4158 37.3651 89.3225 37.6849 89.17 38.6772C89.0968 39.1535 88.9689 39.5785 88.8556 39.7226C88.7505 39.8562 88.6646 40.1096 88.6646 40.2858C88.6646 40.8268 88.4537 41.7917 88.2973 41.9665C88.2157 42.0576 88.1057 42.4376 88.0529 42.8108C87.9217 43.7369 87.8491 43.9984 87.6901 44.1163C87.5844 44.1947 87.2551 45.8458 87.2551 46.2972C87.2551 46.3435 87.1872 46.3815 87.1041 46.3815C87.0211 46.3815 86.9522 46.4381 86.9511 46.5073C86.9481 46.6824 86.7632 47.9844 86.694 48.3149C86.6627 48.4646 86.5606 48.6114 86.467 48.6411C86.3735 48.6708 86.252 48.7975 86.1972 48.9225C86.0986 49.1471 86.0716 49.1502 84.0336 49.1682C82.8985 49.1783 81.9131 49.1632 81.8439 49.1347H81.8439ZM90.7742 49.1349C90.5326 49.0695 90.6469 48.4341 90.9419 48.202C91.0748 48.0975 91.2472 47.8594 91.3251 47.6729C91.4031 47.4864 91.5612 47.2484 91.6765 47.144C91.7918 47.0397 91.8862 46.9003 91.8862 46.8343C91.8862 46.7683 92.0447 46.5511 92.2385 46.3515C92.4323 46.152 92.5909 45.9182 92.5909 45.8321C92.5909 45.7459 92.7041 45.5769 92.8426 45.4566C92.981 45.3362 93.0942 45.1563 93.0942 45.0568C93.0942 44.9574 93.2078 44.8016 93.3465 44.7107C93.4852 44.6198 93.6825 44.3582 93.7849 44.1295C93.8873 43.9007 94.0683 43.6273 94.187 43.5218C94.3058 43.4163 94.403 43.2516 94.403 43.1559C94.403 43.0601 94.5163 42.9075 94.6547 42.8168C94.7931 42.7261 94.9064 42.5892 94.9064 42.5127C94.9064 42.4362 95.0649 42.1838 95.2587 41.9518C95.4525 41.7198 95.6111 41.4839 95.6111 41.4275C95.6111 41.3712 95.7267 41.1829 95.868 41.0092C96.6434 40.0559 96.8192 39.8011 96.8192 39.6303C96.8192 39.5268 96.9099 39.3935 97.0207 39.3342C97.1315 39.2749 97.2878 39.0694 97.3679 38.8776C97.448 38.6858 97.5603 38.5289 97.6174 38.5289C97.6744 38.5289 97.8192 38.3364 97.939 38.101C98.0589 37.8657 98.241 37.614 98.3438 37.5416C98.4465 37.4693 98.5306 37.329 98.5306 37.2299C98.5306 37.1308 98.6779 36.8929 98.8578 36.7012C99.1629 36.3763 99.333 36.1265 99.7562 35.3819C99.8489 35.2188 100.019 35.0194 100.134 34.9389C100.249 34.8584 100.343 34.7314 100.343 34.6568C100.343 34.5821 100.501 34.3312 100.695 34.0992C100.889 33.8673 101.047 33.5984 101.047 33.5018C101.047 33.4052 101.161 33.2746 101.299 33.2115C101.438 33.1484 101.551 33.0307 101.551 32.9498C101.551 32.8256 101.939 32.2989 102.484 31.6831C102.836 31.2855 103.432 30.8679 103.758 30.7916C103.956 30.745 104.345 30.6466 104.621 30.5729C105.318 30.3875 106.071 30.3413 107.058 30.4235C107.849 30.4894 107.906 30.5099 108.046 30.7812C108.128 30.9395 108.195 31.2102 108.195 31.3827C108.195 31.5552 108.241 31.7813 108.296 31.8851C108.352 31.9889 108.445 32.5409 108.503 33.1117C108.664 34.6861 108.781 35.4348 108.879 35.5C108.985 35.5714 109.202 37.2932 109.202 38.065C109.202 38.6936 109.38 39.6363 109.499 39.6363C109.569 39.6363 109.678 40.4837 109.861 42.4508C109.894 42.8084 109.984 43.2516 110.061 43.4359C110.138 43.6201 110.272 44.5496 110.359 45.5014C110.462 46.6325 110.569 47.3113 110.668 47.4613C110.829 47.7081 110.912 48.9333 110.776 49.0695C110.732 49.1138 109.707 49.1644 108.5 49.1821C106.373 49.2132 106.297 49.2075 106.105 49.0014C105.882 48.762 105.781 48.1358 105.78 46.9792C105.779 46.2615 105.761 46.2008 105.471 45.9221L105.162 45.6264H101.771C99.9057 45.6264 98.2534 45.6616 98.0992 45.7047C97.9372 45.75 97.7788 45.8881 97.7242 46.0319C97.6721 46.1688 97.5634 46.2808 97.4825 46.2808C97.4016 46.2808 97.2336 46.462 97.1091 46.6835C96.9846 46.905 96.8505 47.0862 96.8111 47.0862C96.7717 47.0862 96.6554 47.2561 96.5527 47.4639C96.3525 47.8685 96.2044 48.0567 95.5371 48.7545L95.1107 49.2003L93.0202 49.1886C91.8705 49.1822 90.8597 49.158 90.7742 49.1349V49.1349ZM104.629 42.1768C104.688 42.1361 104.766 42.0235 104.802 41.9266C104.838 41.8297 104.933 41.7504 105.014 41.7504C105.293 41.7504 105.281 41.5359 104.881 39.1833C104.768 38.5188 104.66 37.693 104.642 37.3481C104.624 37.0032 104.576 36.6884 104.537 36.6487C104.422 36.5338 103.812 36.5828 103.503 36.7317C103.297 36.831 103.193 36.9823 103.116 37.2921C103.058 37.5254 102.937 37.7746 102.848 37.8458C102.758 37.9169 102.6 38.1324 102.495 38.3245C102.391 38.5167 102.227 38.763 102.13 38.872C102.033 38.981 101.954 39.1233 101.954 39.1881C101.954 39.2529 101.795 39.5049 101.602 39.748C101.409 39.9911 101.25 40.2399 101.25 40.3009C101.249 40.3619 101.111 40.5563 100.942 40.7329C100.672 41.0159 100.638 41.1161 100.657 41.5784C100.669 41.8668 100.728 42.1361 100.788 42.1768C100.848 42.2174 101.712 42.2507 102.709 42.2507C103.705 42.2507 104.569 42.2174 104.629 42.1768ZM156.627 49.1061C156.547 49.0561 156.47 48.9322 156.455 48.8308C156.397 48.4554 156.652 47.2324 156.829 47.0358C156.946 46.9058 157.046 46.5451 157.112 46.0173C157.17 45.5583 157.301 45.0509 157.412 44.8596C157.526 44.6643 157.651 44.1748 157.705 43.7125C157.758 43.2689 157.904 42.6799 158.03 42.4037C158.157 42.1275 158.318 41.5684 158.39 41.1613C158.461 40.7543 158.595 40.2612 158.688 40.0656C158.781 39.87 158.896 39.3987 158.943 39.0182C158.991 38.6377 159.138 38.0888 159.27 37.7984C159.402 37.508 159.567 36.8967 159.637 36.4399C159.707 35.9831 159.799 35.6093 159.84 35.6093C159.932 35.6093 160.11 34.9321 160.198 34.2502C160.234 33.9734 160.367 33.5204 160.495 33.2435C160.623 32.9667 160.758 32.5947 160.795 32.417C160.837 32.216 161.088 31.8589 161.461 31.4719C162.121 30.7873 162.199 30.7571 163.786 30.5771C164.58 30.4871 165.602 30.5647 165.765 30.7273C165.792 30.7546 165.818 31.0029 165.823 31.279C165.829 31.6563 165.796 31.7751 165.69 31.7572C165.588 31.7399 165.492 32.0173 165.338 32.7691C165.222 33.3388 165.076 33.8371 165.015 33.8765C164.954 33.916 164.829 34.3944 164.738 34.9398C164.631 35.5765 164.5 36.0228 164.371 36.1867C164.122 36.5027 164.078 37.5221 164.313 37.5221C164.391 37.5221 164.478 37.4655 164.506 37.3963C164.536 37.3211 164.56 37.3414 164.565 37.4466C164.569 37.5435 164.652 37.6245 164.749 37.6265C164.846 37.6285 166.307 37.6379 167.995 37.6473C170.817 37.663 171.068 37.6505 171.098 37.4926C171.116 37.3981 171.216 37.3208 171.319 37.3208C171.563 37.3208 171.603 37.246 171.732 36.5484C171.791 36.228 171.906 35.8374 171.987 35.6805C172.069 35.5236 172.198 35.0047 172.275 34.5273C172.361 33.996 172.472 33.6278 172.562 33.5779C172.651 33.528 172.734 33.2515 172.777 32.8665C172.891 31.8313 173.019 31.3814 173.331 30.9289L173.626 30.4994L175.417 30.5292C176.402 30.5456 177.349 30.5617 177.522 30.565C177.762 30.5696 177.851 30.6253 177.897 30.7998C177.976 31.1043 177.859 31.8086 177.708 31.9347C177.642 31.9901 177.502 32.5003 177.397 33.0685C177.271 33.7586 177.168 34.0865 177.089 34.0562C177.016 34.0279 176.948 34.1696 176.909 34.4326C176.71 35.7769 176.601 36.2746 176.487 36.3644C176.374 36.4538 176.273 36.8983 176.081 38.1514C176.049 38.359 175.966 38.5289 175.897 38.5289C175.822 38.5289 175.744 38.7246 175.706 39.0071C175.57 40.0271 175.398 40.7983 175.284 40.8947C175.219 40.9501 175.092 41.4484 175.002 42.0021C174.906 42.5902 174.778 43.0539 174.693 43.1171C174.608 43.1814 174.482 43.6503 174.383 44.2748C174.288 44.8768 174.161 45.3565 174.085 45.3998C174.013 45.4412 173.899 45.8037 173.832 46.2052C173.633 47.4065 172.865 48.4237 171.928 48.7263C171.642 48.8186 171.339 48.963 171.255 49.0472C171.136 49.1662 170.851 49.2 169.977 49.1988C169.358 49.198 168.799 49.1639 168.736 49.1233C168.672 49.0826 168.607 48.936 168.591 48.7976C168.545 48.394 168.708 47.3514 168.843 47.1868C168.999 46.9967 169.16 46.43 169.316 45.5272C169.382 45.1405 169.52 44.6874 169.622 44.5205C169.724 44.3535 169.809 44.0584 169.811 43.8646C169.812 43.6708 169.902 43.2631 170.009 42.9585C170.244 42.2899 170.248 42.2538 170.073 42.2538C169.997 42.2538 169.817 42.1604 169.672 42.0462C169.415 41.8442 169.328 41.8401 166.384 41.8929C164.642 41.9242 163.279 41.9905 163.169 42.0494C163.064 42.1056 162.922 42.3218 162.853 42.5299C162.785 42.738 162.67 42.9535 162.598 43.0089C162.525 43.0642 162.387 43.5739 162.29 44.1414C162.173 44.8258 162.07 45.1734 161.984 45.1734C161.913 45.1734 161.854 45.2073 161.854 45.2489C161.85 45.7231 161.517 47.3615 161.397 47.4938C161.312 47.5881 161.217 47.8407 161.187 48.0552C161.103 48.6627 160.956 48.963 160.685 49.0866C160.383 49.2242 156.84 49.2413 156.627 49.1061V49.1061ZM105.23 46.0864C105.198 46.0348 105.213 45.9671 105.264 45.936C105.314 45.9048 105.381 45.9469 105.413 46.0297C105.476 46.1928 105.324 46.2396 105.23 46.0864ZM64.8049 45.0727C64.8049 45.0173 64.8502 44.972 64.9056 44.972C64.9609 44.972 65.0062 45.0173 65.0062 45.0727C65.0062 45.128 64.9609 45.1733 64.9056 45.1733C64.8502 45.1733 64.8049 45.128 64.8049 45.0727ZM90.6874 25.7685C86.5274 25.7492 84.869 25.7093 84.769 25.6263C84.5885 25.4765 84.6888 24.7363 84.9634 24.1913C85.0727 23.9745 85.2063 23.4787 85.2602 23.0895C85.3141 22.7003 85.45 22.202 85.5622 21.9821C85.6744 21.7622 85.8106 21.2617 85.8649 20.8698C85.9192 20.4779 86.073 19.9261 86.2067 19.6435C86.3404 19.3609 86.45 18.9755 86.4503 18.7871C86.4509 18.3593 86.608 17.7629 86.8602 17.2297C86.9667 17.0046 87.0541 16.6875 87.0544 16.525C87.055 16.1524 87.2172 15.5419 87.4536 15.0215C87.5542 14.8 87.6649 14.3533 87.6997 14.0287C87.7345 13.7041 87.8685 13.2058 87.9975 12.9213C88.1265 12.6368 88.2577 12.1469 88.2892 11.8327C88.3207 11.5185 88.4449 11.0428 88.5652 10.7756C88.6855 10.5084 88.8238 9.98381 88.8726 9.60976C88.9213 9.23571 89.0757 8.6877 89.2156 8.39196C89.3555 8.09622 89.47 7.76576 89.47 7.65759C89.47 7.54942 89.5243 7.40656 89.5908 7.34011C89.7341 7.19679 103.927 7.16492 104.151 7.30741C104.315 7.41126 104.213 8.28875 104.023 8.40374C103.956 8.44444 103.843 8.69027 103.772 8.95005C103.616 9.51672 102.664 10.593 102.223 10.6996C102.067 10.7373 101.886 10.8532 101.822 10.9569C101.71 11.1361 101.506 11.1456 97.7596 11.1456C95.5903 11.1456 93.7438 11.1731 93.6562 11.2067C93.5686 11.2403 93.4969 11.3281 93.4969 11.4018C93.4969 11.4853 93.3933 11.5287 93.2222 11.5169C92.9557 11.4985 92.9441 11.52 92.8362 12.2266C92.7683 12.6713 92.6509 13.0371 92.535 13.1652C92.3497 13.3699 92.234 14.0745 92.3398 14.3533C92.3815 14.4631 92.4219 14.4656 92.5417 14.3662C92.6786 14.2526 92.7345 14.2964 92.7035 14.493C92.6969 14.5345 92.7029 14.5786 92.7167 14.5909C92.7306 14.6032 94.6446 14.6372 96.9702 14.6664L101.198 14.7195L101.225 15.1222C101.239 15.3437 101.187 15.6382 101.108 15.7766C101.03 15.915 100.865 16.2247 100.742 16.4648C100.311 17.3046 99.1688 18.0921 98.3818 18.0921C98.2487 18.0921 98.1166 18.1297 98.0882 18.1757C98.039 18.2552 92.6373 18.2321 92.5036 18.1518C92.4685 18.1308 92.1574 18.2078 91.8122 18.3231C91.1312 18.5504 91.064 18.6449 90.9199 19.577C90.8835 19.8123 90.8215 20.0049 90.782 20.0049C90.6266 20.0049 90.4767 20.5476 90.4767 21.1102C90.4767 21.5965 90.5099 21.7133 90.6614 21.7614C90.7629 21.7936 92.9261 21.8108 95.4685 21.7996C98.0109 21.7885 100.193 21.8135 100.318 21.8553C100.593 21.9477 100.599 22.0659 100.355 22.5783C100.251 22.7964 100.135 23.2327 100.097 23.548C100.049 23.947 99.9892 24.1064 99.9011 24.0726C99.8299 24.0453 99.6898 24.1825 99.5805 24.3866C99.4734 24.5866 99.1494 24.9066 98.8578 25.1005C98.5671 25.2939 98.3293 25.4894 98.3293 25.5351C98.3293 25.624 96.926 25.8602 96.6389 25.8196C96.5443 25.8063 93.8661 25.7832 90.6874 25.7685L90.6874 25.7685ZM122.189 25.7706C121.454 25.6732 121.46 25.6797 121.537 25.1206C121.576 24.8381 121.711 24.3982 121.837 24.1432C121.962 23.8882 122.097 23.4077 122.135 23.0755C122.174 22.7432 122.311 22.2222 122.441 21.9177C122.57 21.6132 122.704 21.0926 122.738 20.7609C122.773 20.4291 122.912 19.914 123.048 19.6161C123.185 19.3182 123.296 18.9641 123.296 18.8292C123.296 18.5249 123.507 17.6569 123.597 17.5887C123.688 17.5202 123.877 16.7425 123.953 16.129C123.987 15.8521 124.118 15.4217 124.245 15.1726C124.371 14.9234 124.506 14.4502 124.543 14.121C124.581 13.7917 124.72 13.2708 124.852 12.9632C124.984 12.6557 125.115 12.1469 125.143 11.8327C125.17 11.5185 125.292 11.0428 125.412 10.7756C125.532 10.5085 125.67 9.98384 125.719 9.60979C125.768 9.23574 125.922 8.68773 126.062 8.39199C126.202 8.09625 126.317 7.76578 126.317 7.65761C126.317 7.54944 126.371 7.40658 126.437 7.34014C126.601 7.1768 140.624 7.16466 140.928 7.3276C141.101 7.41993 141.121 7.49769 141.062 7.85613C141.024 8.08728 140.936 8.34436 140.866 8.42742C140.796 8.51047 140.664 8.80836 140.573 9.08939C140.376 9.69375 139.555 10.5931 139.111 10.6906C138.952 10.7257 138.741 10.8424 138.644 10.95C138.474 11.1375 138.3 11.1456 134.461 11.1456C131.127 11.1456 130.441 11.1693 130.374 11.2869C130.329 11.3647 130.18 11.4439 130.042 11.4631C129.811 11.4951 129.779 11.5637 129.659 12.2963C129.577 12.7913 129.466 13.1396 129.365 13.2132C129.117 13.3946 129.111 14.2417 129.356 14.4867C129.54 14.6711 129.732 14.6788 133.731 14.663C137.147 14.6494 137.939 14.6716 138.049 14.7836C138.152 14.889 138.161 15.0377 138.087 15.4242C138.035 15.7011 137.946 15.9431 137.89 15.962C137.834 15.9809 137.724 16.1513 137.645 16.3406C137.565 16.5299 137.272 16.9262 136.993 17.2213C136.571 17.6683 136.381 17.7873 135.856 17.9344C135.51 18.0315 135.145 18.1538 135.045 18.206C134.845 18.3112 132.171 18.301 130.293 18.1879C129.219 18.1232 129.044 18.1362 128.712 18.305C128.506 18.4094 128.272 18.4948 128.191 18.4948C128.039 18.4948 127.886 18.8695 127.77 19.5267C127.734 19.7344 127.674 19.9042 127.639 19.9042C127.384 19.9042 127.143 21.5253 127.37 21.7135C127.458 21.7864 128.989 21.8177 132.144 21.8111C135.795 21.8033 136.854 21.8297 137.09 21.9344C137.357 22.0528 137.513 22.3204 137.315 22.3204C137.209 22.3204 136.988 23.0609 136.988 23.4167C136.988 23.6054 136.862 23.862 136.636 24.1325C136.442 24.3645 136.283 24.5876 136.283 24.6284C136.283 24.6691 136.068 24.8529 135.805 25.0368C135.542 25.2207 135.268 25.4436 135.197 25.5321C135.08 25.6762 134.417 25.6938 128.847 25.7013C125.426 25.7058 122.585 25.7308 122.534 25.7568C122.483 25.7827 122.327 25.789 122.189 25.7706V25.7706ZM64.9811 25.6427C64.7434 25.4933 64.7553 24.9916 65.0062 24.5856C65.1169 24.4064 65.2759 23.8575 65.3594 23.3656C65.4429 22.8738 65.5959 22.3129 65.6995 22.1191C65.803 21.9253 65.918 21.4843 65.9551 21.1391C65.9922 20.794 66.1292 20.273 66.2596 19.9814C66.3899 19.6898 66.5283 19.1799 66.567 18.8482C66.6058 18.5166 66.729 18.0659 66.8409 17.8467C66.9527 17.6275 67.0859 17.112 67.1369 16.7012C67.1902 16.2714 67.3346 15.7471 67.477 15.4661C67.6131 15.1976 67.7244 14.8379 67.7244 14.6668C67.7244 14.3258 67.9232 13.4406 68.0178 13.3604C68.1756 13.2265 68.318 12.7464 68.3697 12.1737C68.4011 11.8255 68.5355 11.3045 68.6684 11.0159C68.8012 10.7274 68.9387 10.2257 68.9738 9.90108C69.0089 9.5765 69.1498 9.0655 69.2871 8.76552C69.4243 8.46554 69.5366 8.11113 69.5366 7.97795C69.5366 7.84477 69.5807 7.6196 69.6347 7.47756L69.7329 7.21933H73.756C77.4192 7.21933 77.8494 7.237 78.5657 7.41691C79.9494 7.76447 80.7367 8.00385 80.8004 8.09634C80.8345 8.14585 81.0209 8.28412 81.2147 8.40362C81.4085 8.52311 81.6987 8.73591 81.8596 8.8765C82.0205 9.0171 82.2383 9.13213 82.3437 9.13213C82.4491 9.13213 82.5082 9.1761 82.475 9.22985C82.4015 9.3487 82.6726 9.89642 82.8601 10.008C83.0234 10.1052 83.3289 10.9769 83.3289 11.3456C83.3289 11.4913 83.3954 11.6984 83.4767 11.8059C83.6942 12.0935 83.6933 14.0476 83.4755 14.2068C83.3823 14.275 83.2807 14.6016 83.2216 15.0233C83.1032 15.867 83.0429 16.0786 82.921 16.0786C82.8703 16.0786 82.7184 16.2965 82.5834 16.5628C82.2982 17.1256 81.2038 18.3009 80.7542 18.5272C80.5841 18.6128 80.3863 18.7535 80.3146 18.8398C80.243 18.9261 80.0061 19.0447 79.7881 19.1034C79.5702 19.1621 79.3036 19.2984 79.1958 19.4062C79.088 19.514 78.8822 19.6022 78.7384 19.6022C78.3646 19.6022 77.3683 19.9017 77.1735 20.0726C77.0418 20.1881 76.4554 20.2276 74.2742 20.2678L71.5399 20.3181L71.0955 20.6313C70.626 20.9623 70.5697 21.1077 70.3927 22.4463C70.3579 22.7093 70.2889 22.9244 70.2392 22.9244C70.1896 22.9244 70.0567 23.2343 69.9439 23.6131C69.8311 23.9918 69.6491 24.3829 69.5395 24.4821C69.4299 24.5813 69.3148 24.7426 69.2837 24.8405C69.2526 24.9385 69.119 25.0457 68.9869 25.0789C68.8547 25.1121 68.6135 25.2512 68.4509 25.388C68.174 25.621 68.0604 25.6404 66.6562 25.6951C65.6433 25.7345 65.1 25.7175 64.9809 25.6427H64.9811ZM75.6777 16.5857C75.9822 16.4819 76.382 16.3663 76.566 16.3288C76.7501 16.2914 77.0446 16.1368 77.2204 15.9853C77.3963 15.8338 77.6204 15.6806 77.7186 15.6449C77.8167 15.6091 77.9253 15.4995 77.9599 15.4014C77.9944 15.3032 78.1231 15.1096 78.2459 14.9712C78.9317 14.198 78.8191 12.3288 78.0534 11.7762C77.8819 11.6524 77.5397 11.4536 77.293 11.3345C76.4178 10.9119 73.816 10.9848 73.4965 11.4409C73.4163 11.5553 73.2854 11.649 73.2054 11.649C73.1255 11.649 73.0567 11.683 73.0524 11.7245C73.0482 11.766 73.0286 11.8906 73.0089 12.0013C72.9892 12.1121 72.9191 12.5538 72.8533 12.9829C72.7738 13.5003 72.6888 13.7631 72.6009 13.7631C72.5192 13.7631 72.4432 13.9463 72.4027 14.2413C72.3018 14.9757 72.1527 15.4903 71.9951 15.6479C71.8269 15.8161 71.8129 15.9419 71.9527 16.0283C72.0081 16.0625 72.0534 16.1942 72.0534 16.3209C72.0534 16.679 72.3901 16.7648 73.8152 16.7698C74.8397 16.7734 75.2442 16.7334 75.6777 16.5857H75.6777ZM104.488 25.6134C104.398 25.5048 104.386 25.3961 104.45 25.2716C104.502 25.1711 104.576 24.8398 104.614 24.5352C104.653 24.2307 104.791 23.7324 104.922 23.4278C105.053 23.1233 105.188 22.6289 105.223 22.3291C105.258 22.0294 105.392 21.531 105.52 21.2217C105.648 20.9124 105.781 20.4053 105.815 20.0948C105.85 19.7843 105.985 19.2859 106.116 18.9874C106.247 18.6888 106.384 18.1808 106.42 17.8585C106.457 17.5362 106.6 17.0052 106.737 16.6786C106.875 16.3519 106.987 15.9481 106.987 15.7811C106.987 15.4212 107.203 14.5685 107.294 14.5685C107.384 14.5685 107.556 13.9363 107.691 13.1088C107.755 12.7212 107.868 12.3362 107.943 12.2531C108.018 12.17 108.131 11.72 108.195 11.2531C108.258 10.7862 108.403 10.2223 108.517 9.99989C108.63 9.77751 108.765 9.25858 108.816 8.84672C108.911 8.0792 109.11 7.56523 109.394 7.34837C109.516 7.2552 110.994 7.22523 115.544 7.22364C118.839 7.2225 121.704 7.24962 121.912 7.28394C122.304 7.34873 122.393 7.51184 122.147 7.71593C122.068 7.78114 121.948 8.15006 121.879 8.53576C121.747 9.27476 121.639 9.45356 120.863 10.2252C119.861 11.2225 120.215 11.1456 116.626 11.1456C113.611 11.1456 113.453 11.1549 113.283 11.343C113.185 11.4515 113.057 11.5308 112.998 11.5191C112.882 11.496 112.645 12.1608 112.633 12.5439C112.628 12.6763 112.56 12.8348 112.48 12.8963C112.396 12.9609 112.264 13.4332 112.167 14.0148C112.074 14.5774 111.942 15.0549 111.868 15.0971C111.796 15.1387 111.708 15.3652 111.674 15.6005C111.509 16.7219 111.363 17.3458 111.243 17.4377C111.171 17.4931 111.045 17.9863 110.963 18.5338C110.878 19.0979 110.753 19.5777 110.674 19.6412C110.594 19.705 110.467 20.1971 110.378 20.7857C110.292 21.3536 110.158 21.8819 110.081 21.9596C110.003 22.0373 109.885 22.4318 109.818 22.8363C109.685 23.6421 109.282 24.3574 108.678 24.8624C107.664 25.7091 107.849 25.6465 106.161 25.7124C104.83 25.7644 104.602 25.7509 104.488 25.6134H104.488ZM141.429 25.6576C141.311 25.578 141.314 25.4229 141.447 24.6321C141.534 24.1197 141.644 23.6731 141.691 23.6396C141.809 23.5572 141.999 22.8835 142.078 22.2701C142.113 21.9932 142.245 21.5175 142.371 21.213C142.498 20.9085 142.634 20.3924 142.673 20.0662C142.712 19.74 142.834 19.3006 142.944 19.0896C143.054 18.8787 143.19 18.3758 143.246 17.972C143.302 17.5682 143.457 17.0066 143.591 16.724C143.724 16.4414 143.834 16.0787 143.834 15.9179C143.836 15.5489 143.996 14.9375 144.229 14.4175C144.328 14.196 144.438 13.7311 144.472 13.3844C144.507 13.0376 144.63 12.5696 144.745 12.3444C144.86 12.1192 145.014 11.5648 145.087 11.1124C145.16 10.66 145.312 10.1313 145.425 9.93752C145.538 9.74372 145.662 9.36641 145.701 9.09905C145.756 8.72129 145.826 8.58842 146.013 8.50292C146.146 8.4424 146.281 8.2874 146.314 8.15847C146.348 8.02074 146.448 7.92404 146.555 7.92404C146.656 7.92404 146.866 7.81751 147.023 7.68731C147.179 7.55711 147.406 7.39855 147.527 7.33495C147.786 7.19884 150.457 7.17692 150.666 7.3092C150.835 7.41647 150.732 8.3594 150.533 8.52463C150.462 8.58368 150.323 9.07297 150.225 9.61194C150.127 10.1509 149.991 10.6375 149.924 10.6933C149.857 10.749 149.729 11.2198 149.64 11.7395C149.525 12.414 149.42 12.7391 149.274 12.8753C149.117 13.0217 149.069 13.1927 149.069 13.6088C149.069 14.5073 148.906 14.4681 152.625 14.4663C154.407 14.4655 155.923 14.4278 155.994 14.3827C156.065 14.3376 156.095 14.2287 156.061 14.1406C156.018 14.0266 156.067 13.9709 156.234 13.9473C156.429 13.9197 156.493 13.8125 156.617 13.3101C156.699 12.9779 156.805 12.6783 156.852 12.6445C156.9 12.6106 156.93 12.552 156.92 12.5143C156.909 12.4766 156.947 12.3231 157.003 12.1732C157.059 12.0233 157.161 11.5496 157.229 11.1204C157.297 10.6913 157.383 10.3402 157.42 10.3402C157.5 10.3402 157.688 9.58276 157.778 8.9007C157.848 8.37071 158.24 7.43957 158.45 7.30658C158.604 7.2085 162.063 7.2113 162.509 7.30988C162.805 7.37539 162.811 7.38726 162.79 7.96298C162.777 8.33391 162.716 8.59169 162.624 8.66457C162.487 8.77331 162.156 10.1585 162.156 10.6271C162.156 10.7462 162.094 10.8436 162.017 10.8436C161.927 10.8436 161.853 11.0137 161.81 11.3218C161.673 12.2914 161.504 13.0108 161.39 13.1088C161.325 13.1641 161.195 13.681 161.101 14.2574C161.007 14.8338 160.867 15.3694 160.788 15.4475C160.71 15.5257 160.645 15.643 160.643 15.7083C160.629 16.1715 160.332 17.4119 160.155 17.7408C160.038 17.9601 159.942 18.2625 159.942 18.4128C159.942 18.859 159.728 19.7412 159.579 19.9108C159.503 19.9975 159.419 20.2014 159.393 20.3639C159.193 21.6166 159.088 22.0812 158.979 22.1899C158.91 22.2591 158.797 22.6452 158.728 23.0479C158.659 23.4507 158.525 23.8708 158.431 23.9815C158.336 24.0923 158.18 24.3209 158.084 24.4895C157.988 24.6581 157.743 24.9048 157.541 25.0377C157.339 25.1705 157.082 25.3587 156.971 25.4558C156.679 25.7101 153.714 25.8514 153.522 25.6202C153.363 25.429 153.587 24.1475 153.881 23.5625C153.988 23.35 154.107 22.8853 154.146 22.5299C154.185 22.1745 154.325 21.6706 154.457 21.4102C154.589 21.1498 154.707 20.7384 154.72 20.496C154.732 20.2536 154.825 19.8589 154.926 19.619C155.169 19.0417 155.163 18.7968 154.908 18.7968C154.797 18.7968 154.707 18.7515 154.707 18.6961C154.707 18.6408 154.755 18.5955 154.813 18.5955C154.872 18.5955 154.892 18.5502 154.858 18.4948C154.818 18.4311 153.615 18.3941 151.579 18.3941C148.487 18.3941 148.356 18.4019 148.19 18.5955C148.095 18.7062 147.962 18.7968 147.895 18.7968C147.827 18.7968 147.742 18.9989 147.704 19.2514C147.667 19.5014 147.578 19.7392 147.507 19.7799C147.35 19.8697 147.037 21.4787 147.117 21.7822C147.161 21.9488 147.132 21.9955 146.991 21.9836C146.799 21.9672 146.808 21.934 146.572 23.4525C146.514 23.826 146.4 24.1986 146.318 24.2805C146.236 24.3623 146.139 24.6479 146.102 24.915C146.065 25.1821 145.997 25.4629 145.95 25.5391C145.883 25.6476 145.4 25.6855 143.716 25.7144C142.489 25.7355 141.509 25.7111 141.429 25.6576L141.429 25.6576ZM168.107 25.6598C167.906 25.5206 168.046 24.427 168.341 23.8386C168.474 23.5727 168.601 23.0807 168.641 22.6765C168.684 22.2412 168.791 21.8455 168.923 21.6321C169.039 21.4432 169.193 20.9275 169.263 20.4861C169.334 20.0447 169.485 19.4846 169.6 19.2413C169.714 18.998 169.808 18.6875 169.808 18.5512C169.808 18.1904 170.014 17.2867 170.096 17.2867C170.178 17.2867 170.34 16.6967 170.51 15.7807C170.576 15.4231 170.699 14.9958 170.784 14.8312C170.87 14.6666 170.975 14.242 171.019 13.8875C171.069 13.4814 171.223 13.0023 171.433 12.5919L171.767 11.9408L171.567 11.5683L171.368 11.1959L168.801 11.1456L166.234 11.0952L166.241 10.4219C166.246 10.0516 166.303 9.68323 166.37 9.60333C166.514 9.42918 166.75 8.55699 166.844 7.84911C166.898 7.44285 166.956 7.32539 167.126 7.27966C167.423 7.2 182.216 7.20403 182.981 7.28398L183.6 7.34866V7.73701C183.6 8.14223 183.474 8.24208 183.317 7.96134C183.2 7.75226 182.968 7.8253 182.939 8.08078C182.842 8.90233 182.743 9.30623 182.604 9.44761C182.515 9.53808 182.329 9.75776 182.191 9.9358C182.052 10.1138 181.69 10.4475 181.385 10.6774L180.832 11.0952L178.868 11.1456C177.213 11.188 176.905 11.2196 176.905 11.3469C176.905 11.4305 176.815 11.4979 176.703 11.4979C176.352 11.4979 176.266 11.6355 176.137 12.4061C176.065 12.8335 175.96 13.1591 175.894 13.1591C175.825 13.1591 175.707 13.609 175.598 14.2916C175.497 14.929 175.362 15.4573 175.29 15.4998C175.219 15.5413 175.133 15.7679 175.098 16.0031C174.936 17.11 174.788 17.7483 174.673 17.8404C174.604 17.8958 174.472 18.3937 174.379 18.9469C174.282 19.5227 174.149 19.9972 174.067 20.0567C173.931 20.1563 173.701 21.3256 173.689 21.9778C173.686 22.1859 173.635 22.2864 173.537 22.2798C173.433 22.2729 173.345 22.4917 173.235 23.0283C173.144 23.4713 172.985 23.9071 172.851 24.0766C172.725 24.2361 172.597 24.466 172.567 24.5875C172.536 24.7104 172.325 24.9105 172.091 25.0388C171.859 25.1655 171.578 25.3517 171.466 25.4526C171.295 25.6059 171.015 25.6458 169.754 25.6964C168.846 25.7328 168.192 25.7183 168.107 25.6598V25.6598Z" fill="#00A500"/>
</svg>
