<svg width="706" height="112" viewBox="0 0 706 112" fill="none" xmlns="http://www.w3.org/2000/svg">
<path d="M34.992 33.256H33.992V34.256H34.992V33.256ZM54.864 33.256H55.864V32.256H54.864V33.256ZM54.864 50.536V51.536H55.864V50.536H54.864ZM35.568 50.536V49.536H34.568V50.536H35.568ZM35.568 109V110H36.568V109H35.568ZM13.104 109H12.104V110H13.104V109ZM13.104 50.536H14.104V49.536H13.104V50.536ZM1.152 50.536H0.152V51.536H1.152V50.536ZM1.152 33.256V32.256H0.152V33.256H1.152ZM13.104 33.256V34.256H14.104V33.256H13.104ZM20.88 8.77599L20.1794 8.0624L20.1729 8.06889L20.88 8.77599ZM52.56 2.15199L52.3101 3.12027L52.3281 3.12492L52.3463 3.12889L52.56 2.15199ZM60.192 5.176L61.132 5.51707L61.3997 4.7793L60.7467 4.34395L60.192 5.176ZM54.288 21.448L53.7125 22.2658L54.782 23.0184L55.228 21.7891L54.288 21.448ZM34.992 34.256H54.864V32.256H34.992V34.256ZM53.864 33.256V50.536H55.864V33.256H53.864ZM54.864 49.536H35.568V51.536H54.864V49.536ZM34.568 50.536V109H36.568V50.536H34.568ZM35.568 108H13.104V110H35.568V108ZM14.104 109V50.536H12.104V109H14.104ZM13.104 49.536H1.152V51.536H13.104V49.536ZM2.152 50.536V33.256H0.152V50.536H2.152ZM1.152 34.256H13.104V32.256H1.152V34.256ZM14.104 33.256V29.8H12.104V33.256H14.104ZM14.104 29.8C14.104 21.1752 16.628 14.4422 21.5871 9.4831L20.1729 8.06889C14.764 13.4778 12.104 20.7608 12.104 29.8H14.104ZM21.5806 9.48956C26.6246 4.53725 33.7363 1.99999 43.056 1.99999V-7.62939e-06C33.3677 -7.62939e-06 25.6954 2.64674 20.1794 8.06243L21.5806 9.48956ZM43.056 1.99999C46.3395 1.99999 49.4229 2.37519 52.3101 3.12027L52.8099 1.18372C49.7451 0.392794 46.4925 -7.62939e-06 43.056 -7.62939e-06V1.99999ZM52.3463 3.12889C55.3311 3.78182 57.7507 4.75034 59.6373 6.00805L60.7467 4.34395C58.6013 2.91365 55.9329 1.86618 52.7737 1.17509L52.3463 3.12889ZM59.252 4.83492L53.348 21.1069L55.228 21.7891L61.132 5.51707L59.252 4.83492ZM54.8635 20.6302C52.0877 18.6768 48.8585 17.712 45.216 17.712V19.712C48.4855 19.712 51.3043 20.5711 53.7125 22.2658L54.8635 20.6302ZM45.216 17.712C41.6284 17.712 38.7612 18.7017 36.8085 20.8469C34.8721 22.9742 33.992 26.0679 33.992 29.944H35.992C35.992 26.3321 36.816 23.8098 38.2875 22.1931C39.7428 20.5943 41.9876 19.712 45.216 19.712V17.712ZM33.992 29.944V33.256H35.992V29.944H33.992ZM140.527 76.6V77.6H141.453L141.524 76.6767L140.527 76.6ZM81.9191 76.6V75.6H80.6752L80.9425 76.8149L81.9191 76.6ZM89.4071 87.976L89.9846 87.1596L89.4071 87.976ZM114.751 90.424L115.102 91.3603L115.11 91.3574L115.118 91.3544L114.751 90.424ZM123.535 84.664L124.27 83.9861L123.577 83.2344L122.841 83.9442L123.535 84.664ZM135.487 97.624L136.24 98.2819L136.831 97.6059L136.222 96.9461L135.487 97.624ZM80.3351 105.112L79.8777 106.001L79.8879 106.006L80.3351 105.112ZM64.7831 90.856L63.9268 91.3725L64.7831 90.856ZM64.6391 49.816L63.7793 49.3055L63.7768 49.3096L64.6391 49.816ZM79.4711 35.56L79.9452 36.4405L79.95 36.4379L79.4711 35.56ZM121.231 35.272L121.7 34.3889L121.231 35.272ZM135.631 49.384L134.76 49.8743L134.764 49.8824L134.769 49.8904L135.631 49.384ZM87.9671 51.688L87.3269 50.9198L87.9671 51.688ZM81.6311 63.496L80.6428 63.3439L80.4655 64.496H81.6311V63.496ZM119.791 63.496V64.496H120.96L120.779 63.341L119.791 63.496ZM113.455 51.832L112.803 52.5898L112.809 52.595L112.815 52.6002L113.455 51.832ZM139.959 70.552C139.959 70.5512 139.959 70.554 139.959 70.5613C139.959 70.5684 139.959 70.578 139.958 70.5906C139.957 70.6158 139.956 70.649 139.954 70.6911C139.949 70.7752 139.943 70.8876 139.934 71.0296C139.916 71.3133 139.89 71.7059 139.854 72.2087C139.782 73.214 139.674 74.6519 139.53 76.5233L141.524 76.6767C141.809 72.9697 141.959 70.8907 141.959 70.552H139.959ZM140.527 75.6H81.9191V77.6H140.527V75.6ZM80.9425 76.8149C82.0508 81.8529 84.686 85.8615 88.8297 88.7924L89.9846 87.1596C86.2562 84.5225 83.8994 80.9471 82.8958 76.3851L80.9425 76.8149ZM88.8297 88.7924C92.968 91.7195 98.0775 93.152 104.095 93.152V91.152C98.4008 91.152 93.7182 89.8005 89.9846 87.1596L88.8297 88.7924ZM104.095 93.152C108.221 93.152 111.896 92.5628 115.102 91.3603L114.4 89.4877C111.463 90.5892 108.034 91.152 104.095 91.152V93.152ZM115.118 91.3544C118.419 90.0539 121.456 88.058 124.229 85.3838L122.841 83.9442C120.238 86.454 117.419 88.2981 114.385 89.4936L115.118 91.3544ZM122.8 85.3419L134.752 98.3019L136.222 96.9461L124.27 83.9861L122.8 85.3419ZM134.734 96.9661C127.676 105.046 117.328 109.152 103.519 109.152V111.152C117.742 111.152 128.706 106.906 136.24 98.2819L134.734 96.9661ZM103.519 109.152C94.9131 109.152 87.3425 107.498 80.7823 104.218L79.8879 106.006C86.7677 109.446 94.6531 111.152 103.519 111.152V109.152ZM80.7925 104.223C74.2255 100.845 69.1849 96.2175 65.6394 90.3395L63.9268 91.3725C67.6774 97.5905 73.0048 102.467 79.8778 106.001L80.7925 104.223ZM65.6394 90.3395C62.0936 84.4609 60.3111 77.7784 60.3111 70.264H58.3111C58.3111 78.1096 60.1767 85.1551 63.9268 91.3725L65.6394 90.3395ZM60.3111 70.264C60.3111 62.8431 62.0469 56.2045 65.5014 50.3224L63.7768 49.3096C60.1274 55.5235 58.3111 62.5169 58.3111 70.264H60.3111ZM65.499 50.3265C69.0551 44.3372 73.8664 39.7137 79.9452 36.4405L78.997 34.6795C72.5959 38.1263 67.5191 43.0068 63.7793 49.3055L65.499 50.3265ZM79.95 36.4379C86.1278 33.0682 93.0171 31.376 100.639 31.376V29.376C92.7091 29.376 85.4864 31.1398 78.9923 34.6821L79.95 36.4379ZM100.639 31.376C108.075 31.376 114.775 32.9746 120.762 36.1551L121.7 34.3889C115.399 31.0414 108.372 29.376 100.639 29.376V31.376ZM120.762 36.1551C126.735 39.3281 131.396 43.8947 134.76 49.8743L136.503 48.8937C132.954 42.5853 128.016 37.7439 121.7 34.3889L120.762 36.1551ZM134.769 49.8904C138.218 55.7631 139.959 62.639 139.959 70.552H141.959C141.959 62.337 140.148 55.1009 136.493 48.8776L134.769 49.8904ZM100.783 46.368C95.4937 46.368 90.9862 47.8704 87.3269 50.9198L88.6073 52.4562C91.8601 49.7456 95.8965 48.368 100.783 48.368V46.368ZM87.3269 50.9198C83.6604 53.9752 81.4429 58.1427 80.6428 63.3439L82.6195 63.6481C83.3553 58.8653 85.3619 55.1608 88.6073 52.4562L87.3269 50.9198ZM81.6311 64.496H119.791V62.496H81.6311V64.496ZM120.779 63.341C119.978 58.2314 117.757 54.1154 114.095 51.0638L112.815 52.6002C116.065 55.3086 118.069 58.9686 118.803 63.651L120.779 63.341ZM114.108 51.0742C110.453 47.9268 105.99 46.368 100.783 46.368V48.368C105.56 48.368 109.546 49.7852 112.803 52.5898L114.108 51.0742ZM231.371 76.6V77.6H232.297L232.368 76.6767L231.371 76.6ZM172.763 76.6V75.6H171.519L171.786 76.8149L172.763 76.6ZM180.251 87.976L180.828 87.1596L180.251 87.976ZM205.595 90.424L205.946 91.3603L205.954 91.3574L205.961 91.3544L205.595 90.424ZM214.379 84.664L215.114 83.9861L214.421 83.2344L213.685 83.9442L214.379 84.664ZM226.331 97.624L227.084 98.2819L227.675 97.6059L227.066 96.9461L226.331 97.624ZM171.179 105.112L170.721 106.001L170.732 106.006L171.179 105.112ZM155.627 90.856L154.771 91.3725L155.627 90.856ZM155.483 49.816L154.623 49.3055L154.621 49.3096L155.483 49.816ZM170.315 35.56L170.789 36.4405L170.794 36.4379L170.315 35.56ZM212.075 35.272L212.544 34.3889L212.075 35.272ZM226.475 49.384L225.603 49.8743L225.608 49.8824L225.613 49.8904L226.475 49.384ZM178.811 51.688L178.171 50.9198L178.811 51.688ZM172.475 63.496L171.487 63.3439L171.309 64.496H172.475V63.496ZM210.635 63.496V64.496H211.804L211.623 63.341L210.635 63.496ZM204.299 51.832L203.646 52.5898L203.652 52.595L203.659 52.6002L204.299 51.832ZM230.803 70.552C230.803 70.5512 230.803 70.554 230.803 70.5613C230.803 70.5684 230.802 70.578 230.802 70.5906C230.801 70.6158 230.799 70.649 230.797 70.6911C230.793 70.7752 230.787 70.8876 230.778 71.0296C230.76 71.3133 230.733 71.7059 230.697 72.2087C230.626 73.214 230.518 74.6519 230.374 76.5233L232.368 76.6767C232.653 72.9697 232.803 70.8907 232.803 70.552H230.803ZM231.371 75.6H172.763V77.6H231.371V75.6ZM171.786 76.8149C172.895 81.8529 175.53 85.8615 179.673 88.7924L180.828 87.1596C177.1 84.5225 174.743 80.9471 173.74 76.3851L171.786 76.8149ZM179.673 88.7924C183.812 91.7195 188.921 93.152 194.939 93.152V91.152C189.245 91.152 184.562 89.8005 180.828 87.1596L179.673 88.7924ZM194.939 93.152C199.064 93.152 202.739 92.5628 205.946 91.3603L205.244 89.4877C202.306 90.5892 198.878 91.152 194.939 91.152V93.152ZM205.961 91.3544C209.263 90.0539 212.3 88.058 215.073 85.3838L213.685 83.9442C211.082 86.454 208.263 88.2981 205.228 89.4936L205.961 91.3544ZM213.644 85.3419L225.596 98.3019L227.066 96.9461L215.114 83.9861L213.644 85.3419ZM225.578 96.9661C218.52 105.046 208.172 109.152 194.363 109.152V111.152C208.586 111.152 219.55 106.906 227.084 98.2819L225.578 96.9661ZM194.363 109.152C185.757 109.152 178.186 107.498 171.626 104.218L170.732 106.006C177.611 109.446 185.497 111.152 194.363 111.152V109.152ZM171.636 104.223C165.069 100.845 160.029 96.2175 156.483 90.3395L154.771 91.3725C158.521 97.5905 163.849 102.467 170.722 106.001L171.636 104.223ZM156.483 90.3395C152.937 84.4609 151.155 77.7784 151.155 70.264H149.155C149.155 78.1096 151.02 85.1551 154.771 91.3725L156.483 90.3395ZM151.155 70.264C151.155 62.8431 152.891 56.2045 156.345 50.3224L154.621 49.3096C150.971 55.5235 149.155 62.5169 149.155 70.264H151.155ZM156.343 50.3265C159.899 44.3372 164.71 39.7137 170.789 36.4405L169.841 34.6795C163.44 38.1263 158.363 43.0068 154.623 49.3055L156.343 50.3265ZM170.794 36.4379C176.972 33.0682 183.861 31.376 191.483 31.376V29.376C183.553 29.376 176.33 31.1398 169.836 34.6821L170.794 36.4379ZM191.483 31.376C198.918 31.376 205.619 32.9746 211.606 36.1551L212.544 34.3889C206.243 31.0414 199.215 29.376 191.483 29.376V31.376ZM211.606 36.1551C217.578 39.3281 222.24 43.8947 225.603 49.8743L227.346 48.8937C223.798 42.5853 218.859 37.7439 212.544 34.3889L211.606 36.1551ZM225.613 49.8904C229.062 55.7631 230.803 62.639 230.803 70.552H232.803C232.803 62.337 230.992 55.1009 227.337 48.8776L225.613 49.8904ZM191.627 46.368C186.337 46.368 181.83 47.8704 178.171 50.9198L179.451 52.4562C182.704 49.7456 186.74 48.368 191.627 48.368V46.368ZM178.171 50.9198C174.504 53.9752 172.287 58.1427 171.487 63.3439L173.463 63.6481C174.199 58.8653 176.206 55.1608 179.451 52.4562L178.171 50.9198ZM172.475 64.496H210.635V62.496H172.475V64.496ZM211.623 63.341C210.821 58.2314 208.601 54.1154 204.939 51.0638L203.659 52.6002C206.909 55.3086 208.912 58.9686 209.647 63.651L211.623 63.341ZM204.951 51.0742C201.296 47.9268 196.834 46.368 191.627 46.368V48.368C196.404 48.368 200.389 49.7852 203.646 52.5898L204.951 51.0742ZM325.671 2.15199H326.671V1.15199H325.671V2.15199ZM325.671 109V110H326.671V109H325.671ZM304.215 109H303.215V110H304.215V109ZM304.215 100.072H305.215V97.2977L303.445 99.434L304.215 100.072ZM260.151 105.256L259.664 106.13L259.67 106.133L260.151 105.256ZM246.327 91.288L247.201 90.8024L246.327 91.288ZM246.327 49.24L247.201 49.7256L246.327 49.24ZM260.151 35.272L259.67 34.3952L259.664 34.3985L260.151 35.272ZM303.207 39.736L302.46 40.4018L304.207 42.3587V39.736H303.207ZM303.207 2.15199V1.15199H302.207V2.15199H303.207ZM298.023 85.96L298.739 86.6581L298.747 86.6492L298.023 85.96ZM298.023 54.712L297.298 55.4013L297.307 55.4101L298.023 54.712ZM269.655 54.712L270.371 55.4102L270.379 55.4012L269.655 54.712ZM269.655 85.96L268.93 86.6493L268.939 86.6581L269.655 85.96ZM324.671 2.15199V109H326.671V2.15199H324.671ZM325.671 108H304.215V110H325.671V108ZM305.215 109V100.072H303.215V109H305.215ZM303.445 99.434C298.107 105.876 290.354 109.152 280.023 109.152V111.152C290.812 111.152 299.187 107.708 304.985 100.71L303.445 99.434ZM280.023 109.152C272.882 109.152 266.425 107.556 260.631 104.379L259.67 106.133C265.78 109.484 272.571 111.152 280.023 111.152V109.152ZM260.637 104.383C254.95 101.212 250.473 96.693 247.201 90.8024L245.452 91.7736C248.9 97.979 253.64 102.772 259.664 106.129L260.637 104.383ZM247.201 90.8024C243.935 84.9241 242.287 78.0881 242.287 70.264H240.287C240.287 78.3759 241.998 85.5559 245.452 91.7736L247.201 90.8024ZM242.287 70.264C242.287 62.4399 243.935 55.6039 247.201 49.7256L245.452 48.7544C241.998 54.9721 240.287 62.1521 240.287 70.264H242.287ZM247.201 49.7256C250.473 43.835 254.95 39.3158 260.637 36.1455L259.664 34.3985C253.64 37.7562 248.9 42.549 245.452 48.7544L247.201 49.7256ZM260.631 36.1488C266.425 32.9716 272.882 31.376 280.023 31.376V29.376C272.571 29.376 265.78 31.0444 259.67 34.3952L260.631 36.1488ZM280.023 31.376C289.683 31.376 297.117 34.4135 302.46 40.4018L303.953 39.0702C298.16 32.5785 290.139 29.376 280.023 29.376V31.376ZM304.207 39.736V2.15199H302.207V39.736H304.207ZM303.207 3.15199H325.671V1.15199H303.207V3.15199ZM283.911 92.72C289.827 92.72 294.795 90.7029 298.739 86.6581L297.307 85.2619C293.762 88.8971 289.322 90.72 283.911 90.72V92.72ZM298.747 86.6492C302.703 82.491 304.639 76.9936 304.639 70.264H302.639C302.639 76.5904 300.831 81.557 297.298 85.2708L298.747 86.6492ZM304.639 70.264C304.639 63.5353 302.703 58.0797 298.739 54.0139L297.307 55.4101C300.83 59.0243 302.639 63.9367 302.639 70.264H304.639ZM298.747 54.0228C294.806 49.879 289.835 47.808 283.911 47.808V49.808C289.314 49.808 293.752 51.673 297.298 55.4012L298.747 54.0228ZM283.911 47.808C277.895 47.808 272.875 49.8753 268.93 54.0228L270.379 55.4012C273.922 51.6767 278.406 49.808 283.911 49.808V47.808ZM268.939 54.0139C264.974 58.0797 263.039 63.5353 263.039 70.264H265.039C265.039 63.9367 266.847 59.0243 270.371 55.4101L268.939 54.0139ZM263.039 70.264C263.039 76.9936 264.975 82.491 268.93 86.6492L270.379 85.2708C266.847 81.557 265.039 76.5904 265.039 70.264H263.039ZM268.939 86.6581C272.886 90.7064 277.903 92.72 283.911 92.72V90.72C278.398 90.72 273.911 88.8936 270.371 85.2619L268.939 86.6581ZM411.838 35.416L411.34 36.2834L411.348 36.2882L411.357 36.2928L411.838 35.416ZM425.806 49.384L424.932 49.8697L424.935 49.8756L425.806 49.384ZM425.806 91.288L426.677 91.7796L426.68 91.7736L425.806 91.288ZM411.838 105.256L412.325 106.13L412.329 106.127L411.838 105.256ZM367.918 100.072L368.688 99.434L366.918 97.2977V100.072H367.918ZM367.918 109V110H368.918V109H367.918ZM346.462 109H345.462V110H346.462V109ZM346.462 2.15199V1.15199H345.462V2.15199H346.462ZM368.926 2.15199H369.926V1.15199H368.926V2.15199ZM368.926 39.736H367.926V42.3256L369.666 40.4081L368.926 39.736ZM402.478 85.96L401.753 85.2708L401.753 85.2712L402.478 85.96ZM402.478 54.712L401.744 55.3918L401.753 55.401L401.762 55.4101L402.478 54.712ZM374.11 54.712L373.385 54.0228L373.385 54.0232L374.11 54.712ZM374.11 85.96L373.376 86.6398L373.385 86.649L373.394 86.6581L374.11 85.96ZM392.254 31.376C399.291 31.376 405.646 33.0161 411.34 36.2834L412.335 34.5486C406.318 31.0959 399.616 29.376 392.254 29.376V31.376ZM411.357 36.2928C417.14 39.4643 421.661 43.9832 424.932 49.8696L426.68 48.8984C423.23 42.6888 418.439 37.8957 412.319 34.5392L411.357 36.2928ZM424.935 49.8756C428.197 55.6544 429.846 62.4395 429.846 70.264H431.846C431.846 62.1525 430.134 55.0176 426.677 48.8924L424.935 49.8756ZM429.846 70.264C429.846 78.0881 428.197 84.9241 424.932 90.8024L426.68 91.7736C430.134 85.5559 431.846 78.3759 431.846 70.264H429.846ZM424.935 90.7964C421.664 96.5898 417.14 101.115 411.346 104.385L412.329 106.127C418.44 102.677 423.227 97.8902 426.677 91.7796L424.935 90.7964ZM411.351 104.383C405.655 107.557 399.296 109.152 392.254 109.152V111.152C399.611 111.152 406.309 109.483 412.325 106.129L411.351 104.383ZM392.254 109.152C381.823 109.152 374.024 105.874 368.688 99.434L367.148 100.71C372.947 107.71 381.372 111.152 392.254 111.152V109.152ZM366.918 100.072V109H368.918V100.072H366.918ZM367.918 108H346.462V110H367.918V108ZM347.462 109V2.15199H345.462V109H347.462ZM346.462 3.15199H368.926V1.15199H346.462V3.15199ZM367.926 2.15199V39.736H369.926V2.15199H367.926ZM369.666 40.4081C375.107 34.4135 382.594 31.376 392.254 31.376V29.376C382.137 29.376 374.072 32.5785 368.185 39.0639L369.666 40.4081ZM388.366 92.72C394.373 92.72 399.348 90.706 403.203 86.6488L401.753 85.2712C398.311 88.894 393.878 90.72 388.366 90.72V92.72ZM403.202 86.6492C407.158 82.491 409.094 76.9936 409.094 70.264H407.094C407.094 76.5904 405.286 81.557 401.753 85.2708L403.202 86.6492ZM409.094 70.264C409.094 63.5353 407.158 58.0797 403.194 54.0139L401.762 55.4101C405.286 59.0243 407.094 63.9367 407.094 70.264H409.094ZM403.211 54.0322C399.359 49.8759 394.381 47.808 388.366 47.808V49.808C393.87 49.808 398.301 51.6761 401.744 55.3918L403.211 54.0322ZM388.366 47.808C382.35 47.808 377.33 49.8753 373.385 54.0228L374.834 55.4012C378.377 51.6767 382.861 49.808 388.366 49.808V47.808ZM373.385 54.0232C369.521 58.0901 367.638 63.5424 367.638 70.264H369.638C369.638 63.9296 371.402 59.0139 374.835 55.4007L373.385 54.0232ZM367.638 70.264C367.638 76.9866 369.522 82.4806 373.376 86.6398L374.843 85.2802C371.402 81.5674 369.638 76.5974 369.638 70.264H367.638ZM373.394 86.6581C377.341 90.7064 382.358 92.72 388.366 92.72V90.72C382.853 90.72 378.367 88.8936 374.826 85.2619L373.394 86.6581ZM503.514 39.016L502.847 39.761L502.853 39.7665L503.514 39.016ZM513.162 109V110H514.162V109H513.162ZM492.138 109H491.138V110H492.138V109ZM492.138 99.352H493.138V95.6712L491.275 98.846L492.138 99.352ZM452.97 107.128L452.547 108.034L452.555 108.038L452.97 107.128ZM443.034 98.776L443.873 98.2318L443.034 98.776ZM447.642 69.688L447.04 68.8897L447.033 68.8949L447.642 69.688ZM490.698 63.496V64.496H491.698V63.496H490.698ZM486.234 52.264L485.564 53.0061L485.57 53.0121L485.577 53.0181L486.234 52.264ZM460.602 50.248L460.904 51.2012L460.911 51.199L460.918 51.1967L460.602 50.248ZM450.522 55.432L449.633 55.889L450.189 56.9723L451.143 56.2155L450.522 55.432ZM442.458 39.736L441.882 38.9185L441.171 39.4194L441.569 40.193L442.458 39.736ZM457.578 32.824L457.314 31.8596L457.31 31.8607L457.578 32.824ZM484.362 92.44L484.864 93.3048L484.874 93.2988L484.885 93.2926L484.362 92.44ZM490.698 84.52L491.639 84.8596L491.698 84.695V84.52H490.698ZM490.698 76.6H491.698V75.6H490.698V76.6ZM464.778 92.584L464.162 93.3715L464.181 93.3862L464.2 93.4L464.778 92.584ZM475.866 31.376C487.716 31.376 496.659 34.2196 502.847 39.7609L504.181 38.271C497.505 32.2924 488.016 29.376 475.866 29.376V31.376ZM502.853 39.7665C509.002 45.1813 512.162 53.4553 512.162 64.792H514.162C514.162 53.0887 510.89 44.1787 504.175 38.2655L502.853 39.7665ZM512.162 64.792V109H514.162V64.792H512.162ZM513.162 108H492.138V110H513.162V108ZM493.138 109V99.352H491.138V109H493.138ZM491.275 98.846C487.296 105.629 479.838 109.152 468.522 109.152V111.152C480.246 111.152 488.532 107.475 493.001 99.858L491.275 98.846ZM468.522 109.152C462.682 109.152 457.645 108.163 453.385 106.218L452.555 108.038C457.127 110.125 462.458 111.152 468.522 111.152V109.152ZM453.393 106.222C449.221 104.275 446.062 101.607 443.873 98.2318L442.195 99.3202C444.613 103.049 448.079 105.949 452.547 108.034L453.393 106.222ZM443.873 98.2318C441.681 94.8527 440.578 91.0122 440.578 86.68H438.578C438.578 91.3718 439.779 95.5953 442.195 99.3202L443.873 98.2318ZM440.578 86.68C440.578 79.7683 443.139 74.4066 448.251 70.4811L447.033 68.8949C441.393 73.2254 438.578 79.1917 438.578 86.68H440.578ZM448.244 70.4863C453.462 66.5502 461.602 64.496 472.842 64.496V62.496C461.426 62.496 452.766 64.5698 447.04 68.8897L448.244 70.4863ZM472.842 64.496H490.698V62.496H472.842V64.496ZM491.698 63.496C491.698 58.3862 490.136 54.3363 486.891 51.5099L485.577 53.0181C488.284 55.3757 489.698 58.8138 489.698 63.496H491.698ZM486.904 51.5219C483.673 48.6032 478.924 47.232 472.842 47.232V49.232C478.664 49.232 482.843 50.5487 485.564 53.0061L486.904 51.5219ZM472.842 47.232C468.603 47.232 464.417 47.9223 460.286 49.2993L460.918 51.1967C464.851 49.8857 468.825 49.232 472.842 49.232V47.232ZM460.3 49.2948C456.266 50.5736 452.794 52.3538 449.901 54.6485L451.143 56.2155C453.818 54.0942 457.066 52.4184 460.904 51.2012L460.3 49.2948ZM451.411 54.975L443.347 39.279L441.569 40.193L449.633 55.889L451.411 54.975ZM443.034 40.5535C447.15 37.6538 452.082 35.3939 457.846 33.7873L457.31 31.8607C451.362 33.5181 446.214 35.8662 441.882 38.9185L443.034 40.5535ZM457.842 33.7884C463.707 32.1803 469.714 31.376 475.866 31.376V29.376C469.538 29.376 463.353 30.2037 457.314 31.8596L457.842 33.7884ZM474.138 96.032C478.133 96.032 481.718 95.1313 484.864 93.3048L483.86 91.5752C481.054 93.2047 477.823 94.032 474.138 94.032V96.032ZM484.885 93.2926C488.065 91.3434 490.318 88.517 491.639 84.8596L489.757 84.1804C488.582 87.435 486.611 89.8886 483.839 91.5874L484.885 93.2926ZM491.698 84.52V76.6H489.698V84.52H491.698ZM490.698 75.6H475.29V77.6H490.698V75.6ZM475.29 75.6C470.604 75.6 466.917 76.3629 464.373 78.032C461.757 79.7491 460.466 82.3499 460.466 85.672H462.466C462.466 82.9461 463.479 81.0109 465.471 79.704C467.535 78.3491 470.76 77.6 475.29 77.6V75.6ZM460.466 85.672C460.466 88.8498 461.704 91.448 464.162 93.3715L465.394 91.7965C463.436 90.264 462.466 88.2542 462.466 85.672H460.466ZM464.2 93.4C466.728 95.1906 470.074 96.032 474.138 96.032V94.032C470.33 94.032 467.436 93.2414 465.356 91.768L464.2 93.4ZM549.457 105.112L548.989 105.996L548.997 106L549.004 106.004L549.457 105.112ZM534.049 90.856L533.192 91.3725L533.198 91.3824L534.049 90.856ZM534.049 49.672L533.198 49.1456L533.192 49.1555L534.049 49.672ZM549.457 35.56L549.914 36.4491L549.919 36.4466L549.457 35.56ZM593.089 35.56L592.593 36.4282L592.601 36.4329L592.609 36.4374L593.089 35.56ZM606.481 50.104L606.954 50.9849L607.768 50.5477L607.396 49.7017L606.481 50.104ZM589.057 59.464L588.187 59.9576L588.669 60.8073L589.53 60.3449L589.057 59.464ZM557.089 54.568L556.382 53.8609L557.089 54.568ZM589.057 81.064L589.536 80.1861L588.664 79.7104L588.182 80.5794L589.057 81.064ZM606.481 90.568L607.392 90.9807L607.775 90.1348L606.96 89.6901L606.481 90.568ZM593.089 104.968L592.599 104.096L592.593 104.1L593.089 104.968ZM571.777 109.152C563.66 109.152 556.378 107.501 549.909 104.22L549.004 106.004C555.784 109.443 563.381 111.152 571.777 111.152V109.152ZM549.925 104.228C543.547 100.852 538.546 96.2207 534.899 90.3296L533.198 91.3824C537.04 97.5873 542.31 102.46 548.989 105.996L549.925 104.228ZM534.905 90.3395C531.359 84.4609 529.577 77.7784 529.577 70.264H527.577C527.577 78.1096 529.442 85.1551 533.192 91.3725L534.905 90.3395ZM529.577 70.264C529.577 62.7496 531.359 56.0671 534.905 50.1885L533.192 49.1555C529.442 55.3729 527.577 62.4184 527.577 70.264H529.577ZM534.899 50.1983C538.544 44.3098 543.542 39.7289 549.914 36.4491L548.999 34.6709C542.315 38.1111 537.041 42.9382 533.198 49.1456L534.899 50.1983ZM549.919 36.4466C556.386 33.0727 563.665 31.376 571.777 31.376V29.376C563.377 29.376 555.776 31.1353 548.994 34.6734L549.919 36.4466ZM571.777 31.376C579.793 31.376 586.72 33.0724 592.593 36.4282L593.585 34.6917C587.362 31.1356 580.081 29.376 571.777 29.376V31.376ZM592.609 36.4374C598.562 39.6928 602.871 44.375 605.565 50.5063L607.396 49.7017C604.522 43.161 599.904 38.1472 593.569 34.6826L592.609 36.4374ZM606.008 49.2231L588.583 58.5831L589.53 60.3449L606.954 50.9849L606.008 49.2231ZM589.926 58.9704C585.734 51.5829 579.609 47.808 571.633 47.808V49.808C578.824 49.808 584.316 53.1371 588.187 59.9576L589.926 58.9704ZM571.633 47.808C565.534 47.808 560.425 49.8177 556.382 53.8609L557.796 55.2751C561.433 51.6383 566.019 49.808 571.633 49.808V47.808ZM556.382 53.8609C552.314 57.9282 550.329 63.4368 550.329 70.264H552.329C552.329 63.8432 554.183 58.8878 557.796 55.2751L556.382 53.8609ZM550.329 70.264C550.329 77.0912 552.314 82.5998 556.382 86.6671L557.796 85.2529C554.183 81.6402 552.329 76.6848 552.329 70.264H550.329ZM556.382 86.6671C560.425 90.7103 565.534 92.72 571.633 92.72V90.72C566.019 90.72 561.433 88.8897 557.796 85.2529L556.382 86.6671ZM571.633 92.72C575.633 92.72 579.19 91.793 582.271 89.9091C585.348 88.0269 587.896 85.2227 589.931 81.5486L588.182 80.5794C586.282 84.0093 583.957 86.5331 581.227 88.2029C578.5 89.871 575.313 90.72 571.633 90.72V92.72ZM588.578 81.9419L606.002 91.4459L606.96 89.6901L589.536 80.1861L588.578 81.9419ZM605.57 90.1553C602.878 96.0964 598.566 100.74 592.599 104.096L593.579 105.84C599.9 102.284 604.516 97.3277 607.392 90.9807L605.57 90.1553ZM592.593 104.1C586.72 107.456 579.793 109.152 571.777 109.152V111.152C580.081 111.152 587.362 109.392 593.585 105.836L592.593 104.1ZM652.116 78.616L652.895 77.9886L652.201 77.1274L651.414 77.9042L652.116 78.616ZM641.316 89.272L640.614 88.5602L640.316 88.8539V89.272H641.316ZM641.316 109V110H642.316V109H641.316ZM618.852 109H617.852V110H618.852V109ZM618.852 2.15199V1.15199H617.852V2.15199H618.852ZM641.316 2.15199H642.316V1.15199H641.316V2.15199ZM641.316 62.632H640.316V64.9569L642.004 63.3579L641.316 62.632ZM674.148 31.528V30.528H673.75L673.461 30.802L674.148 31.528ZM700.932 31.528L701.646 32.2288L703.317 30.528H700.932V31.528ZM668.676 64.36L667.963 63.6592L667.346 64.287L667.891 64.9785L668.676 64.36ZM703.812 109V110H705.872L704.598 108.382L703.812 109ZM676.596 109L675.818 109.627L676.118 110H676.596V109ZM651.414 77.9042L640.614 88.5602L642.019 89.9838L652.819 79.3278L651.414 77.9042ZM640.316 89.272V109H642.316V89.272H640.316ZM641.316 108H618.852V110H641.316V108ZM619.852 109V2.15199H617.852V109H619.852ZM618.852 3.15199H641.316V1.15199H618.852V3.15199ZM640.316 2.15199V62.632H642.316V2.15199H640.316ZM642.004 63.3579L674.836 32.2539L673.461 30.802L640.629 61.906L642.004 63.3579ZM674.148 32.528H700.932V30.528H674.148V32.528ZM700.219 30.8272L667.963 63.6592L669.39 65.0608L701.646 32.2288L700.219 30.8272ZM667.891 64.9785L703.027 109.618L704.598 108.382L669.462 63.7415L667.891 64.9785ZM703.812 108H676.596V110H703.812V108ZM677.375 108.373L652.895 77.9886L651.338 79.2434L675.818 109.627L677.375 108.373Z" fill="#6DD16B"/>
</svg>
