<svg width="31" height="24" viewBox="0 0 31 24" fill="none" xmlns="http://www.w3.org/2000/svg">
<path d="M30.2567 11.5142C30.1276 11.3778 29.9337 11.2635 29.6961 11.1837C29.4585 11.1039 29.1862 11.0617 28.9085 11.0615H26.9812L26.0052 11.343L15.2135 19.9945L4.42177 11.343L3.44577 11.0615H1.51842C1.24124 11.0622 0.969609 11.1047 0.732749 11.1846C0.49589 11.2646 0.302758 11.3788 0.174125 11.5151C0.0454922 11.6514 -0.0137759 11.8045 0.00269457 11.9581C0.0191651 12.1117 0.110751 12.2599 0.267603 12.3867L13.9627 23.3669C14.1023 23.4794 14.289 23.5714 14.5069 23.635C14.7248 23.6986 14.9673 23.7318 15.2135 23.7318C15.4596 23.7318 15.7021 23.6986 15.92 23.635C16.1379 23.5714 16.3247 23.4794 16.4643 23.3669L30.1593 12.3867C30.3177 12.2601 30.4105 12.1119 30.4277 11.958C30.4449 11.8042 30.3857 11.6507 30.2567 11.5142Z" fill="url(#paint0_linear)"/>
<path d="M30.2567 0.721029C30.1276 0.584576 29.9337 0.470291 29.6961 0.390507C29.4585 0.310724 29.1862 0.268471 28.9085 0.268311H26.9812L26.0052 0.549755L15.2135 9.20125L4.42177 0.549755L3.44577 0.268311H1.51842C1.24124 0.268946 0.969609 0.31151 0.732749 0.391426C0.49589 0.471341 0.302758 0.585584 0.174125 0.721868C0.0454922 0.858153 -0.0137759 1.01132 0.00269457 1.16491C0.0191651 1.31849 0.110751 1.46667 0.267603 1.59353L13.9627 12.5736C14.1023 12.6862 14.289 12.7782 14.5069 12.8418C14.7248 12.9053 14.9673 12.9386 15.2135 12.9386C15.4596 12.9386 15.7021 12.9053 15.92 12.8418C16.1379 12.7782 16.3247 12.6862 16.4643 12.5736L30.1593 1.59353C30.3177 1.46693 30.4105 1.31866 30.4277 1.16483C30.4449 1.011 30.3857 0.857505 30.2567 0.721029Z" fill="url(#paint1_linear)"/>
<defs>
<linearGradient id="paint0_linear" x1="4.54164e-06" y1="13.7766" x2="30.6666" y2="22.9421" gradientUnits="userSpaceOnUse">
<stop stop-color="#6DD16B"/>
<stop offset="1" stop-color="#015423"/>
</linearGradient>
<linearGradient id="paint1_linear" x1="4.54164e-06" y1="2.98335" x2="30.6666" y2="12.1489" gradientUnits="userSpaceOnUse">
<stop stop-color="#6DD16B"/>
<stop offset="1" stop-color="#015423"/>
</linearGradient>
</defs>
</svg>