<svg width="896" height="91" viewBox="0 0 896 91" fill="none" xmlns="http://www.w3.org/2000/svg">
<path d="M136.316 8.64466C145.677 2.98926 156.406 0 167.343 0H892V91H35.8907C25.7645 91 22.0524 77.6771 30.7196 72.4408L136.316 8.64466Z" fill="url(#paint0_linear)"/>
<path d="M136.316 8.64466C145.677 2.98926 156.406 0 167.343 0H892V91H35.8907C25.7645 91 22.0524 77.6771 30.7196 72.4408L136.316 8.64466Z" fill="url(#paint1_linear)"/>
<path d="M136.316 8.64466C145.677 2.98926 156.406 0 167.343 0H892V91H35.8907C25.7645 91 22.0524 77.6771 30.7196 72.4408L136.316 8.64466Z" fill="url(#paint2_linear)"/>
<g style="mix-blend-mode:darken" filter="url(#filter0_dd)">
<line x1="78" y1="45" x2="892" y2="45.0001" stroke="white" stroke-width="2"/>
</g>
<defs>
<filter id="filter0_dd" x="74" y="42" width="822" height="10.0001" filterUnits="userSpaceOnUse" color-interpolation-filters="sRGB">
<feFlood flood-opacity="0" result="BackgroundImageFix"/>
<feColorMatrix in="SourceAlpha" type="matrix" values="0 0 0 0 0 0 0 0 0 0 0 0 0 0 0 0 0 0 127 0"/>
<feOffset dy="2"/>
<feGaussianBlur stdDeviation="2"/>
<feColorMatrix type="matrix" values="0 0 0 0 0.196487 0 0 0 0 0.196487 0 0 0 0 0.279476 0 0 0 0.06 0"/>
<feBlend mode="multiply" in2="BackgroundImageFix" result="effect1_dropShadow"/>
<feColorMatrix in="SourceAlpha" type="matrix" values="0 0 0 0 0 0 0 0 0 0 0 0 0 0 0 0 0 0 127 0"/>
<feOffset dy="2"/>
<feGaussianBlur stdDeviation="1"/>
<feColorMatrix type="matrix" values="0 0 0 0 0.196487 0 0 0 0 0.196487 0 0 0 0 0.279476 0 0 0 0.06 0"/>
<feBlend mode="multiply" in2="effect1_dropShadow" result="effect2_dropShadow"/>
<feBlend mode="normal" in="SourceGraphic" in2="effect2_dropShadow" result="shape"/>
</filter>
<linearGradient id="paint0_linear" x1="150.625" y1="-6.76443e-06" x2="567.925" y2="367.745" gradientUnits="userSpaceOnUse">
<stop stop-color="#72C670" stop-opacity="0.54"/>
<stop offset="1" stop-color="white" stop-opacity="0"/>
</linearGradient>
<linearGradient id="paint1_linear" x1="839.655" y1="46.0002" x2="393.638" y2="-321.194" gradientUnits="userSpaceOnUse">
<stop stop-color="#BBD7BA" stop-opacity="0"/>
<stop offset="0.270833" stop-color="#8DC18D" stop-opacity="0.420104"/>
<stop offset="1" stop-color="#7DA17D" stop-opacity="0.74"/>
</linearGradient>
<linearGradient id="paint2_linear" x1="892" y1="91.0001" x2="150.625" y2="91.0001" gradientUnits="userSpaceOnUse">
<stop stop-color="white"/>
<stop offset="1" stop-color="white" stop-opacity="0"/>
</linearGradient>
</defs>
</svg>
