<svg width="416" height="393" viewBox="0 0 416 393" fill="none" xmlns="http://www.w3.org/2000/svg">
<path d="M168.713 4.21779e-05L280.564 3.72887e-05C305.968 3.61783e-05 329.452 13.5205 342.208 35.4901L397.573 130.85C421.006 171.211 421.006 221.035 397.573 261.396L359.182 327.519C335.919 367.587 293.089 392.246 246.757 392.246L129.568 392.246C107.468 392.246 87.0386 380.484 75.9423 361.372L17.8971 261.396C-5.53599 221.035 -5.53599 171.211 17.8971 130.85L56.2876 64.7269C79.5508 24.6588 122.381 4.42031e-05 168.713 4.21779e-05Z" fill="url(#paint0_linear)"/>
<defs>
<linearGradient id="paint0_linear" x1="435.47" y1="392.246" x2="434.958" y2="-20.2497" gradientUnits="userSpaceOnUse">
<stop stop-color="#6DD16B"/>
<stop offset="1" stop-color="#005322"/>
</linearGradient>
</defs>
</svg>
