<svg width="1752" height="2274" viewBox="0 0 1752 2274" fill="none" xmlns="http://www.w3.org/2000/svg">
<path d="M202.5 71.3374V165.663C202.5 172.611 198.803 179.034 192.795 182.524L111.795 229.576C105.739 233.094 98.2613 233.094 92.2054 229.576L16.8105 185.78L11.2054 182.524C5.19722 179.034 1.5 172.611 1.5 165.663V71.3374C1.5 64.3891 5.19721 57.9657 11.2054 54.4757L92.2054 7.42424C98.2613 3.90644 105.739 3.90643 111.795 7.42424L184.789 49.8253L192.795 54.4757C198.803 57.9657 202.5 64.3891 202.5 71.3374Z" stroke="#F4F4F4" stroke-width="3" stroke-linecap="round"/>
<path d="M202.5 1931.43V1968.19C202.5 1975.12 198.816 1981.54 192.825 1985.03L162.825 2002.53C156.754 2006.07 149.246 2006.07 143.175 2002.53L110.784 1983.64C106.274 1981.01 103.5 1976.18 103.5 1970.96V1932.81C103.5 1925.88 107.184 1919.46 113.175 1915.97L143.175 1898.47C149.246 1894.93 156.754 1894.93 162.825 1898.47L194.015 1916.66C199.269 1919.73 202.5 1925.35 202.5 1931.43Z" stroke="#F4F4F4" stroke-width="3" stroke-linecap="round"/>
<path d="M1751.5 593.316V631.684C1751.5 636.498 1748.94 640.948 1744.77 643.363L1711.77 662.496C1707.58 664.924 1702.42 664.924 1698.23 662.496L1665.65 643.607L1665.23 643.363C1661.06 640.948 1658.5 636.498 1658.5 631.684V593.316C1658.5 588.502 1661.06 584.052 1665.23 581.637L1698.23 562.504C1702.42 560.076 1707.58 560.076 1711.77 562.504L1743.24 580.751L1744.77 581.637C1748.94 584.052 1751.5 588.502 1751.5 593.316Z" stroke="#6DD16B" stroke-linecap="round"/>
<path d="M1650.5 1757.32V1795.68C1650.5 1800.5 1647.94 1804.95 1643.77 1807.36L1610.77 1826.5C1606.58 1828.92 1601.42 1828.92 1597.23 1826.5L1564.65 1807.61L1564.23 1807.36C1560.06 1804.95 1557.5 1800.5 1557.5 1795.68V1757.32C1557.5 1752.5 1560.06 1748.05 1564.23 1745.64L1597.23 1726.5C1601.42 1724.08 1606.58 1724.08 1610.77 1726.5L1642.24 1744.75L1643.77 1745.64C1647.94 1748.05 1650.5 1752.5 1650.5 1757.32Z" stroke="#6DD16B" stroke-linecap="round"/>
<path d="M181.5 532.457V556.543C181.5 559.585 179.874 562.396 177.237 563.912L156.237 575.987C153.614 577.495 150.386 577.495 147.763 575.987L126.972 564.032L126.723 564.466L126.972 564.032L126.763 563.912C124.126 562.396 122.5 559.585 122.5 556.543V532.457C122.5 529.415 124.126 526.604 126.763 525.088L147.763 513.013C150.386 511.505 153.614 511.505 156.237 513.013L176.322 524.562L177.237 525.088C179.874 526.604 181.5 529.415 181.5 532.457Z" stroke="#6DD16B" stroke-linecap="round"/>
<path d="M1436.5 2238.4V2255.29C1436.5 2258.33 1434.87 2261.15 1432.23 2262.66L1417.73 2270.99C1415.11 2272.5 1411.89 2272.5 1409.27 2270.99L1393.95 2262.19C1391.82 2260.97 1390.5 2258.69 1390.5 2256.23V2238.71C1390.5 2235.67 1392.13 2232.85 1394.77 2231.34L1409.27 2223.01C1411.89 2221.5 1415.11 2221.5 1417.73 2223.01L1432.5 2231.49C1434.97 2232.91 1436.5 2235.55 1436.5 2238.4Z" stroke="#6DD16B" stroke-linecap="round"/>
<path d="M1590.5 973.378V1040.62C1590.5 1049.35 1585.86 1057.41 1578.32 1061.8L1520.82 1095.25C1513.2 1099.68 1503.8 1099.68 1496.18 1095.25L1439.24 1062.12L1438.68 1061.8C1431.14 1057.41 1426.5 1049.35 1426.5 1040.62V973.378C1426.5 964.654 1431.14 956.589 1438.68 952.202L1496.18 918.747C1503.8 914.316 1513.2 914.316 1520.82 918.747L1575.82 950.746L1578.32 952.202C1585.86 956.589 1590.5 964.654 1590.5 973.378Z" stroke="#6DD16B" stroke-linecap="round"/>
<path d="M371.5 94.3159V132.684C371.5 137.498 368.936 141.948 364.771 144.363L331.771 163.496C327.584 165.924 322.416 165.924 318.229 163.496L285.65 144.607L285.229 144.363C281.064 141.948 278.5 137.498 278.5 132.684V94.3159C278.5 89.5016 281.064 85.0516 285.229 82.6369L318.229 63.5039C322.416 61.0759 327.584 61.0759 331.771 63.5039L363.244 81.7514L364.771 82.6369C368.936 85.0516 371.5 89.5016 371.5 94.3159Z" stroke="#6DD16B" stroke-linecap="round"/>
<path d="M545.2 194.112L544.727 194.993L544.734 194.997L544.742 195.001L545.2 194.112ZM530.08 179.856L529.224 180.372L530.08 179.856ZM530.08 138.672L529.224 138.156L530.08 138.672ZM545.2 124.56L545.663 125.446L545.668 125.444L545.2 124.56ZM589.12 124.56L588.647 125.441L588.657 125.446L589.12 124.56ZM604.24 138.672L605.096 138.156L604.24 138.672ZM604.24 179.856L605.096 180.372L604.24 179.856ZM589.12 194.112L589.583 194.998L589.593 194.993L589.12 194.112ZM581.344 174.96L580.619 174.271L580.619 174.271L581.344 174.96ZM581.344 143.712L580.611 144.392L580.619 144.401L580.628 144.41L581.344 143.712ZM552.976 143.712L553.692 144.41L553.701 144.401L552.976 143.712ZM552.976 174.96L552.251 175.649L552.26 175.658L552.976 174.96ZM567.232 198.152C559.213 198.152 552.029 196.502 545.658 193.223L544.742 195.001C551.427 198.442 558.931 200.152 567.232 200.152V198.152ZM545.673 193.231C539.394 189.857 534.488 185.229 530.936 179.34L529.224 180.372C532.968 186.579 538.142 191.455 544.727 194.993L545.673 193.231ZM530.936 179.34C527.39 173.461 525.608 166.778 525.608 159.264H523.608C523.608 167.11 525.474 174.155 529.224 180.372L530.936 179.34ZM525.608 159.264C525.608 151.75 527.39 145.067 530.936 139.188L529.224 138.156C525.474 144.373 523.608 151.418 523.608 159.264H525.608ZM530.936 139.188C534.487 133.302 539.389 128.724 545.663 125.446L544.737 123.674C538.147 127.116 532.969 131.946 529.224 138.156L530.936 139.188ZM545.668 125.444C552.037 122.072 559.218 120.376 567.232 120.376V118.376C558.926 118.376 551.419 120.136 544.732 123.676L545.668 125.444ZM567.232 120.376C575.247 120.376 582.377 122.072 588.647 125.441L589.593 123.679C582.999 120.136 575.537 118.376 567.232 118.376V120.376ZM588.657 125.446C594.931 128.724 599.833 133.302 603.384 139.188L605.096 138.156C601.351 131.946 596.173 127.116 589.583 123.674L588.657 125.446ZM603.384 139.188C606.93 145.067 608.712 151.75 608.712 159.264H610.712C610.712 151.418 608.846 144.373 605.096 138.156L603.384 139.188ZM608.712 159.264C608.712 166.778 606.93 173.461 603.384 179.34L605.096 180.372C608.846 174.155 610.712 167.11 610.712 159.264H608.712ZM603.384 179.34C599.832 185.229 594.926 189.857 588.647 193.231L589.593 194.993C596.178 191.455 601.352 186.579 605.096 180.372L603.384 179.34ZM588.657 193.226C582.385 196.502 575.251 198.152 567.232 198.152V200.152C575.533 200.152 582.991 198.442 589.583 194.998L588.657 193.226ZM567.232 181.72C573.239 181.72 578.215 179.706 582.069 175.649L580.619 174.271C577.177 177.894 572.745 179.72 567.232 179.72V181.72ZM582.069 175.649C586.024 171.491 587.96 165.994 587.96 159.264H585.96C585.96 165.59 584.152 170.557 580.619 174.271L582.069 175.649ZM587.96 159.264C587.96 152.535 586.024 147.08 582.06 143.014L580.628 144.41C584.152 148.024 585.96 152.937 585.96 159.264H587.96ZM582.077 143.032C578.225 138.876 573.248 136.808 567.232 136.808V138.808C572.736 138.808 577.167 140.676 580.611 144.392L582.077 143.032ZM567.232 136.808C561.217 136.808 556.197 138.875 552.251 143.023L553.701 144.401C557.243 140.677 561.727 138.808 567.232 138.808V136.808ZM552.26 143.014C548.296 147.08 546.36 152.535 546.36 159.264H548.36C548.36 152.937 550.168 148.024 553.692 144.41L552.26 143.014ZM546.36 159.264C546.36 165.994 548.296 171.491 552.251 175.649L553.701 174.271C550.168 170.557 548.36 165.59 548.36 159.264H546.36ZM552.26 175.658C556.207 179.706 561.225 181.72 567.232 181.72V179.72C561.719 179.72 557.233 177.894 553.692 174.262L552.26 175.658ZM649.351 122.256H648.351V123.256H649.351V122.256ZM669.223 122.256H670.223V121.256H669.223V122.256ZM669.223 139.536V140.536H670.223V139.536H669.223ZM649.927 139.536V138.536H648.927V139.536H649.927ZM649.927 198V199H650.927V198H649.927ZM627.463 198H626.463V199H627.463V198ZM627.463 139.536H628.463V138.536H627.463V139.536ZM615.511 139.536H614.511V140.536H615.511V139.536ZM615.511 122.256V121.256H614.511V122.256H615.511ZM627.463 122.256V123.256H628.463V122.256H627.463ZM635.239 97.776L634.539 97.0624L634.532 97.0689L635.239 97.776ZM666.919 91.152L666.669 92.1203L666.688 92.1249L666.706 92.1289L666.919 91.152ZM674.551 94.176L675.491 94.5171L675.759 93.7793L675.106 93.3439L674.551 94.176ZM668.647 110.448L668.072 111.266L669.141 112.018L669.587 110.789L668.647 110.448ZM649.351 123.256H669.223V121.256H649.351V123.256ZM668.223 122.256V139.536H670.223V122.256H668.223ZM669.223 138.536H649.927V140.536H669.223V138.536ZM648.927 139.536V198H650.927V139.536H648.927ZM649.927 197H627.463V199H649.927V197ZM628.463 198V139.536H626.463V198H628.463ZM627.463 138.536H615.511V140.536H627.463V138.536ZM616.511 139.536V122.256H614.511V139.536H616.511ZM615.511 123.256H627.463V121.256H615.511V123.256ZM628.463 122.256V118.8H626.463V122.256H628.463ZM628.463 118.8C628.463 110.175 630.987 103.442 635.946 98.4831L634.532 97.0689C629.123 102.478 626.463 109.761 626.463 118.8H628.463ZM635.94 98.4896C640.984 93.5373 648.096 91 657.415 91V89C647.727 89 640.055 91.6467 634.539 97.0624L635.94 98.4896ZM657.415 91C660.699 91 663.782 91.3752 666.669 92.1203L667.169 90.1837C664.104 89.3928 660.852 89 657.415 89V91ZM666.706 92.1289C669.69 92.7818 672.11 93.7503 673.997 95.008L675.106 93.3439C672.961 91.9137 670.292 90.8662 667.133 90.1751L666.706 92.1289ZM673.611 93.8349L667.707 110.107L669.587 110.789L675.491 94.5171L673.611 93.8349ZM669.223 109.63C666.447 107.677 663.218 106.712 659.575 106.712V108.712C662.845 108.712 665.664 109.571 668.072 111.266L669.223 109.63ZM659.575 106.712C655.988 106.712 653.121 107.702 651.168 109.847C649.231 111.974 648.351 115.068 648.351 118.944H650.351C650.351 115.332 651.175 112.81 652.647 111.193C654.102 109.594 656.347 108.712 659.575 108.712V106.712ZM648.351 118.944V122.256H650.351V118.944H648.351ZM705.039 122.256H704.039V123.256H705.039V122.256ZM724.911 122.256H725.911V121.256H724.911V122.256ZM724.911 139.536V140.536H725.911V139.536H724.911ZM705.615 139.536V138.536H704.615V139.536H705.615ZM705.615 198V199H706.615V198H705.615ZM683.151 198H682.151V199H683.151V198ZM683.151 139.536H684.151V138.536H683.151V139.536ZM671.199 139.536H670.199V140.536H671.199V139.536ZM671.199 122.256V121.256H670.199V122.256H671.199ZM683.151 122.256V123.256H684.151V122.256H683.151ZM690.927 97.776L690.226 97.0624L690.22 97.0689L690.927 97.776ZM722.607 91.152L722.357 92.1203L722.375 92.1249L722.393 92.1289L722.607 91.152ZM730.239 94.176L731.179 94.5171L731.447 93.7793L730.794 93.3439L730.239 94.176ZM724.335 110.448L723.759 111.266L724.829 112.018L725.275 110.789L724.335 110.448ZM747.663 120.528V119.528H746.663V120.528H747.663ZM770.127 120.528H771.127V119.528H770.127V120.528ZM770.127 198V199H771.127V198H770.127ZM747.663 198H746.663V199H747.663V198ZM748.815 106.128L748.135 106.862L748.815 106.128ZM748.815 88.272L749.494 89.0058V89.0058L748.815 88.272ZM768.975 88.128L768.311 88.8754V88.8754L768.975 88.128ZM768.975 106.128L769.654 106.862L769.661 106.855L769.669 106.848L768.975 106.128ZM705.039 123.256H724.911V121.256H705.039V123.256ZM723.911 122.256V139.536H725.911V122.256H723.911ZM724.911 138.536H705.615V140.536H724.911V138.536ZM704.615 139.536V198H706.615V139.536H704.615ZM705.615 197H683.151V199H705.615V197ZM684.151 198V139.536H682.151V198H684.151ZM683.151 138.536H671.199V140.536H683.151V138.536ZM672.199 139.536V122.256H670.199V139.536H672.199ZM671.199 123.256H683.151V121.256H671.199V123.256ZM684.151 122.256V118.8H682.151V122.256H684.151ZM684.151 118.8C684.151 110.175 686.675 103.442 691.634 98.4831L690.22 97.0689C684.811 102.478 682.151 109.761 682.151 118.8H684.151ZM691.627 98.4896C696.671 93.5373 703.783 91 713.103 91V89C703.415 89 695.742 91.6467 690.226 97.0624L691.627 98.4896ZM713.103 91C716.386 91 719.47 91.3752 722.357 92.1203L722.857 90.1837C719.792 89.3928 716.539 89 713.103 89V91ZM722.393 92.1289C725.378 92.7818 727.798 93.7503 729.684 95.008L730.794 93.3439C728.648 91.9137 725.98 90.8662 722.821 90.1751L722.393 92.1289ZM729.299 93.8349L723.395 110.107L725.275 110.789L731.179 94.5171L729.299 93.8349ZM724.91 109.63C722.135 107.677 718.905 106.712 715.263 106.712V108.712C718.532 108.712 721.351 109.571 723.759 111.266L724.91 109.63ZM715.263 106.712C711.675 106.712 708.808 107.702 706.855 109.847C704.919 111.974 704.039 115.068 704.039 118.944H706.039C706.039 115.332 706.863 112.81 708.334 111.193C709.79 109.594 712.035 108.712 715.263 108.712V106.712ZM704.039 118.944V122.256H706.039V118.944H704.039ZM747.663 121.528H770.127V119.528H747.663V121.528ZM769.127 120.528V198H771.127V120.528H769.127ZM770.127 197H747.663V199H770.127V197ZM748.663 198V120.528H746.663V198H748.663ZM758.895 108.728C754.973 108.728 751.871 107.595 749.494 105.394L748.135 106.862C750.943 109.461 754.56 110.728 758.895 110.728V108.728ZM749.494 105.394C747.108 103.185 745.927 100.475 745.927 97.2H743.927C743.927 101.029 745.338 104.271 748.135 106.862L749.494 105.394ZM745.927 97.2C745.927 93.9248 747.108 91.2153 749.494 89.0058L748.135 87.5382C745.338 90.1287 743.927 93.3712 743.927 97.2H745.927ZM749.494 89.0058C751.871 86.8054 754.973 85.672 758.895 85.672V83.672C754.56 83.672 750.943 84.9386 748.135 87.5382L749.494 89.0058ZM758.895 85.672C762.827 85.672 765.935 86.764 768.311 88.8754L769.639 87.3806C766.831 84.8839 763.219 83.672 758.895 83.672V85.672ZM768.311 88.8754C770.69 90.9904 771.863 93.5988 771.863 96.768H773.863C773.863 93.0252 772.444 89.8736 769.639 87.3806L768.311 88.8754ZM771.863 96.768C771.863 100.253 770.669 103.109 768.281 105.408L769.669 106.848C772.465 104.155 773.863 100.771 773.863 96.768H771.863ZM768.295 105.394C765.919 107.595 762.816 108.728 758.895 108.728V110.728C763.23 110.728 766.847 109.461 769.654 106.862L768.295 105.394ZM806.066 194.112L805.598 194.996L805.606 195L805.614 195.004L806.066 194.112ZM790.658 179.856L789.802 180.373L789.808 180.382L790.658 179.856ZM790.658 138.672L789.808 138.146L789.802 138.156L790.658 138.672ZM806.066 124.56L806.524 125.449L806.529 125.447L806.066 124.56ZM849.698 124.56L849.202 125.428L849.21 125.433L849.218 125.437L849.698 124.56ZM863.09 139.104L863.563 139.985L864.377 139.548L864.006 138.702L863.09 139.104ZM845.666 148.464L844.796 148.958L845.279 149.807L846.139 149.345L845.666 148.464ZM813.698 143.568L812.991 142.861L813.698 143.568ZM845.666 170.064L846.145 169.186L845.273 168.71L844.791 169.579L845.666 170.064ZM863.09 179.568L864.001 179.981L864.384 179.135L863.569 178.69L863.09 179.568ZM849.698 193.968L849.208 193.096L849.202 193.1L849.698 193.968ZM828.386 198.152C820.27 198.152 812.987 196.501 806.518 193.22L805.614 195.004C812.393 198.443 819.991 200.152 828.386 200.152V198.152ZM806.534 193.228C800.157 189.852 795.155 185.221 791.508 179.33L789.808 180.382C793.649 186.587 798.92 191.46 805.598 194.996L806.534 193.228ZM791.514 179.34C787.969 173.461 786.186 166.778 786.186 159.264H784.186C784.186 167.11 786.052 174.155 789.802 180.372L791.514 179.34ZM786.186 159.264C786.186 151.75 787.969 145.067 791.514 139.188L789.802 138.156C786.052 144.373 784.186 151.418 784.186 159.264H786.186ZM791.508 139.198C795.154 133.31 800.152 128.729 806.524 125.449L805.608 123.671C798.925 127.111 793.651 131.938 789.808 138.146L791.508 139.198ZM806.529 125.447C812.995 122.073 820.274 120.376 828.386 120.376V118.376C819.986 118.376 812.385 120.135 805.604 123.673L806.529 125.447ZM828.386 120.376C836.402 120.376 843.329 122.072 849.202 125.428L850.194 123.692C843.971 120.136 836.69 118.376 828.386 118.376V120.376ZM849.218 125.437C855.171 128.693 859.481 133.375 862.175 139.506L864.006 138.702C861.132 132.161 856.513 127.147 850.178 123.683L849.218 125.437ZM862.617 138.223L845.193 147.583L846.139 149.345L863.563 139.985L862.617 138.223ZM846.536 147.97C842.343 140.583 836.219 136.808 828.242 136.808V138.808C835.434 138.808 840.925 142.137 844.796 148.958L846.536 147.97ZM828.242 136.808C822.144 136.808 817.034 138.818 812.991 142.861L814.405 144.275C818.042 140.638 822.628 138.808 828.242 138.808V136.808ZM812.991 142.861C808.924 146.928 806.938 152.437 806.938 159.264H808.938C808.938 152.843 810.793 147.888 814.405 144.275L812.991 142.861ZM806.938 159.264C806.938 166.091 808.924 171.6 812.991 175.667L814.405 174.253C810.793 170.64 808.938 165.685 808.938 159.264H806.938ZM812.991 175.667C817.034 179.71 822.144 181.72 828.242 181.72V179.72C822.628 179.72 818.042 177.89 814.405 174.253L812.991 175.667ZM828.242 181.72C832.242 181.72 835.799 180.793 838.88 178.909C841.958 177.027 844.505 174.223 846.541 170.549L844.791 169.579C842.891 173.009 840.567 175.533 837.836 177.203C835.109 178.871 831.922 179.72 828.242 179.72V181.72ZM845.187 170.942L862.611 180.446L863.569 178.69L846.145 169.186L845.187 170.942ZM862.179 179.155C859.487 185.096 855.175 189.74 849.208 193.096L850.188 194.84C856.509 191.284 861.125 186.328 864.001 179.981L862.179 179.155ZM849.202 193.1C843.329 196.456 836.402 198.152 828.386 198.152V200.152C836.69 200.152 843.971 198.392 850.194 194.836L849.202 193.1ZM950.496 165.6V166.6H951.422L951.493 165.677L950.496 165.6ZM891.888 165.6V164.6H890.644L890.911 165.815L891.888 165.6ZM899.376 176.976L899.953 176.16L899.376 176.976ZM924.72 179.424L925.071 180.36L925.079 180.357L925.086 180.354L924.72 179.424ZM933.504 173.664L934.239 172.986L933.546 172.234L932.81 172.944L933.504 173.664ZM945.456 186.624L946.209 187.282L946.8 186.606L946.191 185.946L945.456 186.624ZM890.304 194.112L889.846 195.001L889.857 195.006L890.304 194.112ZM874.752 179.856L873.896 180.372L874.752 179.856ZM874.608 138.816L873.748 138.305L873.746 138.31L874.608 138.816ZM889.44 124.56L889.914 125.44L889.919 125.438L889.44 124.56ZM931.2 124.272L931.669 123.389L931.2 124.272ZM945.6 138.384L944.728 138.874L944.733 138.882L944.738 138.89L945.6 138.384ZM897.936 140.688L897.296 139.92L897.936 140.688ZM891.6 152.496L890.612 152.344L890.434 153.496H891.6V152.496ZM929.76 152.496V153.496H930.929L930.748 152.341L929.76 152.496ZM923.424 140.832L922.771 141.59L922.777 141.595L922.784 141.6L923.424 140.832ZM949.928 159.552C949.928 159.551 949.928 159.554 949.928 159.561C949.928 159.568 949.927 159.578 949.927 159.591C949.926 159.616 949.924 159.649 949.922 159.691C949.918 159.775 949.912 159.888 949.903 160.03C949.885 160.313 949.858 160.706 949.822 161.209C949.751 162.214 949.643 163.652 949.499 165.523L951.493 165.677C951.778 161.97 951.928 159.891 951.928 159.552H949.928ZM950.496 164.6H891.888V166.6H950.496V164.6ZM890.911 165.815C892.02 170.853 894.655 174.862 898.798 177.792L899.953 176.16C896.225 173.522 893.868 169.947 892.865 165.385L890.911 165.815ZM898.798 177.792C902.937 180.72 908.046 182.152 914.064 182.152V180.152C908.37 180.152 903.687 178.8 899.953 176.16L898.798 177.792ZM914.064 182.152C918.189 182.152 921.864 181.563 925.071 180.36L924.369 178.488C921.431 179.589 918.003 180.152 914.064 180.152V182.152ZM925.086 180.354C928.388 179.054 931.425 177.058 934.198 174.384L932.81 172.944C930.207 175.454 927.388 177.298 924.353 178.494L925.086 180.354ZM932.769 174.342L944.721 187.302L946.191 185.946L934.239 172.986L932.769 174.342ZM944.703 185.966C937.645 194.046 927.297 198.152 913.488 198.152V200.152C927.711 200.152 938.675 195.906 946.209 187.282L944.703 185.966ZM913.488 198.152C904.882 198.152 897.311 196.498 890.751 193.218L889.857 195.006C896.736 198.446 904.622 200.152 913.488 200.152V198.152ZM890.761 193.223C884.194 189.845 879.154 185.217 875.608 179.34L873.896 180.372C877.646 186.591 882.974 191.467 889.847 195.001L890.761 193.223ZM875.608 179.34C872.062 173.461 870.28 166.778 870.28 159.264H868.28C868.28 167.11 870.145 174.155 873.896 180.372L875.608 179.34ZM870.28 159.264C870.28 151.843 872.016 145.204 875.47 139.322L873.746 138.31C870.096 144.524 868.28 151.517 868.28 159.264H870.28ZM875.468 139.327C879.024 133.337 883.835 128.714 889.914 125.44L888.966 123.68C882.565 127.126 877.488 132.007 873.748 138.305L875.468 139.327ZM889.919 125.438C896.097 122.068 902.986 120.376 910.608 120.376V118.376C902.678 118.376 895.455 120.14 888.961 123.682L889.919 125.438ZM910.608 120.376C918.043 120.376 924.744 121.975 930.731 125.155L931.669 123.389C925.368 120.041 918.34 118.376 910.608 118.376V120.376ZM930.731 125.155C936.703 128.328 941.365 132.895 944.728 138.874L946.471 137.894C942.923 131.585 937.984 126.744 931.669 123.389L930.731 125.155ZM944.738 138.89C948.187 144.763 949.928 151.639 949.928 159.552H951.928C951.928 151.337 950.117 144.101 946.462 137.878L944.738 138.89ZM910.752 135.368C905.462 135.368 900.955 136.87 897.296 139.92L898.576 141.456C901.829 138.746 905.865 137.368 910.752 137.368V135.368ZM897.296 139.92C893.629 142.975 891.412 147.143 890.612 152.344L892.588 152.648C893.324 147.865 895.331 144.161 898.576 141.456L897.296 139.92ZM891.6 153.496H929.76V151.496H891.6V153.496ZM930.748 152.341C929.946 147.231 927.726 143.115 924.064 140.064L922.784 141.6C926.034 144.309 928.037 147.969 928.772 152.651L930.748 152.341ZM924.076 140.074C920.421 136.927 915.959 135.368 910.752 135.368V137.368C915.529 137.368 919.514 138.785 922.771 141.59L924.076 140.074Z" fill="#6DD16B"/>
</svg>
