<svg width="255" height="300" viewBox="0 0 255 300" fill="none" xmlns="http://www.w3.org/2000/svg">
<path d="M127 20L23.4484 80.178C16.9801 83.937 13 90.8534 13 98.3346V206.665C13 214.147 16.9801 221.063 23.4484 224.822L91.5 264.37M127 285L230.552 224.822C237.02 221.063 241 214.147 241 206.665V98.3347C241 90.8534 237.02 83.937 230.552 80.178L220.371 74.2615L166.446 42.9239" stroke="url(#paint0_linear)" stroke-width="20" stroke-linecap="round"/>
<path opacity="0.2" d="M126.473 285.432C183.619 285.432 229.946 258.555 229.946 225.4C229.946 192.245 183.619 165.368 126.473 165.368C69.3264 165.368 23 192.245 23 225.4C23 258.555 69.3264 285.432 126.473 285.432Z" fill="#6DD16B"/>
<path opacity="0.2" d="M126.473 278.064C183.619 278.064 229.946 251.187 229.946 218.032C229.946 184.877 183.619 158 126.473 158C69.3264 158 23 184.877 23 218.032C23 251.187 69.3264 278.064 126.473 278.064Z" fill="#6DD16B"/>
<path opacity="0.1" d="M196.998 172.432C238.155 196.172 238.347 234.655 197.458 258.395C156.608 282.135 90.1203 282.135 49.0017 258.395C7.88312 234.655 7.65319 196.172 48.5036 172.47C89.3922 148.73 155.841 148.692 196.998 172.432Z" fill="black"/>
<path d="M162.705 153.011C163.502 150.976 149.572 149.428 149.572 149.428C149.572 149.428 149.536 159.284 149.164 163.438C148.597 169.711 148.721 172.705 150.635 181.114C151.486 184.847 152.549 198.974 152.266 203.952C151.858 211.234 148.313 214.682 147.108 216.482C145.903 218.281 150.475 219.98 153.382 217.356C156.271 214.733 156.572 214.211 158.203 213.387C159.834 212.563 159.284 210.595 159.16 206.475C159.071 203.296 160.525 192.701 161.074 185.89C161.872 176.236 159.639 176.034 159.798 171.157C160.082 162.008 162.173 154.339 162.705 153.011Z" fill="#FFA08D"/>
<path d="M160.489 208.611C160.489 208.594 160.472 208.577 160.472 208.56C160.418 208.392 160.383 208.308 160.383 208.308C160.011 207.333 159.16 206.509 159.16 206.509C159.16 206.509 158.469 212.344 154.853 214.749C150.812 217.44 149.022 217.844 147.09 216.499C147.09 216.499 146.115 217.861 143.9 220.215C142.712 221.477 143.705 222.738 147.232 222.486C149.093 222.351 151.751 221.46 153.223 219.677C154.765 217.81 155.97 215.792 157.405 214.564C157.636 214.379 157.813 214.211 158.026 214.043C158.132 215.59 158.079 216.583 158.168 217.693C158.504 218.197 159.036 218.079 159.444 217.693C159.674 216.465 159.373 215.321 160.099 213.051C160.844 210.629 160.649 209.2 160.489 208.611Z" fill="#50AC59"/>
<path d="M173.463 158.275C174.261 156.24 160.33 154.692 160.33 154.692C160.33 154.692 160.294 164.548 159.922 168.702C159.355 174.975 159.479 177.968 161.393 186.377C162.244 190.111 163.307 204.238 163.024 209.216C162.616 216.498 159.071 219.946 157.866 221.746C156.661 223.545 161.234 225.244 164.14 222.62C167.029 219.996 167.331 219.475 168.961 218.651C170.592 217.827 170.042 215.859 169.918 211.739C169.83 208.56 171.283 197.965 171.833 191.154C172.63 181.5 170.397 181.298 170.556 176.421C170.822 167.272 172.931 159.586 173.463 158.275Z" fill="#FFC5B3"/>
<path d="M171.194 213.706C171.194 213.69 171.177 213.673 171.177 213.656C171.124 213.488 171.088 213.404 171.088 213.404C170.716 212.428 169.865 211.604 169.865 211.604C169.865 211.604 169.174 217.44 165.558 219.845C161.517 222.536 159.727 222.94 157.795 221.594C157.795 221.594 156.82 222.956 154.605 225.311C153.417 226.572 154.41 227.834 157.937 227.581C159.798 227.447 162.457 226.555 163.928 224.773C165.47 222.906 166.675 220.888 168.11 219.66C168.341 219.475 168.518 219.307 168.731 219.139C168.837 220.686 168.784 221.678 168.873 222.788C169.209 223.293 169.741 223.175 170.149 222.788C170.379 221.56 170.078 220.417 170.804 218.146C171.549 215.725 171.354 214.295 171.194 213.706Z" fill="#50AC59"/>
<path d="M144.378 140.279C144.378 140.279 142.872 144.299 144.378 149.361C145.885 154.423 147.799 153.549 147.799 153.549L150.546 141.675L144.378 140.279Z" fill="#FFC5B3"/>
<path d="M157.388 90.9355C157.388 90.9355 154.233 87.4038 149.235 92.2978C144.378 97.0741 145.247 109.738 144.378 115.91C142.96 125.866 142.96 142.113 142.96 142.113C142.96 142.113 146.328 144.719 148.703 143.138C151.096 141.557 152.886 139.018 152.886 139.018L157.388 90.9355Z" fill="#50AC59"/>
<path d="M167.224 80.8111C167.224 80.8111 170.486 84.2756 171.567 92.3146C172.648 100.337 172.347 102.574 172.347 102.574C172.347 102.574 165.098 103.431 163.467 99.8995C161.819 96.3677 167.224 80.8111 167.224 80.8111Z" fill="#2B2B33"/>
<path d="M146.275 130.643C146.275 130.643 145.477 134.359 145.335 141.154C145.158 149.496 146.239 166.314 146.239 166.314C146.239 166.314 148.384 169.173 153.666 170.568C157.193 171.493 163.077 171.712 167.136 170.232C168.04 166.499 168.819 160.881 168.819 160.881C169.068 163.522 170.273 167.239 170.344 169.677C172.595 169.24 174.101 167.76 174.101 167.76C174.101 167.76 174.792 160.965 175.466 153.616C176.122 146.552 175.767 139.977 172.541 132.341C167.508 120.367 146.576 124.151 146.275 130.643Z" fill="#50AC59"/>
<path d="M176.724 103.751C176.051 99.2604 165.275 93.1723 165.275 93.1723C165.275 93.1723 163.502 98.1673 161.854 99.395C160.277 100.572 157.724 99.3613 159.373 95.1232C159.887 93.7946 159.107 89.8928 159.107 89.8928C159.107 89.8928 158.451 89.7415 157.512 89.5733C156.094 91.0701 153.293 95.0391 151.769 96.6873C150.298 98.2682 145.991 103.784 147.303 108.981C148.419 113.421 149.022 119.257 148.898 121.443C148.756 123.966 145.956 131.955 145.956 131.955C145.956 131.955 148.721 138.514 158.894 137.017C166.427 135.907 171.921 131.585 171.921 131.585C171.921 131.585 170.096 120.653 170.344 116.129C170.344 116.162 178.036 112.513 176.724 103.751Z" fill="white"/>
<path d="M157.388 94.2992C157.388 94.2992 155.048 100.589 152.886 106.139C150.724 111.689 150.759 127.077 150.121 129.365C149.093 133.115 146.275 134.561 144.378 133.283C144.378 133.283 148.721 115.204 147.285 109.015C145.849 102.826 147.427 101.262 151.858 95.6782C156.307 90.0947 156.182 91.1374 156.182 91.1374L157.388 94.2992Z" fill="#68D072"/>
<path d="M156.2 92.2978C154.481 94.5009 151.237 98.6886 151.237 98.6886L152.513 100.387C152.513 100.387 151.468 100.925 150.546 102.103C150.511 104.911 151.45 112.816 151.45 112.816C151.45 112.816 153.276 103.969 158.043 96.6872C159.585 94.3159 158.681 94.2823 158.681 94.2823C158.681 94.2823 156.998 92.2137 156.2 92.2978Z" fill="#50AC59"/>
<path d="M158.611 90.5152C158.611 90.5152 158.221 95.3251 157.388 97.7133C157.388 98.1673 157.37 99.1596 158.628 99.3782C159.887 99.5968 162.368 99.4287 163.148 98.84C166.693 96.1492 167.224 94.7364 167.224 94.7364C167.224 94.7364 166.498 91.5915 166.409 90.4647C166.267 88.5811 166.427 82.4089 166.427 82.4089L158.611 90.5152Z" fill="#FFA08D"/>
<path d="M157.246 98.6717C157.246 98.6717 156.856 100.118 156.998 101.127C157.157 102.136 157.831 102.456 158.894 101.665C159.957 100.858 160.401 99.6976 160.401 99.6976C160.401 99.6976 159.213 97.7804 157.246 98.6717Z" fill="#388F41"/>
<path d="M157.37 101.194C157.37 101.194 155.633 103.431 154.268 107.922C153.099 111.756 151.06 120.653 150.883 122.654C151.539 124.908 152.992 126.623 152.992 126.623L156.413 123.815L158.451 101.733L157.37 101.194Z" fill="#388F41"/>
<path d="M157.494 93.189C157.494 93.189 156.395 93.929 155.58 97.5953C155.03 100 156.076 101.514 156.076 101.514L158.947 98.4193C158.947 98.4193 157.813 96.3507 158.522 93.1721C158.805 91.9444 157.494 93.189 157.494 93.189Z" fill="#E4F1F9"/>
<path d="M164.956 74.5716C161.996 72.2003 154.747 71.124 151.698 78.137C148.49 85.5033 155.137 95.224 159.036 93.8113C161.216 93.0209 165.647 91.1036 167.118 87.2187C168.784 82.8628 167.26 76.4216 164.956 74.5716Z" fill="#FFC5B3"/>
<path d="M167.402 93.189C167.402 93.189 160.489 100.118 158.15 111.117C157.512 114.094 155.934 120.636 155.633 126.337C155.296 132.358 156.307 137.487 158.735 139.287C166.072 144.719 175.005 136.495 175.005 136.495C175.005 136.495 171.443 125.143 172.063 121.645C172.683 118.147 177.327 102.876 175.821 100.387C174.332 97.898 167.402 93.189 167.402 93.189Z" fill="#68D072"/>
<path d="M166.71 92.2976C166.71 92.2976 167.012 95.2912 163.148 99.378C157.246 105.634 157.388 115.237 157.388 115.237L165.115 105.971L163.804 103.263L166.835 103.095C166.835 103.095 169.529 99.4116 169.511 95.308C169.493 93.1553 166.71 92.2976 166.71 92.2976Z" fill="#50AC59"/>
<path d="M160.028 103.347C159.284 101.531 158.947 98.4363 158.947 98.4363C158.947 98.4363 164.211 96.1322 166.586 93.5255C166.923 96.6704 164.335 101.834 160.028 103.347Z" fill="#E4F1F9"/>
<path d="M173.463 133.468C173.463 133.468 168.589 135.436 168.837 140.851C168.979 143.895 170.734 146.065 172.612 145.964C174.739 145.846 175.005 145.342 174.881 144.921C174.58 143.946 172.878 143.963 172.878 143.963C172.878 143.963 177.132 141.137 177.221 138.564C177.345 135.991 173.463 133.468 173.463 133.468Z" fill="#FFC5B3"/>
<path d="M173.055 98.1673C170.096 98.47 168.075 105.332 170.025 110.31C172.276 116.028 178.373 122.721 178.373 122.721L170.787 133.754C170.787 133.754 170.503 138.799 173.516 139.825C176.512 140.851 177.912 139.825 177.912 139.825C177.912 139.825 188.28 128.675 188.901 125.446C189.521 122.217 187.199 116.936 183.016 110.024C178.833 103.112 175.484 97.9318 173.055 98.1673Z" fill="#50AC59"/>
<path d="M157.335 79.9197C157.335 79.9197 162.35 85.436 167.685 86.6637C170.202 81.282 170.698 79.802 169.493 76.3879C168.093 72.4357 163.804 72.5367 163.804 72.5367C163.804 72.5367 159.461 67.9285 153.311 72.133C144.378 78.2211 151.22 85.4192 151.22 85.4192C151.22 85.4192 151.521 81.8706 157.335 79.9197Z" fill="#2B2B33"/>
<path d="M163.201 85.8901C163.201 85.8901 163.768 85.0996 164.442 84.6119C164.991 84.2082 166.054 84.0905 166.356 85.621C166.763 87.7065 165.009 88.4969 165.009 88.4969L163.201 85.8901Z" fill="#FFC5B3"/>
<path d="M104.148 112.006L102.447 101.647L90.9263 104.691L94.4533 115.69C95.0736 118.75 96.9169 121.021 100.143 120.466C103.404 119.911 104.769 115.067 104.148 112.006Z" fill="#FFC5B3"/>
<path d="M100.639 92.6321C100.019 89.5712 96.8992 87.5363 93.6558 88.0912C90.4123 88.6462 88.2854 91.5726 88.9057 94.6334L90.9263 104.691C91.5821 107.247 102.199 105.935 102.447 101.647L100.639 92.6321Z" fill="#02808F"/>
<path d="M100.143 136.712L94.8609 115.992C94.4532 112.881 104.006 110.796 104.237 112.578C105.353 119.003 105.708 127.143 106.027 135.316C106.435 138.428 100.408 138.697 100.143 136.712Z" fill="#FFC5B3"/>
<path d="M101.419 134.913C102.978 133.887 104.343 133.988 105.938 134.576C107.374 135.114 108.154 136.594 108.615 138.007C108.863 138.781 109.075 139.588 109.607 140.193C110.281 140.933 111.681 141.505 111.823 142.481C111.964 143.49 110.972 144.011 110.068 143.54C108.171 142.582 107.906 141.858 107.445 141.522C106.754 141.017 105.672 141.034 104.963 140.563C104.148 140.025 103.404 138.898 103.173 137.973L101.419 134.913Z" fill="#FFD2A1"/>
<path d="M102.518 147.324C102.589 148.804 103.492 149.914 104.45 149.494C104.662 150.402 106.257 151.175 106.895 150.049C107.604 150.755 108.845 149.359 108.916 148.333C109.04 146.769 109.093 146.668 109.129 146.197C109.217 145.104 108.969 143.961 108.827 143.221C108.615 142.178 108.296 141.253 107.711 140.345C106.204 138.007 105.07 135.484 102.464 134.374C101.348 134.828 100.231 135.434 99.5223 137.502C99.0083 139.016 99.4691 140.21 100.16 141.673C100.834 143.136 100.993 143.675 100.976 145.272C100.94 147.442 102.252 147.896 102.518 147.324Z" fill="#FFD2A1"/>
<path d="M101.419 134.913C102.978 133.887 104.343 133.988 105.938 134.576C107.374 135.114 108.154 136.594 108.615 138.007C108.863 138.781 109.075 139.588 109.607 140.193C110.281 140.933 111.681 141.505 111.823 142.481C111.964 143.49 110.972 144.011 110.068 143.54C108.171 142.582 107.906 141.858 107.445 141.522C106.754 141.017 105.672 141.034 104.963 140.563C104.148 140.025 103.404 138.898 103.173 137.973L101.419 134.913Z" fill="#FFC5B3"/>
<path d="M102.518 147.324C102.589 148.804 103.492 149.914 104.45 149.494C104.662 150.402 106.257 151.175 106.895 150.049C107.604 150.755 108.845 149.359 108.916 148.333C109.04 146.769 109.093 146.668 109.129 146.197C109.217 145.104 108.969 143.961 108.827 143.221C108.615 142.178 108.296 141.253 107.711 140.345C106.204 138.007 105.07 135.484 102.464 134.374C101.348 134.828 100.231 135.434 99.5223 137.502C99.0083 139.016 99.4691 140.21 100.16 141.673C100.834 143.136 100.993 143.675 100.976 145.272C100.94 147.442 102.252 147.896 102.518 147.324Z" fill="#FFC5B3"/>
<path d="M72.4404 226.486C70.6326 227.478 70.6326 229.076 72.4404 230.068L82.667 235.669C84.4748 236.661 87.3993 236.661 89.2071 235.669C91.0149 234.677 91.0149 233.079 89.2071 232.087L78.9805 226.486C77.1727 225.494 74.2482 225.494 72.4404 226.486Z" fill="black"/>
<path d="M82.0989 220.802L74.5486 220.129C72.9357 222.198 71.5178 224.519 71.0747 228.134L90.5177 234.172C91.014 231.649 85.945 229.278 84.2258 225.544C83.4814 223.913 83.4636 222.198 82.0989 220.802Z" fill="black"/>
<path d="M94.5065 214.411C92.6987 215.403 92.6987 217.001 94.5065 217.993L104.733 223.593C106.541 224.586 109.465 224.586 111.273 223.593C113.081 222.601 113.081 221.003 111.273 220.011L101.047 214.411C99.221 213.419 96.2966 213.419 94.5065 214.411Z" fill="black"/>
<path d="M104.165 208.726L96.6148 208.054C95.002 210.122 93.5841 212.443 93.141 216.059L112.584 222.097C113.08 219.574 108.295 216.833 106.292 213.469C105.388 211.922 105.53 210.122 104.165 208.726Z" fill="black"/>
<path d="M87.2574 136.022L89.8273 153.9L93.9392 173.291L94.4355 175.612L108.845 173.745L103.173 133.987L87.2574 136.022Z" fill="#324D69"/>
<path opacity="0.1" d="M89.8275 153.9L93.9393 173.274C93.9393 173.156 93.9571 173.055 93.9571 172.955C94.2229 169.187 93.8153 154.354 95.2864 150.856C93.6912 151.73 92.1138 152.588 90.5187 153.463C90.2883 153.614 90.0401 153.748 89.8275 153.9Z" fill="#21211F"/>
<path d="M94.4355 175.612C95.1799 174.149 94.7013 169.49 96.0838 168.531C98.0157 167.169 100.32 165.925 102.695 166.227C105.584 166.597 108.207 171.037 108.845 173.728C109.483 176.419 106.878 211.955 105.318 212.796C102.234 214.495 97.2181 214.495 94.1164 212.796C92.5922 211.972 93.7797 176.907 94.4355 175.612Z" fill="#324D69"/>
<path d="M90.554 184.038L75.9495 183.87L74.4962 143.91H90.554V184.038Z" fill="#324D69"/>
<path d="M73.2199 144.549C78.8739 152.016 104.644 143.591 104.396 137.469L101.72 100.671C101.72 99.3594 101.578 98.1149 101.294 96.9545C101.294 96.9545 101.294 96.9545 101.294 96.9377C99.2031 88.0746 89.7208 83.3656 80.8766 88.5455C75.5417 91.6736 70.5082 96.6013 67.8851 100.991C67.8851 101.008 73.1136 143.019 73.2199 144.549Z" fill="#02808F"/>
<path d="M66.0775 112.915L64.9963 125.545C64.695 128.673 67.7967 130.859 71.0756 131.162C74.3722 131.448 75.2229 128.421 75.8433 125.545L77.917 114.529L66.0775 112.915Z" fill="#FFC5B3"/>
<path d="M75.9495 183.869C76.8357 182.474 76.8357 181.027 78.3068 180.186C80.3627 179.009 82.7732 177.95 85.1127 178.471C87.9485 179.093 90.164 181.296 90.554 184.038C90.9439 186.779 85.3077 223.745 83.7657 224.603C80.6818 226.301 75.6659 226.301 72.5642 224.603C71.0045 223.745 75.1696 185.097 75.9495 183.869Z" fill="#324D69"/>
<path d="M102.11 135.367C102.854 135.535 103.634 135.703 104.396 135.602C104.946 135.535 105.46 135.333 105.956 135.131C107.268 134.61 108.561 134.088 109.873 133.567C110.263 133.416 110.671 133.248 111.043 133.046C111.876 132.575 112.549 131.835 112.939 130.977C113.046 130.725 113.134 130.422 113.01 130.17C112.939 130.035 112.833 129.934 112.709 129.867C112.088 129.497 111.291 129.733 110.582 129.833C109.253 130.035 107.888 129.817 106.576 129.463C105.282 129.127 104.006 128.656 102.677 128.387C103.616 128.673 104.609 128.908 105.584 128.791C106.559 128.673 107.533 128.101 107.87 127.227C107.906 127.143 107.923 127.059 107.906 126.974C107.888 126.907 107.835 126.857 107.782 126.806C107.374 126.436 106.807 126.234 106.257 126.285C105.832 126.319 105.442 126.47 105.017 126.504C104.503 126.537 103.989 126.386 103.492 126.268C101.383 125.78 99.0969 126.083 97.2181 127.092C96.8637 127.277 96.5092 127.496 96.2079 127.782C95.499 128.438 95.1799 129.363 94.9672 130.288C94.9141 130.489 94.8786 130.708 94.9141 130.91C94.9318 131.061 95.0027 131.213 95.0913 131.364C95.7294 132.575 96.8637 133.483 98.1221 134.105C99.345 134.694 100.727 135.047 102.11 135.367Z" fill="#FFC5B3"/>
<path d="M97.6435 127.042C105.619 127.697 99.4867 132.911 96.2255 132.339L69.9056 131.095C66.6621 130.523 64.4999 127.58 65.1025 124.485C65.7051 121.408 68.8067 119.356 72.0679 119.928L97.6435 127.042Z" fill="#FFC5B3"/>
<path d="M78.9272 104.523C79.2285 101.394 76.818 98.6363 73.5214 98.3504C70.2248 98.0645 67.3181 100.352 67.0168 103.463L66.0774 112.915C66.0774 116.446 77.013 117.641 77.9346 114.546L78.9272 104.523Z" fill="#02808F"/>
<path d="M107.746 126.789C107.338 126.419 106.771 126.218 106.222 126.268C105.797 126.302 105.407 126.453 104.981 126.487C104.467 126.52 103.953 126.369 103.457 126.251C101.348 125.763 99.0615 126.066 97.1827 127.075C96.8283 127.26 96.4738 127.479 96.1725 127.765C95.4635 128.421 95.1445 129.346 94.9318 130.271C94.8787 130.473 94.8432 130.691 94.8787 130.893C94.8964 131.044 94.9672 131.196 95.0559 131.347C95.6939 132.558 96.8283 133.466 98.0867 134.088C99.3451 134.711 100.728 135.081 102.11 135.4C102.553 135.501 103.014 135.602 103.475 135.652V130.069C103.475 130.069 103.723 129.06 104.042 128.757C104.556 128.841 105.07 128.875 105.584 128.808C108.951 128.404 107.799 126.84 107.746 126.789Z" fill="#FFC5B3"/>
<path d="M93.5316 89.6385C93.2657 90.1094 92.8226 90.5466 92.1668 90.9166C92.1136 90.9503 92.0605 91.0007 92.0073 91.0175C89.6323 92.3125 85.7863 92.3125 83.4113 91.0175C81.0363 89.7226 81.0363 87.6035 83.4113 86.3085C83.9607 86.0226 84.5633 85.7872 85.2191 85.6358C85.5558 85.5517 85.9281 85.4844 86.2825 85.434C86.4775 85.4003 86.6547 85.4003 86.832 85.3835C87.1333 85.3499 87.4346 85.3499 87.7182 85.3499C89.2601 85.3499 90.8021 85.6694 91.9896 86.3085C92.8049 86.7626 93.3366 87.3008 93.5848 87.8726C93.6557 88.0071 93.6911 88.1585 93.7265 88.3098C93.8506 88.7471 93.762 89.2012 93.5316 89.6385Z" fill="#FFC5B3"/>
<path d="M81.6568 73.7457H93.7976V88.6632H81.6568V73.7457Z" fill="#FFC5B3"/>
<path opacity="0.1" d="M93.7622 88.2932C93.8509 88.7473 93.78 89.2013 93.5496 89.6386C93.2837 90.1095 92.8406 90.5468 92.1848 90.9168C89.1186 89.6386 87.5943 87.7718 86.8499 85.3837C86.6372 84.6773 86.4777 83.9373 86.3891 83.1301H86.4068L94.5598 83.9037L94.9497 88.2595L93.7622 88.2932Z" fill="#21211F"/>
<path d="M99.1856 80.1196L98.1753 80.456C98.2108 81.1455 98.5475 84.0382 98.5475 84.0382C98.6184 85.7536 97.8032 88.1081 95.6408 88.2259L94.9496 88.2595L93.7621 88.31L93.3367 88.3268C91.6352 88.2595 89.3311 87.2 87.7537 85.35C87.2043 84.7109 86.7257 83.9541 86.4067 83.13C86.1408 82.4405 85.9813 81.7341 85.9459 80.9437H85.7686C83.9963 81.011 81.0009 82.3396 80.292 80.9437C79.264 78.976 78.7323 76.941 78.4842 74.721C78.4487 73.7961 78.3955 73.5102 78.4842 72.7533C79.2817 65.1685 84.9002 64.8321 88.4804 64.563C91.6707 64.4621 94.8433 65.6898 96.7575 68.633C97.6259 69.9784 98.2285 71.6602 98.4767 73.7288C98.2994 74.4015 98.069 74.9565 98.069 74.9565L99.8768 78.5892C100.178 79.2114 99.8591 79.9178 99.1856 80.1196Z" fill="#FFC5B3"/>
<path d="M81.6922 83.5168C88.9944 84.4754 84.3153 76.9746 84.3153 76.9746C84.3153 76.9746 86.1231 79.3123 86.7612 79.9514C87.931 79.8505 87.931 79.8505 88.9767 79.6991C88.6931 71.1052 86.6371 67.3884 96.7397 68.6497C98.6716 68.1788 99.3097 62.2253 87.3106 63.4362C82.0112 63.9744 78.0942 67.0352 77.5448 72.0806C77.0308 76.9746 77.4208 82.5246 81.6922 83.5168Z" fill="black"/>
<path d="M83.1633 77.7315C83.3051 79.3124 84.8648 81.0279 85.946 80.9438C87.0271 80.8597 86.7967 79.5815 86.6903 78.0006C86.6194 76.9579 86.7612 75.4443 85.5383 75.2088C84.4749 75.007 82.9683 75.4107 83.1633 77.7315Z" fill="#FFC5B3"/>
<defs>
<linearGradient id="paint0_linear" x1="13" y1="20" x2="252.754" y2="31.0988" gradientUnits="userSpaceOnUse">
<stop stop-color="#6DD16B"/>
<stop offset="1" stop-color="#005322"/>
</linearGradient>
</defs>
</svg>
