<svg width="283" height="300" viewBox="0 0 283 300" fill="none" xmlns="http://www.w3.org/2000/svg">
<path d="M137 19L33.4484 79.178C26.9801 82.937 23 89.8534 23 97.3346V205.665C23 213.147 26.9801 220.063 33.4484 223.822L101.5 263.37M137 284L240.552 223.822C247.02 220.063 251 213.147 251 205.665V97.3347C251 89.8534 247.02 82.937 240.552 79.178L230.371 73.2615L176.446 41.9239" stroke="url(#paint0_linear)" stroke-width="20" stroke-linecap="round"/>
<path opacity="0.2" d="M136.473 284.432C193.619 284.432 239.946 257.555 239.946 224.4C239.946 191.245 193.619 164.368 136.473 164.368C79.3264 164.368 33 191.245 33 224.4C33 257.555 79.3264 284.432 136.473 284.432Z" fill="#6DD16B"/>
<path opacity="0.2" d="M136.473 277.064C193.619 277.064 239.946 250.187 239.946 217.032C239.946 183.877 193.619 157 136.473 157C79.3264 157 33 183.877 33 217.032C33 250.187 79.3264 277.064 136.473 277.064Z" fill="#6DD16B"/>
<path opacity="0.1" d="M206.998 171.432C248.155 195.172 248.347 233.655 207.458 257.395C166.608 281.135 100.12 281.135 59.0017 257.395C17.8831 233.655 17.6532 195.172 58.5036 171.47C99.3922 147.73 165.841 147.692 206.998 171.432Z" fill="black"/>
<path d="M189.996 167.753C189.996 167.753 191.808 171.985 191.251 172.939C190.693 173.893 189.16 175.612 188.045 176.803C186.93 177.993 187.707 179.353 191.848 178.503C194.984 177.861 197.702 175.027 198.16 173.6C198.628 172.174 200.559 169.274 200.002 167.753C199.444 166.232 196.816 164.38 196.816 164.38L189.996 167.753Z" fill="#222228"/>
<path d="M158.387 124.61C158.387 124.61 157.581 127.831 157.701 129.513C157.82 131.194 158.387 132.866 160.369 133.745C162.35 134.614 163.554 127.642 163.763 127.434C163.973 127.227 158.387 124.61 158.387 124.61Z" fill="#FFC3B1"/>
<path d="M155.65 174.838C155.65 174.838 154.415 176.104 152.773 177.625C151.249 179.032 150.782 179.438 149.368 180.742C148.542 181.507 149.219 182.206 150.792 182.15C152.175 182.102 155.301 181.46 157.054 180.865C158.298 180.44 160.578 179.249 161.743 178.55C162.907 177.851 163.136 176.878 163.136 176.878V174.526L155.65 174.838Z" fill="#222228"/>
<path d="M163.136 124.61C163.136 124.61 158.348 144.495 157.84 147.083C157.332 149.672 156.864 156.455 156.237 161.017C155.61 165.58 153.609 174.535 153.609 174.535C153.609 174.535 156.197 176.878 158.816 176.925C162.27 176.992 164.52 175.678 164.52 175.678C164.52 175.678 167.099 159.553 167.208 157.201C167.308 154.849 167.825 149.124 167.825 149.124C167.825 149.124 174.237 140.499 175.411 136.097C176.576 131.695 176.596 128.606 176.596 128.606L163.136 124.61Z" fill="#222228"/>
<path d="M162.887 127.831C169.558 120.491 168.154 93.2847 168.154 93.2847L166.222 91.0269C166.222 91.0269 163.734 91.3481 160.996 97.4412C158.258 103.525 157.93 109.835 157.711 112.15C157.492 114.492 157.462 121.219 157.322 125.384C158.427 127.737 160.637 128.285 162.887 127.831Z" fill="#222228"/>
<path d="M184.919 148.926C183.037 147.074 183.525 132.621 180.32 128.294C178.697 126.102 163.564 123.231 166.252 129.607C168.074 133.943 171.29 144.778 173.072 149.672C173.769 151.599 177.532 156.785 180.887 161.178C184.73 166.204 188.164 170.341 188.164 170.341C188.164 170.341 190.315 171.371 193.411 170.341C196.507 169.311 198.17 164.38 198.17 164.38C198.17 164.38 188.095 152.052 184.919 148.926Z" fill="#2B2B33"/>
<path d="M159.901 130.401C161.225 131.865 164.122 133.206 165.725 134.132C165.964 131.912 166.591 129.428 166.591 129.428C166.591 129.428 166.79 132.384 166.86 134.718C168.672 135.549 170.693 136.002 173.002 135.946C176.746 135.842 180.509 135.048 183.665 133.197C183.207 131.024 181.255 121.426 181.753 117.799C182.589 111.696 183.904 101.248 183.685 99.6328C183.306 96.931 176.785 94.5977 176.785 94.5977C176.785 94.5977 172.116 90.0255 167.368 91.8015C167.368 91.8015 162.39 95.9297 161.424 101.371C160.578 106.198 162.101 113.822 162.131 119.849C162.141 122.069 160.319 127.34 159.901 130.401Z" fill="#383842"/>
<path d="M169.667 91.7449C169.667 91.7449 166.9 93.8326 164.928 96.3738C163.764 97.8758 163.435 98.9244 163.435 98.9244L164.928 100.304L162.808 101.267C162.808 101.267 162.788 107.71 163.664 110.742C164.49 113.605 166.591 120.019 166.591 120.019C166.591 120.019 168.562 113.453 169.538 111.81C170.513 110.166 173.719 105.414 173.719 105.414L172.823 103.26L175.641 103.194C175.641 103.194 179.951 99.085 179.165 96.3077C178.219 93.0013 174.068 91.8677 174.068 91.8677L169.667 91.7449Z" fill="#222228"/>
<path d="M166.909 97.7245C166.909 97.7245 165.705 101.182 165.048 104.318C164.391 107.445 166.79 117.865 166.79 117.865C166.79 117.865 167.855 107.681 170.006 104.791C172.554 101.362 175.869 98.1024 175.869 98.1024C175.869 98.1024 169.11 96.9216 166.909 97.7245Z" fill="#639E54" fill-opacity="0.25"/>
<path d="M168.164 98.367L167.805 101.04C167.805 101.04 166.143 102.561 165.784 104.432C165.426 106.302 165.804 113.057 165.804 113.057L166.78 117.856L167.208 114.644C167.208 114.644 167.975 110.487 168.622 107.927C168.711 106.803 168.821 105.877 168.92 105.603C169.368 104.337 169.468 101.749 169.468 101.749L171.23 99.7557L169.548 97.8947L168.164 98.367Z" fill="#30A026"/>
<path d="M169.269 92.8313L168.96 97.0635C168.96 97.0635 169.548 97.8948 171.051 99.1134C172.664 98.6411 176.397 95.3442 176.397 95.3442L175.153 88.7787L169.269 92.8313Z" fill="#FFAB95"/>
<path d="M175.85 81.5519C174.177 79.5209 169.349 77.8205 166.213 82.2226C162.917 86.8515 166.033 94.4088 168.921 93.9648C170.533 93.7192 174.177 92.3211 175.77 89.8555C177.552 87.0688 177.154 83.1201 175.85 81.5519Z" fill="#FFC3B1"/>
<path d="M169.15 94.4655L169.548 97.8947L166.611 99.0283C166.611 99.0283 166.272 95.3724 169.15 94.4655Z" fill="#DDDDDD"/>
<path d="M176.148 93.9837C176.148 93.9837 175.232 95.5896 173.132 96.7232C172.056 97.2995 169.548 97.8946 169.548 97.8946L170.653 101.04C170.653 101.04 174.147 99.6989 175.869 98.4047C175.869 98.4047 178.149 95.8447 176.148 93.9837Z" fill="#DDDDDD"/>
<path d="M184.093 121.096C186.124 120.812 188.583 119.206 189.08 114.955C189.538 110.997 189.499 108.059 188.832 104.422C187.716 98.3481 184.909 97.8946 182.37 97.6396C181.066 98.4237 180.449 103.024 180.449 107.124C180.449 107.124 180.449 119.839 184.093 121.096Z" fill="#222228"/>
<path d="M164.669 85.3967L170.892 88.7692C170.892 88.7692 170.722 90.3373 169.428 90.3373C168.841 90.3373 168.064 90.0161 167.766 89.3265C167.427 88.5424 167.268 88.2213 166.979 88.089C166.203 87.7206 166.422 88.9109 164.938 88.0984C163.903 87.5316 164.669 85.3967 164.669 85.3967Z" fill="#222228"/>
<path d="M175.033 87.6355C175.192 88.089 175.252 88.5897 174.943 89.0903C174.505 89.8083 175.471 89.2131 175.61 88.5424C175.81 87.5883 175.342 86.9837 175.342 86.9837L175.033 87.6355Z" fill="#FFAB95"/>
<path d="M170.713 88.8542C170.713 88.8542 173.43 87.3333 174.356 86.8893C174.824 86.6626 174.436 87.2955 174.058 87.4939C173.331 87.8906 170.703 89.2982 170.703 89.2982V88.8542H170.713Z" fill="#222228"/>
<path d="M174.157 107.426L178.109 109.741L178.657 108.333L174.705 106.009L174.157 107.426Z" fill="#639E54" fill-opacity="0.25"/>
<path d="M174.954 88.1929C174.744 87.8812 174.486 87.9473 174.356 87.9851C174.077 88.089 173.928 88.7597 174.396 88.9109C174.446 88.9298 174.496 88.9298 174.545 88.9392C174.585 90.4318 174.804 91.6693 174.038 93.0958C173.56 93.9838 173.092 94.7678 172.684 95.6936C171.977 97.3279 171.937 99.7462 172.773 101.399C172.813 101.352 172.853 101.295 172.903 101.248C172.485 100.011 172.246 98.4993 172.475 97.3468C172.773 95.7881 173.61 94.6072 174.267 93.228C174.963 91.7732 174.993 90.4129 174.774 88.892C175.093 88.8353 175.053 88.3535 174.954 88.1929Z" fill="#222228"/>
<path d="M165.406 83.6963C165.406 83.6963 167.716 85.1605 169.239 85.6517C170.902 86.1808 172.714 86.3791 173.251 86.4075C172.963 87.8623 173.251 88.0701 173.878 88.4669C173.878 88.4669 174.307 87.4466 174.545 86.9837C174.824 86.4453 175.332 86.1713 175.661 86.5397C176.736 87.7584 175.342 90.3373 175.342 90.3373C175.342 90.3373 180.857 87.2955 178.398 81.5236C177.592 79.6342 174.257 77.4426 170.394 78.3022C166.979 79.058 164.928 81.2118 164.391 82.2887C164.928 83.035 165.406 83.6963 165.406 83.6963Z" fill="#222228"/>
<path d="M175.143 88.429C173.749 89.2414 173.53 90.3373 174.107 92.2171C174.685 94.097 174.525 95.9297 175.481 97.2239C176.447 98.5086 176.885 101.144 176.885 101.144L180.061 100.105C180.061 100.105 179.234 95.2779 178.348 92.6233C177.472 89.9594 176.805 87.4655 175.143 88.429Z" fill="#FFC3B1"/>
<path d="M180.598 98.4237C179.871 98.2914 177.93 98.2536 176.387 98.7827C174.834 99.3117 173.809 100.795 173.809 100.795C173.809 100.795 174.625 106.359 175.312 110.147C175.999 113.935 177.114 118.026 180.071 119.792C180.996 120.349 182.45 121.133 183.346 121.152C184.839 121.19 184.819 120.586 185.586 119.31C187.657 115.853 183.127 107.389 182.659 104.829C182.201 102.278 180.598 98.4237 180.598 98.4237Z" fill="#2B2B33"/>
<path d="M98.6047 192.314C98.6047 192.314 100.417 196.546 99.8591 197.5C99.3016 198.454 97.7684 200.174 96.6534 201.364C95.5384 202.554 96.3149 203.915 100.456 203.064C103.592 202.422 106.31 199.588 106.768 198.162C107.236 196.735 109.167 193.835 108.61 192.314C108.052 190.793 105.424 188.942 105.424 188.942L98.6047 192.314Z" fill="#222228"/>
<path d="M66.9959 149.171C66.9959 149.171 66.1895 152.392 66.3089 154.074C66.4284 155.755 66.9959 157.428 68.977 158.306C70.9582 159.175 72.1628 152.204 72.3719 151.996C72.5809 151.788 66.9959 149.171 66.9959 149.171Z" fill="#FFC3B1"/>
<path d="M64.2582 199.399C64.2582 199.399 63.0237 200.665 61.381 202.186C59.8579 203.593 59.3899 203.999 57.9763 205.303C57.15 206.068 57.8269 206.767 59.3999 206.711C60.7837 206.663 63.9097 206.021 65.6619 205.426C66.9064 205.001 69.1862 203.811 70.351 203.112C71.5158 202.412 71.7447 201.439 71.7447 201.439V199.087L64.2582 199.399Z" fill="#222228"/>
<path d="M71.7347 149.171C71.7347 149.171 66.9461 169.056 66.4384 171.645C65.9306 174.233 65.4627 181.016 64.8355 185.579C64.2083 190.141 62.2073 199.097 62.2073 199.097C62.2073 199.097 64.7957 201.44 67.414 201.487C70.8686 201.553 73.1185 200.24 73.1185 200.24C73.1185 200.24 75.697 184.114 75.8065 181.762C75.9061 179.41 76.4237 173.685 76.4237 173.685C76.4237 173.685 82.8351 165.06 84.0098 160.658C85.1846 156.256 85.1945 153.167 85.1945 153.167L71.7347 149.171Z" fill="#222228"/>
<path d="M71.4958 152.392C78.166 145.052 76.7623 117.846 76.7623 117.846L76.6926 114.785C76.6926 114.785 72.342 115.919 69.6042 122.002C66.8665 128.086 66.5379 134.397 66.3189 136.711C66.0999 139.054 66.07 145.78 65.9307 149.946C67.0357 152.298 69.2458 152.846 71.4958 152.392Z" fill="#222228"/>
<path d="M93.5274 173.487C91.6458 171.635 92.1336 157.182 88.928 152.855C87.3052 150.664 72.1728 147.792 74.8608 154.168C76.6827 158.504 79.8983 169.34 81.6804 174.233C82.3772 176.16 86.1404 181.347 89.4954 185.739C93.3383 190.765 96.7729 194.902 96.7729 194.902C96.7729 194.902 98.9233 195.932 102.019 194.902C105.116 193.873 106.778 188.942 106.778 188.942C106.778 188.942 96.7032 176.614 93.5274 173.487Z" fill="#2B2B33"/>
<path d="M68.5093 154.962C69.8334 156.426 72.7304 157.768 74.3333 158.693C74.5722 156.473 75.1994 153.989 75.1994 153.989C75.1994 153.989 75.3985 156.946 75.4682 159.279C77.2801 160.11 79.3011 160.564 81.6107 160.507C85.3441 160.403 89.1172 159.61 92.2731 157.758C91.8151 155.585 89.8639 145.988 90.3616 142.36C91.1979 136.257 92.512 125.809 92.293 124.194C91.9147 121.492 85.583 118.507 85.583 118.507C85.583 118.507 80.7147 114.587 75.9759 116.363C75.9759 116.363 70.9982 120.491 70.0325 125.932C69.1863 130.76 70.7094 138.383 70.7393 144.41C70.7493 146.63 68.9274 151.901 68.5093 154.962Z" fill="#383842"/>
<path d="M78.2754 116.306C78.2754 116.306 75.5078 118.394 73.5366 120.935C72.3718 122.437 72.0433 123.486 72.0433 123.486L73.5366 124.865L71.4161 125.828C71.4161 125.828 71.3961 132.271 72.2722 135.303C73.0985 138.166 75.1991 144.58 75.1991 144.58C75.1991 144.58 77.1703 138.014 78.146 136.371C79.1216 134.727 82.3273 129.975 82.3273 129.975L81.4313 127.822L84.2487 127.755C84.2487 127.755 88.5594 123.646 87.773 120.869C86.8272 117.562 82.6757 116.429 82.6757 116.429L78.2754 116.306Z" fill="#222228"/>
<path d="M75.5179 122.286C75.5179 122.286 74.3132 125.743 73.6562 128.88C72.9991 132.007 75.3984 142.426 75.3984 142.426C75.3984 142.426 76.4636 132.243 78.614 129.352C81.1626 125.923 84.4778 122.664 84.4778 122.664C84.4778 122.664 77.718 121.483 75.5179 122.286Z" fill="#639E54" fill-opacity="0.25"/>
<path d="M76.7722 122.928L76.4138 125.602C76.4138 125.602 74.7512 127.123 74.3928 128.993C74.0344 130.864 74.4127 137.618 74.4127 137.618L75.3884 142.417L75.8164 139.205C75.8164 139.205 76.583 135.048 77.2301 132.488C77.3197 131.364 77.4292 130.438 77.5288 130.165C77.9768 128.899 78.0763 126.31 78.0763 126.31L79.8385 124.317L78.156 122.456L76.7722 122.928Z" fill="#30A026"/>
<path d="M77.8772 117.393L77.5686 121.625C77.5686 121.625 78.156 122.456 79.6593 123.675C81.2721 123.202 85.0054 119.905 85.0054 119.905L83.7709 113.331L77.8772 117.393Z" fill="#FFAB95"/>
<path d="M77.758 119.027L78.1562 122.456L75.2193 123.59C75.2193 123.59 74.8808 119.934 77.758 119.027Z" fill="#DDDDDD"/>
<path d="M84.7565 118.545C84.7565 118.545 83.8406 120.151 81.74 121.285C80.6648 121.861 78.156 122.456 78.156 122.456L79.2611 125.602C79.2611 125.602 82.7554 124.26 84.4778 122.966C84.4778 122.966 86.7576 120.406 84.7565 118.545Z" fill="#DDDDDD"/>
<path d="M83.6414 112.197C83.8007 112.65 83.8605 113.151 83.5518 113.652C83.1138 114.37 84.0795 113.774 84.2189 113.104C84.418 112.15 83.9501 111.545 83.9501 111.545L83.6414 112.197Z" fill="#FFAB95"/>
<path d="M82.7654 131.988L86.7177 134.312L87.2653 132.895L83.3129 130.571L82.7654 131.988Z" fill="#639E54" fill-opacity="0.25"/>
<path d="M79.3506 105.112C76.1549 105.527 74.6914 108.853 74.6914 111.715C74.6914 114.691 76.5033 117.581 78.594 118.98C80.6846 120.368 83.3726 120.803 85.0153 117.402C86.6579 113.992 87.2652 109.939 85.0651 107.162C83.2233 104.838 80.8638 104.913 79.3506 105.112Z" fill="#FFC3B1"/>
<path d="M75.2093 111.876C75.2093 111.876 74.2137 111.394 74.0843 112.386C73.9549 113.378 74.363 115.135 75.5179 115.267C76.6727 115.399 75.2093 111.876 75.2093 111.876Z" fill="#FFC3B1"/>
<path d="M74.8708 112.518C74.8708 112.518 74.3232 112.244 74.4527 113.274C74.592 114.379 75.3088 114.785 75.3088 114.785L74.8708 112.518Z" fill="#FFAB95"/>
<path d="M76.3244 120.274C75.9461 118.016 73.4074 116.656 74.7414 114.237C74.8609 114.351 75.0401 114.407 75.2492 114.332C75.7171 114.152 75.4284 113.047 74.8111 113.311C74.4826 113.453 74.4129 113.803 74.612 114.067C74.0246 114.946 73.8654 115.938 74.3134 116.986C74.7613 118.035 75.7071 118.904 75.956 120.047C76.2447 121.379 75.1297 122.881 74.8908 124.203C75.5777 123.079 76.5832 121.795 76.3244 120.274Z" fill="#383842"/>
<path d="M78.4548 113.718L86.8772 112.565C86.8772 112.565 86.8772 114.672 85.573 114.87C84.5376 115.031 83.9204 113.907 82.9846 114.143C82.0488 114.379 81.7501 115.163 80.5953 115.361C79.0024 115.626 78.4548 113.718 78.4548 113.718Z" fill="#222228"/>
<path d="M74.4326 111.819C74.4326 111.819 75.0399 111.281 76.1251 112.046C77.2002 112.801 79.0022 113.982 79.0022 113.982L78.7931 114.436C78.7931 114.436 76.3739 112.83 75.8164 112.48C75.2589 112.14 74.4326 111.819 74.4326 111.819Z" fill="#222228"/>
<path d="M91.0783 155.614C91.0783 155.614 89.4257 159.185 89.3859 162.623C89.3361 166.071 91.387 167.715 93.7066 163.851C95.2895 161.206 95.2397 157.059 95.2397 157.059L91.0783 155.614Z" fill="#FFC3B1"/>
<path d="M99.9089 142.256C100.028 137.174 99.0029 132.705 97.6788 129.059C95.5583 123.23 91.6558 121.209 89.8837 123.24C88.2808 125.082 87.8926 132.743 91.6259 142.256C91.2575 145.525 87.8926 158.372 87.8926 158.372C87.8926 158.372 89.804 160.583 92.044 160.847C94.284 161.102 96.295 160.252 96.295 160.252C96.295 160.252 99.8093 146.243 99.9089 142.256Z" fill="#222228"/>
<path d="M113.677 137.656C113.677 137.656 110.661 137.269 108.331 140.962C104.767 146.602 104.638 153.026 104.638 153.026C104.638 153.026 103.443 151.467 100.516 148.803C99.2817 150.588 96.5938 151.354 96.5938 151.354C96.5938 151.354 97.5495 154.292 99.1921 157.466C100.367 159.714 101.83 160.394 103.174 160.97C104.658 161.603 105.783 161.877 106.818 161.339C112.513 158.401 116.037 139.819 116.037 139.819L113.677 137.656Z" fill="#222228"/>
<path d="M129.974 205.417C129.974 205.417 130.174 207.136 129.755 208.449C129.148 210.376 127.764 213.107 129.088 213.456C131.318 214.032 134.255 212.955 135.55 209.158C136.615 206.022 138.466 202.111 137.401 200.656C136.595 200.278 134.853 199.824 134.853 199.824L129.974 205.417Z" fill="#222228"/>
<path d="M107.575 172.627C107.575 172.627 108.272 186.382 110.054 191.37C111.836 196.357 115.828 197.453 119.253 199.664C123.384 202.337 128.332 206.702 128.332 206.702C128.332 206.702 132.145 206.191 133.439 204.34C135.609 201.251 135.151 199.21 135.151 199.21C135.151 199.21 129.736 195.016 126.938 193.127C122.657 190.227 120.547 187.345 120.547 187.345L121.114 171.059C121.114 171.069 110.093 170.549 107.575 172.627Z" fill="#222228"/>
<path d="M106.708 222.997C106.708 222.997 105.474 224.263 103.831 225.784C102.308 227.192 101.84 227.598 100.426 228.901C99.6002 229.667 100.277 230.366 101.85 230.309C103.234 230.262 106.36 229.619 108.112 229.024C109.357 228.599 111.636 227.409 112.801 226.71C113.966 226.011 114.195 225.038 114.195 225.038V222.685L106.708 222.997Z" fill="#222228"/>
<path d="M114.185 172.769C114.185 172.769 109.397 192.654 108.889 195.243C108.381 197.831 107.913 204.614 107.286 209.177C106.659 213.739 104.658 222.695 104.658 222.695C104.658 222.695 107.246 225.038 109.864 225.085C113.319 225.151 115.569 223.838 115.569 223.838C115.569 223.838 117.938 205.577 118.038 203.225C118.137 200.873 118.874 197.274 118.874 197.274C118.874 197.274 125.286 188.649 126.46 184.247C127.625 179.845 127.645 176.756 127.645 176.756L114.185 172.769Z" fill="#2B2B33"/>
<path d="M112.742 138.865C112.742 138.865 107.843 142.615 107.256 147.924C106.967 150.56 107.814 159.43 107.843 165.25C107.853 168.509 106.49 177.663 106.49 177.663C106.49 177.663 108.202 178.796 110.979 180.005C110.979 177.681 111.905 174.054 111.905 174.054C111.905 174.054 112.184 178.144 112.184 180.393C113.657 180.818 115.34 181.101 117.182 181.092C121.721 181.073 128.481 178.116 128.481 178.116C128.481 178.116 129.337 172.457 126.46 162.878C124.748 157.163 128.561 147.395 128.342 145.837C127.973 143.229 121.741 140.405 121.741 140.405C121.741 140.405 117.321 137.155 112.742 138.865Z" fill="#383842"/>
<path d="M114.872 138.374C114.872 138.374 112.204 140.386 110.293 142.842C109.168 144.287 108.849 145.308 108.849 145.308L110.293 146.64L108.242 147.575C108.242 147.575 107.097 154.905 108.65 157.362C110.203 159.827 112.085 165.977 112.085 165.977C112.085 165.977 114.245 159.619 115.191 158.032C116.136 156.445 119.72 152.062 119.72 152.062L117.928 149.493L120.855 148.586C120.855 148.586 124.977 143.673 124.549 142.2C123.742 139.422 120.945 138.865 120.945 138.865L114.872 138.374Z" fill="#222228"/>
<path d="M112.204 143.428C112.204 143.428 111.039 146.772 110.402 149.795C109.765 152.818 112.085 162.878 112.085 162.878C112.085 162.878 113.12 153.044 115.191 150.248C117.65 146.932 120.855 143.787 120.855 143.787C120.855 143.787 114.324 142.663 112.204 143.428Z" fill="#639E54" fill-opacity="0.25"/>
<path d="M113.418 144.051L113.07 146.63C113.07 146.63 111.457 148.104 111.119 149.908C110.77 151.712 111.139 158.24 111.139 158.24L112.084 162.878L112.492 159.78C112.492 159.78 113.229 155.765 113.856 153.29C113.946 152.204 114.046 151.306 114.145 151.042C114.583 149.823 114.673 147.32 114.673 147.32L116.375 145.393L114.752 143.598L113.418 144.051Z" fill="#406FB5"/>
<path d="M114.484 138.704L114.185 142.795C114.185 142.795 114.753 143.598 116.206 144.769C117.759 144.306 121.373 141.132 121.373 141.132L120.168 134.784L114.484 138.704Z" fill="#FFAD97"/>
<path d="M120.845 127.812C119.223 125.857 114.573 124.204 111.537 128.464C108.361 132.932 111.358 140.235 114.145 139.81C115.708 139.573 119.223 138.223 120.756 135.833C122.488 133.14 122.1 129.333 120.845 127.812Z" fill="#FFC3B1"/>
<path d="M114.374 140.282L114.763 143.598L111.925 144.694C111.915 144.694 111.597 141.161 114.374 140.282Z" fill="#DDDDDD"/>
<path d="M121.134 139.819C121.134 139.819 120.248 141.378 118.217 142.464C117.172 143.022 114.762 143.598 114.762 143.598L115.828 146.64C115.828 146.64 119.203 145.336 120.865 144.089C120.855 144.089 123.055 141.614 121.134 139.819Z" fill="#DDDDDD"/>
<path d="M118.784 125.791C116.047 122.655 110.492 125.555 109.596 128.049C108.401 131.374 110.163 133.443 110.163 133.443C110.163 133.443 111.318 131.799 114.185 131.109C116.405 130.58 117.52 131.232 117.53 131.223C117.271 133.575 118.665 134.397 118.974 134.302C119.252 133.282 119.72 133.046 120.238 133.471C120.835 133.962 120.746 135.833 120.746 135.833C120.746 135.833 122.996 133.991 122.986 130.911C122.986 128.993 122.508 126.065 118.784 125.791Z" fill="#222228"/>
<path d="M126.122 192.465L127.197 195.365L138.258 189.452V196.603L141.274 198.256V185.701C141.274 185.257 141.145 184.785 140.946 184.351L126.122 192.465Z" fill="#FF8F83"/>
<path d="M139.771 182.962C139.373 182.745 139.014 182.745 138.746 182.915L125.306 190.245L126.132 192.465L140.956 184.341C140.677 183.746 140.249 183.227 139.771 182.962Z" fill="#FF9E97"/>
<path d="M127.675 205.662V193.108C127.675 192.059 126.998 190.822 126.162 190.368C125.335 189.915 124.648 190.397 124.648 191.455V204.009L127.675 205.662Z" fill="#FF735C"/>
<path d="M141.274 186.826L127.675 194.232V205.662L141.274 198.256V186.826Z" fill="#EF604D"/>
<path d="M136.277 184.247C136.277 184.247 136.824 183.935 137.392 183.595C138.108 183.16 139.333 183.973 138.636 184.407C137.949 184.832 137.601 185.05 137.601 185.05L136.277 184.247Z" fill="#639E54" fill-opacity="0.25"/>
<path d="M129.178 188.129C129.178 188.129 129.825 184.502 129.995 183.926C130.164 183.349 131.886 182.537 133.18 181.885C134.475 181.233 136.018 180.827 136.794 181.97C137.571 183.113 137.581 185.05 137.581 185.05C137.581 185.05 137.063 184.776 136.814 184.625C136.396 184.37 136.257 184.256 136.257 184.256C136.257 184.256 136.028 183.387 135.779 182.849C135.659 182.594 135.45 182.499 135.142 182.584C134.196 182.868 131.558 184.105 131.378 184.842C131.139 185.843 130.472 188.923 130.472 188.923L129.178 188.129Z" fill="#FF735C"/>
<path d="M129.178 188.129C129.178 188.129 128.531 188.432 127.974 188.781C127.745 188.923 128.611 189.82 129.258 189.518C129.995 189.178 130.492 188.923 130.492 188.923L129.178 188.129Z" fill="#639E54" fill-opacity="0.25"/>
<path d="M134.475 197.009C134.475 197.009 134.524 198.757 135.629 198.02C136.575 197.387 136.306 196.008 136.306 196.008L134.475 197.009Z" fill="#639E54" fill-opacity="0.25"/>
<path d="M127.675 194.232C127.675 194.232 128.87 199.928 134.863 197.113C140.856 194.298 141.274 186.826 141.274 186.826L140.747 187.109L128.203 193.948C127.894 194.119 127.675 194.232 127.675 194.232Z" fill="#FF8F83"/>
<path d="M131.348 180.015C131.348 180.015 131.119 180.978 130.95 181.677C130.781 182.377 130.293 183.019 130.721 183.217C131.02 183.038 132.015 182.48 132.015 182.48C132.015 182.48 133.13 183.482 132.583 183.794C132.035 184.105 131.896 184.256 131.896 184.256C131.896 184.256 132.364 184.946 133.22 184.785C134.066 184.625 134.753 184.256 135.191 183.812C135.629 183.378 136.257 181.866 135.599 180.138C134.932 178.418 131.348 180.015 131.348 180.015Z" fill="#FFC3B1"/>
<path d="M126.709 144.458C123.215 145.714 125.524 153.167 126.749 158.609C127.973 164.05 129.228 165.325 129.427 166.336C129.626 167.347 130.701 180.166 130.701 180.166C130.701 180.166 132.872 181.762 134.783 181.432C137.182 181.007 137.182 179.41 137.182 179.41C137.182 179.41 136.993 165.656 135.669 160.914C134.335 156.171 131.667 142.682 126.709 144.458Z" fill="#222228"/>
<path d="M101.731 149.71L100.118 142.87C99.9985 142.37 99.5306 141.85 99.0826 141.709L95.8072 140.736C95.6081 140.679 95.4588 140.717 95.3493 140.802L94.9709 141.132L95.2497 141.595L95.2597 141.586L96.8227 148.255C96.9421 148.756 97.41 149.275 97.858 149.417L100.984 150.352L101.203 150.702L101.611 150.352C101.751 150.22 101.79 149.993 101.731 149.71Z" fill="#2B2B33"/>
<path d="M100.745 150.73L97.4698 149.757C97.0218 149.625 96.5539 149.105 96.4344 148.595L94.8216 141.756C94.7021 141.255 94.9709 140.953 95.4189 141.085L98.7042 142.058C99.1522 142.19 99.6202 142.71 99.7396 143.22L101.352 150.059C101.462 150.56 101.193 150.862 100.745 150.73Z" fill="#383842"/>
<path d="M101.213 145.903C101.432 145.345 101.382 144.883 100.895 144.75C100.676 143.985 100.656 143.824 99.8294 144.127C98.6646 144.552 97.2011 145.345 96.7432 145.194C96.0662 144.968 95.2001 143.324 95.2001 143.324C95.2001 143.324 94.8018 144.703 94.9711 146.432C95.0607 147.386 96.3848 150.248 97.4401 151.108C98.0673 150.862 98.7144 150.598 99.2619 150.22C99.1424 150.003 99.1126 150.021 99.0329 149.748C99.9588 149.077 100.367 148.274 101.074 147.839C101.432 147.613 101.482 147.594 101.432 146.942C101.761 146.385 101.552 146.016 101.213 145.903Z" fill="#FFC3B1"/>
<path d="M175.68 172.552C175.68 172.552 174.814 176.009 174.944 177.814C175.073 179.618 175.68 181.413 177.811 182.357C179.941 183.293 181.226 175.801 181.454 175.584C181.674 175.357 175.68 172.552 175.68 172.552Z" fill="#FFC3B1"/>
<path d="M180.509 176.009C187.667 168.121 186.163 138.912 186.163 138.912L184.083 136.494C184.083 136.494 181.415 136.843 178.468 143.38C175.521 149.917 175.182 156.691 174.944 159.175C174.705 161.688 174.675 168.915 174.525 173.383C175.72 175.905 178.099 176.491 180.509 176.009Z" fill="#222228"/>
<path d="M175.82 219.615C175.82 219.615 174.456 221.022 172.624 222.713C170.932 224.282 170.414 224.726 168.841 226.18C167.925 227.031 168.682 227.805 170.424 227.749C171.957 227.692 175.441 226.983 177.383 226.322C178.766 225.85 181.295 224.518 182.589 223.743C183.884 222.969 184.133 221.892 184.133 221.892V219.284L175.82 219.615Z" fill="#222228"/>
<path d="M195.322 229.676C195.322 229.676 195.004 232.349 194.815 235.712C194.616 239.075 195.123 242.041 196.198 242.41C197.284 242.778 200.36 242.731 202.122 238.064C203.874 233.398 202.829 228.873 202.829 228.873L195.322 229.676Z" fill="#222228"/>
<path d="M190.882 161.508C190.892 161.442 190.922 161.386 190.942 161.329C186.492 161.934 180.807 163.558 180.807 163.558C180.807 163.558 177.432 180.912 175.999 190.047C174.376 200.429 175.083 218.963 175.083 218.963C175.083 218.963 175.292 221.221 179.364 221.202C182.49 221.192 185.068 218.774 185.068 218.774L185.397 197.141L188.214 183.878C189.05 176.415 189.907 168.962 190.882 161.508Z" fill="#2B2B33"/>
<path d="M205.736 227.05C205.736 227.05 204.82 215.562 200.161 205.615C199.772 198.067 199.892 186.429 200.191 182.036C200.838 172.457 193.909 169.075 193.909 169.075C194.068 167.951 187.019 175.801 186.153 183.623C186.522 188.706 188.234 204.444 189.707 207.4C193.909 215.808 193.909 230.62 193.909 230.62C193.909 230.62 199.195 232.415 202.819 230.696C206.453 228.967 205.736 227.05 205.736 227.05Z" fill="#2B2B33"/>
<path d="M177.303 178.767C178.717 180.336 181.833 181.781 183.555 182.782C183.814 180.402 184.491 177.728 184.491 177.728C184.491 177.728 184.71 180.902 184.78 183.406C186.721 184.303 188.891 184.785 191.37 184.719C195.382 184.606 199.424 183.755 202.819 181.762C202.331 179.429 200.231 169.122 200.768 165.23C201.664 158.674 203.834 148.973 203.595 147.244C203.187 144.344 195.432 140.32 195.432 140.32C195.432 140.32 190.404 135.407 185.317 137.306C185.317 137.306 179.971 141.737 178.936 147.584C178.02 152.761 179.662 160.951 179.692 167.422C179.702 169.821 177.751 175.48 177.303 178.767Z" fill="#383842"/>
<path d="M187.796 137.259C187.796 137.259 184.829 139.498 182.709 142.228C181.454 143.834 181.106 144.967 181.106 144.967L182.709 146.45L180.429 147.49C180.429 147.49 180.409 154.404 181.355 157.664C182.251 160.743 184.501 167.63 184.501 167.63C184.501 167.63 186.611 160.583 187.667 158.816C188.722 157.059 192.157 151.948 192.157 151.948L191.191 149.634L194.217 149.568C194.217 149.568 198.847 145.156 198 142.171C196.985 138.619 192.525 137.41 192.525 137.41L187.796 137.259Z" fill="#2B2B33"/>
<path d="M184.829 143.683C184.829 143.683 183.535 147.395 182.828 150.758C182.121 154.121 184.7 165.306 184.7 165.306C184.7 165.306 185.845 154.376 188.154 151.268C190.892 147.584 194.446 144.079 194.446 144.079C194.446 144.079 187.189 142.823 184.829 143.683Z" fill="#DDDDDD"/>
<path d="M186.183 144.372L185.795 147.244C185.795 147.244 184.003 148.878 183.625 150.89C183.246 152.893 183.645 160.148 183.645 160.148L184.69 165.306L185.148 161.858C185.148 161.858 185.964 157.399 186.671 154.641C186.771 153.432 186.88 152.44 186.99 152.137C187.478 150.786 187.577 148 187.577 148L189.469 145.855L187.667 143.862L186.183 144.372Z" fill="#30A026"/>
<path d="M187.358 138.43L187.03 142.974C187.03 142.974 187.657 143.872 189.279 145.175C191.012 144.665 195.024 141.132 195.024 141.132L193.69 134.075L187.358 138.43Z" fill="#FFAB95"/>
<path d="M194.426 126.31C192.624 124.137 187.448 122.295 184.083 127.038C180.548 132.007 183.883 140.121 186.99 139.649C188.722 139.384 192.634 137.882 194.337 135.237C196.258 132.243 195.83 128.001 194.426 126.31Z" fill="#FFC3B1"/>
<path d="M187.239 140.187L187.667 143.872L184.511 145.09C184.511 145.09 184.152 141.151 187.239 140.187Z" fill="#639E54" fill-opacity="0.25"/>
<path d="M194.745 139.668C194.745 139.668 193.769 141.396 191.5 142.606C190.345 143.229 187.657 143.862 187.657 143.862L188.841 147.244C188.841 147.244 192.595 145.799 194.436 144.41C194.446 144.41 196.895 141.661 194.745 139.668Z" fill="#639E54" fill-opacity="0.25"/>
<path d="M200.499 181.205C200.499 181.205 200.31 182.508 198.727 184.369C198.349 184.813 197.334 186.693 196.318 187.373C195.522 187.902 195.313 188.611 196.029 188.734C196.796 188.866 198.239 187.317 198.648 187.354C199.384 187.43 198.03 190.519 198.001 192.276C197.971 194.033 199.066 196.735 201.326 193.996C203.586 191.256 204.024 188.734 204.531 186.363C204.959 184.341 205.726 183.028 205.726 183.028L200.499 181.205Z" fill="#FFC3B1"/>
<path d="M205.935 184.521C206.791 181.866 208.613 168.622 209.071 165.353C209.121 160.781 209.17 156.53 208.135 152.449C206.562 146.252 205.238 145.345 202.092 145.09C200.698 145.931 199.374 150.191 199.374 154.584L199.812 166.374L198.11 183.746C199.205 184.332 203.197 187.345 205.935 184.521Z" fill="#2B2B33"/>
<path d="M182.42 130.448L189.1 134.066C189.1 134.066 188.911 135.747 187.527 135.747C186.9 135.747 186.054 135.407 185.745 134.671C185.387 133.82 185.208 133.49 184.899 133.339C184.063 132.942 184.292 134.217 182.709 133.348C181.604 132.743 182.42 130.448 182.42 130.448Z" fill="#222228"/>
<path d="M193.55 132.857C193.72 133.339 193.779 133.877 193.461 134.416C192.993 135.181 194.028 134.548 194.178 133.83C194.397 132.81 193.889 132.158 193.889 132.158L193.55 132.857Z" fill="#FFAB95"/>
<path d="M188.911 134.16C188.911 134.16 191.828 132.536 192.824 132.044C193.331 131.799 193.71 131.695 193.879 132.139C194.048 132.592 194.028 133.216 193.959 133.291C193.69 133.546 193.6 133.036 193.54 132.847C193.481 132.649 193.421 132.196 193.023 132.413C192.246 132.838 188.901 134.633 188.901 134.633V134.16H188.911Z" fill="#222228"/>
<path d="M192.615 154.093L196.846 156.587L197.443 155.075L193.202 152.581L192.615 154.093Z" fill="#639E54" fill-opacity="0.25"/>
<defs>
<linearGradient id="paint0_linear" x1="23" y1="19" x2="262.754" y2="30.0988" gradientUnits="userSpaceOnUse">
<stop stop-color="#6DD16B"/>
<stop offset="1" stop-color="#005322"/>
</linearGradient>
</defs>
</svg>
