<svg width="255" height="300" viewBox="0 0 255 300" fill="none" xmlns="http://www.w3.org/2000/svg">
<path d="M128 20L24.4484 80.178C17.9801 83.937 14 90.8534 14 98.3346V206.665C14 214.147 17.9801 221.063 24.4484 224.822L92.5 264.37M128 285L231.552 224.822C238.02 221.063 242 214.147 242 206.665V98.3347C242 90.8534 238.02 83.937 231.552 80.178L221.371 74.2615L167.446 42.9239" stroke="url(#paint0_linear)" stroke-width="20" stroke-linecap="round"/>
<path opacity="0.2" d="M127.473 285.432C184.619 285.432 230.946 258.555 230.946 225.4C230.946 192.245 184.619 165.368 127.473 165.368C70.3264 165.368 24 192.245 24 225.4C24 258.555 70.3264 285.432 127.473 285.432Z" fill="#6DD16B"/>
<path opacity="0.2" d="M127.473 278.064C184.619 278.064 230.946 251.187 230.946 218.032C230.946 184.877 184.619 158 127.473 158C70.3264 158 24 184.877 24 218.032C24 251.187 70.3264 278.064 127.473 278.064Z" fill="#6DD16B"/>
<path opacity="0.1" d="M197.998 172.432C239.155 196.172 239.347 234.655 198.458 258.395C157.608 282.135 91.1203 282.135 50.0017 258.395C8.88312 234.655 8.65319 196.172 49.5036 172.47C90.3922 148.73 156.841 148.692 197.998 172.432Z" fill="black"/>
<path d="M73.8981 107.95V107.999L81.2128 105.29L84.4429 104.09L90.4929 101.852L87.9977 88.4734L85.4683 89.641L81.2982 91.5871L76.2566 93.9385L74.3424 105.371L73.8981 107.95Z" fill="#424241"/>
<path d="M82.9906 218.728C85.2466 218.76 91.2625 216.701 95.1591 214.398C96.6118 213.522 97.6543 212.712 97.9277 212.112C97.8594 209.517 97.5347 207.182 96.646 205.673L96.1674 201.489L96.0136 200.127H85.9473L86.1695 202.884L85.8277 205.852C85.8277 205.852 84.4604 210.328 78.2908 214.398C76.4621 215.598 77.1799 218.728 82.9906 218.728Z" fill="black"/>
<path d="M86.2546 139.281L83.9474 166.445C83.5031 181.526 83.7252 195.895 84.6652 208.122C90.9203 207.052 94.6631 213.636 97.7906 210.02C98.5768 206.906 99.0895 188.305 99.1237 181.77C99.1579 176.175 98.8331 171.099 97.7906 167.045C100.217 158.806 101.363 150.811 101.397 143.044L86.2546 139.281Z" fill="#303030"/>
<path d="M102.165 231.896C104.421 231.929 110.437 229.869 114.334 227.566C115.786 226.69 116.829 225.88 117.102 225.28C117.085 224.647 117.051 224.015 117 223.431C116.846 221.582 116.487 219.977 115.821 218.841L115.342 214.657L115.188 213.295H105.122L105.344 216.052L105.002 219.02C105.002 219.02 104.678 220.058 103.652 221.598C102.558 223.252 100.661 225.458 97.4653 227.566C95.6366 228.766 96.3544 231.896 102.165 231.896Z" fill="black"/>
<path d="M94.1508 139.93C94.8686 144.698 94.8686 145.573 94.8686 152.157L98.919 178.364C99.3121 183.391 99.6881 188.564 100.064 193.397C100.184 194.711 100.286 195.992 100.389 197.241C100.457 197.987 100.526 198.716 100.594 199.446C100.714 200.808 100.867 202.122 100.987 203.371C101.277 205.917 101.585 208.203 101.944 210.133C102.303 212.047 103.192 220.415 103.636 221.598C103.653 221.615 103.653 221.615 103.653 221.631C106.764 219.879 109.122 224.242 113.412 224.29C113.531 224.29 113.651 224.29 113.754 224.274C115.292 224.226 116.351 223.739 116.984 223.431C117.018 223.415 117.052 223.398 117.086 223.382V219.02C116.847 213.068 117.343 199.122 115.531 187.835C115.463 187.381 115.394 186.927 115.292 186.489C115.223 186.099 115.155 185.71 115.07 185.321C115.052 185.208 115.035 185.094 115.001 184.981C114.933 184.624 114.847 184.267 114.762 183.91C114.574 183.067 114.369 182.256 114.13 181.478C114.044 181.153 113.942 180.829 113.839 180.521C113.702 180.083 113.548 179.645 113.395 179.224C114.676 172.088 114.386 164.499 113.771 157.655C113.651 156.406 113.531 155.19 113.412 154.006C114.813 149.903 115.446 144.568 114.061 138.6L113.651 138.503L109.019 137.4L93.5184 133.719L86.3918 132.016L85.9474 131.902C85.7765 135.697 94.373 135.551 94.1508 139.93Z" fill="#3C3C3B"/>
<path d="M114.539 137.627C114.556 137.676 114.607 140.206 114.556 141.179C108.847 145.849 87.4673 139.897 85.8266 134.303C85.8779 133.135 85.6728 132 85.8437 130.475C91.2614 137.481 107.925 141.162 114.539 137.627Z" fill="black"/>
<path d="M92.1337 138.341L95.8594 139.768V137.578L92.1337 136.168V138.341Z" fill="#FFF281"/>
<path d="M85.3141 129.064C85.3312 130.119 85.7243 131.108 86.4079 132.016C89.9285 136.622 100.969 139.33 108.01 139.443C109.224 139.476 110.3 139.411 111.223 139.281C112.266 139.119 113.052 138.876 113.667 138.503C115.376 137.465 115.701 135.503 116.18 132.113C116.59 128.497 116.949 125.172 117.239 122.14C118.589 108.031 118.675 99.9875 118.333 96.9387C115.137 93.3548 109.583 89.6087 104.968 86.8193C98.7131 84.1436 92.8339 81.5326 89.7918 82.8462C82.8873 85.8301 85.3141 129.064 85.3141 129.064Z" fill="#DADADA"/>
<path d="M98.5603 92.7387L96.7145 95.8524L94.8688 95.1713L95.3473 91.6198L98.5603 92.7387Z" fill="#114B5F"/>
<path d="M107.976 88.7005C108.216 89.1059 108.045 89.56 107.908 90.0627C107.498 91.506 106.66 92.3655 105.447 93.3223C103.584 94.7818 101.277 96.0143 99.3114 97.3279C98.2176 95.3332 97.6536 94.0521 96.9529 92.1385C95.8933 93.0628 94.133 94.2791 93.0734 95.1872C92.8683 93.6142 93.5348 91.5546 93.8937 89.9978C94.2526 88.441 95.1072 86.9328 96.5086 86.0571C97.722 85.2949 99.2431 85.0517 100.713 85.149C101.755 85.2138 104.644 83.9327 105.823 85.7328C106.301 86.495 107.532 87.9545 107.976 88.7005Z" fill="#EDEDED"/>
<path d="M96.4238 100.717L96.7144 95.8521L94.8686 95.171L92.3392 99.4199L93.3305 105.907L96.4238 100.717Z" fill="#114B5F"/>
<path d="M94.1501 109.929C94.1672 110.35 94.509 110.853 94.9021 111.047C95.2952 111.242 95.6028 111.064 95.5857 110.642C95.5687 110.22 95.2268 109.718 94.8338 109.523C94.4407 109.312 94.133 109.507 94.1501 109.929Z" fill="#0E3E4F"/>
<path d="M93.655 121.426C93.6721 121.848 94.0139 122.351 94.407 122.545C94.8001 122.74 95.1077 122.562 95.0906 122.14C95.0735 121.718 94.7317 121.216 94.3386 121.021C93.9456 120.826 93.6379 121.005 93.655 121.426Z" fill="#0E3E4F"/>
<path d="M93.1416 132.924C93.1587 133.346 93.5005 133.849 93.8936 134.043C94.2867 134.238 94.5943 134.059 94.5772 133.638C94.5601 133.216 94.2184 132.713 93.8253 132.519C93.4322 132.324 93.1245 132.503 93.1416 132.924Z" fill="#0E3E4F"/>
<path d="M81.8791 146.076C85.5535 148.866 89.1254 148.071 92.5606 142.849L93.8424 109.004L93.9962 106.75C93.962 106.556 93.9278 106.361 93.8936 106.166C92.3042 97.6848 93.1075 89.0899 97.3972 82.5058C96.4231 82.3112 95.3976 82.149 94.338 82.0679C92.5264 81.922 90.6465 82.0031 88.9033 82.5869C86.4593 83.3815 84.2717 85.1816 82.9558 88.7169L82.9387 90.7926L82.9216 94.6361L82.8874 100.296L82.8532 104.496L82.8361 107.512L83.007 124.281L83.0241 126.778L82.8703 129.454L81.8791 146.076Z" fill="#424241"/>
<path opacity="0.3" d="M91.9971 113.383C90.2539 120.924 93.0225 147.828 85.3831 147.909C84.99 153.779 85.2122 151.395 84.99 154.185C86.9554 154.168 92.9712 155.271 95.5861 156.747C100.354 159.455 108.814 162.163 113.89 158.985C114.027 141.616 93.6378 122.416 91.9971 113.383Z" fill="#1D1D1B"/>
<path d="M90.8691 140.287C91.228 147.925 100.32 155.855 108.865 157.379C110.489 157.671 112.13 157.785 113.787 157.655C115.24 157.558 116.693 157.282 118.111 156.844L119.923 102.161L120.042 98.4793C116.607 94.9927 113.104 91.7169 109.395 89.1384L106.302 86.4301C107.652 88.8627 105.533 91.1493 102.713 92.625C98.7648 96.9712 92.9712 103.036 92.1337 111.129L91.9116 116.496L91.2109 133.281L90.8691 140.287Z" fill="#424241"/>
<path opacity="0.3" d="M107.772 174.78C107.652 175.705 107.515 176.645 107.584 177.569C107.686 178.932 108.25 180.213 108.797 181.462C111.515 187.786 114.095 194.354 114.01 201.165C113.976 203.565 113.617 205.949 113.395 208.333C113.241 209.987 113.121 211.641 113.087 213.295C113.07 214.058 113.07 214.82 113.087 215.582C113.121 218.501 113.343 221.404 113.771 224.274C113.924 225.377 114.112 226.48 114.335 227.566C115.787 226.691 116.83 225.88 117.103 225.28C117.086 224.647 117.052 224.015 117.001 223.431C117.035 223.415 117.069 223.399 117.103 223.382V219.02C116.864 213.068 117.36 199.122 115.548 187.835C115.48 187.381 115.411 186.927 115.309 186.489C115.24 186.1 115.172 185.71 115.086 185.321C115.069 185.208 115.052 185.094 115.018 184.981C114.95 184.624 114.864 184.267 114.779 183.91C114.591 183.067 114.386 182.256 114.147 181.478C114.061 181.153 113.959 180.829 113.856 180.521C113.719 180.083 113.565 179.645 113.412 179.224C114.693 172.088 114.403 164.499 113.788 157.655C115.24 157.558 116.693 157.282 118.112 156.844L119.923 102.161C115.086 103.928 110.558 105.355 109.754 102.858C109.395 109.264 111.087 118.394 111.087 124.816C111.087 128.724 110.831 133.2 109.036 137.4C108.763 138.097 108.421 138.779 108.011 139.443C107.55 140.319 106.969 141.179 106.302 142.006C107.926 144.065 108.284 146.774 108.49 149.336C108.712 152.012 108.831 154.687 108.866 157.379C108.951 163.185 108.575 169.007 107.772 174.78Z" fill="#1D1D1B"/>
<path d="M124.725 152.612C124.742 153.277 124.742 153.958 124.503 154.574C124.332 155.012 124.042 155.401 123.751 155.79C122.999 156.779 122.264 157.769 121.512 158.774C121.29 159.082 121.051 159.374 120.794 159.65C120.179 160.266 119.359 160.688 118.487 160.834C118.231 160.882 117.923 160.898 117.718 160.736C117.616 160.655 117.547 160.542 117.496 160.412C117.274 159.828 117.65 159.196 117.889 158.612C118.35 157.525 118.402 156.342 118.333 155.174C118.265 154.006 118.094 152.855 118.111 151.687C118.197 152.531 118.214 153.406 117.906 154.201C117.599 154.996 116.881 155.709 115.992 155.806C115.907 155.823 115.821 155.823 115.736 155.774C115.667 155.741 115.633 155.693 115.599 155.628C115.325 155.223 115.257 154.704 115.411 154.233C115.531 153.893 115.753 153.585 115.855 153.244C115.992 152.822 115.941 152.352 115.924 151.914C115.889 150.049 116.624 148.184 117.923 146.806C118.18 146.546 118.453 146.287 118.761 146.092C119.513 145.638 120.453 145.541 121.341 145.541C121.546 145.541 121.751 145.541 121.939 145.622C122.076 145.671 122.213 145.768 122.333 145.849C123.324 146.628 123.956 147.763 124.298 148.947C124.64 150.163 124.708 151.395 124.725 152.612Z" fill="#F2B387"/>
<path d="M109.48 107.642C110.01 111.939 113.001 119.448 115.565 126.745C115.889 137.4 115.941 130.167 116.419 146.108C117.496 148.363 124.161 148.395 124.862 147.13C126.315 137.481 127.648 135.357 127.272 124.232C126.144 117.129 124.657 112.166 121.939 102.582C118.914 91.3601 108.284 96.8414 109.48 107.642Z" fill="#424241"/>
<path d="M91.5699 116.496C94.6291 109.183 98.8333 102.696 103.926 100.069L101.705 97.5226L105.96 98.7551C106.712 94.9928 107.72 91.6035 109.395 89.1223L106.063 86.0735C106.746 87.4681 106.028 89.2682 102.73 92.5927C98.013 97.3118 93.0226 103.02 92.151 111.112L91.5699 116.496Z" fill="#303030"/>
<path d="M91.7403 114.826L93.8937 106.458C92.3042 97.9766 93.1075 89.3816 97.3972 82.7975C96.4231 82.6029 95.3976 82.4407 94.338 82.3596L89.7749 89.5275L92.3726 92.3817L89.3818 92.1547C88.4418 96.4846 89.1084 101.463 91.7403 114.826Z" fill="#303030"/>
<path d="M84.8868 114.08L89.0398 116.172L89.0227 108.712L84.8527 106.62L84.8868 114.08Z" fill="white"/>
<path d="M93.2783 119.724C93.2954 120.145 93.6372 120.648 94.0303 120.843C94.4234 121.037 94.731 120.859 94.7139 120.437C94.6968 120.016 94.355 119.513 93.9619 119.318C93.5689 119.124 93.2612 119.302 93.2783 119.724Z" fill="#303030"/>
<path d="M93.1416 131.546C93.1587 131.967 93.5005 132.47 93.8936 132.665C94.2867 132.859 94.5943 132.681 94.5772 132.259C94.5601 131.838 94.2184 131.335 93.8253 131.14C93.4322 130.946 93.1245 131.124 93.1416 131.546Z" fill="#303030"/>
<path d="M86.2546 108.923L86.9553 109.231V106.701L86.2546 106.393V108.923Z" fill="#706F6F"/>
<path opacity="0.3" d="M74.7356 105.242C74.9749 105.161 75.2141 105.064 75.4363 104.95C75.6927 104.82 75.9832 104.674 76.2908 104.512C77.1966 104.026 78.2562 103.442 78.9569 102.955C79.7431 102.42 80.5122 101.788 81.2471 101.09C81.5889 100.782 81.9307 100.458 82.2212 100.117C82.7681 97.2307 83.3321 94.3279 84.7677 91.7494C85.7418 89.9818 87.1091 88.3925 87.9978 86.5762C84.9899 88.9925 81.9649 91.4899 79.9653 94.7171C79.3158 95.755 78.7689 96.8577 78.2391 97.9605C77.077 100.393 75.8977 102.809 74.7356 105.242Z" fill="#1D1D1B"/>
<path d="M95.62 80.0246C95.1585 79.7002 94.5945 79.538 94.0135 79.5543C93.1589 79.6029 92.3557 80.057 91.5183 79.9273C90.9714 79.8462 90.4586 79.5056 89.8947 79.5218C89.194 79.538 88.6471 80.1056 88.2027 80.6408C87.2457 81.7598 86.2886 82.8787 85.3315 84.0139C85.2803 84.0788 85.2119 84.1599 85.229 84.241C85.2461 84.322 85.3315 84.3707 85.3999 84.4193C85.9297 84.7112 86.4595 85.0032 87.0064 85.2788C87.3653 84.7437 87.9122 84.3058 88.5445 84.0626C89.0743 83.868 89.6554 83.7869 90.1852 83.5923C91.843 82.9598 92.9026 81.0949 94.68 80.9651C94.9535 80.9489 95.2269 80.9651 95.4833 80.8678C95.7396 80.7705 95.9447 80.5111 95.8592 80.284C95.825 80.1867 95.7225 80.0894 95.62 80.0246Z" fill="#E3A66F"/>
<path d="M92.4242 74.7378C92.9711 75.3216 93.4667 75.9703 93.706 76.7163C93.9453 77.4623 93.9111 78.3218 93.4496 78.9704C92.9369 79.7164 92.5438 80.284 91.7576 80.7867C91.1766 81.1597 90.1511 81.403 89.6213 81.8408C88.5959 82.7328 87.5534 83.6409 86.528 84.5329C86.4254 84.6302 86.2887 84.7275 86.1349 84.7275C86.0324 84.7275 85.9469 84.6788 85.8615 84.6302C85.3146 84.3058 84.7506 83.9977 84.2037 83.6734C83.9644 83.5274 83.7081 83.3815 83.5542 83.1544C83.315 82.7976 83.3833 82.3274 83.5884 81.9544C83.7935 81.5814 84.1011 81.2732 84.3575 80.9327C85.1778 79.8948 85.6051 78.6137 86.5451 77.6569C86.9211 77.2839 87.3654 76.9595 87.7927 76.6514C88.6985 76.019 89.5872 75.3865 90.493 74.754C90.9031 74.4621 91.4159 74.154 91.8944 74.3324C92.0995 74.4135 92.2704 74.5756 92.4242 74.7378Z" fill="#E3A66F"/>
<path d="M96.1333 90.9708C99.7223 93.598 106.029 91.2141 106.097 86.1544L105.977 80.5596L106.097 78.0946C106.148 77.0405 105.345 76.1323 104.32 76.0999L97.0391 75.7593C96.0137 75.7107 95.1421 76.5378 95.0908 77.6081L94.9541 80.6893L94.749 85.4571C94.749 85.4733 94.185 89.5437 96.1333 90.9708Z" fill="#F2B387"/>
<path opacity="0.15" d="M94.1844 84.1111C94.287 84.4841 95.2611 89.4627 99.0552 90.306C100.149 90.5492 101.328 90.2735 102.388 89.8519C103.994 89.2357 105.84 86.7383 106.25 84.8084L106.541 80.5596C102.473 80.6083 98.457 80.6569 94.4236 80.6893L94.1844 84.1111Z" fill="#1D1D1B"/>
<path d="M108.284 75.5163C108.353 75.1919 108.438 74.8514 108.763 74.5919C109.087 74.3324 109.754 74.2189 110.181 74.446C110.506 74.6243 110.54 74.9162 110.557 75.1757C110.557 76.2136 110.301 77.2515 109.788 78.2407C109.651 78.484 109.498 78.7434 109.19 78.9056C108.882 79.0678 108.37 79.1326 108.028 78.9705C107.652 78.7759 107.669 78.4191 107.737 78.1272C107.908 77.2515 108.096 76.3758 108.284 75.5163Z" fill="#F2B387"/>
<path d="M93.1079 74.8838C93.0737 74.5433 93.0224 74.2027 92.7148 73.927C92.4071 73.6513 91.7577 73.473 91.3304 73.6676C90.9886 73.8135 90.9203 74.1054 90.9032 74.3649C90.8006 75.4028 90.9715 76.4569 91.3817 77.4785C91.4842 77.738 91.621 77.9975 91.9115 78.1921C92.202 78.3867 92.7148 78.484 93.0566 78.3543C93.4497 78.1921 93.4668 77.8353 93.4326 77.5434C93.3129 76.6515 93.2104 75.7595 93.1079 74.8838Z" fill="#F2B387"/>
<path d="M101.157 65.0401C104.199 65.1212 107.054 67.1807 108.216 69.6457C109.566 72.4836 109.19 75.6784 108.523 78.6623C107.823 81.7922 106.712 85.0193 103.994 87.2086C102.918 88.0843 101.585 88.36 100.081 88.2952C98.5767 88.2303 97.2778 87.8411 96.2695 86.8843C93.7743 84.468 92.9711 81.1597 92.5438 77.9974C92.1507 74.9648 92.0652 71.7539 93.6717 69.0457C95.0902 66.6942 98.1323 64.8779 101.157 65.0401Z" fill="#F2B387"/>
<path d="M103.516 80.203H104.729C105.772 80.203 106.609 79.4083 106.609 78.4191V77.6245C106.609 77.0569 106.114 76.5866 105.515 76.5866H101.943C101.345 76.5866 100.85 77.0407 100.85 77.6245V77.6569C100.833 79.0678 102.029 80.203 103.516 80.203Z" fill="#303030"/>
<path d="M97.2605 80.2029H96.0471C95.0046 80.2029 94.1671 79.4083 94.1671 78.4191V77.6244C94.1671 77.0568 94.6628 76.5865 95.2609 76.5865H98.8328C99.431 76.5865 99.9266 77.0406 99.9266 77.6244V77.6569C99.9437 79.0677 98.7473 80.2029 97.2605 80.2029Z" fill="#303030"/>
<path d="M99.174 76.8947H102.062V77.6406H99.174V76.8947Z" fill="#303030"/>
<path d="M65.8144 102.566C66.4638 106.669 70.3434 108.923 73.8982 107.95C74.4109 107.82 74.9407 107.609 75.4363 107.318C75.6243 106.409 75.9148 105.469 76.2908 104.512C77.3846 101.642 79.1962 98.5279 81.2812 95.4305C82.6143 93.4683 84.0499 91.5222 85.4684 89.6411C86.5622 88.2464 87.6389 86.8842 88.6814 85.5868C88.237 84.7922 87.7756 84.0462 87.2629 83.3813C86.1691 81.938 84.8702 80.9001 83.2124 80.5596C75.385 86.7707 70.8048 90.7762 66.9595 96.517C65.8144 98.7874 65.5238 100.847 65.8144 102.566Z" fill="#424241"/>
<path opacity="0.3" d="M65.814 102.566C66.4634 106.669 70.343 108.923 73.8978 107.95V107.999L81.3663 105.907L81.1954 108.307L83.007 125.578C83.8786 118.556 84.0666 110.642 85.3655 103.685C85.8782 100.896 85.5364 98.5281 86.2029 95.755C84.9895 97.1172 83.6564 98.6903 82.2208 100.117C81.9303 100.458 81.5885 100.782 81.2467 101.09C80.5118 101.788 79.7427 102.42 78.9565 102.955C78.2558 103.442 77.1962 104.026 76.2904 104.512C75.9828 104.674 75.6923 104.82 75.4359 104.95C75.2137 105.064 74.9745 105.161 74.7352 105.242C74.5985 105.291 74.4788 105.339 74.3421 105.372C71.2146 106.264 67.2667 104.82 65.8824 102.663C65.8653 102.631 65.8311 102.599 65.814 102.566Z" fill="#1D1D1B"/>
<path d="M92.3216 76.1162L91.5696 75.1432L90.886 75.3864L91.0739 77.9163C91.3132 79.1974 92.0993 79.4893 92.6633 78.6784L92.3216 76.1162Z" fill="#303030"/>
<path d="M96.2348 85.2625L96.5254 84.8733C94.1327 83.2516 92.5433 80.6731 92.2528 77.9649L91.7401 78.0135C92.0477 80.8515 93.7225 83.5597 96.2348 85.2625Z" fill="#303030"/>
<path d="M95.5343 84.8246C95.3805 85.1489 95.9274 85.7165 96.7648 86.0733C97.6022 86.4301 98.4055 86.4625 98.5764 86.1382C98.7302 85.8138 98.1833 85.2462 97.3459 84.8895C96.5085 84.5165 95.7052 84.5002 95.5343 84.8246Z" fill="#303030"/>
<path fill-rule="evenodd" clip-rule="evenodd" d="M147.895 230.857L150.084 229.624L148.001 229.561L147.895 230.857Z" fill="#575756"/>
<path fill-rule="evenodd" clip-rule="evenodd" d="M145.853 220.424C145.853 220.424 146.927 226.553 144.181 225.332C143.014 224.816 143.174 227.157 143.266 227.988C143.532 228.78 145.574 229.951 147.895 230.857C148.028 230.505 147.909 230.026 148.107 230.115C149.46 230.782 149.739 232.33 151.185 233.55C152.1 234.331 156.57 236.495 160.615 234.935C162.366 234.268 162.989 233.676 162.419 231.99C162.246 231.461 157.684 228.957 156.41 228.264C153.148 226.503 151.874 223.104 151.609 222.337C151.33 221.556 150.429 219.19 150.429 219.19C150.429 219.19 148.943 218.687 145.853 220.424Z" fill="#3C3C3B"/>
<path fill-rule="evenodd" clip-rule="evenodd" d="M144.685 220.575C144.115 222.072 143.346 223.419 143.744 225.974C143.876 226.792 146.105 228.504 148.028 229.095C150.455 229.838 150.243 230.794 151.384 231.763C153.307 233.425 157.577 235.073 161.676 232.669C162.538 232.002 162.127 230.719 161.689 230.127C160.907 229.057 157.79 227.648 156.49 227.006C152.219 224.904 152.246 219.253 152.63 216.006C151.437 216.849 147.802 217.303 145.123 214.169C145.11 214.156 145.693 217.944 144.685 220.575Z" fill="#3C3C3B"/>
<path d="M150.747 217.97C149.925 217.97 149.023 217.768 148.306 217.403C148.147 217.328 148.094 217.139 148.174 216.988C148.253 216.837 148.452 216.786 148.611 216.862C149.938 217.529 151.808 217.516 152.259 216.862C152.352 216.724 152.551 216.686 152.697 216.774C152.843 216.862 152.896 217.051 152.789 217.189C152.431 217.73 151.636 217.97 150.747 217.97Z" fill="#575756"/>
<path d="M150.8 219.178C149.978 219.178 149.076 218.976 148.359 218.611C148.2 218.536 148.147 218.347 148.227 218.196C148.306 218.045 148.505 217.995 148.664 218.07C149.991 218.725 151.861 218.725 152.312 218.07C152.405 217.932 152.604 217.894 152.75 217.982C152.895 218.07 152.948 218.259 152.842 218.397C152.484 218.939 151.689 219.178 150.8 219.178Z" fill="#575756"/>
<path d="M150.601 220.487C149.858 220.487 149.062 220.336 148.412 220.046C148.253 219.971 148.187 219.794 148.253 219.643C148.333 219.492 148.519 219.429 148.678 219.492C150.004 220.084 151.901 219.971 152.352 219.291C152.445 219.153 152.644 219.102 152.789 219.19C152.935 219.278 152.988 219.467 152.895 219.606C152.511 220.21 151.596 220.487 150.601 220.487Z" fill="#575756"/>
<path d="M150.707 221.682C149.978 221.682 149.195 221.531 148.558 221.242C148.399 221.166 148.333 220.99 148.399 220.839C148.479 220.688 148.665 220.625 148.824 220.688C150.137 221.267 151.98 221.166 152.418 220.487C152.511 220.336 152.71 220.298 152.856 220.386C153.002 220.474 153.055 220.663 152.962 220.801C152.577 221.405 151.675 221.682 150.707 221.682Z" fill="#575756"/>
<path d="M150.654 222.928C149.964 222.928 149.248 222.802 148.651 222.551C148.492 222.488 148.413 222.299 148.492 222.148C148.558 221.997 148.757 221.921 148.917 221.997C150.216 222.538 152.047 222.387 152.484 221.707C152.577 221.569 152.776 221.519 152.922 221.607C153.068 221.695 153.121 221.884 153.028 222.022C152.63 222.651 151.675 222.928 150.654 222.928Z" fill="#575756"/>
<path d="M150.548 224.149C150.11 224.149 149.672 224.099 149.301 223.985C149.129 223.935 149.036 223.771 149.089 223.608C149.142 223.444 149.314 223.356 149.487 223.406C150.707 223.759 152.458 223.394 152.882 222.702C152.975 222.551 153.161 222.5 153.32 222.588C153.479 222.677 153.532 222.853 153.439 223.004C152.975 223.759 151.728 224.149 150.548 224.149Z" fill="#575756"/>
<path d="M150.309 225.609C150.07 225.609 149.845 225.596 149.633 225.559C149.46 225.533 149.341 225.37 149.367 225.206C149.394 225.043 149.566 224.942 149.739 224.955C151.078 225.181 152.935 224.564 153.399 223.734C153.479 223.583 153.678 223.532 153.837 223.608C153.996 223.683 154.049 223.872 153.97 224.023C153.413 225.017 151.702 225.609 150.309 225.609Z" fill="#575756"/>
<path d="M150.8 226.968C150.707 226.968 150.601 226.968 150.521 226.956C150.349 226.943 150.216 226.792 150.23 226.628C150.243 226.465 150.402 226.339 150.574 226.351C151.742 226.427 153.599 225.798 154.076 224.904C154.156 224.753 154.355 224.703 154.514 224.778C154.673 224.854 154.726 225.043 154.646 225.194C154.063 226.238 152.179 226.968 150.8 226.968Z" fill="#575756"/>
<path d="M151.742 228C151.569 228 151.423 227.862 151.423 227.698C151.423 227.535 151.556 227.396 151.742 227.383C152.949 227.358 154.58 226.49 154.925 225.697C154.991 225.533 155.177 225.471 155.336 225.533C155.495 225.596 155.575 225.773 155.509 225.924C155.031 227.069 153.095 227.975 151.742 228Z" fill="#575756"/>
<path fill-rule="evenodd" clip-rule="evenodd" d="M175.178 215.868L177.287 214.534L175.218 214.571L175.178 215.868Z" fill="#575756"/>
<path fill-rule="evenodd" clip-rule="evenodd" d="M172.552 205.56C172.552 205.56 173.971 211.626 171.159 210.557C169.965 210.103 170.257 212.419 170.39 213.25C170.708 214.03 172.804 215.087 175.165 215.88C175.271 215.515 175.138 215.05 175.337 215.125C176.717 215.717 177.088 217.252 178.6 218.397C179.555 219.127 184.144 221.065 188.096 219.303C189.807 218.548 190.391 217.932 189.741 216.27C189.542 215.742 184.847 213.476 183.534 212.86C180.178 211.274 178.719 207.939 178.401 207.184C178.083 206.416 177.048 204.1 177.048 204.1C177.061 204.1 175.549 203.672 172.552 205.56Z" fill="#3C3C3B"/>
<path fill-rule="evenodd" clip-rule="evenodd" d="M171.398 205.774C170.907 207.297 170.231 208.681 170.761 211.211C170.934 212.029 173.268 213.615 175.205 214.106C177.672 214.735 177.512 215.691 178.706 216.598C180.709 218.158 185.073 219.593 189.025 216.975C189.861 216.258 189.357 215.012 188.892 214.433C188.044 213.401 184.86 212.155 183.521 211.576C179.144 209.701 178.839 204.05 179.038 200.79C177.897 201.696 174.289 202.326 171.438 199.343C171.451 199.343 172.26 203.093 171.398 205.774Z" fill="#3C3C3B"/>
<path d="M177.035 202.867C176.292 202.867 175.496 202.716 174.833 202.427C174.674 202.351 174.608 202.175 174.674 202.024C174.754 201.873 174.939 201.81 175.098 201.873C176.465 202.464 178.335 202.364 178.746 201.684C178.839 201.533 179.024 201.483 179.184 201.571C179.343 201.659 179.396 201.835 179.303 201.986C178.932 202.59 178.03 202.867 177.035 202.867Z" fill="#575756"/>
<path d="M177.167 204.075C176.425 204.075 175.616 203.924 174.966 203.635C174.807 203.559 174.74 203.383 174.807 203.232C174.886 203.081 175.072 203.018 175.231 203.081C176.597 203.672 178.467 203.572 178.878 202.892C178.958 202.741 179.157 202.691 179.316 202.779C179.475 202.867 179.528 203.043 179.435 203.194C179.064 203.798 178.162 204.075 177.167 204.075Z" fill="#575756"/>
<path d="M177.021 205.397C176.358 205.397 175.682 205.283 175.098 205.057C174.939 204.994 174.859 204.818 174.926 204.667C174.992 204.503 175.178 204.428 175.337 204.503C176.703 205.019 178.586 204.818 178.998 204.113C179.077 203.962 179.276 203.912 179.435 203.987C179.594 204.063 179.648 204.251 179.568 204.402C179.157 205.069 178.122 205.397 177.021 205.397Z" fill="#575756"/>
<path d="M177.194 206.58C176.544 206.58 175.868 206.466 175.297 206.24C175.138 206.177 175.058 206.001 175.125 205.85C175.191 205.699 175.377 205.611 175.536 205.686C176.876 206.202 178.719 206.001 179.117 205.309C179.197 205.158 179.396 205.107 179.555 205.183C179.714 205.258 179.767 205.447 179.687 205.598C179.289 206.265 178.268 206.58 177.194 206.58Z" fill="#575756"/>
<path d="M177.207 207.826C176.61 207.826 175.987 207.725 175.47 207.536C175.297 207.473 175.218 207.297 175.284 207.146C175.35 206.983 175.536 206.907 175.695 206.97C177.022 207.448 178.839 207.196 179.25 206.492C179.329 206.341 179.528 206.29 179.687 206.366C179.847 206.441 179.9 206.63 179.82 206.781C179.409 207.499 178.321 207.826 177.207 207.826Z" fill="#575756"/>
<path d="M177.181 209.047C176.836 209.047 176.504 209.009 176.199 208.946C176.027 208.908 175.921 208.745 175.961 208.581C176 208.417 176.173 208.317 176.345 208.354C177.592 208.644 179.316 208.191 179.688 207.473C179.767 207.322 179.966 207.259 180.112 207.335C180.271 207.41 180.337 207.599 180.258 207.738C179.82 208.581 178.441 209.047 177.181 209.047Z" fill="#575756"/>
<path d="M177.061 210.519C176.915 210.519 176.769 210.506 176.624 210.494C176.451 210.469 176.318 210.318 176.345 210.154C176.371 209.99 176.504 209.864 176.703 209.89C178.056 210.041 179.873 209.336 180.297 208.493C180.377 208.342 180.576 208.279 180.722 208.342C180.881 208.417 180.947 208.593 180.881 208.744C180.337 209.827 178.494 210.519 177.061 210.519Z" fill="#575756"/>
<path d="M177.671 211.84C177.632 211.84 177.605 211.84 177.579 211.84C177.406 211.84 177.26 211.689 177.274 211.526C177.274 211.362 177.419 211.236 177.592 211.236C177.618 211.236 177.645 211.236 177.685 211.236C178.852 211.236 180.603 210.506 181.027 209.613C181.093 209.462 181.292 209.386 181.452 209.462C181.611 209.525 181.69 209.713 181.611 209.865C181.054 210.997 179.064 211.84 177.671 211.84Z" fill="#575756"/>
<path d="M178.839 212.822C178.666 212.822 178.533 212.696 178.52 212.545C178.507 212.382 178.64 212.231 178.812 212.218C180.019 212.143 181.597 211.186 181.889 210.368C181.942 210.204 182.128 210.116 182.3 210.179C182.473 210.23 182.552 210.406 182.499 210.569C182.088 211.74 180.205 212.734 178.852 212.822C178.852 212.822 178.852 212.822 178.839 212.822Z" fill="#575756"/>
<path fill-rule="evenodd" clip-rule="evenodd" d="M159.846 150.977C161.225 154.979 162.114 156.414 163.162 160.492C164.594 167.25 169.302 173.392 168.679 179.445C167.552 190.407 170.31 198.575 170.072 208.203C172.366 210.393 178.998 209.097 180.019 208.87C180.311 208.203 180.311 207.498 180.152 205.938C179.184 194.347 180.868 180.704 180.868 177.004C179.86 163.802 180.974 148.019 176.929 135.874C176.929 135.874 171.809 140.934 164.223 142.381C164.196 143.841 159.647 150.398 159.846 150.977Z" fill="black"/>
<path fill-rule="evenodd" clip-rule="evenodd" d="M148.094 189.665C145.402 194.044 145.256 197.87 144.725 203.068C144.38 206.454 143.943 220.575 143.783 223.218C143.624 225.735 149.898 227.887 153.665 225.105C154.434 217.365 157.922 201.004 159.753 196.272C159.965 195.731 161.835 192.308 162.021 191.754C165.39 181.069 166.902 176.84 168.148 158.465C174.462 157.534 172.353 147.843 172.724 140.015C162.127 146.736 154.182 144.093 151.569 142.154C148.041 147.478 146.861 157.37 148.89 158.616C147.763 169.012 150.176 182.504 148.094 189.665Z" fill="#1B1B1B"/>
<path fill-rule="evenodd" clip-rule="evenodd" d="M138.757 134.087C142.524 140.531 154.301 148.271 156.981 150.272C159.289 150.209 164.09 145.074 162.631 143.703C161.384 142.066 151.967 133.735 148.492 128.348C147.086 127.429 142.829 128.059 140.972 129.796C140.282 130.752 134.367 126.347 138.757 134.087Z" fill="#161616"/>
<path fill-rule="evenodd" clip-rule="evenodd" d="M175.297 89.8492C168.798 87.7348 164.7 98.8227 164.979 104.373C165.058 104.675 161.702 114.542 165.284 125.227C167.207 130.211 173.361 128.097 176.199 124.271C176.929 123.289 177.433 122.207 177.592 121.099C178.308 114.429 179.144 109.067 179.966 106.852C181.332 103.152 181.73 91.9384 175.297 89.8492Z" fill="#161616"/>
<path fill-rule="evenodd" clip-rule="evenodd" d="M158.586 111.735C158.586 115.851 155.747 122.521 151.211 119.891C147.882 117.965 144.235 109.747 145.733 106.236C146.383 104.713 148.094 101.529 149.871 101.013C156.981 98.9863 158.586 106.236 158.586 111.735Z" fill="#DB9669"/>
<path fill-rule="evenodd" clip-rule="evenodd" d="M155.548 91.7874C150.667 93.5367 146.025 97.2621 144.234 99.0744C141.966 101.516 144.168 107.016 144.195 107.784C144.752 116.606 147.696 124.749 148.227 130.072C148.532 133.886 146.423 134.037 145.919 152.94C153.254 164.104 173.241 157.245 181.916 151.732C180.112 139.172 183.441 109.709 178.759 94.2038C171.637 84.3368 159.103 95.714 155.548 91.7874Z" fill="#303030"/>
<path fill-rule="evenodd" clip-rule="evenodd" d="M157.511 92.6306C161.822 86.9797 168.387 94.166 170.098 94.5939C169.223 93.5871 170.92 91.7999 170.045 90.7805C167.857 90.9315 159.275 85.5575 156.848 89.1066C156.318 91.3091 156.318 91.7622 157.511 92.6306Z" fill="#3A523C"/>
<path fill-rule="evenodd" clip-rule="evenodd" d="M149.381 97.7277C142.325 95.7266 139.99 104.927 138.677 109.646C138.147 111.534 135.136 121.174 137.231 130.614C138.412 134.465 147.259 132.514 148.466 127.895C150.442 123.553 153.904 114.202 154.805 112.39C156.317 109.332 156.238 99.6785 149.381 97.7277Z" fill="#161616"/>
<path fill-rule="evenodd" clip-rule="evenodd" d="M158.997 122.811C159.541 118.292 159.408 113.787 158.678 108.853C162.657 108.967 165.456 108.4 168.255 106.475C168.905 112.113 169.515 118.381 168.653 120.872C165.416 122.068 161.981 123.088 158.997 122.811Z" fill="#222222"/>
<path fill-rule="evenodd" clip-rule="evenodd" d="M159.209 109.256C163.52 108.891 166.066 108.224 168.427 106.915C168.692 108.199 168.944 109.482 169.21 110.766C168.029 111.446 166.066 112.113 165.483 113.183C164.249 112.239 161.968 113.397 159.938 113.346C159.885 111.949 159.726 110.577 159.209 109.256Z" fill="black"/>
<path fill-rule="evenodd" clip-rule="evenodd" d="M165.098 110.099C165.509 110.137 165.814 110.615 165.774 111.169C165.734 111.723 165.363 112.151 164.952 112.125C164.541 112.088 164.236 111.609 164.275 111.056C164.315 110.502 164.687 110.074 165.098 110.099Z" fill="#535353"/>
<path fill-rule="evenodd" clip-rule="evenodd" d="M161.238 96.4566C164.302 100.043 167.671 103.127 171.756 105.103C173.533 101.088 172.194 95.5253 169.554 92.0013C166.477 92.8823 164.315 95.563 161.238 96.4566Z" fill="white"/>
<path fill-rule="evenodd" clip-rule="evenodd" d="M172.87 93.5619C170.695 89.2199 166.013 87.8607 161.968 87.0049C161.358 88.1753 163.599 88.2886 163.002 89.459C169.262 87.9991 174.7 99.7288 171.756 105.103C173.679 101.302 173.507 99.1625 173.812 96.3307C173.852 95.928 171.862 95.9909 171.902 95.6259C172.035 94.4681 172.724 93.9017 172.87 93.5619Z" fill="#222222"/>
<path fill-rule="evenodd" clip-rule="evenodd" d="M158.493 81.9958C158.493 81.9958 159.647 87.1684 156.53 92.1774C165.562 98.7848 170.045 99.5777 169.939 94.3547C169.913 93.1465 169.103 91.372 169.568 89.5974C166.942 87.9487 166.769 87.7851 168.958 81.1274C169.329 79.0382 158.493 81.9958 158.493 81.9958Z" fill="#DB9669"/>
<path fill-rule="evenodd" clip-rule="evenodd" d="M157.246 88.6536C156.423 88.792 155.283 91.4601 154.169 92.3285C154.713 93.6374 157.14 97.325 160.19 99.6785C161.278 99.2757 162.644 99.0114 163.281 98.8982C163.241 99.7666 163.042 100.534 162.644 101.189C163.466 101.944 170.257 105.015 171.756 105.09C168.944 102.233 160.429 94.7953 157.697 90.6798C157.206 89.9499 156.848 89.1066 157.246 88.6536Z" fill="#222222"/>
<path fill-rule="evenodd" clip-rule="evenodd" d="M175.258 75.5521C175.205 76.4582 174.064 76.5715 175.443 80.2968C176.292 82.6 175.894 82.6251 174.793 86.5266C174.17 88.7417 172.698 93.4235 165.615 89.308C165.615 89.308 158.771 83.8082 156.967 79.3277C155.15 74.8473 155.628 70.5305 159.567 67.2331C158.824 67.2331 173.719 62.3751 175.258 75.5521Z" fill="#F2B387"/>
<path fill-rule="evenodd" clip-rule="evenodd" d="M174.74 70.6689C174.568 71.8897 173.931 72.6448 172.99 73.1356C170.31 72.9468 169.515 72.456 166.146 73.7146C163.732 74.6081 166.318 76.3072 165.164 77.7545C164.713 78.3334 162.83 79.7556 163.095 80.7373L161.344 80.0702C159.342 77.1756 158.917 80.6114 158.665 85.4568C158.665 85.4568 152.14 75.7534 155.057 70.2535C156.967 66.6541 160.403 63.3315 169.621 66.6289C171.226 67.1827 174.979 68.9698 174.74 70.6689Z" fill="#704321"/>
<path fill-rule="evenodd" clip-rule="evenodd" d="M175.39 81.1903C177.221 81.593 178.123 76.8609 176.067 76.8861C175.377 76.8986 174.038 77.3517 173.295 78.4844C172.552 79.6171 174.489 81.0015 175.39 81.1903Z" fill="#1D1D1B"/>
<path fill-rule="evenodd" clip-rule="evenodd" d="M169.714 84.387C170.616 84.5884 171.637 83.6571 171.995 82.3104C172.353 80.9638 172.724 79.6801 171.823 79.4913C170.921 79.2899 169.09 80.2464 168.732 81.5931C168.374 82.9397 168.812 84.1983 169.714 84.387Z" fill="#1D1D1B"/>
<path d="M168.653 82.2097C168.626 82.2097 168.586 82.2097 168.56 82.1971L160.376 79.3654C160.23 79.315 160.164 79.164 160.204 79.0256C160.257 78.8871 160.416 78.8116 160.562 78.862L168.745 81.6937C168.891 81.744 168.971 81.895 168.918 82.0335C168.878 82.1468 168.772 82.2097 168.653 82.2097Z" fill="#4F2B0C"/>
<path d="M172.34 80.2463C172.326 80.2463 172.3 80.2463 172.287 80.2463C172.141 80.2211 172.035 80.0827 172.061 79.9317C172.154 79.4534 172.433 79.101 172.817 78.9374C173.096 78.8242 173.414 78.8493 173.64 79.0003C173.772 79.0759 173.799 79.2521 173.719 79.3653C173.64 79.4912 173.454 79.5164 173.335 79.4408C173.255 79.3905 173.149 79.3905 173.029 79.4283C172.817 79.5164 172.658 79.7303 172.605 80.0324C172.592 80.1582 172.472 80.2463 172.34 80.2463Z" fill="#4F2B0C"/>
<path fill-rule="evenodd" clip-rule="evenodd" d="M159.673 78.5726C158.108 78.8495 157.975 80.1332 158.214 81.719C158.466 83.3047 159.832 85.5072 160.747 84.7143C161.835 83.7578 159.846 82.8391 160.217 81.5554C160.416 80.8506 161.45 80.4604 161.729 80.3849C162.498 80.1835 161.225 78.2957 159.673 78.5726Z" fill="#F1B287"/>
<path fill-rule="evenodd" clip-rule="evenodd" d="M174.674 119.299C174.926 114.781 174.727 110.275 174.117 105.342C176.809 105.455 178.706 104.889 180.55 102.963C181.133 108.601 181.704 114.869 181.173 117.361C179.011 118.557 176.703 119.589 174.674 119.299Z" fill="#222222"/>
<path fill-rule="evenodd" clip-rule="evenodd" d="M174.488 105.745C177.406 105.38 179.104 104.713 180.682 103.404C180.894 104.687 181.093 105.971 181.306 107.255C180.523 107.935 179.21 108.602 178.839 109.671C177.977 108.727 176.465 109.885 175.085 109.835C175.006 108.451 174.86 107.079 174.488 105.745Z" fill="black"/>
<path fill-rule="evenodd" clip-rule="evenodd" d="M178.746 106.739C179.157 106.764 179.462 107.255 179.422 107.809C179.382 108.362 179.011 108.79 178.6 108.765C178.189 108.727 177.884 108.249 177.923 107.695C177.963 107.129 178.335 106.701 178.746 106.739Z" fill="#535353"/>
<path fill-rule="evenodd" clip-rule="evenodd" d="M172.127 106.261C172.538 106.286 172.844 106.777 172.804 107.33C172.764 107.884 172.393 108.312 171.981 108.287C171.57 108.262 171.265 107.771 171.305 107.217C171.345 106.651 171.716 106.223 172.127 106.261Z" fill="#535353"/>
<path fill-rule="evenodd" clip-rule="evenodd" d="M172.3 117.613C172.711 117.651 173.016 118.129 172.976 118.683C172.937 119.236 172.565 119.664 172.154 119.639C171.743 119.614 171.438 119.123 171.478 118.569C171.517 118.016 171.889 117.588 172.3 117.613Z" fill="#535353"/>
<path fill-rule="evenodd" clip-rule="evenodd" d="M172.472 128.977C172.883 129.003 173.189 129.494 173.149 130.047C173.109 130.601 172.738 131.029 172.326 131.004C171.915 130.966 171.61 130.488 171.65 129.934C171.69 129.38 172.061 128.952 172.472 128.977Z" fill="#535353"/>
<path fill-rule="evenodd" clip-rule="evenodd" d="M172.645 140.342C173.056 140.367 173.361 140.858 173.321 141.412C173.281 141.966 172.91 142.394 172.499 142.368C172.088 142.343 171.783 141.852 171.822 141.299C171.862 140.745 172.22 140.317 172.645 140.342Z" fill="#535353"/>
<path fill-rule="evenodd" clip-rule="evenodd" d="M166.04 155.734C165.27 150.448 164.594 145.892 165.642 139.763C159.991 140.934 157.312 141.047 153.32 139.461C151.596 145.024 151.622 152.739 151.569 155.583C156.039 157.672 161.782 156.854 166.04 155.734Z" fill="#222222"/>
<path fill-rule="evenodd" clip-rule="evenodd" d="M165.721 139.524C159.952 140.204 156.556 140.053 153.386 139.096C153.041 140.707 152.975 142.431 152.723 144.03C154.315 144.533 157.763 144.76 158.559 145.88C160.204 144.42 162.034 145.188 164.753 144.596C164.819 142.935 165.045 141.248 165.721 139.524Z" fill="black"/>
<path fill-rule="evenodd" clip-rule="evenodd" d="M159.09 142.519C159.501 142.582 159.753 143.086 159.673 143.64C159.58 144.193 159.182 144.596 158.771 144.521C158.36 144.458 158.108 143.954 158.188 143.4C158.267 142.847 158.678 142.444 159.09 142.519Z" fill="#535353"/>
<path fill-rule="evenodd" clip-rule="evenodd" d="M178.905 151.694C179.316 145.943 179.117 141.664 179.303 135.484C180.032 135.195 180.709 134.918 181.345 134.641C182.115 140.606 182.141 145.779 182.287 150.436C181.279 150.864 179.807 151.392 178.905 151.694Z" fill="#222222"/>
<path fill-rule="evenodd" clip-rule="evenodd" d="M179.369 135.295C179.687 135.333 180.894 134.842 181.345 134.654C181.478 136.667 181.889 139.058 182.181 141.676C180.921 140.569 180.722 140.43 180.337 140.367C180.284 138.706 180.059 137.02 179.369 135.295Z" fill="black"/>
<path fill-rule="evenodd" clip-rule="evenodd" d="M181.863 138.316C181.757 138.391 181.743 138.895 181.823 139.449C181.916 140.002 182.075 140.38 182.181 140.304C182.287 140.229 182.3 139.725 182.221 139.172C182.128 138.618 181.969 138.24 181.863 138.316Z" fill="#535353"/>
<defs>
<linearGradient id="paint0_linear" x1="14" y1="20" x2="253.754" y2="31.0988" gradientUnits="userSpaceOnUse">
<stop stop-color="#6DD16B"/>
<stop offset="1" stop-color="#005322"/>
</linearGradient>
</defs>
</svg>
