<svg width="255" height="300" viewBox="0 0 255 300" fill="none" xmlns="http://www.w3.org/2000/svg">
<path d="M127 20L23.4484 80.178C16.9801 83.937 13 90.8534 13 98.3346V206.665C13 214.147 16.9801 221.063 23.4484 224.822L91.5 264.37M127 285L230.552 224.822C237.02 221.063 241 214.147 241 206.665V98.3347C241 90.8534 237.02 83.937 230.552 80.178L220.371 74.2615L166.446 42.9239" stroke="url(#paint0_linear)" stroke-width="20" stroke-linecap="round"/>
<path opacity="0.2" d="M126.473 285.432C183.619 285.432 229.946 258.555 229.946 225.4C229.946 192.245 183.619 165.368 126.473 165.368C69.3264 165.368 23 192.245 23 225.4C23 258.555 69.3264 285.432 126.473 285.432Z" fill="#6DD16B"/>
<path opacity="0.2" d="M126.473 278.064C183.619 278.064 229.946 251.187 229.946 218.032C229.946 184.877 183.619 158 126.473 158C69.3264 158 23 184.877 23 218.032C23 251.187 69.3264 278.064 126.473 278.064Z" fill="#6DD16B"/>
<path opacity="0.1" d="M196.998 172.432C238.155 196.172 238.347 234.655 197.458 258.395C156.608 282.135 90.1203 282.135 49.0017 258.395C7.88312 234.655 7.65319 196.172 48.5036 172.47C89.3922 148.73 155.841 148.692 196.998 172.432Z" fill="black"/>
<path opacity="0.5" d="M162.66 220.42C161 220.42 159.4 220.553 157.87 220.771L199.3 197.969L161.15 177.027L69.1201 227.698L107.28 248.621L144.87 227.935C144.54 228.666 144.35 229.425 144.35 230.203C144.35 235.602 152.55 239.986 162.66 239.986C172.77 239.986 180.97 235.612 180.97 230.203C180.97 224.794 172.77 220.42 162.66 220.42Z" fill="#BBBBBB"/>
<path opacity="0.5" d="M199.12 209.365C189.66 209.365 181.99 213.465 181.99 218.513C181.99 223.57 189.66 227.66 199.12 227.66C208.58 227.66 216.25 223.561 216.25 218.513C216.26 213.465 208.59 209.365 199.12 209.365Z" fill="#BBBBBB"/>
<path d="M190.02 198.055L159.4 181.145V139.717L190.02 156.626V198.055Z" fill="#2B2B33"/>
<path d="M190.02 198.055L192.06 196.935V155.507L190.02 156.626V198.055Z" fill="#4C4C56"/>
<path d="M160.77 181.876L158.72 180.756V139.328L160.77 140.448V181.876Z" fill="#2B2B33"/>
<path d="M107.11 243.734L75.23 226.379V184.941L107.11 202.306V243.734Z" fill="#2B2B33"/>
<path d="M107.11 243.734L109.16 242.615V201.186L107.11 202.306V243.734Z" fill="#4C4C56"/>
<path d="M76.25 226.939L74.21 225.819V184.381L76.25 185.501V226.939Z" fill="#2B2B33"/>
<path d="M107.05 207.762L199.07 157.11V155.042L107.05 205.693V207.762Z" fill="#9797AD"/>
<path d="M107.05 205.693L68.8899 184.77V186.715L107.05 207.629V205.693Z" fill="#B5B5C9"/>
<path d="M199.07 155.042L160.92 134.1L68.8899 184.77L107.05 205.693L199.07 155.042Z" fill="#CACADD"/>
<path d="M87.1 187.446L103.06 178.697L97.41 175.604L81.45 184.353L87.1 187.446Z" fill="#4C4C56"/>
<path d="M81.45 184.353V185.548L87.1 188.642V187.446L81.45 184.353Z" fill="#2B2B33"/>
<path d="M103.06 178.697V179.902L87.1001 188.642V187.446L103.06 178.697Z" fill="#383842"/>
<path d="M151.72 152.081L167.68 143.332L162.04 140.239L146.07 148.988L151.72 152.081Z" fill="#4C4C56"/>
<path d="M146.07 148.988V150.183L151.72 153.277V152.081L146.07 148.988Z" fill="#2B2B33"/>
<path d="M167.68 143.332V144.528L151.72 153.277V152.081L167.68 143.332Z" fill="#383842"/>
<path d="M96.6299 179.504L88.9099 183.726V148.874L96.6299 144.642V179.504Z" fill="#383842"/>
<path d="M87.6799 149.548V183.053L88.9099 183.726V150.231L87.6799 149.548Z" fill="#2B2B33"/>
<path d="M161.36 144.31L153.64 148.542V113.689L161.36 109.457V144.31Z" fill="#383842"/>
<path d="M152.4 114.363V147.868L153.64 148.542V115.046L152.4 114.363Z" fill="#2B2B33"/>
<path d="M168.23 89.0273L82.3699 135.827V180.073L168.23 133.274V89.0273Z" fill="#1E1E1E"/>
<path d="M82.3699 135.827L81.1399 135.134V179.381L82.3699 180.073V135.827Z" fill="#383842"/>
<path d="M167 88.3347L168.23 89.0273L82.3699 135.827L81.1399 135.134L167 88.3347Z" fill="#4C4C56"/>
<path d="M111.54 142.241V121.299L83.6499 136.51V157.452L111.54 142.241Z" fill="white"/>
<path d="M110.73 133.91C110.45 133.378 109.58 133.701 109.53 134.697C109.03 134.602 108.59 134.783 108.48 135.722C108.05 135.181 107.42 135.969 107.42 136.434C107.08 136.462 106.59 137.335 106.97 137.591C106.78 138.094 106.83 138.417 107.01 138.607C106.54 139.053 106.52 139.745 106.88 140.002C106.54 140.419 106.35 140.913 106.48 141.406C106.53 141.596 106.69 141.805 106.92 141.767C106.69 142.118 106.51 142.725 106.51 143.038C106.51 145.135 109.21 143.313 110.34 142.507C110.6 142.317 111.29 141.843 111.53 141.624V133.141C111.27 133.141 110.94 133.293 110.73 133.91Z" fill="#9797AD"/>
<path d="M88.9099 149.68C89.3099 148.959 89.2899 148.21 88.7699 148.285C88.9699 147.849 89.0299 147.431 88.8099 147.118C89.2299 146.378 88.6799 146.018 88.3099 146.388C88.3099 145.875 87.6099 145.771 87.1399 146.881C87.0299 145.961 86.5399 146.302 85.9899 147.014C85.9399 145.97 84.9699 146.672 84.6699 147.602C84.4099 147.09 83.9499 147.498 83.6399 147.877V157.025C85.2099 156.133 86.7799 155.241 88.3499 154.339C88.4799 154.263 88.6099 154.244 88.7299 154.254C89.0899 153.732 89.3099 153.172 89.3099 152.584C89.3099 152.233 89.1099 151.777 88.8599 151.673C89.1099 151.436 89.2999 150.999 89.3499 150.734C89.4899 150.041 89.2799 149.737 88.9099 149.68Z" fill="#9797AD"/>
<path d="M103.81 145.467L91.3301 152.309V141.216L103.81 134.375V145.467Z" fill="#CACADD"/>
<path d="M102.36 146.264L92.78 151.512V144.509L102.36 139.262V146.264Z" fill="#9797AD"/>
<path d="M102.36 139.622L92.78 144.869V144.509L102.36 139.262V139.622Z" fill="#B5B5C9"/>
<path d="M102.36 140.77L92.78 146.018V145.648L102.36 140.41V140.77Z" fill="#B5B5C9"/>
<path d="M102.36 141.985L92.78 147.232V146.872L102.36 141.624V141.985Z" fill="#B5B5C9"/>
<path d="M102.36 143.133L92.78 148.38V148.01L102.36 142.772V143.133Z" fill="#B5B5C9"/>
<path d="M102.36 144.3L92.78 149.538V149.177L102.36 143.93V144.3Z" fill="#B5B5C9"/>
<path d="M102.36 145.515L92.78 150.762V150.392L102.36 145.145V145.515Z" fill="#B5B5C9"/>
<path d="M105.67 133.359L89.47 142.232V142.934L105.67 134.062V133.359Z" fill="#9797AD"/>
<path d="M89.47 142.232L97.57 130.797L105.67 133.359L89.47 142.232Z" fill="#B5B5C9"/>
<path d="M98.41 135.2C98.41 135.789 98.03 136.472 97.57 136.719C97.11 136.975 96.73 136.7 96.73 136.121C96.73 135.542 97.11 134.849 97.57 134.603C98.03 134.337 98.41 134.612 98.41 135.2Z" fill="#CACADD"/>
<path d="M98.41 140.704L96.73 141.615V141.15L98.41 140.229V140.704Z" fill="#9797AD"/>
<path d="M106.81 140.495C106.98 140.201 107.12 139.869 107.17 139.641C107.33 138.92 107.02 138.74 106.61 138.872C106.7 138.531 106.71 138.189 106.49 138.094C106.4 138.056 106.28 138.075 106.17 138.132C106.4 137.705 106.48 137.136 106.34 136.851C106.19 136.548 105.87 136.576 105.58 136.832C105.59 136.481 105.52 136.206 105.15 136.462C105.01 136.557 104.88 136.737 104.78 136.927C104.76 136.842 104.73 136.756 104.66 136.709C104.51 136.605 104.28 136.69 104.11 136.937C103.89 137.259 103.88 137.629 103.99 137.867C103.81 137.924 103.59 138.094 103.49 138.256C103.23 138.664 103.31 138.967 103.47 139.157C103.22 139.375 102.99 139.689 103.02 140.021C103.04 140.267 103.18 140.429 103.36 140.486C103.13 140.713 102.91 141.017 102.82 141.311C102.7 141.691 102.89 141.852 103.12 141.89C102.92 142.251 102.83 142.678 102.98 142.962C103.05 143.086 103.17 143.152 103.31 143.152C103.1 143.399 102.95 143.731 102.94 144.072C102.92 144.509 103.16 144.585 103.44 144.528C103.27 144.993 103.26 145.496 103.52 145.686C103.74 145.856 104.17 145.704 104.46 145.353C104.66 145.439 105.01 145.315 105.25 145.154C105.6 144.917 105.81 144.471 105.84 144.082C106.03 144.015 106.23 143.892 106.41 143.702C106.94 143.142 107.08 142.336 106.84 141.909C107.07 141.634 107.23 141.264 107.2 140.913C107.18 140.637 107.02 140.476 106.81 140.495Z" fill="#B5B5C9"/>
<path d="M88.13 150.734C87.96 150.629 87.8199 150.449 87.7699 150.278C87.6099 149.728 87.9199 149.215 88.3299 148.902C88.2399 148.656 88.2299 148.333 88.4499 147.991C88.5399 147.849 88.6599 147.754 88.7699 147.669C88.5399 147.488 88.46 147.014 88.6 146.577C88.75 146.113 89.0699 145.79 89.3599 145.733C89.3499 145.391 89.42 145.04 89.79 144.888C89.93 144.832 90.06 144.86 90.16 144.955C90.18 144.851 90.2099 144.737 90.2799 144.604C90.4299 144.338 90.6599 144.167 90.8299 144.234C91.0499 144.319 91.0599 144.67 90.9499 145.021C91.1299 144.879 91.3499 144.813 91.4499 144.86C91.7099 144.983 91.63 145.363 91.47 145.733C91.72 145.676 91.9499 145.733 91.9199 146.103C91.8999 146.378 91.7599 146.691 91.5799 146.938C91.8099 146.91 92.0299 146.985 92.1199 147.166C92.2399 147.412 92.05 147.773 91.82 148.077C92.02 148.219 92.1099 148.542 91.9599 148.988C91.8899 149.187 91.77 149.386 91.63 149.548C91.84 149.566 91.99 149.737 92 150.06C92.02 150.477 91.78 150.819 91.5 151.066C91.67 151.341 91.6799 151.834 91.4199 152.318C91.1999 152.726 90.7699 153.049 90.4799 153.011C90.2799 153.315 89.93 153.571 89.69 153.675C89.34 153.817 89.13 153.609 89.1 153.258C88.91 153.4 88.7099 153.485 88.5299 153.495C87.9999 153.514 87.86 152.859 88.1 152.176C87.87 152.147 87.7099 151.958 87.7399 151.578C87.7499 151.274 87.92 150.933 88.13 150.734Z" fill="#B5B5C9"/>
<path d="M111.54 142.241L83.6499 157.452V156.474L111.54 141.264V142.241Z" fill="#B5B5C9"/>
<path d="M83.6799 157.338V177.815L111.49 162.633V142.165L83.6799 157.338Z" fill="#CACADD"/>
<path d="M83.6799 172.055V174.257L111.49 159.093V156.892L83.6799 172.055Z" fill="#B5B5C9"/>
<path d="M86.1799 168.706V162.272C86.1799 160.687 87.1999 158.837 88.4499 158.144C89.6999 157.461 90.7199 158.192 90.7199 159.777V166.219L86.1799 168.706Z" fill="white"/>
<path d="M86.8599 161.779V167.747L88.2099 167.007V158.951C87.4399 159.568 86.8599 160.744 86.8599 161.779Z" fill="#B5B5C9"/>
<path d="M90.2299 159.928C90.2299 158.828 89.56 158.296 88.71 158.647V166.732L90.2299 165.897V159.928Z" fill="#B5B5C9"/>
<path d="M104.14 158.856V152.423C104.14 150.838 105.16 148.988 106.41 148.295C107.66 147.612 108.68 148.342 108.68 149.927V156.37L104.14 158.856Z" fill="white"/>
<path d="M104.82 151.92V157.888L106.17 157.148V149.092C105.4 149.718 104.82 150.895 104.82 151.92Z" fill="#B5B5C9"/>
<path d="M108.19 150.079C108.19 148.978 107.52 148.447 106.67 148.798V156.882L108.19 156.047V150.079Z" fill="#B5B5C9"/>
<path d="M95.0601 163.591V157.158C95.0601 155.573 96.08 153.723 97.33 153.03C98.58 152.347 99.6001 153.077 99.6001 154.662V161.105L95.0601 163.591Z" fill="white"/>
<path d="M95.74 156.664V162.633L97.09 161.893V153.836C96.32 154.453 95.74 155.639 95.74 156.664Z" fill="#B5B5C9"/>
<path d="M99.1101 154.814C99.1101 153.713 98.4401 153.182 97.5901 153.533V161.617L99.1101 160.782V154.814Z" fill="#B5B5C9"/>
<path d="M83.6799 174.2V178.251L111.49 163.079V159.036L83.6799 174.2Z" fill="#9797AD"/>
<path d="M130.27 145.97C130.27 145.401 130.6 144.291 131.01 143.664C130.6 143.731 130.3 143.351 130.21 143.01C129.99 142.118 130.33 141.226 130.94 140.476C130.29 140.011 130.32 138.749 131.17 137.943C130.84 137.591 130.75 137.003 131.1 136.102C130.41 135.646 131.31 134.062 131.92 134.014C131.92 133.17 133.06 131.746 133.83 132.724C134.02 131.016 134.82 130.693 135.72 130.864C135.8 129.07 137.39 128.482 137.89 129.441C138.26 128.311 138.87 128.046 139.35 128.036V126.888L111.46 142.165V143.446C111.97 142.829 112.71 142.156 113.14 142.991C113.64 141.482 115.23 140.324 115.31 142.032C116.21 140.875 117.02 140.315 117.2 141.814C117.97 139.992 119.11 140.163 119.11 141.007C119.72 140.391 120.62 140.979 119.93 142.203C120.28 142.725 120.19 143.408 119.86 144.129C120.71 144.006 120.74 145.23 120.09 146.416C120.7 146.511 121.04 147.014 120.82 148.153C120.73 148.589 120.43 149.301 120.02 149.69C120.43 149.87 120.76 150.61 120.76 151.189C120.75 155.004 115.05 158.116 113.01 158.885C112.46 159.093 111.93 159.217 111.45 159.274V162.917L139.34 147.726V144.082C138.92 144.48 138.47 144.86 138 145.202C135.98 146.644 130.28 149.766 130.27 145.97Z" fill="#CACADD"/>
<path d="M137.9 129.431C137.4 128.463 135.81 129.051 135.73 130.854C134.83 130.684 134.02 131.006 133.84 132.714C133.07 131.737 131.93 133.16 131.93 134.005C131.32 134.052 130.42 135.637 131.11 136.092C130.76 136.994 130.85 137.582 131.18 137.933C130.33 138.74 130.3 140.002 130.95 140.467C130.34 141.226 130 142.108 130.22 143C130.31 143.342 130.61 143.721 131.02 143.655C130.61 144.281 130.28 145.391 130.28 145.961C130.29 149.766 135.99 146.634 138.03 145.164C138.5 144.822 138.95 144.452 139.37 144.044V128.008C138.88 128.036 138.27 128.302 137.9 129.431Z" fill="#B5B5C9"/>
<path d="M120.78 151.17C120.78 150.591 120.45 149.851 120.04 149.671C120.45 149.282 120.75 148.57 120.84 148.134C121.06 146.995 120.72 146.492 120.11 146.397C120.76 145.211 120.73 143.987 119.88 144.11C120.21 143.399 120.3 142.715 119.95 142.184C120.64 140.97 119.74 140.372 119.13 140.988C119.13 140.144 117.99 139.973 117.22 141.795C117.03 140.286 116.23 140.846 115.33 142.013C115.25 140.305 113.66 141.453 113.16 142.972C112.73 142.137 111.98 142.801 111.48 143.427V159.236C111.97 159.188 112.49 159.055 113.04 158.847C115.07 158.097 120.77 154.975 120.78 151.17Z" fill="#B5B5C9"/>
<path d="M139.36 142.516L111.47 157.803V163.079L139.36 147.802V142.516Z" fill="#9797AD"/>
<path d="M121.89 152.091L121.14 152.499V143.522L121.89 143.105V152.091Z" fill="#9797AD"/>
<path d="M119.29 153.96L118.91 154.159V145.183L119.29 144.974V153.96Z" fill="#9797AD"/>
<path d="M117 155.212L116.62 155.421V146.435L117 146.226V155.212Z" fill="#9797AD"/>
<path d="M114.7 156.465L114.33 156.674V147.688L114.7 147.479V156.465Z" fill="#9797AD"/>
<path d="M112.42 157.717L112.04 157.926V148.94L112.42 148.741V157.717Z" fill="#9797AD"/>
<path d="M121.48 143.769L111.47 149.253V149.728L121.48 144.243V143.769Z" fill="#9797AD"/>
<path d="M121.48 150.335L111.47 155.82V156.294L121.48 150.809V150.335Z" fill="#9797AD"/>
<path d="M122.24 142.44C122.24 142.943 121.92 143.532 121.52 143.759C121.12 143.977 120.79 143.75 120.79 143.237C120.79 142.734 121.11 142.146 121.52 141.918C121.92 141.7 122.24 141.928 122.24 142.44Z" fill="#9797AD"/>
<path d="M128.94 148.229L129.69 147.821V138.835L128.94 139.243V148.229Z" fill="#9797AD"/>
<path d="M131.55 147.242L131.92 147.033V138.056L131.55 138.256V147.242Z" fill="#9797AD"/>
<path d="M133.83 145.989L134.21 145.78V136.794L133.83 137.003V145.989Z" fill="#9797AD"/>
<path d="M136.13 144.727L136.5 144.528V135.542L136.13 135.751V144.727Z" fill="#9797AD"/>
<path d="M138.41 143.475L138.79 143.275V134.289L138.41 134.498V143.475Z" fill="#9797AD"/>
<path d="M129.35 139.461L139.36 133.976V134.451L129.35 139.935V139.461Z" fill="#9797AD"/>
<path d="M129.35 146.027L139.36 140.543V141.017L129.35 146.502V146.027Z" fill="#9797AD"/>
<path d="M128.59 138.958C128.59 139.461 128.91 139.698 129.31 139.48C129.71 139.262 130.03 138.673 130.03 138.161C130.03 137.658 129.71 137.421 129.31 137.639C128.91 137.867 128.59 138.455 128.59 138.958Z" fill="#9797AD"/>
<path d="M139.36 142.516L111.47 157.803V158.59L139.36 143.313V142.516Z" fill="white"/>
<path d="M167.24 132.534V111.744L139.34 126.954V147.735L167.24 132.534Z" fill="#CACADD"/>
<path d="M167.23 115.957C166.71 116.118 166.22 116.393 165.8 116.735C165.39 116.393 164.72 116.46 164.28 116.83C164.3 116.412 164.15 116.014 163.66 115.862C162.68 115.558 162.31 116.612 162.18 117.456C161.24 116.953 160.28 117.912 160.62 118.993C159.44 118.955 158.94 119.961 159.72 120.872C158.65 121.233 158.62 122.305 159.61 122.808C159.12 123.149 158.09 123.984 159.11 124.933C158.23 125.455 158.18 126.708 159.12 127.391C158.16 128.112 157.6 129.327 158.69 129.858C157.3 131.67 160.72 133.758 162.94 131.623C162.95 131.613 162.95 131.604 162.96 131.595C164.64 130.883 166.36 129.45 167.24 127.913V115.957H167.23Z" fill="#B5B5C9"/>
<path d="M139.34 147.811L167.24 132.61V126.954L139.34 142.165V147.811Z" fill="#84849B"/>
<path d="M157.36 134.289C157.16 134.119 156.89 134.175 156.62 134.318C156.73 133.635 156.23 133.227 155.73 133.559C155.92 133.056 155.86 132.705 155.47 132.543C154.78 132.259 153.94 133.53 153.9 133.54V132.411L152.17 133.359V123.7L153.57 122.931L149.19 121.574L139.35 126.964V142.972L144.39 140.21L145.81 139.432L146.78 138.901C146.61 139.186 146.49 139.527 146.47 139.926C146.42 141.064 147.36 141.197 148.12 140.533C148.62 141.064 150.18 140.495 150.71 139.091C150.8 139.11 150.91 139.1 151.02 139.062C151.11 139.964 151.95 140.04 152.65 139.423C153.15 139.954 154.71 139.385 155.24 137.981C155.9 138.123 157.08 136.842 157.44 135.855C157.67 135.229 157.69 134.555 157.36 134.289ZM145.8 127.182L150.99 124.336V133.654C150.97 133.654 150.96 133.644 150.94 133.644C150.53 133.635 150.07 134.109 149.77 134.669L145.8 136.842V127.182Z" fill="#9797AD"/>
<path d="M165.43 128.112C165.99 127.344 166.33 126.357 165.13 125.93C164.48 125.702 163.8 125.949 163.47 126.414C163.17 126.195 162.81 126.053 162.46 126.129C161.97 126.243 161.87 126.727 161.85 127.173C161.55 126.907 161.15 126.708 160.82 127.002C160.55 127.239 160.66 127.533 160.87 127.808C160.36 127.856 159.88 128.046 159.8 128.501C159.71 129.004 160.25 129.241 160.8 129.365C160.4 129.801 160.15 130.351 160.48 130.892C160.89 131.547 161.65 131.357 162.25 131.016C162.62 131.651 163.36 131.993 164.21 131.708C165.14 131.395 165.63 130.314 165.21 129.488C165.63 129.403 165.98 129.118 165.9 128.662C165.86 128.34 165.67 128.179 165.43 128.112Z" fill="#9797AD"/>
<path d="M151.498 130.283L145.15 133.76L145.435 134.229L151.783 130.751L151.498 130.283Z" fill="#9797AD"/>
<path d="M146.79 133.246H146.46V136.681H146.79V133.246Z" fill="#9797AD"/>
<path d="M147.93 132.534H147.6V135.969H147.93V132.534Z" fill="#9797AD"/>
<path d="M149.08 131.813H148.71V135.248H149.08V131.813Z" fill="#9797AD"/>
<path d="M150.15 131.186H149.82V134.621H150.15V131.186Z" fill="#9797AD"/>
<path d="M139.36 127.087V106.145L111.47 121.347V142.288L139.36 127.087Z" fill="#CACADD"/>
<path d="M111.47 138.322L139.36 123.111V120.929L111.47 136.14V138.322Z" fill="#B5B5C9"/>
<path d="M130.05 128.349L120.52 133.568V121.46L130.05 116.232V128.349Z" fill="white"/>
<path d="M124.88 131.177L121.3 133.141V121.878L124.88 119.914V131.177Z" fill="#B5B5C9"/>
<path d="M129.3 128.757L125.73 130.712V119.449L129.3 117.494V128.757Z" fill="#B5B5C9"/>
<path d="M114.19 132.676V126.281C114.19 124.706 115.21 122.865 116.45 122.182C117.69 121.498 118.71 122.229 118.71 123.804V130.219L114.19 132.676Z" fill="white"/>
<path d="M114.86 125.787V131.727L116.2 130.997V122.979C115.44 123.586 114.86 124.762 114.86 125.787Z" fill="#B5B5C9"/>
<path d="M118.22 123.946C118.22 122.855 117.55 122.324 116.71 122.675V130.712L118.22 129.887V123.946Z" fill="#B5B5C9"/>
<path d="M132.05 122.874V116.479C132.05 114.904 133.07 113.063 134.31 112.379C135.55 111.696 136.57 112.427 136.57 114.002V120.417L132.05 122.874Z" fill="white"/>
<path d="M132.72 115.985V121.925L134.06 121.195V113.177C133.3 113.793 132.72 114.96 132.72 115.985Z" fill="#B5B5C9"/>
<path d="M136.07 114.154C136.07 113.063 135.4 112.531 134.56 112.882V120.919L136.07 120.094V114.154Z" fill="#B5B5C9"/>
<path d="M111.47 142.165L139.36 126.954V123.064L111.47 138.265V142.165Z" fill="#9797AD"/>
<path d="M127.07 114.695L123.51 116.668V118.519L127.07 116.555V114.695Z" fill="#B5B5C9"/>
<path d="M139.35 126.879L167.23 111.677V90.9536L139.35 106.155V126.879Z" fill="#B5B5C9"/>
<path d="M161.21 109.353C161.44 110.548 161.37 112.645 161.63 114.239L165.62 112.047C165.62 112.028 165.62 112.019 165.62 112C166.67 110.804 166.55 109.466 166.09 108.527C167.35 107.588 167.66 105.016 166.4 104.864C167.07 103.337 166.85 101.923 165.84 101.742C166.67 99.6454 165.24 98.4308 163.91 99.8921C163.81 99.6359 163.62 99.4651 163.35 99.4461C162.79 99.4082 162.24 99.9775 161.77 100.651C161.5 100.044 160.8 99.9396 160.13 100.756C159.37 101.676 159.4 102.777 159.82 103.299C159.85 105.642 160.81 107.303 161.21 109.353Z" fill="white"/>
<path d="M141.39 122.068C140.93 123.51 140.81 124.981 141.86 125.028C141.86 125.047 141.86 125.057 141.86 125.066L145.85 122.874C146.11 120.995 146.04 118.974 146.27 117.523C146.67 115.036 147.63 112.323 147.66 109.969C148.08 108.982 148.11 107.844 147.35 107.758C146.67 107.683 145.98 108.546 145.71 109.447C145.24 109.286 144.69 109.315 144.13 109.969C143.85 110.292 143.66 110.672 143.57 111.032C142.24 111.023 140.81 113.803 141.64 114.998C140.63 116.298 140.41 117.94 141.08 118.737C139.82 120.274 140.13 122.504 141.39 122.068Z" fill="white"/>
<path d="M163.75 103.896L145.81 113.727V115.739L142.44 117.589V124.914L146.95 122.447V122.324L163.75 113.12V103.896Z" fill="#CACADD"/>
<path d="M150.52 120.369L147.39 122.077V115.824L150.52 114.107V120.369Z" fill="#9797AD"/>
<path d="M150.22 114.647L147.7 116.023V121.726L150.22 120.341V114.647Z" fill="#B5B5C9"/>
<path d="M148.87 115.852L148.08 116.279V118.073L148.87 117.636V115.852Z" fill="#9797AD"/>
<path d="M150 115.302L149.21 115.729V117.522L150 117.086V115.302Z" fill="#9797AD"/>
<path d="M148.87 118.073L148.08 118.5V121.147L148.87 120.72V118.073Z" fill="#9797AD"/>
<path d="M150 117.522L149.21 117.949V120.597L150 120.17V117.522Z" fill="#9797AD"/>
<path d="M162.08 114.031L155.19 117.807V111.554L162.08 107.777V114.031Z" fill="#9797AD"/>
<path d="M162.08 108.28L155.19 111.953V112.304L162.08 108.631V108.28Z" fill="#B5B5C9"/>
<path d="M162.08 109.229L155.19 112.892V113.253L162.08 109.58V109.229Z" fill="#B5B5C9"/>
<path d="M162.08 110.121L155.19 113.784V114.135L162.08 110.472V110.121Z" fill="#B5B5C9"/>
<path d="M162.08 111.061L155.19 114.733V115.084L162.08 111.412V111.061Z" fill="#B5B5C9"/>
<path d="M162.08 111.99L155.19 115.663V116.014L162.08 112.342V111.99Z" fill="#B5B5C9"/>
<path d="M162.08 112.939L155.19 116.602V116.963L162.08 113.29V112.939Z" fill="#B5B5C9"/>
<path d="M153.03 118.993L152.06 119.525V110.501L153.03 109.96V118.993Z" fill="#B5B5C9"/>
<path d="M145.88 122.817L144.9 123.358V114.325L145.88 113.793V122.817Z" fill="#B5B5C9"/>
<path d="M164.71 103.612L165.49 103.185L154.25 100.851L143.02 115.501L144.26 114.818L154.49 101.486L164.71 103.612Z" fill="#84849B"/>
<path d="M164.71 103.612L154.49 101.486L144.26 114.818L154.25 109.343L164.71 103.612Z" fill="#9797AD"/>
<path d="M139.35 127.125L167.23 111.924V111.042L139.35 126.243V127.125Z" fill="#9797AD"/>
<path d="M165.49 103.185L143.02 115.444V116.109L165.49 103.849V103.185Z" fill="#84849B"/>
<path d="M123.27 182.151L137.26 174.465L142.43 177.303L128.43 184.979L123.27 182.151Z" fill="white"/>
<path d="M128.43 185.672L123.27 182.835V182.151L128.43 184.979V185.672Z" fill="#B5B5C9"/>
<path d="M128.43 184.979V185.672L142.43 177.957V177.303L128.43 184.979Z" fill="#9797AD"/>
<path d="M130.24 183.983L130.5 183.84L125.34 181.013L125.08 181.155L130.24 183.983Z" fill="#CACADD"/>
<path d="M132.28 182.863L132.54 182.721L127.38 179.893L127.12 180.035L132.28 182.863Z" fill="#CACADD"/>
<path d="M134.32 181.753L134.58 181.601L129.42 178.773L129.16 178.916L134.32 181.753Z" fill="#CACADD"/>
<path d="M136.34 180.633L136.6 180.491L131.44 177.663L131.18 177.805L136.34 180.633Z" fill="#CACADD"/>
<path d="M124.27 182.692L124.01 182.55L138.01 174.873L138.28 175.016L124.27 182.692Z" fill="#CACADD"/>
<path d="M125.29 183.28L125.03 183.138L139.05 175.452L139.31 175.594L125.29 183.28Z" fill="#CACADD"/>
<path d="M126.35 183.84L126.09 183.698L140.09 176.021L140.36 176.164L126.35 183.84Z" fill="#CACADD"/>
<path d="M127.4 184.448L127.12 184.315L141.17 176.61L141.43 176.752L127.4 184.448Z" fill="#CACADD"/>
<path d="M138.32 179.542L138.59 179.39L133.43 176.562L133.16 176.705L138.32 179.542Z" fill="#CACADD"/>
<path d="M140.29 178.46L140.55 178.318L135.39 175.49L135.13 175.632L140.29 178.46Z" fill="#CACADD"/>
<path d="M104.11 185.814L112.94 190.644C113.41 190.9 113.42 191.545 112.95 191.811L105.41 196.119C104.38 196.707 103.1 196.717 102.06 196.147L94.1098 191.792C93.3898 191.393 93.3798 190.416 94.0898 190.008L101.36 185.861C102.21 185.359 103.26 185.349 104.11 185.814Z" fill="#383842"/>
<path d="M112.059 191.099H113.289V190.169H112.059V191.099Z" fill="#383842"/>
<path d="M93.5715 190.82H95.7515V189.729H93.5715V190.82Z" fill="#383842"/>
<path d="M104.11 184.789L112.94 189.619C113.41 189.875 113.42 190.52 112.95 190.786L105.41 195.094C104.38 195.682 103.1 195.692 102.06 195.123L94.1098 190.767C93.3898 190.369 93.3798 189.391 94.0898 188.983L101.36 184.837C102.21 184.334 103.26 184.324 104.11 184.789Z" fill="#4C4C56"/>
<path d="M109.62 188.775L111.73 189.932C111.84 189.989 111.84 190.15 111.73 190.207L109.93 191.232C109.68 191.374 109.38 191.375 109.13 191.242L107.23 190.198C107.06 190.103 107.06 189.866 107.23 189.771L108.97 188.775C109.17 188.67 109.42 188.67 109.62 188.775Z" fill="#383842"/>
<path d="M103.26 185.273L105.37 186.431C105.48 186.488 105.48 186.649 105.37 186.706L103.57 187.731C103.32 187.873 103.02 187.873 102.77 187.74L100.87 186.696C100.7 186.602 100.7 186.364 100.87 186.269L102.61 185.273C102.8 185.159 103.05 185.159 103.26 185.273Z" fill="#383842"/>
<path d="M111.82 190.018C111.82 190.018 110.73 187.503 108.09 185.89C105.46 184.277 102.75 185.207 102.75 185.207V186.507C102.75 186.507 104.68 186.393 106.17 187.361C107.66 188.329 108.73 190.426 108.73 190.426L111.82 190.018Z" fill="#383842"/>
<path d="M109.9 191.09C109.9 191.09 108.81 188.575 106.17 186.962C103.54 185.349 100.83 186.279 100.83 186.279L101.04 186.393L103.56 187.731C103.56 187.731 104.56 187.029 105.8 187.835C107.29 188.812 107.11 189.942 107.11 189.942L109.9 191.09Z" fill="#383842"/>
<path d="M100.53 187.636L95.9497 190.274L94.7498 189.619L99.3398 187L100.53 187.636Z" fill="white"/>
<path d="M101.87 188.499L101.07 188.974L100.3 188.547L101.11 188.091L101.87 188.499Z" fill="#C1C1C1"/>
<path d="M100.71 189.173L99.9099 189.638L99.1299 189.211L99.9399 188.756L100.71 189.173Z" fill="#C1C1C1"/>
<path d="M99.5497 189.818L98.7497 190.283L97.9697 189.856L98.7797 189.41L99.5497 189.818Z" fill="#C1C1C1"/>
<path d="M98.3498 190.521L97.5498 190.985L96.7698 190.558L97.5798 190.103L98.3498 190.521Z" fill="#C1C1C1"/>
<path d="M103.34 189.306L102.54 189.771L101.76 189.344L102.57 188.888L103.34 189.306Z" fill="#C1C1C1"/>
<path d="M102.17 189.97L101.37 190.435L100.6 190.008L101.41 189.553L102.17 189.97Z" fill="#C1C1C1"/>
<path d="M101.01 190.615L100.21 191.09L99.4397 190.653L100.25 190.207L101.01 190.615Z" fill="#C1C1C1"/>
<path d="M99.8098 191.318L99.0098 191.783L98.2397 191.356L99.0497 190.9L99.8098 191.318Z" fill="#C1C1C1"/>
<path d="M104.83 190.112L104.02 190.587L103.25 190.15L104.06 189.704L104.83 190.112Z" fill="#C1C1C1"/>
<path d="M103.66 190.777L102.86 191.251L102.08 190.824L102.89 190.369L103.66 190.777Z" fill="#C1C1C1"/>
<path d="M102.5 191.431L101.7 191.896L100.92 191.469L101.73 191.023L102.5 191.431Z" fill="#C1C1C1"/>
<path d="M101.3 192.124L100.5 192.599L99.7197 192.172L100.54 191.716L101.3 192.124Z" fill="#C1C1C1"/>
<path d="M106.26 190.9L105.46 191.365L104.68 190.938L105.49 190.492L106.26 190.9Z" fill="#C1C1C1"/>
<path d="M105.09 191.564L104.29 192.039L103.52 191.602L104.33 191.156L105.09 191.564Z" fill="#C1C1C1"/>
<path d="M103.93 192.219L103.13 192.684L102.36 192.257L103.17 191.811L103.93 192.219Z" fill="#C1C1C1"/>
<path d="M102.73 192.912L101.93 193.386L101.16 192.95L101.97 192.504L102.73 192.912Z" fill="#C1C1C1"/>
<path d="M108.02 191.877L106.05 193.007L105.28 192.58L107.26 191.46L108.02 191.877Z" fill="#94DF8D"/>
<path d="M105.7 193.187L103.69 194.354L102.92 193.927L104.93 192.779L105.7 193.187Z" fill="#4981C4"/>
<path d="M117.99 197.068C119.23 197.068 120.16 196.176 120.57 195.417C120.97 194.677 121.04 193.946 120.78 193.244C120.26 191.839 118.44 190.511 115.06 189.069C113.41 188.367 111.75 187.18 110.29 186.137C108.24 184.675 106.47 183.413 105.11 183.679C104.59 183.783 104.16 184.106 103.84 184.647L104.38 184.941C104.61 184.552 104.89 184.324 105.24 184.258C106.32 184.049 108.07 185.292 109.92 186.611C111.41 187.674 113.09 188.879 114.81 189.61C117.99 190.967 119.75 192.219 120.2 193.443C120.4 194.003 120.35 194.553 120.03 195.151C119.7 195.768 118.97 196.489 118.01 196.489C116.98 196.489 115.98 195.654 115.12 194.069C113.85 191.735 110.73 190.037 110.59 189.961L110.28 190.473C110.31 190.492 113.38 192.162 114.56 194.335C115.78 196.584 117.1 197.068 117.99 197.068Z" fill="#383842"/>
<path d="M150.36 161.304L135.35 169.522C135.02 169.702 134.74 169.512 134.74 169.085V157.708C134.74 157.281 135.01 156.788 135.35 156.607L150.36 148.38C150.69 148.2 150.97 148.39 150.97 148.817V160.194C150.97 160.631 150.69 161.124 150.36 161.304Z" fill="#9797AD"/>
<path d="M134.97 169.569L135.76 169.996L135.7 169.123L134.97 169.569Z" fill="#9797AD"/>
<path d="M151.56 148.807L150.75 148.361L150.46 149.88L151.56 148.807Z" fill="#9797AD"/>
<path d="M151.18 161.75L136.17 169.977C135.84 170.157 135.56 169.968 135.56 169.541V158.163C135.56 157.736 135.83 157.243 136.17 157.063L151.18 148.836C151.51 148.656 151.79 148.845 151.79 149.272V160.649C151.79 161.076 151.51 161.57 151.18 161.75Z" fill="#B5B5C9"/>
<path d="M151.26 160.45L136.09 168.762V157.755L151.26 149.443V160.45Z" fill="#1E1E1E"/>
<path d="M144.64 164.919L142.71 165.982C142.61 166.039 142.53 165.982 142.53 165.849C142.53 165.726 142.61 165.574 142.71 165.517L144.64 164.455C144.74 164.398 144.82 164.455 144.82 164.587C144.82 164.72 144.74 164.872 144.64 164.919Z" fill="#1E1E1E"/>
<path d="M150.46 160.896L136.86 168.345V158.306L150.46 150.857V160.896Z" fill="white"/>
<path d="M163.62 170.091L149.13 178.033C148.74 178.242 148.06 178.223 147.61 177.976L136.53 171.903C136.08 171.657 136.03 171.287 136.42 171.068L150.91 163.126C151.3 162.917 151.98 162.936 152.43 163.183L163.51 169.256C163.96 169.503 164.01 169.873 163.62 170.091Z" fill="#9797AD"/>
<path d="M137.16 170.508H136.16V171.457H137.16V170.508Z" fill="#9797AD"/>
<path d="M163.89 168.829H162.89V169.778H163.89V168.829Z" fill="#9797AD"/>
<path d="M163.62 169.218L149.13 177.16C148.74 177.369 148.06 177.35 147.61 177.103L136.53 171.03C136.08 170.784 136.03 170.414 136.42 170.195L150.91 162.253C151.3 162.044 151.98 162.063 152.43 162.31L163.51 168.383C163.96 168.63 164.01 169.009 163.62 169.218Z" fill="white"/>
<path d="M159.06 166.76L144.69 174.636L137.41 170.641L151.77 162.775L159.06 166.76Z" fill="#CACADD"/>
<path d="M158.25 171.429L153.17 174.219L150.45 172.729L155.53 169.939L158.25 171.429Z" fill="#CACADD"/>
<path d="M138.03 170.622L139.04 170.072L139.76 170.47L138.76 171.021L138.03 170.622Z" fill="#9797AD"/>
<path d="M139.08 171.201L140.08 170.651L140.81 171.04L139.8 171.59L139.08 171.201Z" fill="#9797AD"/>
<path d="M140.13 171.77L141.48 171.03L142.2 171.429L140.85 172.169L140.13 171.77Z" fill="#9797AD"/>
<path d="M153.09 164.673L153.75 164.312L155.52 165.28L154.86 165.641L153.09 164.673Z" fill="#9797AD"/>
<path d="M141.18 172.349L142.53 171.609L143.25 171.998L141.9 172.738L141.18 172.349Z" fill="#9797AD"/>
<path d="M142.23 172.919L144.02 171.941L144.74 172.34L142.95 173.317L142.23 172.919Z" fill="#9797AD"/>
<path d="M153.19 166.912L155.87 165.451L156.59 165.84L153.91 167.311L153.19 166.912Z" fill="#9797AD"/>
<path d="M143.27 173.497L144.28 172.947L145 173.346L144 173.886L143.27 173.497Z" fill="#9797AD"/>
<path d="M139.29 169.939L140.29 169.389L141.01 169.787L140.01 170.328L139.29 169.939Z" fill="#9797AD"/>
<path d="M140.34 170.508L141.34 169.958L142.06 170.357L141.06 170.907L140.34 170.508Z" fill="#9797AD"/>
<path d="M140.55 169.246L141.56 168.696L142.28 169.085L141.28 169.635L140.55 169.246Z" fill="#9797AD"/>
<path d="M141.6 169.816L142.61 169.265L143.33 169.664L142.32 170.214L141.6 169.816Z" fill="#9797AD"/>
<path d="M141.81 168.554L142.81 168.003L143.53 168.402L142.53 168.952L141.81 168.554Z" fill="#9797AD"/>
<path d="M142.86 169.133L143.86 168.582L144.58 168.981L143.58 169.522L142.86 169.133Z" fill="#9797AD"/>
<path d="M143.07 167.861L144.07 167.311L144.8 167.709L143.79 168.26L143.07 167.861Z" fill="#9797AD"/>
<path d="M144.12 168.44L145.12 167.89L145.84 168.288L144.84 168.838L144.12 168.44Z" fill="#9797AD"/>
<path d="M144.33 167.178L145.33 166.627L146.05 167.026L145.05 167.576L144.33 167.178Z" fill="#9797AD"/>
<path d="M145.37 167.757L146.38 167.206L147.1 167.595L146.09 168.146L145.37 167.757Z" fill="#9797AD"/>
<path d="M145.59 166.485L146.59 165.935L147.32 166.333L146.31 166.874L145.59 166.485Z" fill="#9797AD"/>
<path d="M146.64 167.054L147.64 166.504L148.36 166.903L147.36 167.453L146.64 167.054Z" fill="#9797AD"/>
<path d="M141.77 170.878L142.77 170.328L143.49 170.717L142.49 171.268L141.77 170.878Z" fill="#9797AD"/>
<path d="M142.82 171.448L143.82 170.897L144.54 171.296L143.54 171.846L142.82 171.448Z" fill="#9797AD"/>
<path d="M143.03 170.186L144.04 169.635L144.76 170.025L143.76 170.575L143.03 170.186Z" fill="#9797AD"/>
<path d="M144.08 170.755L145.08 170.205L145.81 170.603L144.8 171.154L144.08 170.755Z" fill="#9797AD"/>
<path d="M144.29 169.493L145.29 168.943L146.01 169.341L145.01 169.892L144.29 169.493Z" fill="#9797AD"/>
<path d="M145.34 170.072L146.34 169.522L147.06 169.911L146.06 170.461L145.34 170.072Z" fill="#9797AD"/>
<path d="M145.55 168.8L146.55 168.25L147.27 168.649L146.27 169.199L145.55 168.8Z" fill="#9797AD"/>
<path d="M146.6 169.379L147.6 168.829L148.32 169.227L147.32 169.768L146.6 169.379Z" fill="#9797AD"/>
<path d="M146.8 168.117L147.81 167.567L148.53 167.965L147.53 168.516L146.8 168.117Z" fill="#9797AD"/>
<path d="M147.85 168.687L148.86 168.146L149.58 168.535L148.57 169.085L147.85 168.687Z" fill="#9797AD"/>
<path d="M148.07 167.425L149.07 166.874L149.8 167.263L148.79 167.814L148.07 167.425Z" fill="#9797AD"/>
<path d="M149.12 167.994L150.12 167.444L150.84 167.842L149.84 168.392L149.12 167.994Z" fill="#9797AD"/>
<path d="M149.33 166.732L150.33 166.182L151.05 166.58L150.05 167.13L149.33 166.732Z" fill="#9797AD"/>
<path d="M150.38 167.311L151.38 166.76L152.1 167.149L151.1 167.7L150.38 167.311Z" fill="#9797AD"/>
<path d="M144.36 171.751L145.36 171.201L146.09 171.6L145.08 172.15L144.36 171.751Z" fill="#9797AD"/>
<path d="M145.63 171.059L146.63 170.508L147.35 170.907L146.35 171.448L145.63 171.059Z" fill="#9797AD"/>
<path d="M146.88 170.366L147.89 169.825L148.61 170.214L147.6 170.765L146.88 170.366Z" fill="#9797AD"/>
<path d="M148.15 169.683L149.15 169.133L149.87 169.522L148.87 170.072L148.15 169.683Z" fill="#9797AD"/>
<path d="M149.4 168.99L150.4 168.44L151.12 168.838L150.12 169.389L149.4 168.99Z" fill="#9797AD"/>
<path d="M150.67 168.298L151.67 167.747L152.39 168.146L151.39 168.696L150.67 168.298Z" fill="#9797AD"/>
<path d="M151.92 167.605L152.93 167.054L153.65 167.453L152.65 168.003L151.92 167.605Z" fill="#9797AD"/>
<path d="M150.6 166.039L151.6 165.489L152.32 165.887L151.32 166.438L150.6 166.039Z" fill="#9797AD"/>
<path d="M151.64 166.609L152.65 166.068L153.37 166.457L152.37 167.007L151.64 166.609Z" fill="#9797AD"/>
<path d="M151.85 165.356L152.85 164.806L153.57 165.195L152.57 165.745L151.85 165.356Z" fill="#9797AD"/>
<path d="M152.9 165.925L153.9 165.375L154.62 165.773L153.62 166.324L152.9 165.925Z" fill="#9797AD"/>
<path d="M146.85 165.792L147.85 165.252L148.57 165.641L147.57 166.191L146.85 165.792Z" fill="#9797AD"/>
<path d="M147.89 166.371L148.9 165.821L149.62 166.219L148.62 166.77L147.89 166.371Z" fill="#9797AD"/>
<path d="M148.13 165.09L149.13 164.549L149.85 164.938L148.85 165.489L148.13 165.09Z" fill="#9797AD"/>
<path d="M149.18 165.669L150.18 165.119L150.9 165.517L149.9 166.068L149.18 165.669Z" fill="#9797AD"/>
<path d="M149.38 164.407L150.39 163.857L151.11 164.255L150.1 164.806L149.38 164.407Z" fill="#9797AD"/>
<path d="M150.43 164.986L151.43 164.436L152.15 164.825L151.15 165.375L150.43 164.986Z" fill="#9797AD"/>
<path d="M150.65 163.714L151.65 163.164L152.37 163.563L151.37 164.113L150.65 163.714Z" fill="#9797AD"/>
<path d="M151.7 164.284L152.7 163.743L153.42 164.132L152.42 164.682L151.7 164.284Z" fill="#9797AD"/>
<path d="M144.53 172.805L145.53 172.264L146.25 172.653L145.25 173.203L144.53 172.805Z" fill="#9797AD"/>
<path d="M145.79 172.112L146.8 171.562L147.52 171.96L146.52 172.511L145.79 172.112Z" fill="#9797AD"/>
<path d="M152.37 168.516L153.37 167.965L154.09 168.364L153.09 168.905L152.37 168.516Z" fill="#9797AD"/>
<path d="M153.62 167.823L154.62 167.282L155.34 167.671L154.34 168.222L153.62 167.823Z" fill="#9797AD"/>
<path d="M154.89 167.13L155.89 166.58L156.61 166.979L155.61 167.529L154.89 167.13Z" fill="#9797AD"/>
<path d="M156.13 166.457L156.89 166.039L157.61 166.428L156.85 166.846L156.13 166.457Z" fill="#9797AD"/>
<path d="M147.06 171.419L152.12 168.649L152.84 169.047L147.78 171.818L147.06 171.419Z" fill="#9797AD"/>
<path d="M138.56 172.814L137.13 172.027V171.59L138.56 172.378V172.814Z" fill="#1E1E1E"/>
<path d="M140.21 173.716L138.78 172.938V172.501L140.21 173.279V173.716Z" fill="#1E1E1E"/>
<path d="M136.86 159.264L150.46 151.806V150.857L136.86 158.315V159.264Z" fill="#4981C4"/>
<path d="M136.86 168.354L150.46 160.887V158.05L136.86 165.517V168.354Z" fill="#4981C4"/>
<path d="M147.47 159.492V153.742L140.09 157.765V163.515L147.47 159.492Z" fill="#CACADD"/>
<path d="M147.47 155.098C147.33 155.136 147.2 155.212 147.09 155.307C146.98 155.212 146.81 155.231 146.69 155.336C146.7 155.222 146.66 155.117 146.53 155.08C146.27 155.004 146.17 155.279 146.14 155.497C145.89 155.364 145.64 155.62 145.73 155.905C145.42 155.896 145.28 156.161 145.49 156.398C145.21 156.493 145.2 156.778 145.46 156.911C145.33 157.006 145.06 157.224 145.33 157.471C145.1 157.604 145.08 157.936 145.33 158.125C145.08 158.315 144.93 158.638 145.22 158.78C144.85 159.264 145.76 159.814 146.34 159.245C146.34 159.245 146.34 159.236 146.35 159.236C146.79 159.046 147.25 158.666 147.48 158.258V155.098H147.47Z" fill="#B5B5C9"/>
<path d="M140.09 163.515L147.47 159.492V158.012L140.09 162.044V163.515Z" fill="#84849B"/>
<path d="M144.86 159.957C144.81 159.909 144.74 159.928 144.66 159.966C144.69 159.786 144.56 159.682 144.42 159.767C144.47 159.634 144.46 159.539 144.35 159.501C144.17 159.425 143.94 159.767 143.93 159.767V159.473L143.47 159.72V157.167L143.84 156.968L142.68 156.361L140.07 157.784V162.263L141.4 161.532L141.78 161.323L142.04 161.181C141.99 161.257 141.96 161.342 141.96 161.456C141.95 161.76 142.19 161.788 142.4 161.617C142.53 161.76 142.94 161.608 143.09 161.238C143.11 161.247 143.14 161.238 143.17 161.228C143.19 161.466 143.42 161.485 143.6 161.323C143.73 161.466 144.14 161.314 144.29 160.944C144.46 160.982 144.78 160.64 144.87 160.384C144.94 160.203 144.95 160.023 144.86 159.957ZM141.8 158.078L143.18 157.328V159.795H143.17C143.06 159.795 142.94 159.919 142.86 160.071L141.81 160.649V158.078H141.8Z" fill="#9797AD"/>
<path d="M147 158.325C147.15 158.125 147.24 157.86 146.92 157.746C146.75 157.689 146.57 157.746 146.48 157.869C146.4 157.812 146.31 157.774 146.21 157.793C146.08 157.822 146.05 157.955 146.05 158.069C145.97 158.002 145.87 157.945 145.78 158.021C145.71 158.087 145.74 158.163 145.79 158.23C145.65 158.239 145.53 158.296 145.51 158.41C145.49 158.543 145.63 158.609 145.77 158.638C145.66 158.752 145.6 158.904 145.69 159.046C145.8 159.217 146 159.169 146.16 159.084C146.26 159.255 146.45 159.34 146.68 159.264C146.93 159.179 147.05 158.894 146.94 158.676C147.05 158.647 147.15 158.581 147.12 158.458C147.11 158.382 147.06 158.334 147 158.325Z" fill="#9797AD"/>
<path d="M143.302 158.878L141.622 159.798L141.697 159.921L143.377 159.001L143.302 158.878Z" fill="#9797AD"/>
<path d="M142.07 159.682H141.98V160.593H142.07V159.682Z" fill="#9797AD"/>
<path d="M142.37 159.492H142.28V160.403H142.37V159.492Z" fill="#9797AD"/>
<path d="M142.67 159.302H142.57V160.213H142.67V159.302Z" fill="#9797AD"/>
<path d="M142.95 159.131H142.86V160.042H142.95V159.131Z" fill="#9797AD"/>
<path d="M146.77 160.431L143.87 162.025C143.87 162.025 143.86 162.025 143.86 162.035H143.85L140.95 163.629C140.76 163.733 140.6 164.018 140.6 164.265V165.299C140.6 165.546 140.76 165.66 140.95 165.546L143.85 163.952C143.85 163.952 143.86 163.952 143.86 163.942C143.86 163.942 143.86 163.942 143.87 163.942L146.77 162.348C146.96 162.244 147.12 161.959 147.12 161.712V160.678C147.12 160.431 146.96 160.327 146.77 160.431Z" fill="white"/>
<path d="M146.69 160.574L143.63 162.253C143.63 162.253 143.63 162.253 143.62 162.253C143.62 162.253 143.62 162.253 143.61 162.253L141.02 163.676C140.85 163.771 140.71 164.028 140.71 164.246V165.166C140.71 165.384 140.85 165.489 141.02 165.394L143.61 163.971C143.61 163.971 143.61 163.971 143.62 163.971C143.62 163.971 143.62 163.971 143.63 163.971L146.69 162.291C146.86 162.196 147 161.94 147 161.722V160.801C147 160.583 146.86 160.479 146.69 160.574Z" fill="#1E1E1E"/>
<path d="M143.7 162.661C143.66 162.68 143.62 162.747 143.62 162.803V163.06V163.164V163.42C143.62 163.477 143.65 163.496 143.7 163.477C143.74 163.458 143.78 163.392 143.78 163.335V163.079V162.974V162.718C143.78 162.661 143.75 162.642 143.7 162.661Z" fill="white"/>
<path d="M143.98 162.509C143.94 162.528 143.9 162.595 143.9 162.652V162.908V163.012V163.268C143.9 163.325 143.93 163.344 143.98 163.325C144.02 163.306 144.06 163.24 144.06 163.183V162.927V162.822V162.566C144.06 162.509 144.02 162.49 143.98 162.509Z" fill="white"/>
<path d="M144.7 162.187V162.841C144.7 162.879 144.73 162.889 144.76 162.851L145.15 162.329C145.18 162.282 145.18 162.225 145.15 162.215L144.75 162.12C144.73 162.12 144.7 162.149 144.7 162.187Z" fill="white"/>
<path d="M146.33 161.57L146.07 161.399C146.06 161.39 146.04 161.418 146.04 161.456V161.703L145.8 161.551C145.79 161.541 145.77 161.57 145.77 161.608V162.263C145.77 162.301 145.79 162.31 145.81 162.282L146.04 161.883V162.111C146.04 162.149 146.06 162.158 146.08 162.13L146.34 161.684C146.35 161.646 146.35 161.579 146.33 161.57Z" fill="white"/>
<path d="M141.38 164.284L141.64 163.819C141.65 163.79 141.67 163.8 141.67 163.838V164.084L141.91 163.667C141.92 163.638 141.94 163.648 141.94 163.686V164.341C141.94 164.379 141.92 164.417 141.9 164.407L141.67 164.265V164.493C141.67 164.53 141.65 164.568 141.63 164.559L141.37 164.398C141.36 164.379 141.36 164.322 141.38 164.284Z" fill="white"/>
<path d="M143.03 163.098V163.752C143.03 163.79 143 163.838 142.97 163.828L142.58 163.743C142.55 163.733 142.55 163.676 142.58 163.629L142.98 163.088C143 163.06 143.03 163.069 143.03 163.098Z" fill="white"/>
<path d="M138.89 160.222L138.03 160.697C137.92 160.754 137.84 160.697 137.84 160.564V159.482C137.84 159.35 137.93 159.198 138.03 159.131L138.89 158.657C139 158.6 139.08 158.657 139.08 158.79V159.871C139.08 160.004 139 160.166 138.89 160.222Z" fill="#9797AD"/>
<path d="M138.85 160.185L138.08 160.602C137.97 160.659 137.89 160.602 137.89 160.469V159.501C137.89 159.369 137.98 159.217 138.08 159.15L138.85 158.733C138.96 158.676 139.04 158.733 139.04 158.866V159.843C139.04 159.976 138.95 160.128 138.85 160.185Z" fill="#1E1E1E"/>
<path d="M138.8 159.919L138.12 160.289V159.425L138.8 159.055V159.919Z" fill="white"/>
<path d="M138.89 162.092L138.03 162.566C137.92 162.623 137.84 162.566 137.84 162.433V161.352C137.84 161.219 137.93 161.067 138.03 161.001L138.89 160.526C139 160.469 139.08 160.526 139.08 160.659V161.741C139.08 161.874 139 162.035 138.89 162.092Z" fill="#9797AD"/>
<path d="M138.85 162.063L138.08 162.481C137.97 162.538 137.89 162.481 137.89 162.348V161.371C137.89 161.238 137.98 161.086 138.08 161.02L138.85 160.602C138.96 160.545 139.04 160.602 139.04 160.735V161.712C139.04 161.845 138.95 161.997 138.85 162.063Z" fill="#1E1E1E"/>
<path d="M138.8 161.788L138.12 162.158V161.295L138.8 160.925V161.788Z" fill="white"/>
<path d="M138.5 160.925H138.43V162.111H138.5V160.925Z" fill="#1E1E1E"/>
<path d="M138.91 161.266L137.95 161.788V161.855L138.91 161.333V161.266Z" fill="#1E1E1E"/>
<path d="M138.89 163.942L138.03 164.417C137.92 164.473 137.84 164.417 137.84 164.284V163.202C137.84 163.069 137.93 162.917 138.03 162.851L138.89 162.376C139 162.32 139.08 162.376 139.08 162.509V163.591C139.08 163.733 139 163.885 138.89 163.942Z" fill="#9797AD"/>
<path d="M138.85 163.914L138.08 164.331C137.97 164.388 137.89 164.331 137.89 164.198V163.221C137.89 163.088 137.98 162.936 138.08 162.87L138.85 162.452C138.96 162.395 139.04 162.452 139.04 162.585V163.563C139.04 163.695 138.95 163.857 138.85 163.914Z" fill="#1E1E1E"/>
<path d="M138.8 163.638L138.12 164.009V163.155L138.8 162.775V163.638Z" fill="white"/>
<path d="M138.37 162.993H138.32V163.904H138.37V162.993Z" fill="#1E1E1E"/>
<path d="M138.6 162.879H138.55V163.79H138.6V162.879Z" fill="#1E1E1E"/>
<path d="M138.83 163.031L138.09 163.43V163.487L138.83 163.079V163.031Z" fill="#1E1E1E"/>
<path d="M138.83 163.344L138.09 163.743V163.79L138.83 163.392V163.344Z" fill="#1E1E1E"/>
<path d="M150.95 214.973L150.51 219.044C150.51 219.044 148.48 221.103 145.67 219.31C144 218.238 141.06 216.568 140.12 214.755C139.19 212.933 139.48 211.852 140.29 211.368C141.11 210.884 145.24 213.17 145.24 213.17L150.95 214.973Z" fill="#222228"/>
<path d="M144.93 211.747C144.93 211.747 147.22 198.814 147.99 196.404C149.06 193.054 149.92 191.697 152.2 190.834C153.54 190.321 156.66 190.729 159.87 191.393C160.28 194.136 159.89 197.239 158.33 199.592C157.24 199.032 156.16 198.472 155.14 197.95C154.7 198.994 154.31 200.209 154.04 201.623C153.65 203.72 153.01 207.003 152.9 209.166C152.79 211.339 152.58 214.546 152.58 214.546C152.58 214.546 150.2 216.435 147.23 215.324C144.31 214.233 144.93 211.747 144.93 211.747Z" fill="#222228"/>
<path d="M161.78 225.516C162.82 225.516 163.67 224.709 163.67 223.722V207.126C163.67 206.139 162.82 205.323 161.78 205.323C160.74 205.323 159.88 206.13 159.88 207.126V223.722C159.88 224.699 160.74 225.516 161.78 225.516Z" fill="#2B2B33"/>
<path d="M149.79 207.914C149.79 211.254 155.16 213.968 161.78 213.968C168.4 213.968 173.77 211.254 173.77 207.914C173.77 204.574 168.4 201.86 161.78 201.86C155.16 201.86 149.79 204.574 149.79 207.914Z" fill="#B5B5C9"/>
<path d="M149.788 208.09H173.768V206.771H149.788V208.09Z" fill="#B5B5C9"/>
<path d="M149.79 206.775C149.79 210.115 155.16 212.829 161.78 212.829C168.4 212.829 173.77 210.115 173.77 206.775C173.77 203.435 168.4 200.721 161.78 200.721C155.16 200.721 149.79 203.435 149.79 206.775Z" fill="white"/>
<path d="M150.36 206.12C150.36 209.309 155.47 211.889 161.78 211.889C168.09 211.889 173.2 209.309 173.2 206.12C173.2 202.932 168.09 200.351 161.78 200.351C155.47 200.351 150.36 202.932 150.36 206.12Z" fill="#6DCD71"/>
<path d="M172.6 202.41L173.2 206.12H150.36L150.96 202.41H172.6Z" fill="#6DCD71"/>
<path d="M161.78 208.872C167.844 208.872 172.76 206.391 172.76 203.331C172.76 200.27 167.844 197.789 161.78 197.789C155.716 197.789 150.8 200.27 150.8 203.331C150.8 206.391 155.716 208.872 161.78 208.872Z" fill="#94DF8D"/>
<path d="M161.78 208.872C167.844 208.872 172.76 206.391 172.76 203.331C172.76 200.27 167.844 197.789 161.78 197.789C155.716 197.789 150.8 200.27 150.8 203.331C150.8 206.391 155.716 208.872 161.78 208.872Z" fill="#94DF8D"/>
<path d="M173.02 234.065C173.02 235.185 173.73 236.475 174.62 236.959C175.5 237.443 176.22 236.931 176.22 235.811C176.22 234.691 175.51 233.401 174.62 232.917C173.73 232.442 173.02 232.955 173.02 234.065Z" fill="#2B2B33"/>
<path d="M172.42 233.496L173.65 232.813L175.66 237.045L174.37 237.747L172.42 233.496Z" fill="#2B2B33"/>
<path d="M171.73 234.777C171.73 235.896 172.44 237.187 173.33 237.671C174.21 238.155 174.93 237.642 174.93 236.523C174.93 235.403 174.22 234.112 173.33 233.629C172.44 233.145 171.73 233.657 171.73 234.777Z" fill="#383842"/>
<path d="M175.54 233.382C175.91 232.775 175.69 232.006 175.05 231.655L149.83 217.848C149.19 217.497 148.38 217.706 148.01 218.313C147.64 218.921 147.86 219.689 148.5 220.04L173.72 233.847C174.36 234.188 175.17 233.989 175.54 233.382Z" fill="#2B2B33"/>
<path d="M149.84 233.847L175.06 220.04C175.7 219.689 175.91 218.921 175.55 218.313C175.18 217.706 174.37 217.507 173.73 217.848L148.51 231.655C147.87 232.006 147.66 232.774 148.02 233.382C148.39 233.989 149.2 234.188 149.84 233.847Z" fill="#2B2B33"/>
<path d="M148.3 220.249C148.3 221.369 149.01 222.659 149.9 223.143C150.78 223.627 151.5 223.115 151.5 221.995C151.5 220.875 150.79 219.585 149.9 219.101C149.01 218.617 148.3 219.13 148.3 220.249Z" fill="#2B2B33"/>
<path d="M147.69 219.67L148.93 218.987L150.93 223.229L149.65 223.921L147.69 219.67Z" fill="#2B2B33"/>
<path d="M147.01 220.951C147.01 222.071 147.72 223.362 148.61 223.845C149.49 224.329 150.21 223.817 150.21 222.697C150.21 221.578 149.5 220.287 148.61 219.803C147.72 219.329 147.01 219.841 147.01 220.951Z" fill="#383842"/>
<path d="M149.85 234.426C149.85 235.545 150.56 236.836 151.45 237.32C152.33 237.804 153.05 237.291 153.05 236.172C153.05 235.052 152.34 233.761 151.45 233.277C150.57 232.794 149.85 233.306 149.85 234.426Z" fill="#2B2B33"/>
<path d="M149.25 233.847L150.48 233.164L152.49 237.396L151.21 238.098L149.25 233.847Z" fill="#2B2B33"/>
<path d="M148.56 235.128C148.56 236.247 149.27 237.538 150.16 238.022C151.04 238.506 151.76 237.993 151.76 236.874C151.76 235.754 151.05 234.464 150.16 233.98C149.28 233.505 148.56 234.018 148.56 235.128Z" fill="#383842"/>
<path d="M174.03 221.037C174.03 222.156 174.74 223.447 175.63 223.931C176.51 224.415 177.23 223.902 177.23 222.783C177.23 221.663 176.52 220.373 175.63 219.889C174.74 219.405 174.03 219.917 174.03 221.037Z" fill="#2B2B33"/>
<path d="M173.42 220.458L174.66 219.775L176.66 224.007L175.38 224.709L173.42 220.458Z" fill="#2B2B33"/>
<path d="M172.74 221.739C172.74 222.859 173.45 224.149 174.34 224.633C175.22 225.117 175.94 224.605 175.94 223.485C175.94 222.365 175.23 221.075 174.34 220.591C173.45 220.116 172.74 220.629 172.74 221.739Z" fill="#383842"/>
<path d="M144.49 218.636L144.05 222.707C144.05 222.707 142.02 224.766 139.21 222.973C137.54 221.9 134.6 220.23 133.66 218.418C132.73 216.596 133.02 215.514 133.84 215.03C134.66 214.546 138.79 216.833 138.79 216.833L144.49 218.636Z" fill="#2B2B33"/>
<path d="M177.74 186.269C177.74 186.269 176.52 187.532 172.64 185.691C168.13 183.556 165.51 183.034 165.51 183.034L166.24 179.808L173.73 180.216L177.74 186.269Z" fill="#3790A0"/>
<path d="M165.89 167.064C165.89 167.064 168.47 166.115 170.38 167.671C172.29 169.227 175.88 177.464 176.51 178.574C177.14 179.684 178.85 182.066 176.42 184.03C174.42 185.643 171.98 182.056 171.19 180.775C170.19 179.162 167.43 174.19 167.43 174.19L165.89 167.064Z" fill="#222228"/>
<path d="M138.47 215.419C138.47 215.419 140.76 202.486 141.53 200.076C142.6 196.726 143.46 195.369 145.74 194.506C149.03 193.253 162.97 197.514 162.97 197.514L173.01 198.007C173.01 198.007 173.53 201.879 170.65 203.852C167.77 205.826 160.9 207.781 155.94 205.314C153.57 204.137 151.23 203.055 148.95 201.869C148.31 205.693 146.48 218.2 146.48 218.2C146.48 218.2 143.76 220.107 140.79 218.997C137.85 217.896 138.47 215.419 138.47 215.419Z" fill="#2B2B33"/>
<path d="M141.98 178.707C141.98 178.707 139.4 177.682 136.92 177.122C134.44 176.562 131.88 177.72 132.19 178.707C132.5 179.694 134.31 179.817 135.38 180.073C136.45 180.329 138.18 181.193 139.77 181.686C141.35 182.18 141.98 178.707 141.98 178.707Z" fill="#FFC3B1"/>
<path d="M161.72 156.683C163.21 155.696 166.08 156.009 167.33 158.505C168.02 159.89 167.05 163.61 166.89 166.219C166.77 168.326 167.51 169.541 167.51 169.541C167.51 169.541 167.51 169.541 165.61 170.281C163.71 171.021 161.72 170.281 161.72 170.281L161.78 167.073C161.78 167.073 159.73 166.789 159.37 166.476C158.51 165.726 158.05 163.487 158.45 160.612C159.04 156.313 161.17 157.044 161.72 156.683Z" fill="#FFC3B1"/>
<path d="M172.88 195.312V196.717C172.88 196.717 168.63 200.171 162.94 199.279C157.25 198.387 155.35 195.72 155.35 195.72L155.75 194.278L172.88 195.312Z" fill="#222228"/>
<path d="M173.88 192.864C174.77 195.967 167.59 198.169 163.64 198.036C160.05 197.912 155.62 196.641 155.25 193.491C156.06 189.714 158.38 183.888 156.65 180.386C155.53 178.109 157.6 174.313 158.31 172.833C159.02 171.353 161.73 169.835 161.73 169.835C161.73 169.835 165.61 170.29 167.11 168.497C169.27 168.895 171.33 170.537 172.43 177.986C172.62 179.295 172.72 184.457 172.94 187.475C173.07 189.287 173.51 188.888 173.29 190.445C173.04 192.124 173.66 191.811 173.88 192.864Z" fill="#383842"/>
<path d="M158 156.769C159.11 157.091 160.12 155.421 160.55 155.231C162.19 154.529 165.85 153.305 167.57 155.45C168.98 156.228 171.3 157.48 170.05 162.054C169.24 165.005 167.78 164.825 166.89 167.168C165.34 166.912 164.67 166.599 163.78 165.764C162.89 164.929 162.81 163.809 162.81 163.809C162.81 163.809 163.85 161.855 163.04 161.162C162.18 160.422 161.4 161.646 161.1 162.073C158.21 160.09 157.61 157.993 158 156.769Z" fill="#383842"/>
<path d="M161.74 169.161L160.86 170.366C160.86 170.366 163.85 171.903 166.18 171.021C168.29 170.224 169.24 169.512 169.24 169.512C169.24 169.512 168.4 168.041 167.18 168.041C166.47 168.041 165.47 168.819 164.68 169.009C162.94 169.417 161.74 169.161 161.74 169.161Z" fill="white"/>
<path d="M138.8 180.87C138.84 179.238 140.6 176.619 142.37 177.578C144.62 178.802 149.37 180.728 149.37 180.728C149.37 180.728 151.84 178.432 153.32 176.572C155.89 173.355 158.29 172.15 159.52 172.387C161.5 172.776 163.33 175.784 161.41 178.773C159.48 181.762 155.33 185.672 151.45 187.161C147.56 188.651 143.51 185.121 140.9 183.707C140.01 183.233 138.76 182.882 138.8 180.87Z" fill="#222228"/>
<path d="M155.11 174.617C155.11 174.617 155.95 176.116 156.57 176.638C157.19 177.16 158.08 177.805 158.08 177.805C158.08 177.805 156.17 180.462 154.25 181.003C152.33 181.544 150.86 179.276 150.86 179.276C150.86 179.276 154.13 175.376 155.11 174.617Z" fill="#383842"/>
<path d="M161.52 158.581C161.52 158.581 157.99 159.663 156.18 158.012C154.36 156.361 159.56 155.146 159.56 155.146L161.52 158.581Z" fill="#2B2B33"/>
<path d="M170.58 160.488L170.05 162.054C170.05 162.054 166.9 163.136 162.94 160.555C159.06 158.031 158.98 156.028 158.98 156.028L159.93 154.577L170.58 160.488Z" fill="#32323A"/>
<path d="M169.67 161.371C166.64 161.181 162.51 158.904 160.45 156.304C158.39 153.695 159.17 151.74 162.2 151.939C165.23 152.129 169.36 154.406 171.42 157.006C173.48 159.606 172.7 161.561 169.67 161.371Z" fill="#2B2B33"/>
<path d="M169.69 160.801C166.84 160.621 162.96 158.486 161.02 156.038C159.08 153.59 159.81 151.749 162.66 151.929C165.51 152.109 169.39 154.244 171.33 156.693C173.27 159.15 172.54 160.991 169.69 160.801Z" fill="#383842"/>
<path d="M167.44 204.687V191.659C167.44 187.095 170.39 181.753 173.99 179.779L177.41 177.91C181.01 175.936 183.96 178.052 183.96 182.607V195.635L167.44 204.687Z" fill="#6DCD71"/>
<path d="M181.77 177.625L184.57 179.21L182.06 180.785L181.77 177.625Z" fill="#6DCD71"/>
<path d="M170.17 206.225L167.44 204.687L170.67 201.67L170.17 206.225Z" fill="#6DCD71"/>
<path d="M170.17 206.225V193.196C170.17 188.632 173.12 183.29 176.72 181.316L180.14 179.447C183.74 177.473 186.69 179.589 186.69 184.144V197.172L170.17 206.225Z" fill="#6FB564"/>
<path d="M180.48 192.077C180.48 194.838 180.77 200.759 180.72 202.135C180.62 205.114 182.57 214.461 170.06 214.793C168.8 214.831 163.69 214.508 162.79 213.949C164.84 213.854 168.38 213.133 171.19 211.662C179.31 210.95 178.44 205.067 178.33 201.385C178.2 197.096 178.31 193.595 178.33 192.162C178.35 190.302 180.48 190.217 180.48 192.077Z" fill="#2B2B33"/>
<path d="M167.2 112.076L83.6199 157.869V157.167L167.21 111.364L167.2 112.076Z" fill="white"/>
<path d="M111.87 162.889L111.21 163.24V121.479L111.87 121.119V162.889Z" fill="white"/>
<path d="M139.68 147.631L139.02 147.991V106.373L139.68 106.012V147.631Z" fill="white"/>
<path d="M52.87 106.942C54.8803 106.942 56.51 105.396 56.51 103.488C56.51 101.581 54.8803 100.034 52.87 100.034C50.8597 100.034 49.23 101.581 49.23 103.488C49.23 105.396 50.8597 106.942 52.87 106.942Z" fill="#B3B3C6"/>
<path d="M56.52 93.4017H49.23V103.488H56.52V93.4017Z" fill="#B5B5C9"/>
<path d="M52.87 101.543C50.86 101.543 49.23 102.416 49.23 103.488C49.23 104.561 50.86 105.434 52.87 105.434C54.88 105.434 56.51 104.561 56.51 103.488C56.51 102.416 54.88 101.543 52.87 101.543Z" fill="#B5B5C9"/>
<path d="M52.8701 85.1179C46.4901 85.1179 41.3201 87.8792 41.3201 91.2857C41.3201 94.6922 46.4901 97.4535 52.8701 97.4535C59.2501 97.4535 64.4201 94.6922 64.4201 91.2857C64.4201 87.8792 59.2501 85.1179 52.8701 85.1179Z" fill="#CACADD"/>
<path d="M64.4301 89.6726H41.3201V91.2857H64.4301V89.6726Z" fill="#CACADD"/>
<path d="M52.8701 83.5048C46.4901 83.5048 41.3201 86.2661 41.3201 89.6726C41.3201 93.0791 46.4901 95.8404 52.8701 95.8404C59.2501 95.8404 64.4201 93.0791 64.4201 89.6726C64.4201 86.2661 59.2501 83.5048 52.8701 83.5048Z" fill="white"/>
<path d="M52.8701 94.455C47.7501 94.455 43.5901 92.3105 43.5901 89.6726C43.5901 87.0347 47.7501 84.8902 52.8701 84.8902C57.9901 84.8902 62.1501 87.0347 62.1501 89.6726C62.1501 92.3105 57.9901 94.455 52.8701 94.455ZM52.8701 85.4406C48.0701 85.4406 44.1701 87.3383 44.1701 89.6726C44.1701 92.0069 48.0701 93.9046 52.8701 93.9046C57.6701 93.9046 61.5701 92.0069 61.5701 89.6726C61.5701 87.3383 57.6701 85.4406 52.8701 85.4406Z" fill="#B3B3C6"/>
<path d="M61.4102 112.892L54.1402 116.877C53.0602 117.466 52.1802 116.839 52.1802 115.473V106.269C52.1802 104.902 53.0602 103.308 54.1402 102.72L61.4102 98.7345C62.4902 98.1462 63.3702 98.7724 63.3702 100.139V109.343C63.3702 110.709 62.4802 112.304 61.4102 112.892Z" fill="#CACADD"/>
<path d="M52.8701 116.982L70.6701 126.727L80.4501 108.385L62.5401 98.5826L52.8701 116.982Z" fill="#CACADD"/>
<path d="M71.73 112.702L53.8201 102.919L60.6901 99.152L78.6001 108.935L71.73 112.702Z" fill="white"/>
<path d="M72.1102 125.996L52.1702 115.074V106.145L72.1102 117.067V125.996Z" fill="#B3B3C6"/>
<path d="M60.13 118.272L54.04 114.942V113.139L60.13 116.479V118.272Z" fill="#1E1E1E"/>
<path d="M79.3201 122.703L72.0501 126.689C70.9701 127.277 70.0901 126.651 70.0901 125.284V116.08C70.0901 114.714 70.9701 113.12 72.0501 112.531L79.3201 108.546C80.4001 107.958 81.2801 108.584 81.2801 109.95V119.155C81.2801 120.512 80.3901 122.115 79.3201 122.703Z" fill="#1E1E1E"/>
<path d="M70.6702 126.727L72.7502 127.818L82.4602 109.438L80.4502 108.385L70.6702 126.727Z" fill="#1E1E1E"/>
<path d="M83.0301 109.922C82.9101 109.96 82.7901 110.007 82.6701 110.074L75.4001 114.059C74.3201 114.647 73.6001 116.194 73.4401 117.608L72.1101 126.328C72.1101 127.695 72.9901 128.321 74.0701 127.733L81.3401 123.747C82.4201 123.159 83.3001 121.555 83.3001 120.198V110.994C83.3001 110.558 83.1901 110.197 83.0301 109.922Z" fill="#3D3D3D"/>
<path d="M80.2599 112.825C81.0999 113.328 81.6399 114.429 81.6399 115.985C81.6399 118.898 79.7699 122.286 77.4699 123.548C76.6199 124.013 75.8399 124.117 75.1799 123.937C75.9199 124.373 76.8999 124.364 77.9699 123.776C80.2699 122.514 82.1399 119.126 82.1399 116.213C82.1399 114.363 81.3899 113.148 80.2599 112.825Z" fill="#1E1E1E"/>
<path d="M77.46 123.548C79.76 122.286 81.63 118.898 81.63 115.985C81.63 114.429 81.1 113.328 80.25 112.825C79.59 112.636 78.81 112.75 77.96 113.215C75.66 114.477 73.79 117.864 73.79 120.777C73.79 122.333 74.32 123.434 75.17 123.937C75.83 124.117 76.62 124.013 77.46 123.548Z" fill="#383842"/>
<path d="M80.7 117.171C80.7 119.079 79.48 121.29 77.97 122.115C76.46 122.941 75.24 122.068 75.24 120.16C75.24 118.253 76.46 116.042 77.97 115.217C79.47 114.391 80.7 115.264 80.7 117.171Z" fill="white"/>
<path d="M78.7502 116.204C78.9202 116.46 79.0202 116.811 79.0202 117.247C79.0202 118.5 78.2202 119.961 77.2202 120.502C76.9402 120.654 76.6702 120.711 76.4302 120.692C76.7502 121.166 77.3102 121.29 77.9502 120.939C78.9402 120.398 79.7502 118.936 79.7502 117.684C79.7602 116.783 79.3502 116.242 78.7502 116.204Z" fill="#1E1E1E"/>
<path d="M77.2302 120.502C78.2202 119.961 79.0302 118.5 79.0302 117.247C79.0302 116.811 78.9302 116.46 78.7602 116.203C78.5202 116.185 78.2602 116.241 77.9702 116.393C76.9802 116.934 76.1702 118.395 76.1702 119.648C76.1702 120.084 76.2702 120.436 76.4402 120.692C76.6802 120.711 76.9502 120.654 77.2302 120.502Z" fill="#383842"/>
<path d="M74.1301 124.639C74.2001 124.734 74.2401 124.876 74.2401 125.047C74.2401 125.512 73.9401 126.062 73.5701 126.262C73.4801 126.309 73.3901 126.338 73.3101 126.338C73.4301 126.499 73.6401 126.537 73.8701 126.404C74.2401 126.205 74.5401 125.654 74.5401 125.189C74.5501 124.838 74.3801 124.63 74.1301 124.639Z" fill="white"/>
<path d="M74.25 125.047C74.25 124.867 74.21 124.734 74.14 124.639C74.06 124.639 73.97 124.668 73.88 124.715C73.51 124.914 73.21 125.465 73.21 125.93C73.21 126.11 73.25 126.243 73.32 126.338C73.4 126.338 73.49 126.309 73.58 126.262C73.95 126.062 74.25 125.512 74.25 125.047Z" fill="#CACADD"/>
<path d="M81.7802 110.852C81.8502 110.947 81.8902 111.089 81.8902 111.26C81.8902 111.725 81.5902 112.275 81.2202 112.474C81.1302 112.522 81.0402 112.55 80.9602 112.55C81.0802 112.712 81.2902 112.75 81.5202 112.617C81.8902 112.417 82.1902 111.867 82.1902 111.402C82.2002 111.051 82.0302 110.842 81.7802 110.852Z" fill="white"/>
<path d="M81.9001 111.26C81.9001 111.08 81.8601 110.947 81.7901 110.852C81.7101 110.852 81.6201 110.88 81.5301 110.928C81.1601 111.127 80.8601 111.677 80.8601 112.142C80.8601 112.323 80.9001 112.455 80.9701 112.55C81.0501 112.55 81.1401 112.522 81.2301 112.474C81.6001 112.275 81.9001 111.734 81.9001 111.26Z" fill="#CACADD"/>
<path d="M81.7802 120.511C81.8502 120.606 81.8902 120.749 81.8902 120.919C81.8902 121.384 81.5902 121.935 81.2202 122.134C81.1302 122.181 81.0402 122.21 80.9602 122.21C81.0802 122.371 81.2902 122.409 81.5202 122.276C81.8902 122.077 82.1902 121.527 82.1902 121.062C82.2002 120.72 82.0302 120.511 81.7802 120.511Z" fill="white"/>
<path d="M81.9001 120.93C81.9001 120.749 81.8601 120.616 81.7901 120.521C81.7101 120.521 81.6201 120.55 81.5301 120.597C81.1601 120.797 80.8601 121.347 80.8601 121.812C80.8601 121.983 80.9001 122.125 80.9701 122.22C81.0501 122.22 81.1401 122.192 81.2301 122.144C81.6001 121.935 81.9001 121.394 81.9001 120.93Z" fill="#CACADD"/>
<path d="M74.2502 115.141C74.3202 115.236 74.3602 115.378 74.3602 115.549C74.3602 116.014 74.0602 116.564 73.6902 116.763C73.6002 116.811 73.5102 116.839 73.4302 116.839C73.5502 117.001 73.7602 117.039 73.9902 116.906C74.3602 116.706 74.6602 116.156 74.6602 115.691C74.6602 115.35 74.4902 115.141 74.2502 115.141Z" fill="white"/>
<path d="M74.36 115.559C74.36 115.378 74.3201 115.246 74.2501 115.151C74.1701 115.151 74.0801 115.179 73.9901 115.227C73.6201 115.426 73.3201 115.976 73.3201 116.441C73.3201 116.622 73.3601 116.754 73.4301 116.849C73.5101 116.849 73.6001 116.821 73.6901 116.773C74.0601 116.574 74.36 116.024 74.36 115.559Z" fill="#CACADD"/>
<path d="M78.3801 117.949C78.3801 118.49 78.0301 119.126 77.6001 119.363C77.1701 119.601 76.8201 119.344 76.8201 118.803C76.8201 118.263 77.1701 117.627 77.6001 117.39C78.0301 117.162 78.3801 117.409 78.3801 117.949Z" fill="#4981C4"/>
<path d="M83.8301 109.874H83.8601L80.4501 108.385V110.083L74.0701 113.575C72.9901 114.163 72.1101 115.767 72.1101 117.124V126.328L73.4401 117.608C73.6001 116.194 74.3201 114.647 75.4001 114.059L82.6701 110.074C82.7901 110.007 82.9101 109.96 83.0301 109.922C83.2001 110.197 83.3001 110.558 83.3001 111.004V120.208L84.6301 111.488C84.8301 110.539 84.4201 109.998 83.8301 109.874Z" fill="#1E1E1E"/>
<path d="M204.591 95.6421C206.411 88.3766 201.679 81.0872 194.022 79.3606C186.365 77.6341 178.683 82.1242 176.863 89.3896C175.044 96.6551 179.776 103.945 187.433 105.671C195.089 107.398 202.772 102.907 204.591 95.6421Z" fill="#1E1E1E"/>
<path opacity="0.3" d="M181.51 96.3528C181.51 89.5967 186.32 84.1216 193.44 84.1216C194.65 84.1216 198.38 84.2829 199.49 84.5771C197.25 82.7932 194.37 81.7209 191.22 81.7209C184.1 81.7209 178.33 87.196 178.33 93.9521C178.33 99.56 182.37 104.276 187.79 105.728C183.26 104.02 181.51 100.12 181.51 96.3528Z" fill="white"/>
<path d="M203.53 91.428C203.5 96.4097 200.35 102.122 196.47 104.229C192.56 106.354 189.41 104.096 189.41 99.1615C189.41 94.2273 192.57 88.496 196.47 86.361C200.37 84.226 203.55 86.4938 203.53 91.428Z" fill="#4F4F4F"/>
<path d="M192.28 101.031C192.28 101.686 191.86 102.445 191.35 102.72C190.83 103.004 190.42 102.701 190.42 102.046C190.42 101.391 190.84 100.632 191.35 100.357C191.86 100.082 192.28 100.376 192.28 101.031Z" fill="#383842"/>
<path d="M191.97 101.202C191.97 101.638 191.69 102.141 191.35 102.331C191.01 102.521 190.73 102.321 190.73 101.885C190.73 101.448 191.01 100.945 191.35 100.756C191.69 100.566 191.97 100.765 191.97 101.202Z" fill="white"/>
<path d="M202.5 95.3375C202.5 95.9922 202.08 96.7513 201.57 97.0265C201.05 97.3111 200.64 97.0075 200.64 96.3528C200.64 95.6981 201.06 94.9389 201.57 94.6638C202.08 94.3886 202.5 94.6827 202.5 95.3375Z" fill="#383842"/>
<path d="M202.19 95.5083C202.19 95.9448 201.91 96.4477 201.57 96.6375C201.23 96.8272 200.95 96.628 200.95 96.1915C200.95 95.755 201.23 95.2521 201.57 95.0623C201.91 94.8725 202.19 95.0718 202.19 95.5083Z" fill="white"/>
<path d="M200.15 96.7893C200.15 99.3608 198.5 102.35 196.47 103.469C194.44 104.58 192.79 103.403 192.79 100.832C192.79 98.2601 194.44 95.2711 196.47 94.1514C198.5 93.0317 200.15 94.2178 200.15 96.7893Z" fill="#383842"/>
<path d="M199.61 97.2163C199.61 99.2469 198.31 101.6 196.71 102.483C195.11 103.365 193.81 102.426 193.81 100.405C193.81 98.3834 195.11 96.0207 196.71 95.1382C198.32 94.2558 199.61 95.1856 199.61 97.2163Z" fill="white"/>
<path d="M199.08 97.833C199.08 99.2753 198.16 100.945 197.02 101.562C195.88 102.179 194.96 101.524 194.96 100.082C194.96 98.6396 195.88 96.9695 197.02 96.3433C198.16 95.736 199.08 96.4002 199.08 97.833Z" fill="#1E1E1E"/>
<path d="M198.17 98.5637C198.17 99.0761 197.84 99.6644 197.44 99.8827C197.04 100.101 196.71 99.8731 196.71 99.3607C196.71 98.8483 197.04 98.26 197.44 98.0418C197.84 97.8236 198.17 98.0608 198.17 98.5637Z" fill="#4981C4"/>
<path d="M190.71 80.383C182.18 80.383 175.26 84.0742 175.26 88.6288C175.26 93.1835 182.18 96.8747 190.71 96.8747C199.24 96.8747 206.16 93.1835 206.16 88.6288C206.16 84.0742 199.25 80.383 190.71 80.383Z" fill="#CACADD"/>
<path d="M206.16 78.9786H175.27V88.6288H206.16V78.9786Z" fill="#CACADD"/>
<path d="M190.71 70.7233C182.18 70.7233 175.26 74.4145 175.26 78.9691C175.26 83.5238 182.18 87.215 190.71 87.215C199.24 87.215 206.16 83.5238 206.16 78.9691C206.16 74.424 199.25 70.7233 190.71 70.7233Z" fill="white"/>
<path d="M190.71 74.1298C196.73 74.1298 201.68 76.559 202.33 79.6713C202.38 79.4436 202.41 79.2064 202.41 78.9691C202.41 75.5152 197.17 72.7255 190.71 72.7255C184.25 72.7255 179.01 75.5247 179.01 78.9691C179.01 79.2064 179.04 79.4436 179.09 79.6713C179.75 76.559 184.7 74.1298 190.71 74.1298Z" fill="#B3B3C6"/>
<path d="M190.71 85.2223C196.73 85.2223 201.68 82.7932 202.33 79.6808C201.68 76.559 196.73 74.1393 190.71 74.1393C184.69 74.1393 179.74 76.5684 179.09 79.6808C179.75 82.7932 184.7 85.2223 190.71 85.2223Z" fill="#CACADD"/>
<path d="M190.71 92.6996C182.47 92.6996 175.74 89.2551 175.29 84.9187C175.27 85.0705 175.26 85.2318 175.26 85.3836C175.26 89.9383 182.18 93.6295 190.71 93.6295C199.24 93.6295 206.16 89.9383 206.16 85.3836C206.16 85.2223 206.15 85.0705 206.13 84.9187C205.68 89.2551 198.95 92.6996 190.71 92.6996Z" fill="white"/>
<path d="M186.92 82.926C184.87 82.926 183.26 82.0341 183.26 80.8954C183.26 79.7567 184.87 78.8648 186.92 78.8648C188.97 78.8648 190.58 79.7567 190.58 80.8954C190.58 82.0341 188.97 82.926 186.92 82.926ZM186.92 79.1969C185.12 79.1969 183.6 79.975 183.6 80.8954C183.6 81.8158 185.12 82.5939 186.92 82.5939C188.72 82.5939 190.24 81.8158 190.24 80.8954C190.24 79.975 188.72 79.1969 186.92 79.1969Z" fill="#B3B3C6"/>
<path d="M196.47 76.3218L191.38 79.1115L190.41 78.6086L195.5 75.8188L196.47 76.3218Z" fill="#B3B3C6"/>
<path d="M194.96 75.4583L189.88 78.2385L188.91 77.7356L193.99 74.9459L194.96 75.4583Z" fill="#B3B3C6"/>
<path d="M197.99 77.0998L192.9 79.8896L191.93 79.3867L197.02 76.5969L197.99 77.0998Z" fill="#B3B3C6"/>
<path d="M200.63 78.5327L189.54 84.6435L188.31 84.0078L199.41 77.8969L200.63 78.5327Z" fill="#B3B3C6"/>
<path d="M94.88 100.537L88.93 103.792C87.98 104.314 87.2 103.754 87.2 102.549V95.0243C87.2 93.8192 87.98 92.4149 88.93 91.893L94.88 88.6383C95.83 88.1164 96.61 88.6763 96.61 89.8814V97.4061C96.61 98.6017 95.83 100.015 94.88 100.537Z" fill="#B5B5C9"/>
<path d="M88.4901 104.248L87.8301 103.877V103.356L88.8801 103.707L88.4901 104.248Z" fill="#B5B5C9"/>
<path d="M95.6199 100.926L89.6699 104.181C88.7199 104.703 87.9399 104.143 87.9399 102.938V95.4134C87.9399 94.2083 88.7199 92.8039 89.6699 92.282L95.6199 89.0273C96.5699 88.5055 97.3499 89.0653 97.3499 90.2704V97.7951C97.3499 98.9907 96.5699 100.405 95.6199 100.926Z" fill="#CACADD"/>
<path d="M89.6845 103.262C89.8359 102.924 89.7939 102.584 89.5906 102.502C89.3873 102.42 89.0998 102.627 88.9484 102.964C88.797 103.302 88.8391 103.642 89.0423 103.724C89.2456 103.806 89.5331 103.599 89.6845 103.262Z" fill="#1E1E1E"/>
<path d="M89.7502 103.052C89.7502 103.251 89.6202 103.479 89.4702 103.564C89.3102 103.65 89.1902 103.555 89.1902 103.365C89.1902 103.175 89.3202 102.938 89.4702 102.853C89.6202 102.767 89.7502 102.853 89.7502 103.052Z" fill="#3D3D3D"/>
<path d="M89.7901 93.7718C89.7901 94.0945 89.5901 94.4645 89.3301 94.5974C89.0801 94.7397 88.8701 94.5879 88.8701 94.2652C88.8701 93.9426 89.0701 93.5726 89.3301 93.4397C89.5901 93.3069 89.7901 93.4492 89.7901 93.7718Z" fill="#1E1E1E"/>
<path d="M89.7502 93.9521C89.7502 94.1514 89.6202 94.3791 89.4702 94.4645C89.3102 94.5499 89.1902 94.455 89.1902 94.2652C89.1902 94.0755 89.3202 93.8382 89.4702 93.7528C89.6202 93.6674 89.7502 93.7528 89.7502 93.9521Z" fill="#3D3D3D"/>
<path d="M96.6099 99.0951C96.6099 99.4177 96.4099 99.7878 96.1499 99.9206C95.8999 100.063 95.6899 99.9111 95.6899 99.5885C95.6899 99.2659 95.8899 98.8958 96.1499 98.763C96.3999 98.6301 96.6099 98.7725 96.6099 99.0951Z" fill="#1E1E1E"/>
<path d="M96.56 99.2753C96.56 99.4746 96.43 99.7023 96.28 99.7877C96.12 99.8731 96 99.7782 96 99.5885C96 99.3987 96.13 99.1615 96.28 99.0761C96.44 98.9907 96.56 99.0761 96.56 99.2753Z" fill="#3D3D3D"/>
<path d="M96.6099 89.9952C96.6099 90.3179 96.4099 90.6879 96.1499 90.8208C95.8999 90.9631 95.6899 90.8113 95.6899 90.4887C95.6899 90.166 95.8899 89.796 96.1499 89.6631C96.3999 89.5303 96.6099 89.6726 96.6099 89.9952Z" fill="#1E1E1E"/>
<path d="M96.56 90.1755C96.56 90.3748 96.43 90.6025 96.28 90.6879C96.12 90.7734 96 90.6784 96 90.4887C96 90.2989 96.13 90.0617 96.28 89.9763C96.44 89.8909 96.56 89.9763 96.56 90.1755Z" fill="#3D3D3D"/>
<path d="M115.12 104.105L95.3399 93.2689L89.4399 96.5045L109.22 107.341C110.63 108.109 113.1 108.015 114.73 107.123C116.35 106.231 116.52 104.874 115.12 104.105Z" fill="#B3B3C6"/>
<path d="M116.05 104.096H114.84V105.604H116.05V104.096Z" fill="#B3B3C6"/>
<path d="M115.12 102.967L95.3399 92.1302L89.4399 95.3659L109.22 106.202C110.63 106.971 113.1 106.876 114.73 105.984C116.35 105.092 116.52 103.735 115.12 102.967Z" fill="white"/>
<path d="M89.4399 95.3659V99.8731C89.4399 99.8731 90.8499 99.7213 92.2799 99.541C93.2499 99.4177 94.7899 99.4366 95.3299 99.7308C98.9399 101.714 109.22 107.341 109.22 107.341V106.202L89.4399 95.3659Z" fill="#B5B5C9"/>
<path d="M114.5 99.3418L115.17 98.9243L115.56 97.8235L114.13 98.5447L114.5 99.3418Z" fill="#CACADD"/>
<path d="M110.68 89.5872V93.9616C110.68 95.8309 111.89 98.0228 113.36 98.8294C114.84 99.6359 116.04 98.7725 116.04 96.9031V92.5288L110.68 89.5872Z" fill="#CACADD"/>
<path d="M109.97 90.0237V94.3981C109.97 96.2674 111.18 98.4593 112.65 99.2659C114.13 100.072 115.33 99.209 115.33 97.3396V92.9653L109.97 90.0237Z" fill="#B5B5C9"/>
<path d="M110.68 89.5872L109.97 90.0237L115.34 92.9653L116.05 92.5288L110.68 89.5872Z" fill="white"/>
<path d="M113.82 103.394L108.84 100.67V95.29L113.82 98.0133V103.394Z" fill="#B5B5C9"/>
<path d="M109.89 105.604L104.92 102.872V97.4915L109.89 100.215V105.604Z" fill="#B5B5C9"/>
<path d="M113.82 98.0133L109.89 100.215L104.92 97.4914L108.84 95.29L113.82 98.0133Z" fill="#B3B3C6"/>
<path d="M109.97 98.336L95.53 90.4222V87.0821L109.97 94.9958V98.336Z" fill="#B5B5C9"/>
<path d="M117.59 90.8207L109.97 94.9959V98.336L117.59 94.1609V90.8207Z" fill="#CACADD"/>
<path d="M129.29 90.0332L120.77 85.1654L121.71 83.7041C121.71 83.7041 127.48 84.8807 128.33 86.0289C130.03 88.2967 129.29 90.0332 129.29 90.0332Z" fill="#B5B5C9"/>
<path d="M125.65 86.4464L102.93 74.0349L96.1299 87.9551L118.65 100.272L125.65 86.4464Z" fill="#1E1E1E"/>
<path d="M127.32 90.4032C127.3 94.1229 124.95 98.3929 122.05 99.968C119.13 101.553 116.78 99.8731 116.78 96.182C116.78 92.5003 119.14 88.2113 122.05 86.6172C124.96 85.023 127.34 86.7215 127.32 90.4032Z" fill="#3D3D3D"/>
<path d="M124.46 87.1201C125.25 87.7179 125.74 88.8565 125.73 90.4032C125.71 93.601 123.69 97.2637 121.2 98.6206C120.31 99.1045 119.49 99.2279 118.79 99.0571C119.61 99.6833 120.77 99.7213 122.05 99.0286C124.54 97.6717 126.57 94.009 126.58 90.8112C126.59 88.7616 125.73 87.4427 124.46 87.1201Z" fill="#1E1E1E"/>
<path d="M121.19 98.6301C123.68 97.2732 125.71 93.6105 125.72 90.4127C125.73 88.866 125.24 87.7274 124.45 87.1296C123.75 86.9588 122.92 87.0821 122.04 87.5661C119.54 88.9419 117.51 92.6142 117.51 95.7834C117.51 97.3301 118 98.4688 118.79 99.0666C119.48 99.2279 120.31 99.1046 121.19 98.6301Z" fill="#383842"/>
<path d="M121.62 88.8186C121.52 88.8755 121.43 88.9324 121.33 88.9989L122.94 89.8813L120.25 96.2863L118.25 95.2046C118.36 97.3775 119.82 98.3454 121.61 97.3586C123.47 96.3338 124.98 93.601 124.98 91.2382C124.99 88.885 123.48 87.8033 121.62 88.8186Z" fill="#CACADD"/>
<path d="M123.21 89.739L121.54 88.866C119.72 89.8908 118.25 92.709 118.25 95.1192C118.25 95.2141 118.25 95.4798 118.29 95.6221L120.05 96.4761L123.21 89.739Z" fill="#1E1E1E"/>
<path d="M124.21 91.7412C124.21 93.5061 123.07 95.5557 121.67 96.3243C120.27 97.0929 119.07 96.2389 119.08 94.474C119.08 92.7091 120.22 90.6595 121.62 89.8909C123.02 89.1223 124.21 89.9858 124.21 91.7412Z" fill="#3D3D3D"/>
<path d="M122.85 90.147C123.23 90.4317 123.47 90.9821 123.47 91.7222C123.47 93.2404 122.5 95.0054 121.29 95.6696C120.83 95.9163 120.41 95.9732 120.06 95.8593C120.46 96.163 121.01 96.1725 121.62 95.8404C122.82 95.1856 123.8 93.4112 123.8 91.893C123.79 90.9536 123.42 90.3273 122.85 90.147Z" fill="#B5B5C9"/>
<path d="M121.29 95.6696C122.49 95.0148 123.47 93.2404 123.47 91.7222C123.47 90.9726 123.23 90.4317 122.85 90.147C122.5 90.0331 122.08 90.0901 121.62 90.3368C120.42 90.9915 119.44 92.7659 119.44 94.2842C119.44 95.0338 119.68 95.5747 120.06 95.8593C120.41 95.9732 120.83 95.9163 121.29 95.6696Z" fill="#CACADD"/>
<path d="M104.86 78.1341C104.84 81.8538 102.49 86.1238 99.5898 87.6989C96.6698 89.2836 94.3198 87.604 94.3198 83.9128C94.3198 80.2311 96.6798 75.9422 99.5898 74.348C102.5 72.7539 104.88 74.4524 104.86 78.1341Z" fill="#1E1E1E"/>
<path d="M92.8899 83.7041L116.77 96.8936C116.77 96.8936 118.45 90.1565 121.29 87.8982C124.31 85.4785 128.34 85.5924 128.34 85.5924L104.28 72.2984C104.28 72.2984 99.5899 71.8525 96.1399 76.1699C94.2299 78.5421 92.8899 83.7041 92.8899 83.7041Z" fill="#CACADD"/>
<path d="M117.65 96.4097C117.78 92.8134 120.33 88.6004 123.47 86.8829C126.61 85.1654 129.15 86.5792 129.29 90.0332L130.17 89.5492C130.04 85.5449 127.09 83.8939 123.47 85.877C119.85 87.8602 116.9 92.7375 116.77 96.8936L117.65 96.4097Z" fill="white"/>
<path d="M93.7699 83.2201C93.8999 79.6239 96.4499 75.4108 99.5899 73.6933C102.72 71.9758 105.27 73.3897 105.41 76.8436L106.29 76.3597C106.16 72.3554 103.21 70.7043 99.5899 72.6875C95.9699 74.6706 93.0199 79.5479 92.8899 83.7041L93.7699 83.2201Z" fill="#CACADD"/>
<path d="M122.98 92.1682C122.98 93.2404 122.29 94.4835 121.45 94.9484C120.6 95.4134 119.92 94.92 119.92 93.8477C119.92 92.7755 120.61 91.5324 121.45 91.0675C122.3 90.6025 122.98 91.096 122.98 92.1682Z" fill="white"/>
<path d="M122.18 92.6046C122.18 93.117 121.85 93.7148 121.45 93.9331C121.05 94.1513 120.72 93.9236 120.72 93.4112C120.72 92.8988 121.05 92.301 121.45 92.0828C121.86 91.855 122.18 92.0922 122.18 92.6046Z" fill="#4981C4"/>
<path d="M115 94.8346L95.03 83.78C94.75 83.6282 94.54 83.3245 94.57 83.1063L94.58 82.9924C94.61 82.7837 94.86 82.7362 95.14 82.888L115.11 93.9426C115.39 94.0944 115.6 94.3981 115.57 94.6163L115.56 94.7302C115.54 94.9484 115.29 94.9864 115 94.8346Z" fill="#B5B5C9"/>
<path d="M107.78 103.061L108.46 102.644L108.84 101.543L107.41 102.264L107.78 103.061Z" fill="#CACADD"/>
<path d="M103.96 93.3068V97.6812C103.96 99.5505 105.17 101.742 106.64 102.549C108.12 103.356 109.32 102.492 109.32 100.623V96.2484L103.96 93.3068Z" fill="#CACADD"/>
<path d="M103.26 93.7433V98.1177C103.26 99.987 104.47 102.179 105.94 102.985C107.42 103.792 108.62 102.929 108.62 101.059V96.6848L103.26 93.7433Z" fill="#B3B3C6"/>
<path d="M103.96 93.3068L103.26 93.7433L108.62 96.6849L109.33 96.2484L103.96 93.3068Z" fill="white"/>
<path d="M113.82 103.394L109.89 105.604V100.215L113.82 98.0133V103.394Z" fill="#CACADD"/>
<path d="M105 100.575C105 101.173 105.38 101.856 105.85 102.112C106.32 102.369 106.7 102.094 106.7 101.505C106.7 100.907 106.32 100.224 105.85 99.968C105.38 99.7118 105 99.987 105 100.575Z" fill="#1E1E1E"/>
<path d="M105.09 100.907C105.09 101.277 105.32 101.695 105.61 101.856C105.9 102.018 106.13 101.847 106.13 101.477C106.13 101.107 105.9 100.689 105.61 100.528C105.32 100.376 105.09 100.547 105.09 100.907Z" fill="#3D3D3D"/>
<path d="M105.28 101.059C105.28 101.24 105.4 101.458 105.54 101.534C105.69 101.61 105.8 101.524 105.8 101.344C105.8 101.164 105.68 100.945 105.54 100.869C105.4 100.794 105.28 100.869 105.28 101.059Z" fill="white"/>
<path d="M194.29 138.284C194.29 138.284 193.99 140.21 195.07 140.4C196.15 140.59 197.25 137.573 197.25 137.573L194.29 138.284Z" fill="#222228"/>
<path d="M202.44 145.553C202.44 145.553 205.05 144.262 207.78 145.695C210.51 147.128 212.43 150.496 213.6 152.499C214.3 153.694 215.24 154.292 215.09 155.525C214.93 156.835 214.61 159.179 213.9 160.393C212.32 163.098 210.58 167.757 210.58 167.757L206.14 166.049L202.44 145.553Z" fill="#222228"/>
<path d="M194.4 220.325C194.4 220.325 189.92 218.427 187.71 218.342C185.5 218.247 185.28 220.724 187.71 222.631C190.14 224.548 192 224.804 193.99 225.572C195.78 226.275 196.42 226.322 197.85 225.449C199.76 224.273 198.23 221.17 198.23 221.17L194.4 220.325Z" fill="#222228"/>
<path d="M207.34 213.047C207.34 213.047 203.78 211.633 201.57 211.548C199.36 211.453 198.56 213.275 200.99 215.192C203.42 217.108 204.94 217.526 206.93 218.304C208.72 219.006 209.36 219.044 210.79 218.181C212.75 217.004 211.22 213.901 211.17 213.901L207.34 213.047Z" fill="#222228"/>
<path d="M194.11 171.201C194.11 171.201 190.2 191.232 190.2 197.523C190.2 208.616 190.3 220.297 190.3 220.297C190.3 220.297 192.24 222.223 194.12 222.232C198.36 222.242 198.79 220.221 198.79 220.221C198.79 220.221 198.85 207.003 199.22 200.996C199.48 196.821 199.73 190.938 201.5 186.08C201.55 191.061 201.54 192.665 201.97 198.093C202.29 202.097 204.05 212.848 204.14 213.55C205.48 215.087 209.66 216.16 211.77 213.901C211.6 212.136 210.43 199.715 210.58 193.272C210.72 187.361 212.31 173.346 208.75 170.622C205.68 168.25 194.11 171.201 194.11 171.201Z" fill="#2B2B33"/>
<path d="M199.13 133.568C201.84 133.084 204.79 133.065 205.77 136.823C206.54 139.774 204.66 142.412 204.5 145.135C204.37 147.327 205.15 148.599 205.15 148.599C205.15 148.599 205.15 148.599 203.17 149.377C201.19 150.155 199.12 149.377 199.12 149.377L199.18 146.027C199.18 146.027 197.04 145.724 196.67 145.401C195.77 144.623 194.91 142.45 195.11 139.423C195.37 135.2 197.23 133.91 199.13 133.568Z" fill="#FFC3B1"/>
<path d="M192.38 158.552C191.21 156.18 191.88 153.922 192.63 152.375C193.38 150.828 199.11 148.912 199.11 148.912C199.11 148.912 202.72 147.972 204.28 146.094C205.37 145.704 209.76 145.923 210.87 152.717C211.22 154.89 210.94 162.006 210.81 167.548C210.72 171.296 210.99 176.695 211.25 179.105C208.71 181.591 202.39 183.385 199.14 182.559C197.2 182.066 193.68 181.231 192.38 179.722C192.23 178.308 192.74 174.94 193.45 170.262C193.92 167.178 193.33 160.469 192.38 158.552Z" fill="#383842"/>
<path d="M196.96 149.747C196.96 149.747 200.73 150.297 203.16 149.386C205.36 148.561 205.96 146.511 205.96 146.511C205.96 146.511 204.91 145.306 204.49 145.41C202.95 145.809 200.19 147.118 198.75 148.029C197.03 149.13 196.96 149.747 196.96 149.747Z" fill="#222228"/>
<path d="M190.71 173.943C190.71 173.943 190.97 175.338 191.65 176.24C192.11 176.838 192.99 177.454 192.99 177.454C192.99 177.454 192.16 177.654 191.83 178.498C191.51 179.343 192.05 179.39 192.78 179.077C193.51 178.764 195.45 177.929 195.69 177.16C195.93 176.392 194.42 173.877 193.53 172.501C192.65 171.116 190.71 173.943 190.71 173.943Z" fill="#FFC3B1"/>
<path d="M194.33 151.673C192.88 150.895 190.18 154.026 188.76 156.854C187.63 159.093 185.87 162.936 184.7 164.768C184.02 165.83 183.65 166.922 184.1 168.079C184.4 168.857 185.14 169.93 185.77 170.584C187.49 172.349 190.38 175.443 190.38 175.443C190.38 175.443 192.5 176.221 193.83 174.655C194.78 173.535 194.24 171.011 194.24 171.011L190.38 166.163C190.38 166.163 195.1 163.525 196.2 158.078C197.02 154.007 196.2 152.669 194.33 151.673Z" fill="#222228"/>
<path d="M199.92 140.988C199.8 140.41 199.58 139.945 199.02 139.736C198.06 139.366 195.06 138.588 195.06 138.588L195.09 139.432C195.09 139.432 197.9 139.983 198.74 140.41C199.34 140.713 199.21 142.013 199.61 142.013C200.01 142.013 200.08 141.757 199.92 140.988Z" fill="#222228"/>
<path d="M60.9699 167.491C60.7999 167.491 60.6399 167.415 60.5399 167.263C60.3999 167.036 60.4699 166.751 60.7099 166.609L63.2699 165.128C63.4999 164.995 63.8099 165.062 63.9599 165.29C64.0999 165.517 64.0299 165.802 63.7899 165.944L61.2299 167.425C61.1499 167.463 61.0599 167.491 60.9699 167.491ZM60.1299 166.058C59.8499 166.058 59.6299 165.849 59.6299 165.584V162.737C59.6299 162.471 59.8499 162.263 60.1299 162.263C60.4099 162.263 60.6299 162.471 60.6299 162.737V165.584C60.6299 165.849 60.4099 166.058 60.1299 166.058ZM66.0899 164.521C65.9199 164.521 65.7599 164.445 65.6599 164.293C65.5199 164.065 65.5899 163.781 65.8299 163.638L68.3899 162.149C68.6199 162.016 68.9299 162.082 69.0799 162.31C69.2199 162.538 69.1499 162.822 68.9099 162.965L66.3499 164.455C66.2699 164.492 66.1799 164.521 66.0899 164.521ZM71.2099 161.551C71.0399 161.551 70.8799 161.475 70.7799 161.323C70.6399 161.095 70.7099 160.811 70.9499 160.668L73.5099 159.179C73.7399 159.046 74.0499 159.112 74.1999 159.34C74.3399 159.568 74.2699 159.852 74.0299 159.995L71.4699 161.485C71.3899 161.522 71.2999 161.551 71.2099 161.551ZM60.1299 160.365C59.8499 160.365 59.6299 160.156 59.6299 159.89V157.044C59.6299 156.778 59.8499 156.569 60.1299 156.569C60.4099 156.569 60.6299 156.778 60.6299 157.044V159.89C60.6299 160.156 60.4099 160.365 60.1299 160.365ZM60.1299 154.671C59.8499 154.671 59.6299 154.463 59.6299 154.197V151.35C59.6299 151.085 59.8499 150.876 60.1299 150.876C60.4099 150.876 60.6299 151.085 60.6299 151.35V154.197C60.6299 154.463 60.4099 154.671 60.1299 154.671ZM60.1299 148.978C59.8499 148.978 59.6299 148.769 59.6299 148.504V145.657C59.6299 145.391 59.8499 145.183 60.1299 145.183C60.4099 145.183 60.6299 145.391 60.6299 145.657V148.504C60.6299 148.769 60.4099 148.978 60.1299 148.978ZM60.1299 143.285C59.8499 143.285 59.6299 143.076 59.6299 142.81V139.964C59.6299 139.698 59.8499 139.489 60.1299 139.489C60.4099 139.489 60.6299 139.698 60.6299 139.964V142.81C60.6299 143.076 60.4099 143.285 60.1299 143.285ZM60.1299 137.591C59.8499 137.591 59.6299 137.383 59.6299 137.117V134.27C59.6299 134.005 59.8499 133.796 60.1299 133.796C60.4099 133.796 60.6299 134.005 60.6299 134.27V137.117C60.6299 137.383 60.4099 137.591 60.1299 137.591ZM60.1299 131.898C59.8499 131.898 59.6299 131.689 59.6299 131.424V128.577C59.6299 128.311 59.8499 128.103 60.1299 128.103C60.4099 128.103 60.6299 128.311 60.6299 128.577V131.424C60.6299 131.689 60.4099 131.898 60.1299 131.898Z" fill="#DDDDDD"/>
<path d="M174.06 138.749C173.89 138.749 173.73 138.664 173.63 138.521C173.49 138.294 173.56 138.009 173.8 137.867L176.36 136.377C176.59 136.244 176.9 136.31 177.05 136.538C177.19 136.766 177.12 137.051 176.88 137.193L174.32 138.683C174.24 138.73 174.15 138.749 174.06 138.749ZM179.18 135.779C179.01 135.779 178.85 135.703 178.75 135.551C178.61 135.324 178.68 135.039 178.92 134.897L181.48 133.407C181.71 133.274 182.02 133.34 182.17 133.568C182.31 133.796 182.24 134.081 182 134.223L179.44 135.713C179.36 135.76 179.27 135.779 179.18 135.779ZM184.3 132.809C184.13 132.809 183.97 132.733 183.87 132.581C183.73 132.354 183.8 132.069 184.04 131.927L186.6 130.437C186.83 130.304 187.14 130.37 187.29 130.598C187.43 130.826 187.36 131.111 187.12 131.253L184.56 132.743C184.48 132.79 184.39 132.809 184.3 132.809ZM187.27 128.7C186.99 128.7 186.77 128.492 186.77 128.226V125.379C186.77 125.114 186.99 124.905 187.27 124.905C187.55 124.905 187.77 125.114 187.77 125.379V128.226C187.77 128.482 187.55 128.7 187.27 128.7ZM187.27 123.007C186.99 123.007 186.77 122.798 186.77 122.533V119.686C186.77 119.42 186.99 119.212 187.27 119.212C187.55 119.212 187.77 119.42 187.77 119.686V122.533C187.77 122.789 187.55 123.007 187.27 123.007ZM187.27 117.314C186.99 117.314 186.77 117.105 186.77 116.839V113.993C186.77 113.727 186.99 113.518 187.27 113.518C187.55 113.518 187.77 113.727 187.77 113.993V116.839C187.77 117.096 187.55 117.314 187.27 117.314ZM187.27 111.62C186.99 111.62 186.77 111.412 186.77 111.146V108.299C186.77 108.034 186.99 107.825 187.27 107.825C187.55 107.825 187.77 108.034 187.77 108.299V111.146C187.77 111.402 187.55 111.62 187.27 111.62Z" fill="#DDDDDD"/>
<defs>
<linearGradient id="paint0_linear" x1="13" y1="20" x2="252.754" y2="31.0988" gradientUnits="userSpaceOnUse">
<stop stop-color="#6DD16B"/>
<stop offset="1" stop-color="#005322"/>
</linearGradient>
</defs>
</svg>
